<svg width="305" height="142" viewBox="0 0 305 142" fill="none" xmlns="http://www.w3.org/2000/svg">
<g filter="url(#filter0_d_76_2205)">
<path d="M50 5.66675C50 2.90532 52.2386 0.666748 55 0.666748H245C247.761 0.666748 250 2.90532 250 5.66675V21.6667H50V5.66675Z" fill="#1C0019" shape-rendering="crispEdges"/>
<path d="M91.3212 9.10675C91.3212 9.44008 91.2512 9.72675 91.1112 9.96675C90.9712 10.2067 90.7845 10.4067 90.5512 10.5667C90.3178 10.7201 90.0545 10.8334 89.7612 10.9067V10.9367C90.3345 11.0034 90.7712 11.1767 91.0712 11.4567C91.3778 11.7367 91.5312 12.1201 91.5312 12.6067C91.5312 13.0067 91.4278 13.3734 91.2212 13.7067C91.0145 14.0334 90.6945 14.2934 90.2612 14.4867C89.8345 14.6734 89.2812 14.7667 88.6012 14.7667C88.1812 14.7667 87.8045 14.7334 87.4712 14.6667C87.1378 14.6001 86.8178 14.5034 86.5112 14.3767V12.9467C86.8245 13.1067 87.1445 13.2267 87.4712 13.3067C87.8045 13.3801 88.1112 13.4167 88.3912 13.4167C88.8978 13.4167 89.2478 13.3367 89.4412 13.1767C89.6412 13.0167 89.7412 12.7901 89.7412 12.4967C89.7412 12.3167 89.6945 12.1634 89.6012 12.0367C89.5078 11.9101 89.3445 11.8134 89.1112 11.7467C88.8778 11.6801 88.5445 11.6467 88.1112 11.6467H87.6212V10.3567H88.1212C88.5278 10.3567 88.8412 10.3201 89.0612 10.2467C89.2878 10.1734 89.4445 10.0734 89.5312 9.94675C89.6178 9.81341 89.6612 9.66341 89.6612 9.49675C89.6612 9.27008 89.5845 9.09675 89.4312 8.97675C89.2778 8.85675 89.0478 8.79675 88.7412 8.79675C88.5212 8.79675 88.3178 8.82675 88.1312 8.88675C87.9445 8.94675 87.7778 9.01341 87.6312 9.08675C87.4845 9.16008 87.3645 9.22675 87.2712 9.28675L86.5212 8.13675C86.7145 8.00341 86.9245 7.88341 87.1512 7.77675C87.3845 7.66341 87.6445 7.57675 87.9312 7.51675C88.2245 7.45675 88.5612 7.42675 88.9412 7.42675C89.6745 7.42675 90.2545 7.57675 90.6812 7.87675C91.1078 8.17008 91.3212 8.58008 91.3212 9.10675ZM101.18 9.17675V13.4267H101.99V16.6567H100.49V14.6667H96.9501V16.6567H95.4601V13.4267H95.9301C96.1501 13.0801 96.3401 12.6801 96.5001 12.2267C96.6601 11.7667 96.7901 11.2767 96.8901 10.7567C96.9901 10.2367 97.0634 9.71008 97.1101 9.17675H101.18ZM98.4701 10.4367C98.4167 10.7967 98.3534 11.1467 98.2801 11.4867C98.2134 11.8201 98.1267 12.1467 98.0201 12.4667C97.9201 12.7867 97.8001 13.1067 97.6601 13.4267H99.4901V10.4367H98.4701ZM104.927 9.17675V11.2267H106.747V9.17675H108.427V14.6667H106.747V12.4767H104.927V14.6667H103.237V9.17675H104.927ZM111.288 14.6667H109.488L110.938 12.5367C110.765 12.4501 110.598 12.3367 110.438 12.1967C110.285 12.0501 110.161 11.8701 110.068 11.6567C109.981 11.4434 109.938 11.1901 109.938 10.8967C109.938 10.3367 110.148 9.91008 110.568 9.61675C110.988 9.32341 111.545 9.17675 112.238 9.17675H114.828V14.6667H113.148V12.6867H112.448L111.288 14.6667ZM111.598 10.9367C111.598 11.1167 111.668 11.2701 111.808 11.3967C111.955 11.5167 112.168 11.5767 112.448 11.5767H113.148V10.3167H112.338C112.085 10.3167 111.898 10.3801 111.778 10.5067C111.658 10.6267 111.598 10.7701 111.598 10.9367ZM124.762 9.17675V14.6667H123.072V10.4367H121.352V14.6667H119.662V9.17675H124.762ZM129.805 9.07675C130.418 9.07675 130.908 9.32008 131.275 9.80675C131.641 10.2867 131.825 10.9867 131.825 11.9067C131.825 12.5334 131.735 13.0601 131.555 13.4867C131.375 13.9134 131.128 14.2334 130.815 14.4467C130.508 14.6601 130.155 14.7667 129.755 14.7667C129.495 14.7667 129.271 14.7334 129.085 14.6667C128.905 14.6001 128.748 14.5167 128.615 14.4167C128.488 14.3101 128.381 14.2034 128.295 14.0967H128.225C128.245 14.2234 128.261 14.3567 128.275 14.4967C128.288 14.6367 128.295 14.7867 128.295 14.9467V17.0667H126.605V9.17675H127.975L128.215 9.87675H128.295C128.388 9.73008 128.501 9.59675 128.635 9.47675C128.775 9.35675 128.941 9.26008 129.135 9.18675C129.328 9.11341 129.551 9.07675 129.805 9.07675ZM129.215 10.4067C128.988 10.4067 128.808 10.4567 128.675 10.5567C128.548 10.6567 128.455 10.8067 128.395 11.0067C128.335 11.2001 128.301 11.4467 128.295 11.7467V11.8967C128.295 12.2234 128.321 12.5001 128.375 12.7267C128.435 12.9467 128.531 13.1167 128.665 13.2367C128.805 13.3501 128.995 13.4067 129.235 13.4067C129.428 13.4067 129.588 13.3534 129.715 13.2467C129.848 13.1334 129.945 12.9634 130.005 12.7367C130.071 12.5101 130.105 12.2267 130.105 11.8867C130.105 11.3734 130.031 11.0001 129.885 10.7667C129.738 10.5267 129.515 10.4067 129.215 10.4067ZM138.492 11.9067C138.492 12.3667 138.428 12.7734 138.302 13.1267C138.182 13.4801 138.002 13.7801 137.762 14.0267C137.528 14.2734 137.245 14.4601 136.912 14.5867C136.585 14.7067 136.208 14.7667 135.782 14.7667C135.395 14.7667 135.035 14.7067 134.702 14.5867C134.375 14.4601 134.092 14.2767 133.852 14.0367C133.618 13.7901 133.435 13.4901 133.302 13.1367C133.168 12.7767 133.102 12.3667 133.102 11.9067C133.102 11.3001 133.208 10.7867 133.422 10.3667C133.642 9.94675 133.955 9.62675 134.362 9.40675C134.768 9.18675 135.252 9.07675 135.812 9.07675C136.338 9.07675 136.802 9.18675 137.202 9.40675C137.602 9.62675 137.915 9.94675 138.142 10.3667C138.375 10.7867 138.492 11.3001 138.492 11.9067ZM134.812 11.9067C134.812 12.2467 134.845 12.5334 134.912 12.7667C134.978 13.0001 135.085 13.1767 135.232 13.2967C135.378 13.4101 135.568 13.4667 135.802 13.4667C136.042 13.4667 136.232 13.4101 136.372 13.2967C136.512 13.1767 136.615 13.0001 136.682 12.7667C136.748 12.5334 136.782 12.2467 136.782 11.9067C136.782 11.5667 136.748 11.2834 136.682 11.0567C136.615 10.8301 136.508 10.6601 136.362 10.5467C136.222 10.4334 136.032 10.3767 135.792 10.3767C135.452 10.3767 135.202 10.5067 135.042 10.7667C134.888 11.0201 134.812 11.4001 134.812 11.9067ZM139.771 11.3767C139.771 10.5767 139.871 9.89341 140.071 9.32675C140.278 8.75341 140.615 8.29675 141.081 7.95675C141.548 7.61008 142.171 7.37675 142.951 7.25675C143.278 7.20341 143.621 7.15675 143.981 7.11675C144.341 7.07675 144.705 7.03675 145.071 6.99675L145.251 8.42675C145.085 8.44675 144.905 8.46675 144.711 8.48675C144.518 8.50675 144.321 8.52675 144.121 8.54675C143.921 8.56675 143.731 8.59008 143.551 8.61675C143.371 8.63675 143.205 8.65675 143.051 8.67675C142.758 8.71675 142.511 8.77675 142.311 8.85675C142.118 8.93008 141.961 9.03008 141.841 9.15675C141.721 9.28341 141.631 9.44675 141.571 9.64675C141.518 9.84008 141.481 10.0767 141.461 10.3567H141.541C141.615 10.2367 141.718 10.1134 141.851 9.98675C141.991 9.86008 142.165 9.75675 142.371 9.67675C142.578 9.59008 142.818 9.54675 143.091 9.54675C143.518 9.54675 143.891 9.63341 144.211 9.80675C144.531 9.97341 144.781 10.2334 144.961 10.5867C145.141 10.9401 145.231 11.3867 145.231 11.9267C145.231 12.5534 145.115 13.0801 144.881 13.5067C144.655 13.9267 144.335 14.2434 143.921 14.4567C143.508 14.6634 143.031 14.7667 142.491 14.7667C142.078 14.7667 141.705 14.6934 141.371 14.5467C141.038 14.4001 140.751 14.1834 140.511 13.8967C140.271 13.6034 140.088 13.2467 139.961 12.8267C139.835 12.4067 139.771 11.9234 139.771 11.3767ZM142.581 13.4567C142.775 13.4567 142.938 13.4134 143.071 13.3267C143.211 13.2401 143.321 13.0967 143.401 12.8967C143.481 12.6967 143.521 12.4301 143.521 12.0967C143.521 11.7034 143.458 11.3834 143.331 11.1367C143.211 10.8901 142.991 10.7667 142.671 10.7667C142.485 10.7667 142.308 10.8134 142.141 10.9067C141.981 11.0001 141.841 11.1067 141.721 11.2267C141.608 11.3467 141.528 11.4501 141.481 11.5367C141.481 11.7701 141.501 12.0034 141.541 12.2367C141.581 12.4634 141.641 12.6701 141.721 12.8567C141.808 13.0367 141.921 13.1834 142.061 13.2967C142.208 13.4034 142.381 13.4567 142.581 13.4567ZM148.499 9.17675V11.2267H150.319V9.17675H151.999V14.6667H150.319V12.4767H148.499V14.6667H146.809V9.17675H148.499ZM153.84 14.6667V9.17675H155.53V11.2267H156.21C156.776 11.2267 157.233 11.2901 157.58 11.4167C157.926 11.5434 158.18 11.7301 158.34 11.9767C158.5 12.2167 158.58 12.5167 158.58 12.8767C158.58 13.2367 158.5 13.5534 158.34 13.8267C158.18 14.0934 157.92 14.3001 157.56 14.4467C157.206 14.5934 156.73 14.6667 156.13 14.6667H153.84ZM156.05 13.5367C156.31 13.5367 156.513 13.4901 156.66 13.3967C156.813 13.2967 156.89 13.1434 156.89 12.9367C156.89 12.7367 156.823 12.5901 156.69 12.4967C156.556 12.4034 156.336 12.3567 156.03 12.3567H155.53V13.5367H156.05ZM159.29 14.6667V9.17675H160.97V14.6667H159.29ZM168.114 6.80675C168.074 7.16008 167.97 7.47341 167.804 7.74675C167.644 8.02008 167.394 8.23341 167.054 8.38675C166.714 8.53341 166.26 8.60675 165.694 8.60675C165.14 8.60675 164.694 8.53675 164.354 8.39675C164.02 8.25675 163.774 8.05341 163.614 7.78675C163.46 7.52008 163.37 7.19341 163.344 6.80675H164.794C164.82 7.16675 164.904 7.41008 165.044 7.53675C165.19 7.65675 165.414 7.71675 165.714 7.71675C165.967 7.71675 166.177 7.65341 166.344 7.52675C166.51 7.39341 166.607 7.15341 166.634 6.80675H168.114ZM164.394 11.3267C164.394 11.4401 164.39 11.5701 164.384 11.7167C164.377 11.8634 164.37 12.0134 164.364 12.1667C164.357 12.3134 164.347 12.4501 164.334 12.5767C164.32 12.6967 164.31 12.7934 164.304 12.8667L166.624 9.17675H168.554V14.6667H166.974V12.5667C166.974 12.3934 166.977 12.2067 166.984 12.0067C166.99 11.8001 167 11.6067 167.014 11.4267C167.034 11.2401 167.047 11.0867 167.054 10.9667L164.734 14.6667H162.814V9.17675H164.394V11.3267ZM178.489 9.17675V14.6667H176.799V10.4367H175.079V14.6667H173.389V9.17675H178.489ZM182.702 9.07675C183.222 9.07675 183.669 9.17341 184.042 9.36675C184.422 9.55341 184.712 9.83341 184.912 10.2067C185.119 10.5734 185.222 11.0301 185.222 11.5767V12.3567H181.752C181.765 12.7167 181.882 13.0034 182.102 13.2167C182.322 13.4301 182.635 13.5367 183.042 13.5367C183.395 13.5367 183.715 13.5034 184.002 13.4367C184.289 13.3701 184.585 13.2634 184.892 13.1167V14.3667C184.625 14.5067 184.339 14.6067 184.032 14.6667C183.725 14.7334 183.349 14.7667 182.902 14.7667C182.349 14.7667 181.855 14.6667 181.422 14.4667C180.995 14.2667 180.659 13.9601 180.412 13.5467C180.172 13.1267 180.052 12.5967 180.052 11.9567C180.052 11.3034 180.162 10.7667 180.382 10.3467C180.602 9.92008 180.912 9.60341 181.312 9.39675C181.712 9.18341 182.175 9.07675 182.702 9.07675ZM182.732 10.2467C182.472 10.2467 182.255 10.3301 182.082 10.4967C181.915 10.6567 181.815 10.9134 181.782 11.2667H183.672C183.672 11.0734 183.635 10.9001 183.562 10.7467C183.495 10.5934 183.392 10.4734 183.252 10.3867C183.112 10.2934 182.939 10.2467 182.732 10.2467ZM189.958 9.07675C190.571 9.07675 191.061 9.32008 191.428 9.80675C191.794 10.2867 191.978 10.9867 191.978 11.9067C191.978 12.5334 191.888 13.0601 191.708 13.4867C191.528 13.9134 191.281 14.2334 190.968 14.4467C190.661 14.6601 190.308 14.7667 189.908 14.7667C189.648 14.7667 189.424 14.7334 189.238 14.6667C189.058 14.6001 188.901 14.5167 188.768 14.4167C188.641 14.3101 188.534 14.2034 188.448 14.0967H188.378C188.398 14.2234 188.414 14.3567 188.428 14.4967C188.441 14.6367 188.448 14.7867 188.448 14.9467V17.0667H186.758V9.17675H188.128L188.368 9.87675H188.448C188.541 9.73008 188.654 9.59675 188.788 9.47675C188.928 9.35675 189.094 9.26008 189.288 9.18675C189.481 9.11341 189.704 9.07675 189.958 9.07675ZM189.368 10.4067C189.141 10.4067 188.961 10.4567 188.828 10.5567C188.701 10.6567 188.608 10.8067 188.548 11.0067C188.488 11.2001 188.454 11.4467 188.448 11.7467V11.8967C188.448 12.2234 188.474 12.5001 188.528 12.7267C188.588 12.9467 188.684 13.1167 188.818 13.2367C188.958 13.3501 189.148 13.4067 189.388 13.4067C189.581 13.4067 189.741 13.3534 189.868 13.2467C190.001 13.1334 190.098 12.9634 190.158 12.7367C190.224 12.5101 190.258 12.2267 190.258 11.8867C190.258 11.3734 190.184 11.0001 190.038 10.7667C189.891 10.5267 189.668 10.4067 189.368 10.4067ZM195.114 11.3267C195.114 11.4401 195.111 11.5701 195.104 11.7167C195.098 11.8634 195.091 12.0134 195.084 12.1667C195.078 12.3134 195.068 12.4501 195.054 12.5767C195.041 12.6967 195.031 12.7934 195.024 12.8667L197.344 9.17675H199.274V14.6667H197.694V12.5667C197.694 12.3934 197.698 12.2067 197.704 12.0067C197.711 11.8001 197.721 11.6067 197.734 11.4267C197.754 11.2401 197.768 11.0867 197.774 10.9667L195.454 14.6667H193.534V9.17675H195.114V11.3267ZM206.222 11.9067C206.222 12.3667 206.159 12.7734 206.032 13.1267C205.912 13.4801 205.732 13.7801 205.492 14.0267C205.259 14.2734 204.976 14.4601 204.642 14.5867C204.316 14.7067 203.939 14.7667 203.512 14.7667C203.126 14.7667 202.766 14.7067 202.432 14.5867C202.106 14.4601 201.822 14.2767 201.582 14.0367C201.349 13.7901 201.166 13.4901 201.032 13.1367C200.899 12.7767 200.832 12.3667 200.832 11.9067C200.832 11.3001 200.939 10.7867 201.152 10.3667C201.372 9.94675 201.686 9.62675 202.092 9.40675C202.499 9.18675 202.982 9.07675 203.542 9.07675C204.069 9.07675 204.532 9.18675 204.932 9.40675C205.332 9.62675 205.646 9.94675 205.872 10.3667C206.106 10.7867 206.222 11.3001 206.222 11.9067ZM202.542 11.9067C202.542 12.2467 202.576 12.5334 202.642 12.7667C202.709 13.0001 202.816 13.1767 202.962 13.2967C203.109 13.4101 203.299 13.4667 203.532 13.4667C203.772 13.4667 203.962 13.4101 204.102 13.2967C204.242 13.1767 204.346 13.0001 204.412 12.7667C204.479 12.5334 204.512 12.2467 204.512 11.9067C204.512 11.5667 204.479 11.2834 204.412 11.0567C204.346 10.8301 204.239 10.6601 204.092 10.5467C203.952 10.4334 203.762 10.3767 203.522 10.3767C203.182 10.3767 202.932 10.5067 202.772 10.7667C202.619 11.0201 202.542 11.4001 202.542 11.9067ZM212.912 9.17675V13.4267H213.722V16.6567H212.222V14.6667H208.682V16.6567H207.192V13.4267H207.662C207.882 13.0801 208.072 12.6801 208.232 12.2267C208.392 11.7667 208.522 11.2767 208.622 10.7567C208.722 10.2367 208.795 9.71008 208.842 9.17675H212.912ZM210.202 10.4367C210.148 10.7967 210.085 11.1467 210.012 11.4867C209.945 11.8201 209.858 12.1467 209.752 12.4667C209.652 12.7867 209.532 13.1067 209.392 13.4267H211.222V10.4367H210.202Z" fill="white"/>
</g>
<rect x="1" y="20.1667" width="298" height="113" rx="17" stroke="white" stroke-width="2"/>
<rect x="20" y="68.6667" width="16" height="16" rx="8" fill="#FFF0E8"/>
<rect x="24" y="72.6667" width="8" height="8" rx="4" fill="white"/>
<path d="M73.274 44.1667H64.13V42.0967L67.316 38.8747C67.964 38.2027 68.48 37.6507 68.864 37.2187C69.248 36.7867 69.518 36.4087 69.674 36.0847C69.842 35.7487 69.926 35.3947 69.926 35.0227C69.926 34.5667 69.794 34.2367 69.53 34.0327C69.266 33.8167 68.924 33.7087 68.504 33.7087C68.06 33.7087 67.616 33.8227 67.172 34.0507C66.728 34.2787 66.248 34.6087 65.732 35.0407L64.058 33.0787C64.43 32.7427 64.826 32.4307 65.246 32.1427C65.678 31.8427 66.176 31.6027 66.74 31.4227C67.304 31.2307 67.988 31.1347 68.792 31.1347C69.656 31.1347 70.394 31.2907 71.006 31.6027C71.63 31.9027 72.11 32.3167 72.446 32.8447C72.794 33.3607 72.968 33.9547 72.968 34.6267C72.968 35.1667 72.89 35.6707 72.734 36.1387C72.578 36.5947 72.344 37.0387 72.032 37.4707C71.732 37.8907 71.354 38.3287 70.898 38.7847C70.442 39.2407 69.926 39.7387 69.35 40.2787L68.018 41.5027V41.6107H73.274V44.1667ZM84.0223 41.5927H82.5463V44.1667H79.5403V41.5927H74.2123V39.3967L79.7203 31.3147H82.5463V39.2527H84.0223V41.5927ZM79.5403 37.3987C79.5403 37.2187 79.5403 37.0087 79.5403 36.7687C79.5523 36.5167 79.5583 36.2707 79.5583 36.0307C79.5703 35.7787 79.5823 35.5627 79.5943 35.3827C79.6063 35.1907 79.6183 35.0707 79.6303 35.0227H79.5403C79.4323 35.2747 79.3243 35.5027 79.2163 35.7067C79.1083 35.8987 78.9763 36.1147 78.8203 36.3547L76.8943 39.2527H79.5403V37.3987ZM94.0865 36.8767C94.0865 37.6927 94.0205 38.4727 93.8885 39.2167C93.7565 39.9607 93.5405 40.6447 93.2405 41.2687C92.9405 41.8927 92.5385 42.4387 92.0345 42.9067C91.5305 43.3627 90.9065 43.7167 90.1625 43.9687C89.4185 44.2207 88.5365 44.3467 87.5165 44.3467C87.2645 44.3467 86.9645 44.3347 86.6165 44.3107C86.2805 44.2987 85.9985 44.2747 85.7705 44.2387V41.7907C86.0105 41.8387 86.2565 41.8807 86.5085 41.9167C86.7725 41.9407 87.0545 41.9527 87.3545 41.9527C88.1225 41.9527 88.7525 41.8687 89.2445 41.7007C89.7485 41.5207 90.1445 41.2687 90.4325 40.9447C90.7205 40.6207 90.9305 40.2307 91.0625 39.7747C91.1945 39.3187 91.2725 38.8267 91.2965 38.2987H91.1885C91.0325 38.5747 90.8405 38.8267 90.6125 39.0547C90.3845 39.2827 90.0965 39.4627 89.7485 39.5947C89.4125 39.7267 88.9865 39.7927 88.4705 39.7927C87.7385 39.7927 87.1025 39.6307 86.5625 39.3067C86.0345 38.9827 85.6205 38.5147 85.3205 37.9027C85.0325 37.2787 84.8885 36.5287 84.8885 35.6527C84.8885 34.7047 85.0625 33.9007 85.4105 33.2407C85.7705 32.5687 86.2865 32.0527 86.9585 31.6927C87.6305 31.3327 88.4225 31.1527 89.3345 31.1527C90.0065 31.1527 90.6245 31.2667 91.1885 31.4947C91.7645 31.7227 92.2685 32.0707 92.7005 32.5387C93.1445 33.0067 93.4865 33.6007 93.7265 34.3207C93.9665 35.0407 94.0865 35.8927 94.0865 36.8767ZM89.4065 33.6007C88.9385 33.6007 88.5605 33.7627 88.2725 34.0867C87.9845 34.4107 87.8405 34.9207 87.8405 35.6167C87.8405 36.1807 87.9665 36.6247 88.2185 36.9487C88.4705 37.2727 88.8545 37.4347 89.3705 37.4347C89.7065 37.4347 89.9945 37.3567 90.2345 37.2007C90.4865 37.0327 90.6845 36.8287 90.8285 36.5887C90.9725 36.3367 91.0445 36.0787 91.0445 35.8147C91.0445 35.5627 91.0085 35.3047 90.9365 35.0407C90.8765 34.7647 90.7805 34.5187 90.6485 34.3027C90.5165 34.0867 90.3425 33.9187 90.1265 33.7987C89.9225 33.6667 89.6825 33.6007 89.4065 33.6007ZM105.582 44.1667V31.3147H109.848C111.492 31.3147 112.704 31.6627 113.484 32.3587C114.276 33.0427 114.672 34.0027 114.672 35.2387C114.672 35.9587 114.516 36.6367 114.204 37.2727C113.892 37.8967 113.376 38.4067 112.656 38.8027C111.936 39.1867 110.958 39.3787 109.722 39.3787H108.642V44.1667H105.582ZM104.25 42.6007V40.6927H111.18V42.6007H104.25ZM104.25 39.3787V36.8767H109.524V39.3787H104.25ZM109.416 36.8767C109.836 36.8767 110.202 36.8227 110.514 36.7147C110.838 36.5947 111.09 36.4207 111.27 36.1927C111.462 35.9527 111.558 35.6527 111.558 35.2927C111.558 34.8127 111.408 34.4467 111.108 34.1947C110.82 33.9427 110.364 33.8167 109.74 33.8167H108.642V36.8767H109.416ZM122.759 31.2247L117.971 44.2567H115.253L120.041 31.2247H122.759ZM136.813 34.2847V44.1667H134.059V39.3427C134.059 38.8627 134.065 38.3947 134.077 37.9387C134.101 37.4827 134.131 37.0627 134.167 36.6787H134.113L131.557 44.1667H129.397L126.823 36.6607H126.769C126.805 37.0567 126.829 37.4827 126.841 37.9387C126.865 38.3827 126.877 38.8747 126.877 39.4147V44.1667H124.123V34.2847H128.335L130.513 40.6567L132.727 34.2847H136.813ZM143.681 34.1047C144.617 34.1047 145.421 34.2787 146.093 34.6267C146.777 34.9627 147.299 35.4667 147.659 36.1387C148.031 36.7987 148.217 37.6207 148.217 38.6047V40.0087H141.971C141.995 40.6567 142.205 41.1727 142.601 41.5567C142.997 41.9407 143.561 42.1327 144.293 42.1327C144.929 42.1327 145.505 42.0727 146.021 41.9527C146.537 41.8327 147.071 41.6407 147.623 41.3767V43.6267C147.143 43.8787 146.627 44.0587 146.075 44.1667C145.523 44.2867 144.845 44.3467 144.041 44.3467C143.045 44.3467 142.157 44.1667 141.377 43.8067C140.609 43.4467 140.003 42.8947 139.559 42.1507C139.127 41.3947 138.911 40.4407 138.911 39.2887C138.911 38.1127 139.109 37.1467 139.505 36.3907C139.901 35.6227 140.459 35.0527 141.179 34.6807C141.899 34.2967 142.733 34.1047 143.681 34.1047ZM143.735 36.2107C143.267 36.2107 142.877 36.3607 142.565 36.6607C142.265 36.9487 142.085 37.4107 142.025 38.0467H145.427C145.427 37.6987 145.361 37.3867 145.229 37.1107C145.109 36.8347 144.923 36.6187 144.671 36.4627C144.419 36.2947 144.107 36.2107 143.735 36.2107ZM154.509 44.3467C153.525 44.3467 152.673 44.1727 151.953 43.8247C151.245 43.4647 150.699 42.9127 150.315 42.1687C149.943 41.4127 149.757 40.4467 149.757 39.2707C149.757 38.0707 149.967 37.0927 150.387 36.3367C150.819 35.5687 151.413 35.0047 152.169 34.6447C152.925 34.2847 153.789 34.1047 154.761 34.1047C155.409 34.1047 155.991 34.1707 156.507 34.3027C157.035 34.4347 157.503 34.6027 157.911 34.8067L157.029 37.0927C156.609 36.9247 156.219 36.7867 155.859 36.6787C155.499 36.5707 155.133 36.5167 154.761 36.5167C154.353 36.5167 154.005 36.6187 153.717 36.8227C153.429 37.0147 153.207 37.3147 153.051 37.7227C152.907 38.1307 152.835 38.6407 152.835 39.2527C152.835 39.8647 152.913 40.3687 153.069 40.7647C153.225 41.1487 153.447 41.4367 153.735 41.6287C154.023 41.8207 154.371 41.9167 154.779 41.9167C155.307 41.9167 155.799 41.8387 156.255 41.6827C156.723 41.5267 157.167 41.3167 157.587 41.0527V43.5367C157.179 43.8007 156.735 44.0047 156.255 44.1487C155.775 44.2807 155.193 44.3467 154.509 44.3467ZM159.339 42.8167C159.339 42.2287 159.501 41.8207 159.825 41.5927C160.161 41.3527 160.563 41.2327 161.031 41.2327C161.487 41.2327 161.877 41.3527 162.201 41.5927C162.525 41.8207 162.687 42.2287 162.687 42.8167C162.687 43.3687 162.525 43.7707 162.201 44.0227C161.877 44.2747 161.487 44.4007 161.031 44.4007C160.563 44.4007 160.161 44.2747 159.825 44.0227C159.501 43.7707 159.339 43.3687 159.339 42.8167Z" fill="white"/>
<path d="M181.26 43.1667H175.124V42.2177L177.555 39.7607C178.023 39.2927 178.417 38.8767 178.738 38.5127C179.059 38.1487 179.301 37.7934 179.466 37.4467C179.631 37.0914 179.713 36.7057 179.713 36.2897C179.713 35.7784 179.561 35.3927 179.258 35.1327C178.955 34.8641 178.56 34.7297 178.075 34.7297C177.624 34.7297 177.226 34.8077 176.879 34.9637C176.541 35.1197 176.194 35.3364 175.839 35.6137L175.228 34.8467C175.471 34.6387 175.735 34.4524 176.021 34.2877C176.316 34.1231 176.632 33.9931 176.97 33.8977C177.317 33.8024 177.685 33.7547 178.075 33.7547C178.656 33.7547 179.154 33.8544 179.57 34.0537C179.986 34.2531 180.307 34.5391 180.532 34.9117C180.766 35.2757 180.883 35.7134 180.883 36.2247C180.883 36.5887 180.827 36.9354 180.714 37.2647C180.601 37.5854 180.441 37.9017 180.233 38.2137C180.025 38.5257 179.774 38.8421 179.479 39.1627C179.184 39.4834 178.859 39.8171 178.504 40.1637L176.567 42.0747V42.1267H181.26V43.1667ZM192.076 37.8497C192.076 38.3784 192.037 38.9071 191.959 39.4357C191.89 39.9557 191.764 40.4497 191.582 40.9177C191.4 41.3771 191.149 41.7887 190.828 42.1527C190.508 42.5081 190.1 42.7897 189.606 42.9977C189.112 43.1971 188.514 43.2967 187.812 43.2967C187.639 43.2967 187.435 43.2837 187.201 43.2577C186.976 43.2404 186.79 43.2101 186.642 43.1667V42.1917C186.798 42.2437 186.98 42.2871 187.188 42.3217C187.396 42.3477 187.596 42.3607 187.786 42.3607C188.393 42.3607 188.891 42.2611 189.281 42.0617C189.68 41.8624 189.996 41.5937 190.23 41.2557C190.464 40.9091 190.633 40.5104 190.737 40.0597C190.841 39.6004 190.902 39.1194 190.919 38.6167H190.841C190.711 38.8161 190.547 38.9981 190.347 39.1627C190.148 39.3274 189.905 39.4574 189.619 39.5527C189.342 39.6481 189.013 39.6957 188.631 39.6957C188.103 39.6957 187.635 39.5874 187.227 39.3707C186.829 39.1454 186.517 38.8247 186.291 38.4087C186.075 37.9927 185.966 37.4857 185.966 36.8877C185.966 36.2377 186.088 35.6787 186.33 35.2107C186.582 34.7427 186.928 34.3831 187.37 34.1317C187.812 33.8804 188.332 33.7547 188.93 33.7547C189.372 33.7547 189.784 33.8414 190.165 34.0147C190.547 34.1794 190.88 34.4307 191.166 34.7687C191.452 35.1067 191.673 35.5314 191.829 36.0427C191.994 36.5541 192.076 37.1564 192.076 37.8497ZM188.93 34.7167C188.393 34.7167 187.951 34.8944 187.604 35.2497C187.266 35.6051 187.097 36.1467 187.097 36.8747C187.097 37.4727 187.24 37.9451 187.526 38.2917C187.821 38.6297 188.272 38.7987 188.878 38.7987C189.294 38.7987 189.654 38.7164 189.957 38.5517C190.261 38.3784 190.495 38.1617 190.659 37.9017C190.833 37.6417 190.919 37.3731 190.919 37.0957C190.919 36.8184 190.876 36.5411 190.789 36.2637C190.711 35.9777 190.59 35.7177 190.425 35.4837C190.261 35.2497 190.053 35.0634 189.801 34.9247C189.55 34.7861 189.26 34.7167 188.93 34.7167ZM196.461 33.7547C197.007 33.7547 197.488 33.8414 197.904 34.0147C198.32 34.1794 198.645 34.4264 198.879 34.7557C199.122 35.0851 199.243 35.4924 199.243 35.9777C199.243 36.3504 199.161 36.6754 198.996 36.9527C198.84 37.2301 198.628 37.4771 198.359 37.6937C198.09 37.9017 197.796 38.0881 197.475 38.2527C197.856 38.4347 198.203 38.6427 198.515 38.8767C198.827 39.1021 199.074 39.3664 199.256 39.6697C199.447 39.9731 199.542 40.3371 199.542 40.7617C199.542 41.2817 199.416 41.7324 199.165 42.1137C198.914 42.4864 198.558 42.7767 198.099 42.9847C197.648 43.1927 197.115 43.2967 196.5 43.2967C195.833 43.2967 195.265 43.1971 194.797 42.9977C194.338 42.7984 193.987 42.5167 193.744 42.1527C193.51 41.7801 193.393 41.3294 193.393 40.8007C193.393 40.3761 193.48 40.0077 193.653 39.6957C193.835 39.3837 194.073 39.1151 194.368 38.8897C194.663 38.6644 194.979 38.4737 195.317 38.3177C195.014 38.1444 194.736 37.9494 194.485 37.7327C194.242 37.5074 194.047 37.2517 193.9 36.9657C193.761 36.6797 193.692 36.3461 193.692 35.9647C193.692 35.4881 193.813 35.0894 194.056 34.7687C194.299 34.4394 194.628 34.1881 195.044 34.0147C195.46 33.8414 195.932 33.7547 196.461 33.7547ZM194.511 40.8137C194.511 41.2644 194.671 41.6414 194.992 41.9447C195.313 42.2394 195.807 42.3867 196.474 42.3867C196.899 42.3867 197.254 42.3174 197.54 42.1787C197.826 42.0401 198.043 41.8494 198.19 41.6067C198.346 41.3641 198.424 41.0867 198.424 40.7747C198.424 40.4714 198.342 40.2071 198.177 39.9817C198.021 39.7477 197.796 39.5397 197.501 39.3577C197.215 39.1757 196.873 39.0111 196.474 38.8637L196.266 38.7857C195.885 38.9504 195.564 39.1281 195.304 39.3187C195.044 39.5094 194.845 39.7261 194.706 39.9687C194.576 40.2114 194.511 40.4931 194.511 40.8137ZM196.448 34.6777C195.971 34.6777 195.577 34.7947 195.265 35.0287C194.962 35.2541 194.81 35.5834 194.81 36.0167C194.81 36.3374 194.884 36.6061 195.031 36.8227C195.187 37.0394 195.395 37.2257 195.655 37.3817C195.915 37.5291 196.201 37.6721 196.513 37.8107C196.816 37.6807 197.085 37.5377 197.319 37.3817C197.562 37.2257 197.752 37.0394 197.891 36.8227C198.038 36.5974 198.112 36.3287 198.112 36.0167C198.112 35.5834 197.96 35.2541 197.657 35.0287C197.354 34.7947 196.951 34.6777 196.448 34.6777ZM203.9 33.7547C204.446 33.7547 204.927 33.8414 205.343 34.0147C205.759 34.1794 206.084 34.4264 206.318 34.7557C206.561 35.0851 206.682 35.4924 206.682 35.9777C206.682 36.3504 206.6 36.6754 206.435 36.9527C206.279 37.2301 206.067 37.4771 205.798 37.6937C205.53 37.9017 205.235 38.0881 204.914 38.2527C205.296 38.4347 205.642 38.6427 205.954 38.8767C206.266 39.1021 206.513 39.3664 206.695 39.6697C206.886 39.9731 206.981 40.3371 206.981 40.7617C206.981 41.2817 206.856 41.7324 206.604 42.1137C206.353 42.4864 205.998 42.7767 205.538 42.9847C205.088 43.1927 204.555 43.2967 203.939 43.2967C203.272 43.2967 202.704 43.1971 202.236 42.9977C201.777 42.7984 201.426 42.5167 201.183 42.1527C200.949 41.7801 200.832 41.3294 200.832 40.8007C200.832 40.3761 200.919 40.0077 201.092 39.6957C201.274 39.3837 201.513 39.1151 201.807 38.8897C202.102 38.6644 202.418 38.4737 202.756 38.3177C202.453 38.1444 202.176 37.9494 201.924 37.7327C201.682 37.5074 201.487 37.2517 201.339 36.9657C201.201 36.6797 201.131 36.3461 201.131 35.9647C201.131 35.4881 201.253 35.0894 201.495 34.7687C201.738 34.4394 202.067 34.1881 202.483 34.0147C202.899 33.8414 203.372 33.7547 203.9 33.7547ZM201.95 40.8137C201.95 41.2644 202.111 41.6414 202.431 41.9447C202.752 42.2394 203.246 42.3867 203.913 42.3867C204.338 42.3867 204.693 42.3174 204.979 42.1787C205.265 42.0401 205.482 41.8494 205.629 41.6067C205.785 41.3641 205.863 41.0867 205.863 40.7747C205.863 40.4714 205.781 40.2071 205.616 39.9817C205.46 39.7477 205.235 39.5397 204.94 39.3577C204.654 39.1757 204.312 39.0111 203.913 38.8637L203.705 38.7857C203.324 38.9504 203.003 39.1281 202.743 39.3187C202.483 39.5094 202.284 39.7261 202.145 39.9687C202.015 40.2114 201.95 40.4931 201.95 40.8137ZM203.887 34.6777C203.411 34.6777 203.016 34.7947 202.704 35.0287C202.401 35.2541 202.249 35.5834 202.249 36.0167C202.249 36.3374 202.323 36.6061 202.47 36.8227C202.626 37.0394 202.834 37.2257 203.094 37.3817C203.354 37.5291 203.64 37.6721 203.952 37.8107C204.256 37.6807 204.524 37.5377 204.758 37.3817C205.001 37.2257 205.192 37.0394 205.33 36.8227C205.478 36.5974 205.551 36.3287 205.551 36.0167C205.551 35.5834 205.4 35.2541 205.096 35.0287C204.793 34.7947 204.39 34.6777 203.887 34.6777ZM215.65 43.1667V33.8847H218.094C219.229 33.8847 220.07 34.1144 220.616 34.5737C221.17 35.0331 221.448 35.7004 221.448 36.5757C221.448 37.1651 221.313 37.6721 221.045 38.0967C220.776 38.5127 220.377 38.8334 219.849 39.0587C219.329 39.2841 218.683 39.3967 217.912 39.3967H216.82V43.1667H215.65ZM214.519 41.3987V40.5537H218.965V41.3987H214.519ZM214.519 39.3967V38.4087H217.496V39.3967H214.519ZM217.743 38.4087C218.271 38.4087 218.718 38.3524 219.082 38.2397C219.454 38.1271 219.74 37.9407 219.94 37.6807C220.139 37.4207 220.239 37.0654 220.239 36.6147C220.239 36.0254 220.057 35.5877 219.693 35.3017C219.329 35.0157 218.761 34.8727 217.99 34.8727H216.82V38.4087H217.743ZM226.661 33.8847L223.203 43.1667H222.085L225.543 33.8847H226.661ZM232.148 36.1987V37.1607H229.041V43.1667H227.897V36.1987H232.148ZM239.452 39.6697C239.452 40.2504 239.374 40.7661 239.218 41.2167C239.071 41.6587 238.854 42.0357 238.568 42.3477C238.291 42.6597 237.948 42.8981 237.541 43.0627C237.142 43.2187 236.696 43.2967 236.202 43.2967C235.743 43.2967 235.318 43.2187 234.928 43.0627C234.538 42.8981 234.2 42.6597 233.914 42.3477C233.628 42.0357 233.403 41.6587 233.238 41.2167C233.082 40.7661 233.004 40.2504 233.004 39.6697C233.004 38.8984 233.134 38.2484 233.394 37.7197C233.654 37.1824 234.027 36.7751 234.512 36.4977C234.997 36.2117 235.574 36.0687 236.241 36.0687C236.874 36.0687 237.428 36.2117 237.905 36.4977C238.39 36.7751 238.767 37.1824 239.036 37.7197C239.313 38.2484 239.452 38.8984 239.452 39.6697ZM234.187 39.6697C234.187 40.2157 234.256 40.6924 234.395 41.0997C234.542 41.4984 234.768 41.8061 235.071 42.0227C235.374 42.2394 235.76 42.3477 236.228 42.3477C236.696 42.3477 237.082 42.2394 237.385 42.0227C237.688 41.8061 237.909 41.4984 238.048 41.0997C238.195 40.6924 238.269 40.2157 238.269 39.6697C238.269 39.1151 238.195 38.6427 238.048 38.2527C237.901 37.8627 237.675 37.5637 237.372 37.3557C237.077 37.1391 236.692 37.0307 236.215 37.0307C235.504 37.0307 234.989 37.2647 234.668 37.7327C234.347 38.2007 234.187 38.8464 234.187 39.6697ZM246.439 36.1987V42.2047H247.453V45.5847H246.348V43.1667H241.499V45.5847H240.407V42.2047H240.966C241.365 41.6501 241.694 41.0477 241.954 40.3977C242.223 39.7391 242.422 39.0544 242.552 38.3437C242.691 37.6244 242.764 36.9094 242.773 36.1987H246.439ZM243.787 37.0957C243.752 37.6851 243.661 38.2961 243.514 38.9287C243.367 39.5527 243.176 40.1507 242.942 40.7227C242.717 41.2947 242.452 41.7887 242.149 42.2047H245.334V37.0957H243.787Z" fill="white"/>
<path d="M62.3001 56.5167C62.3001 56.1967 62.3535 55.9401 62.4601 55.7467C62.5668 55.5467 62.7101 55.4034 62.8901 55.3167C63.0768 55.2301 63.2801 55.1867 63.5001 55.1867C63.7201 55.1867 63.9201 55.2301 64.1001 55.3167C64.2801 55.4034 64.4235 55.5467 64.5301 55.7467C64.6435 55.9401 64.7001 56.1967 64.7001 56.5167C64.7001 56.8301 64.6435 57.0867 64.5301 57.2867C64.4235 57.4801 64.2801 57.6234 64.1001 57.7167C63.9201 57.8034 63.7201 57.8467 63.5001 57.8467C63.2801 57.8467 63.0768 57.8034 62.8901 57.7167C62.7101 57.6234 62.5668 57.4801 62.4601 57.2867C62.3535 57.0867 62.3001 56.8301 62.3001 56.5167ZM79.0077 60.1667H74.8377V53.0267H79.0077V54.4067H76.5377V55.7767H78.8277V57.1567H76.5377V58.7667H79.0077V60.1667ZM88.9545 54.6767L87.0045 57.2967L89.1445 60.1667H87.3245L85.3345 57.3767V60.1667H83.7345V57.3767L81.7445 60.1667H79.9245L82.0645 57.2967L80.1145 54.6767H81.8945L83.7345 57.3367V54.6767H85.3345V57.3367L87.1745 54.6767H88.9545ZM92.4189 54.5767C92.9389 54.5767 93.3856 54.6734 93.7589 54.8667C94.1389 55.0534 94.4289 55.3334 94.6289 55.7067C94.8356 56.0734 94.9389 56.5301 94.9389 57.0767V57.8567H91.4689C91.4822 58.2167 91.5989 58.5034 91.8189 58.7167C92.0389 58.9301 92.3522 59.0367 92.7589 59.0367C93.1122 59.0367 93.4322 59.0034 93.7189 58.9367C94.0056 58.8701 94.3022 58.7634 94.6089 58.6167V59.8667C94.3422 60.0067 94.0556 60.1067 93.7489 60.1667C93.4422 60.2334 93.0656 60.2667 92.6189 60.2667C92.0656 60.2667 91.5722 60.1667 91.1389 59.9667C90.7122 59.7667 90.3756 59.4601 90.1289 59.0467C89.8889 58.6267 89.7689 58.0967 89.7689 57.4567C89.7689 56.8034 89.8789 56.2667 90.0989 55.8467C90.3189 55.4201 90.6289 55.1034 91.0289 54.8967C91.4289 54.6834 91.8922 54.5767 92.4189 54.5767ZM92.4489 55.7467C92.1889 55.7467 91.9722 55.8301 91.7989 55.9967C91.6322 56.1567 91.5322 56.4134 91.4989 56.7667H93.3889C93.3889 56.5734 93.3522 56.4001 93.2789 56.2467C93.2122 56.0934 93.1089 55.9734 92.9689 55.8867C92.8289 55.7934 92.6556 55.7467 92.4489 55.7467ZM100.404 54.6767V55.9367H98.1643V60.1667H96.4743V54.6767H100.404ZM106.779 57.4067C106.779 57.8667 106.716 58.2734 106.589 58.6267C106.469 58.9801 106.289 59.2801 106.049 59.5267C105.816 59.7734 105.533 59.9601 105.199 60.0867C104.873 60.2067 104.496 60.2667 104.069 60.2667C103.683 60.2667 103.323 60.2067 102.989 60.0867C102.663 59.9601 102.379 59.7767 102.139 59.5367C101.906 59.2901 101.723 58.9901 101.589 58.6367C101.456 58.2767 101.389 57.8667 101.389 57.4067C101.389 56.8001 101.496 56.2867 101.709 55.8667C101.929 55.4467 102.243 55.1267 102.649 54.9067C103.056 54.6867 103.539 54.5767 104.099 54.5767C104.626 54.5767 105.089 54.6867 105.489 54.9067C105.889 55.1267 106.203 55.4467 106.429 55.8667C106.663 56.2867 106.779 56.8001 106.779 57.4067ZM103.099 57.4067C103.099 57.7467 103.133 58.0334 103.199 58.2667C103.266 58.5001 103.373 58.6767 103.519 58.7967C103.666 58.9101 103.856 58.9667 104.089 58.9667C104.329 58.9667 104.519 58.9101 104.659 58.7967C104.799 58.6767 104.903 58.5001 104.969 58.2667C105.036 58.0334 105.069 57.7467 105.069 57.4067C105.069 57.0667 105.036 56.7834 104.969 56.5567C104.903 56.3301 104.796 56.1601 104.649 56.0467C104.509 55.9334 104.319 55.8767 104.079 55.8767C103.739 55.8767 103.489 56.0067 103.329 56.2667C103.176 56.5201 103.099 56.9001 103.099 57.4067ZM113.469 54.6767V58.9267H114.279V62.1567H112.779V60.1667H109.239V62.1567H107.749V58.9267H108.219C108.439 58.5801 108.629 58.1801 108.789 57.7267C108.949 57.2667 109.079 56.7767 109.179 56.2567C109.279 55.7367 109.352 55.2101 109.399 54.6767H113.469ZM110.759 55.9367C110.705 56.2967 110.642 56.6467 110.569 56.9867C110.502 57.3201 110.415 57.6467 110.309 57.9667C110.209 58.2867 110.089 58.6067 109.949 58.9267H111.779V55.9367H110.759ZM117.216 54.6767V56.7267H119.036V54.6767H120.716V60.1667H119.036V57.9767H117.216V60.1667H115.526V54.6767H117.216ZM127.667 57.4067C127.667 57.8667 127.603 58.2734 127.477 58.6267C127.357 58.9801 127.177 59.2801 126.937 59.5267C126.703 59.7734 126.42 59.9601 126.087 60.0867C125.76 60.2067 125.383 60.2667 124.957 60.2667C124.57 60.2667 124.21 60.2067 123.877 60.0867C123.55 59.9601 123.267 59.7767 123.027 59.5367C122.793 59.2901 122.61 58.9901 122.477 58.6367C122.343 58.2767 122.277 57.8667 122.277 57.4067C122.277 56.8001 122.383 56.2867 122.597 55.8667C122.817 55.4467 123.13 55.1267 123.537 54.9067C123.943 54.6867 124.427 54.5767 124.987 54.5767C125.513 54.5767 125.977 54.6867 126.377 54.9067C126.777 55.1267 127.09 55.4467 127.317 55.8667C127.55 56.2867 127.667 56.8001 127.667 57.4067ZM123.987 57.4067C123.987 57.7467 124.02 58.0334 124.087 58.2667C124.153 58.5001 124.26 58.6767 124.407 58.7967C124.553 58.9101 124.743 58.9667 124.977 58.9667C125.217 58.9667 125.407 58.9101 125.547 58.7967C125.687 58.6767 125.79 58.5001 125.857 58.2667C125.923 58.0334 125.957 57.7467 125.957 57.4067C125.957 57.0667 125.923 56.7834 125.857 56.5567C125.79 56.3301 125.683 56.1601 125.537 56.0467C125.397 55.9334 125.207 55.8767 124.967 55.8767C124.627 55.8767 124.377 56.0067 124.217 56.2667C124.063 56.5201 123.987 56.9001 123.987 57.4067ZM62.3001 72.5167C62.3001 72.1967 62.3535 71.9401 62.4601 71.7467C62.5668 71.5467 62.7101 71.4034 62.8901 71.3167C63.0768 71.2301 63.2801 71.1867 63.5001 71.1867C63.7201 71.1867 63.9201 71.2301 64.1001 71.3167C64.2801 71.4034 64.4235 71.5467 64.5301 71.7467C64.6435 71.9401 64.7001 72.1967 64.7001 72.5167C64.7001 72.8301 64.6435 73.0867 64.5301 73.2867C64.4235 73.4801 64.2801 73.6234 64.1001 73.7167C63.9201 73.8034 63.7201 73.8467 63.5001 73.8467C63.2801 73.8467 63.0768 73.8034 62.8901 73.7167C62.7101 73.6234 62.5668 73.4801 62.4601 73.2867C62.3535 73.0867 62.3001 72.8301 62.3001 72.5167ZM71.95 76.1667V69.0267H77.39V76.1667H76.32V69.9567H73.03V76.1667H71.95ZM84.3335 73.4667C84.3335 73.9134 84.2735 74.3101 84.1535 74.6567C84.0335 75.0034 83.8635 75.2967 83.6435 75.5367C83.4235 75.7767 83.1568 75.9601 82.8435 76.0867C82.5302 76.2067 82.1768 76.2667 81.7835 76.2667C81.4235 76.2667 81.0902 76.2067 80.7835 76.0867C80.4768 75.9601 80.2102 75.7767 79.9835 75.5367C79.7635 75.2967 79.5902 75.0034 79.4635 74.6567C79.3368 74.3101 79.2735 73.9101 79.2735 73.4567C79.2735 72.8634 79.3735 72.3601 79.5735 71.9467C79.7802 71.5334 80.0735 71.2201 80.4535 71.0067C80.8402 70.7867 81.2935 70.6767 81.8135 70.6767C82.3068 70.6767 82.7402 70.7867 83.1135 71.0067C83.4935 71.2201 83.7902 71.5334 84.0035 71.9467C84.2235 72.3601 84.3335 72.8667 84.3335 73.4667ZM80.3635 73.4667C80.3635 73.8667 80.4135 74.2134 80.5135 74.5067C80.6135 74.7934 80.7702 75.0134 80.9835 75.1667C81.1968 75.3201 81.4702 75.3967 81.8035 75.3967C82.1368 75.3967 82.4102 75.3201 82.6235 75.1667C82.8368 75.0134 82.9935 74.7934 83.0935 74.5067C83.1935 74.2134 83.2435 73.8667 83.2435 73.4667C83.2435 73.0534 83.1902 72.7067 83.0835 72.4267C82.9835 72.1467 82.8268 71.9334 82.6135 71.7867C82.4068 71.6334 82.1335 71.5567 81.7935 71.5567C81.2935 71.5567 80.9302 71.7234 80.7035 72.0567C80.4768 72.3901 80.3635 72.8601 80.3635 73.4667ZM90.3973 76.1667H89.3273V71.6267H87.8073C87.7406 72.4534 87.6573 73.1634 87.5573 73.7567C87.4639 74.3434 87.3406 74.8201 87.1873 75.1867C87.0406 75.5534 86.8573 75.8234 86.6373 75.9967C86.4239 76.1634 86.1673 76.2467 85.8673 76.2467C85.7606 76.2467 85.6573 76.2367 85.5573 76.2167C85.4573 76.2034 85.3706 76.1801 85.2973 76.1467V75.3367C85.3439 75.3501 85.3939 75.3634 85.4473 75.3767C85.5073 75.3834 85.5673 75.3867 85.6273 75.3867C85.7606 75.3867 85.8806 75.3334 85.9873 75.2267C86.1006 75.1201 86.2006 74.9534 86.2873 74.7267C86.3806 74.5001 86.4639 74.2067 86.5373 73.8467C86.6173 73.4801 86.6839 73.0434 86.7373 72.5367C86.7973 72.0301 86.8506 71.4434 86.8973 70.7767H90.3973V76.1667ZM93.5138 70.7767V72.9667H96.1738V70.7767H97.2338V76.1667H96.1738V73.8167H93.5138V76.1667H92.4538V70.7767H93.5138ZM99.2894 76.1667V70.7767H100.349V72.9467H101.539C102.033 72.9467 102.439 73.0067 102.759 73.1267C103.079 73.2401 103.316 73.4101 103.469 73.6367C103.623 73.8634 103.699 74.1501 103.699 74.4967C103.699 74.8367 103.623 75.1334 103.469 75.3867C103.323 75.6334 103.089 75.8267 102.769 75.9667C102.456 76.1001 102.043 76.1667 101.529 76.1667H99.2894ZM101.449 75.3667C101.803 75.3667 102.089 75.3067 102.309 75.1867C102.536 75.0601 102.649 74.8434 102.649 74.5367C102.649 74.2434 102.546 74.0434 102.339 73.9367C102.133 73.8234 101.836 73.7667 101.449 73.7667H100.349V75.3667H101.449ZM104.559 76.1667V70.7767H105.619V76.1667H104.559ZM112.278 68.5167C112.251 68.8567 112.164 69.1467 112.018 69.3867C111.878 69.6201 111.661 69.8001 111.368 69.9267C111.081 70.0467 110.704 70.1067 110.238 70.1067C109.758 70.1067 109.374 70.0467 109.088 69.9267C108.808 69.8001 108.604 69.6201 108.478 69.3867C108.351 69.1534 108.274 68.8634 108.248 68.5167H109.218C109.251 68.8834 109.344 69.1267 109.498 69.2467C109.658 69.3667 109.911 69.4267 110.258 69.4267C110.558 69.4267 110.798 69.3634 110.978 69.2367C111.158 69.1034 111.264 68.8634 111.298 68.5167H112.278ZM108.688 73.7167C108.688 73.7967 108.684 73.9001 108.678 74.0267C108.671 74.1534 108.664 74.2867 108.658 74.4267C108.651 74.5601 108.641 74.6867 108.628 74.8067C108.621 74.9201 108.614 75.0101 108.608 75.0767L111.378 70.7767H112.668V76.1667H111.668V73.2967C111.668 73.1701 111.671 73.0134 111.678 72.8267C111.684 72.6401 111.691 72.4601 111.698 72.2867C111.711 72.1067 111.721 71.9701 111.728 71.8767L108.978 76.1667H107.678V70.7767H108.688V73.7167ZM121.985 70.7767V75.3267H122.775V78.0567H121.785V76.1667H118.065V78.0567H117.085V75.3267H117.515C117.802 74.9134 118.042 74.4601 118.235 73.9667C118.429 73.4734 118.575 72.9567 118.675 72.4167C118.782 71.8701 118.845 71.3234 118.865 70.7767H121.985ZM119.785 71.5967C119.745 72.0301 119.672 72.4734 119.565 72.9267C119.465 73.3801 119.335 73.8134 119.175 74.2267C119.022 74.6401 118.839 75.0067 118.625 75.3267H120.945V71.5967H119.785ZM128.94 73.4667C128.94 73.9134 128.88 74.3101 128.76 74.6567C128.64 75.0034 128.47 75.2967 128.25 75.5367C128.03 75.7767 127.763 75.9601 127.45 76.0867C127.137 76.2067 126.783 76.2667 126.39 76.2667C126.03 76.2667 125.697 76.2067 125.39 76.0867C125.083 75.9601 124.817 75.7767 124.59 75.5367C124.37 75.2967 124.197 75.0034 124.07 74.6567C123.943 74.3101 123.88 73.9101 123.88 73.4567C123.88 72.8634 123.98 72.3601 124.18 71.9467C124.387 71.5334 124.68 71.2201 125.06 71.0067C125.447 70.7867 125.9 70.6767 126.42 70.6767C126.913 70.6767 127.347 70.7867 127.72 71.0067C128.1 71.2201 128.397 71.5334 128.61 71.9467C128.83 72.3601 128.94 72.8667 128.94 73.4667ZM124.97 73.4667C124.97 73.8667 125.02 74.2134 125.12 74.5067C125.22 74.7934 125.377 75.0134 125.59 75.1667C125.803 75.3201 126.077 75.3967 126.41 75.3967C126.743 75.3967 127.017 75.3201 127.23 75.1667C127.443 75.0134 127.6 74.7934 127.7 74.5067C127.8 74.2134 127.85 73.8667 127.85 73.4667C127.85 73.0534 127.797 72.7067 127.69 72.4267C127.59 72.1467 127.433 71.9334 127.22 71.7867C127.013 71.6334 126.74 71.5567 126.4 71.5567C125.9 71.5567 125.537 71.7234 125.31 72.0567C125.083 72.3901 124.97 72.8601 124.97 73.4667ZM132.854 76.2667C132.361 76.2667 131.927 76.1701 131.554 75.9767C131.181 75.7834 130.891 75.4834 130.684 75.0767C130.477 74.6634 130.374 74.1401 130.374 73.5067C130.374 72.8401 130.484 72.3001 130.704 71.8867C130.931 71.4734 131.234 71.1701 131.614 70.9767C132.001 70.7767 132.441 70.6767 132.934 70.6767C133.234 70.6767 133.514 70.7101 133.774 70.7767C134.041 70.8367 134.261 70.9067 134.434 70.9867L134.114 71.8467C133.927 71.7734 133.727 71.7101 133.514 71.6567C133.307 71.6034 133.111 71.5767 132.924 71.5767C132.591 71.5767 132.314 71.6501 132.094 71.7967C131.881 71.9367 131.721 72.1501 131.614 72.4367C131.514 72.7167 131.464 73.0701 131.464 73.4967C131.464 73.9034 131.517 74.2467 131.624 74.5267C131.731 74.8067 131.887 75.0201 132.094 75.1667C132.307 75.3067 132.571 75.3767 132.884 75.3767C133.184 75.3767 133.447 75.3434 133.674 75.2767C133.901 75.2101 134.114 75.1234 134.314 75.0167V75.9367C134.121 76.0501 133.911 76.1334 133.684 76.1867C133.457 76.2401 133.181 76.2667 132.854 76.2667ZM139.926 71.6267H138.166V76.1667H137.116V71.6267H135.366V70.7767H139.926V71.6267ZM140.556 70.7767H141.696L142.816 73.8367C142.876 73.9901 142.93 74.1401 142.976 74.2867C143.023 74.4334 143.063 74.5801 143.096 74.7267C143.136 74.8667 143.166 75.0067 143.186 75.1467H143.226C143.26 74.9734 143.313 74.7701 143.386 74.5367C143.46 74.2967 143.536 74.0601 143.616 73.8267L144.676 70.7767H145.816L143.506 76.8967C143.38 77.2434 143.223 77.5401 143.036 77.7867C142.85 78.0401 142.626 78.2334 142.366 78.3667C142.113 78.5001 141.813 78.5667 141.466 78.5667C141.3 78.5667 141.156 78.5567 141.036 78.5367C140.916 78.5234 140.813 78.5067 140.726 78.4867V77.6467C140.8 77.6601 140.886 77.6734 140.986 77.6867C141.093 77.7001 141.203 77.7067 141.316 77.7067C141.523 77.7067 141.7 77.6667 141.846 77.5867C142 77.5067 142.126 77.3934 142.226 77.2467C142.333 77.1001 142.423 76.9334 142.496 76.7467L142.716 76.1667L140.556 70.7767ZM151.71 70.7767V76.1667H150.65V71.6367H148.11V76.1667H147.05V70.7767H151.71ZM160.056 70.7767H161.216L158.966 73.3667L161.406 76.1667H160.186L157.826 73.4367V76.1667H156.766V70.7767H157.826V73.3967L160.056 70.7767ZM170.38 70.7767V76.1667H169.32V71.6367H166.78V76.1667H165.72V70.7767H170.38ZM175.129 70.6767C175.775 70.6767 176.295 70.9101 176.689 71.3767C177.089 71.8434 177.289 72.5401 177.289 73.4667C177.289 74.0734 177.199 74.5867 177.019 75.0067C176.839 75.4267 176.585 75.7434 176.259 75.9567C175.932 76.1634 175.552 76.2667 175.119 76.2667C174.845 76.2667 174.605 76.2334 174.399 76.1667C174.192 76.0934 174.015 76.0001 173.869 75.8867C173.729 75.7667 173.605 75.6401 173.499 75.5067H173.429C173.449 75.6267 173.465 75.7701 173.479 75.9367C173.492 76.0967 173.499 76.2401 173.499 76.3667V78.5667H172.439V70.7767H173.299L173.449 71.4967H173.499C173.605 71.3501 173.732 71.2134 173.879 71.0867C174.025 70.9601 174.202 70.8601 174.409 70.7867C174.615 70.7134 174.855 70.6767 175.129 70.6767ZM174.879 71.5467C174.545 71.5467 174.279 71.6134 174.079 71.7467C173.879 71.8734 173.732 72.0667 173.639 72.3267C173.552 72.5801 173.505 72.9034 173.499 73.2967V73.4567C173.499 73.8701 173.542 74.2234 173.629 74.5167C173.715 74.8034 173.859 75.0234 174.059 75.1767C174.265 75.3234 174.545 75.3967 174.899 75.3967C175.199 75.3967 175.442 75.3167 175.629 75.1567C175.822 74.9901 175.965 74.7601 176.059 74.4667C176.152 74.1734 176.199 73.8334 176.199 73.4467C176.199 72.8601 176.092 72.3967 175.879 72.0567C175.665 71.7167 175.332 71.5467 174.879 71.5467ZM180.05 73.7167C180.05 73.7967 180.046 73.9001 180.04 74.0267C180.033 74.1534 180.026 74.2867 180.02 74.4267C180.013 74.5601 180.003 74.6867 179.99 74.8067C179.983 74.9201 179.976 75.0101 179.97 75.0767L182.74 70.7767H184.03V76.1667H183.03V73.2967C183.03 73.1701 183.033 73.0134 183.04 72.8267C183.046 72.6401 183.053 72.4601 183.06 72.2867C183.073 72.1067 183.083 71.9701 183.09 71.8767L180.34 76.1667H179.04V70.7767H180.05V73.7167ZM190.42 76.1667H189.35V71.6267H187.83C187.763 72.4534 187.68 73.1634 187.58 73.7567C187.487 74.3434 187.363 74.8201 187.21 75.1867C187.063 75.5534 186.88 75.8234 186.66 75.9967C186.447 76.1634 186.19 76.2467 185.89 76.2467C185.783 76.2467 185.68 76.2367 185.58 76.2167C185.48 76.2034 185.393 76.1801 185.32 76.1467V75.3367C185.367 75.3501 185.417 75.3634 185.47 75.3767C185.53 75.3834 185.59 75.3867 185.65 75.3867C185.783 75.3867 185.903 75.3334 186.01 75.2267C186.123 75.1201 186.223 74.9534 186.31 74.7267C186.403 74.5001 186.487 74.2067 186.56 73.8467C186.64 73.4801 186.707 73.0434 186.76 72.5367C186.82 72.0301 186.873 71.4434 186.92 70.7767H190.42V76.1667ZM197.226 73.4667C197.226 73.9134 197.166 74.3101 197.046 74.6567C196.926 75.0034 196.756 75.2967 196.536 75.5367C196.316 75.7767 196.05 75.9601 195.736 76.0867C195.423 76.2067 195.07 76.2667 194.676 76.2667C194.316 76.2667 193.983 76.2067 193.676 76.0867C193.37 75.9601 193.103 75.7767 192.876 75.5367C192.656 75.2967 192.483 75.0034 192.356 74.6567C192.23 74.3101 192.166 73.9101 192.166 73.4567C192.166 72.8634 192.266 72.3601 192.466 71.9467C192.673 71.5334 192.966 71.2201 193.346 71.0067C193.733 70.7867 194.186 70.6767 194.706 70.6767C195.2 70.6767 195.633 70.7867 196.006 71.0067C196.386 71.2201 196.683 71.5334 196.896 71.9467C197.116 72.3601 197.226 72.8667 197.226 73.4667ZM193.256 73.4667C193.256 73.8667 193.306 74.2134 193.406 74.5067C193.506 74.7934 193.663 75.0134 193.876 75.1667C194.09 75.3201 194.363 75.3967 194.696 75.3967C195.03 75.3967 195.303 75.3201 195.516 75.1667C195.73 75.0134 195.886 74.7934 195.986 74.5067C196.086 74.2134 196.136 73.8667 196.136 73.4667C196.136 73.0534 196.083 72.7067 195.976 72.4267C195.876 72.1467 195.72 71.9334 195.506 71.7867C195.3 71.6334 195.026 71.5567 194.686 71.5567C194.186 71.5567 193.823 71.7234 193.596 72.0567C193.37 72.3901 193.256 72.8601 193.256 73.4667ZM205.595 70.7767L203.445 73.3867L205.785 76.1667H204.615L202.365 73.4367V76.1667H201.375V73.4367L199.125 76.1667H197.955L200.295 73.3867L198.145 70.7767H199.275L201.375 73.3967V70.7767H202.365V73.3967L204.475 70.7767H205.595ZM208.961 70.6767C209.434 70.6767 209.841 70.7767 210.181 70.9767C210.521 71.1701 210.781 71.4501 210.961 71.8167C211.148 72.1834 211.241 72.6167 211.241 73.1167V73.6967H207.621C207.634 74.2501 207.778 74.6734 208.051 74.9667C208.331 75.2601 208.721 75.4067 209.221 75.4067C209.568 75.4067 209.874 75.3767 210.141 75.3167C210.414 75.2501 210.694 75.1534 210.981 75.0267V75.9067C210.714 76.0267 210.441 76.1167 210.161 76.1767C209.888 76.2367 209.561 76.2667 209.181 76.2667C208.661 76.2667 208.201 76.1634 207.801 75.9567C207.401 75.7501 207.088 75.4434 206.861 75.0367C206.641 74.6234 206.531 74.1167 206.531 73.5167C206.531 72.9101 206.631 72.3967 206.831 71.9767C207.038 71.5567 207.321 71.2367 207.681 71.0167C208.048 70.7901 208.474 70.6767 208.961 70.6767ZM208.961 71.4967C208.581 71.4967 208.274 71.6201 208.041 71.8667C207.814 72.1134 207.681 72.4634 207.641 72.9167H210.181C210.181 72.6367 210.138 72.3901 210.051 72.1767C209.964 71.9634 209.831 71.7967 209.651 71.6767C209.471 71.5567 209.241 71.4967 208.961 71.4967ZM214.024 70.7767V72.9667H216.684V70.7767H217.744V76.1667H216.684V73.8167H214.024V76.1667H212.964V70.7767H214.024ZM220.809 73.7167C220.809 73.7967 220.806 73.9001 220.799 74.0267C220.792 74.1534 220.786 74.2867 220.779 74.4267C220.772 74.5601 220.762 74.6867 220.749 74.8067C220.742 74.9201 220.736 75.0101 220.729 75.0767L223.499 70.7767H224.789V76.1667H223.789V73.2967C223.789 73.1701 223.792 73.0134 223.799 72.8267C223.806 72.6401 223.812 72.4601 223.819 72.2867C223.832 72.1067 223.842 71.9701 223.849 71.8767L221.099 76.1667H219.799V70.7767H220.809V73.7167ZM233.989 73.4667C233.989 74.0601 233.889 74.5667 233.689 74.9867C233.496 75.4067 233.216 75.7267 232.849 75.9467C232.489 76.1601 232.059 76.2667 231.559 76.2667C231.113 76.2667 230.716 76.1767 230.369 75.9967C230.023 75.8101 229.746 75.5367 229.539 75.1767C229.333 74.8101 229.209 74.3567 229.169 73.8167H227.919V76.1667H226.859V70.7767H227.919V72.9667H229.179C229.233 72.4734 229.363 72.0567 229.569 71.7167C229.783 71.3767 230.059 71.1201 230.399 70.9467C230.739 70.7667 231.136 70.6767 231.589 70.6767C232.056 70.6767 232.469 70.7867 232.829 71.0067C233.196 71.2201 233.479 71.5334 233.679 71.9467C233.886 72.3601 233.989 72.8667 233.989 73.4667ZM230.239 73.4667C230.239 73.8867 230.286 74.2401 230.379 74.5267C230.473 74.8134 230.616 75.0301 230.809 75.1767C231.009 75.3234 231.266 75.3967 231.579 75.3967C231.886 75.3967 232.136 75.3234 232.329 75.1767C232.529 75.0301 232.673 74.8134 232.759 74.5267C232.853 74.2401 232.899 73.8867 232.899 73.4667C232.899 73.0401 232.853 72.6867 232.759 72.4067C232.673 72.1267 232.529 71.9167 232.329 71.7767C232.136 71.6301 231.886 71.5567 231.579 71.5567C231.266 71.5567 231.009 71.6301 230.809 71.7767C230.616 71.9167 230.473 72.1267 230.379 72.4067C230.286 72.6867 230.239 73.0401 230.239 73.4667ZM62.3001 88.5167C62.3001 88.1967 62.3535 87.9401 62.4601 87.7467C62.5668 87.5467 62.7101 87.4034 62.8901 87.3167C63.0768 87.2301 63.2801 87.1867 63.5001 87.1867C63.7201 87.1867 63.9201 87.2301 64.1001 87.3167C64.2801 87.4034 64.4235 87.5467 64.5301 87.7467C64.6435 87.9401 64.7001 88.1967 64.7001 88.5167C64.7001 88.8301 64.6435 89.0867 64.5301 89.2867C64.4235 89.4801 64.2801 89.6234 64.1001 89.7167C63.9201 89.8034 63.7201 89.8467 63.5001 89.8467C63.2801 89.8467 63.0768 89.8034 62.8901 89.7167C62.7101 89.6234 62.5668 89.4801 62.4601 89.2867C62.3535 89.0867 62.3001 88.8301 62.3001 88.5167ZM77.52 92.1667H76.44V88.9067H73.03V92.1667H71.95V85.0267H73.03V87.9867H76.44V85.0267H77.52V92.1667ZM81.8005 86.6767C82.4805 86.6767 82.9871 86.8267 83.3205 87.1267C83.6538 87.4201 83.8205 87.8834 83.8205 88.5167V92.1667H83.0705L82.8605 91.4167H82.8205C82.6671 91.6101 82.5071 91.7701 82.3405 91.8967C82.1805 92.0234 81.9938 92.1167 81.7805 92.1767C81.5738 92.2367 81.3205 92.2667 81.0205 92.2667C80.7005 92.2667 80.4105 92.2101 80.1505 92.0967C79.8971 91.9767 79.6971 91.7967 79.5505 91.5567C79.4038 91.3101 79.3305 91.0034 79.3305 90.6367C79.3305 90.0901 79.5371 89.6734 79.9505 89.3867C80.3705 89.1001 81.0071 88.9434 81.8605 88.9167L82.7805 88.8867V88.5867C82.7805 88.1867 82.6905 87.9067 82.5105 87.7467C82.3305 87.5867 82.0771 87.5067 81.7505 87.5067C81.4705 87.5067 81.2038 87.5467 80.9505 87.6267C80.6971 87.7067 80.4571 87.8034 80.2305 87.9167L79.8905 87.1467C80.1438 87.0134 80.4338 86.9034 80.7605 86.8167C81.0938 86.7234 81.4405 86.6767 81.8005 86.6767ZM82.0505 89.5967C81.4371 89.6234 81.0105 89.7267 80.7705 89.9067C80.5371 90.0801 80.4205 90.3267 80.4205 90.6467C80.4205 90.9267 80.5038 91.1301 80.6705 91.2567C80.8438 91.3834 81.0605 91.4467 81.3205 91.4467C81.7405 91.4467 82.0871 91.3301 82.3605 91.0967C82.6338 90.8634 82.7705 90.5134 82.7705 90.0467V89.5767L82.0505 89.5967ZM90.5127 86.7767V92.1667H89.4527V87.6367H86.9127V92.1667H85.8527V86.7767H90.5127ZM97.321 89.4667C97.321 89.9134 97.261 90.3101 97.141 90.6567C97.021 91.0034 96.851 91.2967 96.631 91.5367C96.411 91.7767 96.1443 91.9601 95.831 92.0867C95.5177 92.2067 95.1643 92.2667 94.771 92.2667C94.411 92.2667 94.0777 92.2067 93.771 92.0867C93.4643 91.9601 93.1977 91.7767 92.971 91.5367C92.751 91.2967 92.5777 91.0034 92.451 90.6567C92.3243 90.3101 92.261 89.9101 92.261 89.4567C92.261 88.8634 92.361 88.3601 92.561 87.9467C92.7677 87.5334 93.061 87.2201 93.441 87.0067C93.8277 86.7867 94.281 86.6767 94.801 86.6767C95.2943 86.6767 95.7277 86.7867 96.101 87.0067C96.481 87.2201 96.7777 87.5334 96.991 87.9467C97.211 88.3601 97.321 88.8667 97.321 89.4667ZM93.351 89.4667C93.351 89.8667 93.401 90.2134 93.501 90.5067C93.601 90.7934 93.7577 91.0134 93.971 91.1667C94.1843 91.3201 94.4577 91.3967 94.791 91.3967C95.1243 91.3967 95.3977 91.3201 95.611 91.1667C95.8243 91.0134 95.981 90.7934 96.081 90.5067C96.181 90.2134 96.231 89.8667 96.231 89.4667C96.231 89.0534 96.1777 88.7067 96.071 88.4267C95.971 88.1467 95.8143 87.9334 95.601 87.7867C95.3943 87.6334 95.121 87.5567 94.781 87.5567C94.281 87.5567 93.9177 87.7234 93.691 88.0567C93.4643 88.3901 93.351 88.8601 93.351 89.4667ZM105.145 86.7767V92.1667H104.185V88.9667C104.185 88.7867 104.188 88.6067 104.195 88.4267C104.208 88.2401 104.221 88.0634 104.235 87.8967H104.205L102.525 92.1667H101.675L100.025 87.8967H99.9848C100.005 88.0634 100.018 88.2401 100.025 88.4267C100.031 88.6067 100.035 88.7967 100.035 88.9967V92.1667H99.0648V86.7767H100.515L102.105 90.9067L103.725 86.7767H105.145ZM108.229 89.7167C108.229 89.7967 108.225 89.9001 108.219 90.0267C108.212 90.1534 108.205 90.2867 108.199 90.4267C108.192 90.5601 108.182 90.6867 108.169 90.8067C108.162 90.9201 108.155 91.0101 108.149 91.0767L110.919 86.7767H112.209V92.1667H111.209V89.2967C111.209 89.1701 111.212 89.0134 111.219 88.8267C111.225 88.6401 111.232 88.4601 111.239 88.2867C111.252 88.1067 111.262 87.9701 111.269 87.8767L108.519 92.1667H107.219V86.7767H108.229V89.7167ZM115.339 86.7767V88.9667H117.999V86.7767H119.059V92.1667H117.999V89.8167H115.339V92.1667H114.279V86.7767H115.339ZM123.204 86.6767C123.884 86.6767 124.391 86.8267 124.724 87.1267C125.058 87.4201 125.224 87.8834 125.224 88.5167V92.1667H124.474L124.264 91.4167H124.224C124.071 91.6101 123.911 91.7701 123.744 91.8967C123.584 92.0234 123.398 92.1167 123.184 92.1767C122.978 92.2367 122.724 92.2667 122.424 92.2667C122.104 92.2667 121.814 92.2101 121.554 92.0967C121.301 91.9767 121.101 91.7967 120.954 91.5567C120.808 91.3101 120.734 91.0034 120.734 90.6367C120.734 90.0901 120.941 89.6734 121.354 89.3867C121.774 89.1001 122.411 88.9434 123.264 88.9167L124.184 88.8867V88.5867C124.184 88.1867 124.094 87.9067 123.914 87.7467C123.734 87.5867 123.481 87.5067 123.154 87.5067C122.874 87.5067 122.608 87.5467 122.354 87.6267C122.101 87.7067 121.861 87.8034 121.634 87.9167L121.294 87.1467C121.548 87.0134 121.838 86.9034 122.164 86.8167C122.498 86.7234 122.844 86.6767 123.204 86.6767ZM123.454 89.5967C122.841 89.6234 122.414 89.7267 122.174 89.9067C121.941 90.0801 121.824 90.3267 121.824 90.6467C121.824 90.9267 121.908 91.1301 122.074 91.2567C122.248 91.3834 122.464 91.4467 122.724 91.4467C123.144 91.4467 123.491 91.3301 123.764 91.0967C124.038 90.8634 124.174 90.5134 124.174 90.0467V89.5767L123.454 89.5967ZM128.317 86.7767V88.9667H130.977V86.7767H132.037V92.1667H130.977V89.8167H128.317V92.1667H127.257V86.7767H128.317ZM135.102 89.7167C135.102 89.7967 135.099 89.9001 135.092 90.0267C135.085 90.1534 135.079 90.2867 135.072 90.4267C135.065 90.5601 135.055 90.6867 135.042 90.8067C135.035 90.9201 135.029 91.0101 135.022 91.0767L137.792 86.7767H139.082V92.1667H138.082V89.2967C138.082 89.1701 138.085 89.0134 138.092 88.8267C138.099 88.6401 138.105 88.4601 138.112 88.2867C138.125 88.1067 138.135 87.9701 138.142 87.8767L135.392 92.1667H134.092V86.7767H135.102V89.7167ZM141.632 92.1667H140.432L141.952 89.9467C141.746 89.8801 141.549 89.7867 141.362 89.6667C141.182 89.5467 141.036 89.3801 140.922 89.1667C140.809 88.9534 140.752 88.6934 140.752 88.3867C140.752 87.8667 140.936 87.4701 141.302 87.1967C141.669 86.9167 142.149 86.7767 142.742 86.7767H145.182V92.1667H144.122V90.0667H142.962L141.632 92.1667ZM141.782 88.3967C141.782 88.6834 141.889 88.9001 142.102 89.0467C142.316 89.1867 142.612 89.2567 142.992 89.2567H144.122V87.5967H142.812C142.446 87.5967 142.182 87.6734 142.022 87.8267C141.862 87.9801 141.782 88.1701 141.782 88.3967ZM154.993 89.4667C154.993 89.9134 154.933 90.3101 154.813 90.6567C154.693 91.0034 154.523 91.2967 154.303 91.5367C154.083 91.7767 153.817 91.9601 153.503 92.0867C153.19 92.2067 152.837 92.2667 152.443 92.2667C152.083 92.2667 151.75 92.2067 151.443 92.0867C151.137 91.9601 150.87 91.7767 150.643 91.5367C150.423 91.2967 150.25 91.0034 150.123 90.6567C149.997 90.3101 149.933 89.9101 149.933 89.4567C149.933 88.8634 150.033 88.3601 150.233 87.9467C150.44 87.5334 150.733 87.2201 151.113 87.0067C151.5 86.7867 151.953 86.6767 152.473 86.6767C152.967 86.6767 153.4 86.7867 153.773 87.0067C154.153 87.2201 154.45 87.5334 154.663 87.9467C154.883 88.3601 154.993 88.8667 154.993 89.4667ZM151.023 89.4667C151.023 89.8667 151.073 90.2134 151.173 90.5067C151.273 90.7934 151.43 91.0134 151.643 91.1667C151.857 91.3201 152.13 91.3967 152.463 91.3967C152.797 91.3967 153.07 91.3201 153.283 91.1667C153.497 91.0134 153.653 90.7934 153.753 90.5067C153.853 90.2134 153.903 89.8667 153.903 89.4667C153.903 89.0534 153.85 88.7067 153.743 88.4267C153.643 88.1467 153.487 87.9334 153.273 87.7867C153.067 87.6334 152.793 87.5567 152.453 87.5567C151.953 87.5567 151.59 87.7234 151.363 88.0567C151.137 88.3901 151.023 88.8601 151.023 89.4667ZM165.815 86.7767V92.1667H164.855V88.9667C164.855 88.7867 164.858 88.6067 164.865 88.4267C164.878 88.2401 164.891 88.0634 164.905 87.8967H164.875L163.195 92.1667H162.345L160.695 87.8967H160.655C160.675 88.0634 160.688 88.2401 160.695 88.4267C160.701 88.6067 160.705 88.7967 160.705 88.9967V92.1667H159.735V86.7767H161.185L162.775 90.9067L164.395 86.7767H165.815ZM170.009 86.6767C170.482 86.6767 170.889 86.7767 171.229 86.9767C171.569 87.1701 171.829 87.4501 172.009 87.8167C172.195 88.1834 172.289 88.6167 172.289 89.1167V89.6967H168.669C168.682 90.2501 168.825 90.6734 169.099 90.9667C169.379 91.2601 169.769 91.4067 170.269 91.4067C170.615 91.4067 170.922 91.3767 171.189 91.3167C171.462 91.2501 171.742 91.1534 172.029 91.0267V91.9067C171.762 92.0267 171.489 92.1167 171.209 92.1767C170.935 92.2367 170.609 92.2667 170.229 92.2667C169.709 92.2667 169.249 92.1634 168.849 91.9567C168.449 91.7501 168.135 91.4434 167.909 91.0367C167.689 90.6234 167.579 90.1167 167.579 89.5167C167.579 88.9101 167.679 88.3967 167.879 87.9767C168.085 87.5567 168.369 87.2367 168.729 87.0167C169.095 86.7901 169.522 86.6767 170.009 86.6767ZM170.009 87.4967C169.629 87.4967 169.322 87.6201 169.089 87.8667C168.862 88.1134 168.729 88.4634 168.689 88.9167H171.229C171.229 88.6367 171.185 88.3901 171.099 88.1767C171.012 87.9634 170.879 87.7967 170.699 87.6767C170.519 87.5567 170.289 87.4967 170.009 87.4967ZM178.261 86.7767V91.3267H179.051V94.0567H178.061V92.1667H174.341V94.0567H173.361V91.3267H173.791C174.078 90.9134 174.318 90.4601 174.511 89.9667C174.705 89.4734 174.851 88.9567 174.951 88.4167C175.058 87.8701 175.121 87.3234 175.141 86.7767H178.261ZM176.061 87.5967C176.021 88.0301 175.948 88.4734 175.841 88.9267C175.741 89.3801 175.611 89.8134 175.451 90.2267C175.298 90.6401 175.115 91.0067 174.901 91.3267H177.221V87.5967H176.061ZM181.476 89.7167C181.476 89.7967 181.473 89.9001 181.466 90.0267C181.459 90.1534 181.453 90.2867 181.446 90.4267C181.439 90.5601 181.429 90.6867 181.416 90.8067C181.409 90.9201 181.403 91.0101 181.396 91.0767L184.166 86.7767H185.456V92.1667H184.456V89.2967C184.456 89.1701 184.459 89.0134 184.466 88.8267C184.473 88.6401 184.479 88.4601 184.486 88.2867C184.499 88.1067 184.509 87.9701 184.516 87.8767L181.766 92.1667H180.466V86.7767H181.476V89.7167ZM191.466 87.6267H189.706V92.1667H188.656V87.6267H186.906V86.7767H191.466V87.6267ZM195.006 86.6767C195.686 86.6767 196.193 86.8267 196.526 87.1267C196.86 87.4201 197.026 87.8834 197.026 88.5167V92.1667H196.276L196.066 91.4167H196.026C195.873 91.6101 195.713 91.7701 195.546 91.8967C195.386 92.0234 195.2 92.1167 194.986 92.1767C194.78 92.2367 194.526 92.2667 194.226 92.2667C193.906 92.2667 193.616 92.2101 193.356 92.0967C193.103 91.9767 192.903 91.7967 192.756 91.5567C192.61 91.3101 192.536 91.0034 192.536 90.6367C192.536 90.0901 192.743 89.6734 193.156 89.3867C193.576 89.1001 194.213 88.9434 195.066 88.9167L195.986 88.8867V88.5867C195.986 88.1867 195.896 87.9067 195.716 87.7467C195.536 87.5867 195.283 87.5067 194.956 87.5067C194.676 87.5067 194.41 87.5467 194.156 87.6267C193.903 87.7067 193.663 87.8034 193.436 87.9167L193.096 87.1467C193.35 87.0134 193.64 86.9034 193.966 86.8167C194.3 86.7234 194.646 86.6767 195.006 86.6767ZM195.256 89.5967C194.643 89.6234 194.216 89.7267 193.976 89.9067C193.743 90.0801 193.626 90.3267 193.626 90.6467C193.626 90.9267 193.71 91.1301 193.876 91.2567C194.05 91.3834 194.266 91.4467 194.526 91.4467C194.946 91.4467 195.293 91.3301 195.566 91.0967C195.84 90.8634 195.976 90.5134 195.976 90.0467V89.5767L195.256 89.5967ZM204.549 94.0567H203.549V92.1667H199.059V86.7767H200.119V91.3167H202.719V86.7767H203.779V91.3267H204.549V94.0567ZM206.963 89.7167C206.963 89.7967 206.959 89.9001 206.953 90.0267C206.946 90.1534 206.939 90.2867 206.933 90.4267C206.926 90.5601 206.916 90.6867 206.903 90.8067C206.896 90.9201 206.889 91.0101 206.883 91.0767L209.653 86.7767H210.943V92.1667H209.943V89.2967C209.943 89.1701 209.946 89.0134 209.953 88.8267C209.959 88.6401 209.966 88.4601 209.973 88.2867C209.986 88.1067 209.996 87.9701 210.003 87.8767L207.253 92.1667H205.953V86.7767H206.963V89.7167ZM213.493 92.1667H212.293L213.813 89.9467C213.606 89.8801 213.409 89.7867 213.223 89.6667C213.043 89.5467 212.896 89.3801 212.783 89.1667C212.669 88.9534 212.613 88.6934 212.613 88.3867C212.613 87.8667 212.796 87.4701 213.163 87.1967C213.529 86.9167 214.009 86.7767 214.603 86.7767H217.043V92.1667H215.983V90.0667H214.823L213.493 92.1667ZM213.643 88.3967C213.643 88.6834 213.749 88.9001 213.963 89.0467C214.176 89.1867 214.473 89.2567 214.853 89.2567H215.983V87.5967H214.673C214.306 87.5967 214.043 87.6734 213.883 87.8267C213.723 87.9801 213.643 88.1701 213.643 88.3967ZM220.336 89.4167L218.506 86.7767H219.716L220.996 88.7167L222.276 86.7767H223.476L221.646 89.4167L223.566 92.1667H222.366L220.996 90.1067L219.616 92.1667H218.416L220.336 89.4167ZM62.3001 104.517C62.3001 104.197 62.3535 103.94 62.4601 103.747C62.5668 103.547 62.7101 103.403 62.8901 103.317C63.0768 103.23 63.2801 103.187 63.5001 103.187C63.7201 103.187 63.9201 103.23 64.1001 103.317C64.2801 103.403 64.4235 103.547 64.5301 103.747C64.6435 103.94 64.7001 104.197 64.7001 104.517C64.7001 104.83 64.6435 105.087 64.5301 105.287C64.4235 105.48 64.2801 105.623 64.1001 105.717C63.9201 105.803 63.7201 105.847 63.5001 105.847C63.2801 105.847 63.0768 105.803 62.8901 105.717C62.7101 105.623 62.5668 105.48 62.4601 105.287C62.3535 105.087 62.3001 104.83 62.3001 104.517ZM75.06 108.167L72.9 102.097H72.86C72.8667 102.23 72.8767 102.41 72.89 102.637C72.9033 102.863 72.9133 103.107 72.92 103.367C72.9267 103.627 72.93 103.883 72.93 104.137V108.167H71.95V101.027H73.49L75.54 106.757H75.58L77.69 101.027H79.23V108.167H78.18V104.077C78.18 103.843 78.1833 103.603 78.19 103.357C78.2033 103.103 78.2133 102.867 78.22 102.647C78.2333 102.427 78.2433 102.247 78.25 102.107H78.21L75.99 108.167H75.06ZM83.5297 102.677C84.003 102.677 84.4097 102.777 84.7497 102.977C85.0897 103.17 85.3497 103.45 85.5297 103.817C85.7164 104.183 85.8097 104.617 85.8097 105.117V105.697H82.1897C82.203 106.25 82.3464 106.673 82.6197 106.967C82.8997 107.26 83.2897 107.407 83.7897 107.407C84.1364 107.407 84.443 107.377 84.7097 107.317C84.983 107.25 85.263 107.153 85.5497 107.027V107.907C85.283 108.027 85.0097 108.117 84.7297 108.177C84.4564 108.237 84.1297 108.267 83.7497 108.267C83.2297 108.267 82.7697 108.163 82.3697 107.957C81.9697 107.75 81.6564 107.443 81.4297 107.037C81.2097 106.623 81.0997 106.117 81.0997 105.517C81.0997 104.91 81.1997 104.397 81.3997 103.977C81.6064 103.557 81.8897 103.237 82.2497 103.017C82.6164 102.79 83.043 102.677 83.5297 102.677ZM83.5297 103.497C83.1497 103.497 82.843 103.62 82.6097 103.867C82.383 104.113 82.2497 104.463 82.2097 104.917H84.7497C84.7497 104.637 84.7064 104.39 84.6197 104.177C84.533 103.963 84.3997 103.797 84.2197 103.677C84.0397 103.557 83.8097 103.497 83.5297 103.497ZM91.7823 102.777V107.327H92.5723V110.057H91.5823V108.167H87.8623V110.057H86.8823V107.327H87.3123C87.599 106.913 87.839 106.46 88.0323 105.967C88.2257 105.473 88.3723 104.957 88.4723 104.417C88.579 103.87 88.6423 103.323 88.6623 102.777H91.7823ZM89.5823 103.597C89.5423 104.03 89.469 104.473 89.3623 104.927C89.2623 105.38 89.1323 105.813 88.9723 106.227C88.819 106.64 88.6357 107.007 88.4223 107.327H90.7423V103.597H89.5823ZM94.997 105.717C94.997 105.797 94.9937 105.9 94.987 106.027C94.9804 106.153 94.9737 106.287 94.967 106.427C94.9604 106.56 94.9504 106.687 94.937 106.807C94.9304 106.92 94.9237 107.01 94.917 107.077L97.687 102.777H98.977V108.167H97.977V105.297C97.977 105.17 97.9804 105.013 97.987 104.827C97.9937 104.64 98.0004 104.46 98.007 104.287C98.0204 104.107 98.0304 103.97 98.037 103.877L95.287 108.167H93.987V102.777H94.997V105.717ZM104.987 103.627H103.227V108.167H102.177V103.627H100.427V102.777H104.987V103.627ZM108.527 102.677C109.207 102.677 109.714 102.827 110.047 103.127C110.381 103.42 110.547 103.883 110.547 104.517V108.167H109.797L109.587 107.417H109.547C109.394 107.61 109.234 107.77 109.067 107.897C108.907 108.023 108.721 108.117 108.507 108.177C108.301 108.237 108.047 108.267 107.747 108.267C107.427 108.267 107.137 108.21 106.877 108.097C106.624 107.977 106.424 107.797 106.277 107.557C106.131 107.31 106.057 107.003 106.057 106.637C106.057 106.09 106.264 105.673 106.677 105.387C107.097 105.1 107.734 104.943 108.587 104.917L109.507 104.887V104.587C109.507 104.187 109.417 103.907 109.237 103.747C109.057 103.587 108.804 103.507 108.477 103.507C108.197 103.507 107.931 103.547 107.677 103.627C107.424 103.707 107.184 103.803 106.957 103.917L106.617 103.147C106.871 103.013 107.161 102.903 107.487 102.817C107.821 102.723 108.167 102.677 108.527 102.677ZM108.777 105.597C108.164 105.623 107.737 105.727 107.497 105.907C107.264 106.08 107.147 106.327 107.147 106.647C107.147 106.927 107.231 107.13 107.397 107.257C107.571 107.383 107.787 107.447 108.047 107.447C108.467 107.447 108.814 107.33 109.087 107.097C109.361 106.863 109.497 106.513 109.497 106.047V105.577L108.777 105.597ZM118.07 110.057H117.07V108.167H112.58V102.777H113.64V107.317H116.24V102.777H117.3V107.327H118.07V110.057ZM120.484 105.717C120.484 105.797 120.48 105.9 120.474 106.027C120.467 106.153 120.46 106.287 120.454 106.427C120.447 106.56 120.437 106.687 120.424 106.807C120.417 106.92 120.41 107.01 120.404 107.077L123.174 102.777H124.464V108.167H123.464V105.297C123.464 105.17 123.467 105.013 123.474 104.827C123.48 104.64 123.487 104.46 123.494 104.287C123.507 104.107 123.517 103.97 123.524 103.877L120.774 108.167H119.474V102.777H120.484V105.717ZM127.544 105.717C127.544 105.797 127.541 105.9 127.534 106.027C127.527 106.153 127.521 106.287 127.514 106.427C127.507 106.56 127.497 106.687 127.484 106.807C127.477 106.92 127.471 107.01 127.464 107.077L130.234 102.777H131.524V108.167H130.524V105.297C130.524 105.17 130.527 105.013 130.534 104.827C130.541 104.64 130.547 104.46 130.554 104.287C130.567 104.107 130.577 103.97 130.584 103.877L127.834 108.167H126.534V102.777H127.544V105.717ZM134.774 107.117C134.714 107.35 134.637 107.603 134.544 107.877C134.451 108.15 134.351 108.42 134.244 108.687C134.137 108.96 134.027 109.217 133.914 109.457H133.144C133.211 109.197 133.274 108.92 133.334 108.627C133.401 108.34 133.461 108.057 133.514 107.777C133.567 107.497 133.611 107.24 133.644 107.007H134.704L134.774 107.117ZM144.386 102.777V108.167H143.326V103.637H140.786V108.167H139.726V102.777H144.386ZM149.134 102.677C149.781 102.677 150.301 102.91 150.694 103.377C151.094 103.843 151.294 104.54 151.294 105.467C151.294 106.073 151.204 106.587 151.024 107.007C150.844 107.427 150.591 107.743 150.264 107.957C149.938 108.163 149.558 108.267 149.124 108.267C148.851 108.267 148.611 108.233 148.404 108.167C148.198 108.093 148.021 108 147.874 107.887C147.734 107.767 147.611 107.64 147.504 107.507H147.434C147.454 107.627 147.471 107.77 147.484 107.937C147.498 108.097 147.504 108.24 147.504 108.367V110.567H146.444V102.777H147.304L147.454 103.497H147.504C147.611 103.35 147.738 103.213 147.884 103.087C148.031 102.96 148.208 102.86 148.414 102.787C148.621 102.713 148.861 102.677 149.134 102.677ZM148.884 103.547C148.551 103.547 148.284 103.613 148.084 103.747C147.884 103.873 147.738 104.067 147.644 104.327C147.558 104.58 147.511 104.903 147.504 105.297V105.457C147.504 105.87 147.548 106.223 147.634 106.517C147.721 106.803 147.864 107.023 148.064 107.177C148.271 107.323 148.551 107.397 148.904 107.397C149.204 107.397 149.448 107.317 149.634 107.157C149.828 106.99 149.971 106.76 150.064 106.467C150.158 106.173 150.204 105.833 150.204 105.447C150.204 104.86 150.098 104.397 149.884 104.057C149.671 103.717 149.338 103.547 148.884 103.547ZM155.136 102.677C155.816 102.677 156.322 102.827 156.656 103.127C156.989 103.42 157.156 103.883 157.156 104.517V108.167H156.406L156.196 107.417H156.156C156.002 107.61 155.842 107.77 155.676 107.897C155.516 108.023 155.329 108.117 155.116 108.177C154.909 108.237 154.656 108.267 154.356 108.267C154.036 108.267 153.746 108.21 153.486 108.097C153.232 107.977 153.032 107.797 152.886 107.557C152.739 107.31 152.666 107.003 152.666 106.637C152.666 106.09 152.872 105.673 153.286 105.387C153.706 105.1 154.342 104.943 155.196 104.917L156.116 104.887V104.587C156.116 104.187 156.026 103.907 155.846 103.747C155.666 103.587 155.412 103.507 155.086 103.507C154.806 103.507 154.539 103.547 154.286 103.627C154.032 103.707 153.792 103.803 153.566 103.917L153.226 103.147C153.479 103.013 153.769 102.903 154.096 102.817C154.429 102.723 154.776 102.677 155.136 102.677ZM155.386 105.597C154.772 105.623 154.346 105.727 154.106 105.907C153.872 106.08 153.756 106.327 153.756 106.647C153.756 106.927 153.839 107.13 154.006 107.257C154.179 107.383 154.396 107.447 154.656 107.447C155.076 107.447 155.422 107.33 155.696 107.097C155.969 106.863 156.106 106.513 156.106 106.047V105.577L155.386 105.597ZM162.478 102.777H163.638L161.388 105.367L163.828 108.167H162.608L160.248 105.437V108.167H159.188V102.777H160.248V105.397L162.478 102.777ZM169.084 103.627H167.324V108.167H166.274V103.627H164.524V102.777H169.084V103.627ZM171.545 105.717C171.545 105.797 171.541 105.9 171.535 106.027C171.528 106.153 171.521 106.287 171.515 106.427C171.508 106.56 171.498 106.687 171.485 106.807C171.478 106.92 171.471 107.01 171.465 107.077L174.235 102.777H175.525V108.167H174.525V105.297C174.525 105.17 174.528 105.013 174.535 104.827C174.541 104.64 174.548 104.46 174.555 104.287C174.568 104.107 174.578 103.97 174.585 103.877L171.835 108.167H170.535V102.777H171.545V105.717ZM180.885 102.777H182.045L179.795 105.367L182.235 108.167H181.015L178.655 105.437V108.167H177.595V102.777H178.655V105.397L180.885 102.777ZM184.561 105.717C184.561 105.797 184.558 105.9 184.551 106.027C184.545 106.153 184.538 106.287 184.531 106.427C184.525 106.56 184.515 106.687 184.501 106.807C184.495 106.92 184.488 107.01 184.481 107.077L187.251 102.777H188.541V108.167H187.541V105.297C187.541 105.17 187.545 105.013 187.551 104.827C187.558 104.64 187.565 104.46 187.571 104.287C187.585 104.107 187.595 103.97 187.601 103.877L184.851 108.167H183.551V102.777H184.561V105.717ZM194.789 107.117C194.729 107.35 194.653 107.603 194.559 107.877C194.466 108.15 194.366 108.42 194.259 108.687C194.153 108.96 194.043 109.217 193.929 109.457H193.159C193.226 109.197 193.289 108.92 193.349 108.627C193.416 108.34 193.476 108.057 193.529 107.777C193.583 107.497 193.626 107.24 193.659 107.007H194.719L194.789 107.117ZM200.751 105.717C200.751 105.797 200.748 105.9 200.741 106.027C200.735 106.153 200.728 106.287 200.721 106.427C200.715 106.56 200.705 106.687 200.691 106.807C200.685 106.92 200.678 107.01 200.671 107.077L203.441 102.777H204.731V108.167H203.731V105.297C203.731 105.17 203.735 105.013 203.741 104.827C203.748 104.64 203.755 104.46 203.761 104.287C203.775 104.107 203.785 103.97 203.791 103.877L201.041 108.167H199.741V102.777H200.751V105.717ZM210.221 102.777V103.627H207.861V108.167H206.801V102.777H210.221ZM214.354 102.677C215.001 102.677 215.521 102.91 215.914 103.377C216.314 103.843 216.514 104.54 216.514 105.467C216.514 106.073 216.424 106.587 216.244 107.007C216.064 107.427 215.811 107.743 215.484 107.957C215.158 108.163 214.778 108.267 214.344 108.267C214.071 108.267 213.831 108.233 213.624 108.167C213.418 108.093 213.241 108 213.094 107.887C212.954 107.767 212.831 107.64 212.724 107.507H212.654C212.674 107.627 212.691 107.77 212.704 107.937C212.718 108.097 212.724 108.24 212.724 108.367V110.567H211.664V102.777H212.524L212.674 103.497H212.724C212.831 103.35 212.958 103.213 213.104 103.087C213.251 102.96 213.428 102.86 213.634 102.787C213.841 102.713 214.081 102.677 214.354 102.677ZM214.104 103.547C213.771 103.547 213.504 103.613 213.304 103.747C213.104 103.873 212.958 104.067 212.864 104.327C212.778 104.58 212.731 104.903 212.724 105.297V105.457C212.724 105.87 212.768 106.223 212.854 106.517C212.941 106.803 213.084 107.023 213.284 107.177C213.491 107.323 213.771 107.397 214.124 107.397C214.424 107.397 214.668 107.317 214.854 107.157C215.048 106.99 215.191 106.76 215.284 106.467C215.378 106.173 215.424 105.833 215.424 105.447C215.424 104.86 215.318 104.397 215.104 104.057C214.891 103.717 214.558 103.547 214.104 103.547ZM218.266 108.167V102.777H219.326V104.947H220.516C221.009 104.947 221.416 105.007 221.736 105.127C222.056 105.24 222.292 105.41 222.446 105.637C222.599 105.863 222.676 106.15 222.676 106.497C222.676 106.837 222.599 107.133 222.446 107.387C222.299 107.633 222.066 107.827 221.746 107.967C221.432 108.1 221.019 108.167 220.506 108.167H218.266ZM220.426 107.367C220.779 107.367 221.066 107.307 221.286 107.187C221.512 107.06 221.626 106.843 221.626 106.537C221.626 106.243 221.522 106.043 221.316 105.937C221.109 105.823 220.812 105.767 220.426 105.767H219.326V107.367H220.426ZM223.536 108.167V102.777H224.596V108.167H223.536ZM62.3001 120.517C62.3001 120.197 62.3535 119.94 62.4601 119.747C62.5668 119.547 62.7101 119.403 62.8901 119.317C63.0768 119.23 63.2801 119.187 63.5001 119.187C63.7201 119.187 63.9201 119.23 64.1001 119.317C64.2801 119.403 64.4235 119.547 64.5301 119.747C64.6435 119.94 64.7001 120.197 64.7001 120.517C64.7001 120.83 64.6435 121.087 64.5301 121.287C64.4235 121.48 64.2801 121.623 64.1001 121.717C63.9201 121.803 63.7201 121.847 63.5001 121.847C63.2801 121.847 63.0768 121.803 62.8901 121.717C62.7101 121.623 62.5668 121.48 62.4601 121.287C62.3535 121.087 62.3001 120.83 62.3001 120.517ZM71.95 124.167V117.027H77.39V124.167H76.32V117.957H73.03V124.167H71.95ZM81.7035 118.677C82.1768 118.677 82.5835 118.777 82.9235 118.977C83.2635 119.17 83.5235 119.45 83.7035 119.817C83.8902 120.183 83.9835 120.617 83.9835 121.117V121.697H80.3635C80.3768 122.25 80.5202 122.673 80.7935 122.967C81.0735 123.26 81.4635 123.407 81.9635 123.407C82.3102 123.407 82.6168 123.377 82.8835 123.317C83.1568 123.25 83.4368 123.153 83.7235 123.027V123.907C83.4568 124.027 83.1835 124.117 82.9035 124.177C82.6302 124.237 82.3035 124.267 81.9235 124.267C81.4035 124.267 80.9435 124.163 80.5435 123.957C80.1435 123.75 79.8302 123.443 79.6035 123.037C79.3835 122.623 79.2735 122.117 79.2735 121.517C79.2735 120.91 79.3735 120.397 79.5735 119.977C79.7802 119.557 80.0635 119.237 80.4235 119.017C80.7902 118.79 81.2168 118.677 81.7035 118.677ZM81.7035 119.497C81.3235 119.497 81.0168 119.62 80.7835 119.867C80.5568 120.113 80.4235 120.463 80.3835 120.917H82.9235C82.9235 120.637 82.8802 120.39 82.7935 120.177C82.7068 119.963 82.5735 119.797 82.3935 119.677C82.2135 119.557 81.9835 119.497 81.7035 119.497ZM88.3962 118.677C89.0428 118.677 89.5628 118.91 89.9562 119.377C90.3562 119.843 90.5562 120.54 90.5562 121.467C90.5562 122.073 90.4662 122.587 90.2862 123.007C90.1062 123.427 89.8528 123.743 89.5262 123.957C89.1995 124.163 88.8195 124.267 88.3862 124.267C88.1128 124.267 87.8728 124.233 87.6662 124.167C87.4595 124.093 87.2828 124 87.1362 123.887C86.9962 123.767 86.8728 123.64 86.7662 123.507H86.6962C86.7162 123.627 86.7328 123.77 86.7462 123.937C86.7595 124.097 86.7662 124.24 86.7662 124.367V126.567H85.7062V118.777H86.5662L86.7162 119.497H86.7662C86.8728 119.35 86.9995 119.213 87.1462 119.087C87.2928 118.96 87.4695 118.86 87.6762 118.787C87.8828 118.713 88.1228 118.677 88.3962 118.677ZM88.1462 119.547C87.8128 119.547 87.5462 119.613 87.3462 119.747C87.1462 119.873 86.9995 120.067 86.9062 120.327C86.8195 120.58 86.7728 120.903 86.7662 121.297V121.457C86.7662 121.87 86.8095 122.223 86.8962 122.517C86.9828 122.803 87.1262 123.023 87.3262 123.177C87.5328 123.323 87.8128 123.397 88.1662 123.397C88.4662 123.397 88.7095 123.317 88.8962 123.157C89.0895 122.99 89.2328 122.76 89.3262 122.467C89.4195 122.173 89.4662 121.833 89.4662 121.447C89.4662 120.86 89.3595 120.397 89.1462 120.057C88.9328 119.717 88.5995 119.547 88.1462 119.547ZM94.4773 124.267C93.984 124.267 93.5507 124.17 93.1773 123.977C92.804 123.783 92.514 123.483 92.3073 123.077C92.1007 122.663 91.9973 122.14 91.9973 121.507C91.9973 120.84 92.1073 120.3 92.3273 119.887C92.554 119.473 92.8573 119.17 93.2373 118.977C93.624 118.777 94.064 118.677 94.5573 118.677C94.8573 118.677 95.1373 118.71 95.3973 118.777C95.664 118.837 95.884 118.907 96.0573 118.987L95.7373 119.847C95.5507 119.773 95.3507 119.71 95.1373 119.657C94.9307 119.603 94.734 119.577 94.5473 119.577C94.214 119.577 93.9373 119.65 93.7173 119.797C93.504 119.937 93.344 120.15 93.2373 120.437C93.1373 120.717 93.0873 121.07 93.0873 121.497C93.0873 121.903 93.1407 122.247 93.2473 122.527C93.354 122.807 93.5107 123.02 93.7173 123.167C93.9307 123.307 94.194 123.377 94.5073 123.377C94.8073 123.377 95.0707 123.343 95.2973 123.277C95.524 123.21 95.7373 123.123 95.9373 123.017V123.937C95.744 124.05 95.534 124.133 95.3073 124.187C95.0807 124.24 94.804 124.267 94.4773 124.267ZM102.36 121.467C102.36 121.913 102.3 122.31 102.18 122.657C102.06 123.003 101.89 123.297 101.67 123.537C101.45 123.777 101.183 123.96 100.87 124.087C100.556 124.207 100.203 124.267 99.8097 124.267C99.4497 124.267 99.1164 124.207 98.8097 124.087C98.503 123.96 98.2364 123.777 98.0097 123.537C97.7897 123.297 97.6164 123.003 97.4897 122.657C97.363 122.31 97.2997 121.91 97.2997 121.457C97.2997 120.863 97.3997 120.36 97.5997 119.947C97.8064 119.533 98.0997 119.22 98.4797 119.007C98.8664 118.787 99.3197 118.677 99.8397 118.677C100.333 118.677 100.766 118.787 101.14 119.007C101.52 119.22 101.816 119.533 102.03 119.947C102.25 120.36 102.36 120.867 102.36 121.467ZM98.3897 121.467C98.3897 121.867 98.4397 122.213 98.5397 122.507C98.6397 122.793 98.7964 123.013 99.0097 123.167C99.223 123.32 99.4964 123.397 99.8297 123.397C100.163 123.397 100.436 123.32 100.65 123.167C100.863 123.013 101.02 122.793 101.12 122.507C101.22 122.213 101.27 121.867 101.27 121.467C101.27 121.053 101.216 120.707 101.11 120.427C101.01 120.147 100.853 119.933 100.64 119.787C100.433 119.633 100.16 119.557 99.8197 119.557C99.3197 119.557 98.9564 119.723 98.7297 120.057C98.503 120.39 98.3897 120.86 98.3897 121.467ZM105.163 118.777V120.967H107.823V118.777H108.883V124.167H107.823V121.817H105.163V124.167H104.103V118.777H105.163ZM113.029 118.677C113.709 118.677 114.216 118.827 114.549 119.127C114.882 119.42 115.049 119.883 115.049 120.517V124.167H114.299L114.089 123.417H114.049C113.896 123.61 113.736 123.77 113.569 123.897C113.409 124.023 113.222 124.117 113.009 124.177C112.802 124.237 112.549 124.267 112.249 124.267C111.929 124.267 111.639 124.21 111.379 124.097C111.126 123.977 110.926 123.797 110.779 123.557C110.632 123.31 110.559 123.003 110.559 122.637C110.559 122.09 110.766 121.673 111.179 121.387C111.599 121.1 112.236 120.943 113.089 120.917L114.009 120.887V120.587C114.009 120.187 113.919 119.907 113.739 119.747C113.559 119.587 113.306 119.507 112.979 119.507C112.699 119.507 112.432 119.547 112.179 119.627C111.926 119.707 111.686 119.803 111.459 119.917L111.119 119.147C111.372 119.013 111.662 118.903 111.989 118.817C112.322 118.723 112.669 118.677 113.029 118.677ZM113.279 121.597C112.666 121.623 112.239 121.727 111.999 121.907C111.766 122.08 111.649 122.327 111.649 122.647C111.649 122.927 111.732 123.13 111.899 123.257C112.072 123.383 112.289 123.447 112.549 123.447C112.969 123.447 113.316 123.33 113.589 123.097C113.862 122.863 113.999 122.513 113.999 122.047V121.577L113.279 121.597ZM121.401 124.167H120.331V119.627H118.811C118.745 120.453 118.661 121.163 118.561 121.757C118.468 122.343 118.345 122.82 118.191 123.187C118.045 123.553 117.861 123.823 117.641 123.997C117.428 124.163 117.171 124.247 116.871 124.247C116.765 124.247 116.661 124.237 116.561 124.217C116.461 124.203 116.375 124.18 116.301 124.147V123.337C116.348 123.35 116.398 123.363 116.451 123.377C116.511 123.383 116.571 123.387 116.631 123.387C116.765 123.387 116.885 123.333 116.991 123.227C117.105 123.12 117.205 122.953 117.291 122.727C117.385 122.5 117.468 122.207 117.541 121.847C117.621 121.48 117.688 121.043 117.741 120.537C117.801 120.03 117.855 119.443 117.901 118.777H121.401V124.167ZM125.948 120.947C126.441 120.947 126.848 121.007 127.168 121.127C127.494 121.24 127.738 121.41 127.898 121.637C128.064 121.863 128.148 122.15 128.148 122.497C128.148 122.837 128.071 123.133 127.918 123.387C127.764 123.633 127.524 123.827 127.198 123.967C126.871 124.1 126.451 124.167 125.938 124.167H123.458V118.777H124.518V120.947H125.948ZM127.088 122.537C127.088 122.243 126.981 122.043 126.768 121.937C126.561 121.823 126.261 121.767 125.868 121.767H124.518V123.367H125.888C126.241 123.367 126.528 123.303 126.748 123.177C126.974 123.05 127.088 122.837 127.088 122.537ZM130.914 118.777V120.967H133.574V118.777H134.634V124.167H133.574V121.817H130.914V124.167H129.854V118.777H130.914ZM136.689 124.167V118.777H137.749V120.947H138.939C139.433 120.947 139.839 121.007 140.159 121.127C140.479 121.24 140.716 121.41 140.869 121.637C141.023 121.863 141.099 122.15 141.099 122.497C141.099 122.837 141.023 123.133 140.869 123.387C140.723 123.633 140.489 123.827 140.169 123.967C139.856 124.1 139.443 124.167 138.929 124.167H136.689ZM138.849 123.367C139.203 123.367 139.489 123.307 139.709 123.187C139.936 123.06 140.049 122.843 140.049 122.537C140.049 122.243 139.946 122.043 139.739 121.937C139.533 121.823 139.236 121.767 138.849 121.767H137.749V123.367H138.849ZM141.959 124.167V118.777H143.019V124.167H141.959ZM147.198 118.677C147.671 118.677 148.078 118.777 148.418 118.977C148.758 119.17 149.018 119.45 149.198 119.817C149.384 120.183 149.478 120.617 149.478 121.117V121.697H145.858C145.871 122.25 146.014 122.673 146.288 122.967C146.568 123.26 146.958 123.407 147.458 123.407C147.804 123.407 148.111 123.377 148.378 123.317C148.651 123.25 148.931 123.153 149.218 123.027V123.907C148.951 124.027 148.678 124.117 148.398 124.177C148.124 124.237 147.798 124.267 147.418 124.267C146.898 124.267 146.438 124.163 146.038 123.957C145.638 123.75 145.324 123.443 145.098 123.037C144.878 122.623 144.768 122.117 144.768 121.517C144.768 120.91 144.868 120.397 145.068 119.977C145.274 119.557 145.558 119.237 145.918 119.017C146.284 118.79 146.711 118.677 147.198 118.677ZM147.198 119.497C146.818 119.497 146.511 119.62 146.278 119.867C146.051 120.113 145.918 120.463 145.878 120.917H148.418C148.418 120.637 148.374 120.39 148.288 120.177C148.201 119.963 148.068 119.797 147.888 119.677C147.708 119.557 147.478 119.497 147.198 119.497ZM156.888 118.677C157.535 118.677 158.055 118.91 158.448 119.377C158.848 119.843 159.048 120.54 159.048 121.467C159.048 122.073 158.958 122.587 158.778 123.007C158.598 123.427 158.345 123.743 158.018 123.957C157.691 124.163 157.311 124.267 156.878 124.267C156.605 124.267 156.365 124.233 156.158 124.167C155.951 124.093 155.775 124 155.628 123.887C155.488 123.767 155.365 123.64 155.258 123.507H155.188C155.208 123.627 155.225 123.77 155.238 123.937C155.251 124.097 155.258 124.24 155.258 124.367V126.567H154.198V118.777H155.058L155.208 119.497H155.258C155.365 119.35 155.491 119.213 155.638 119.087C155.785 118.96 155.961 118.86 156.168 118.787C156.375 118.713 156.615 118.677 156.888 118.677ZM156.638 119.547C156.305 119.547 156.038 119.613 155.838 119.747C155.638 119.873 155.491 120.067 155.398 120.327C155.311 120.58 155.265 120.903 155.258 121.297V121.457C155.258 121.87 155.301 122.223 155.388 122.517C155.475 122.803 155.618 123.023 155.818 123.177C156.025 123.323 156.305 123.397 156.658 123.397C156.958 123.397 157.201 123.317 157.388 123.157C157.581 122.99 157.725 122.76 157.818 122.467C157.911 122.173 157.958 121.833 157.958 121.447C157.958 120.86 157.851 120.397 157.638 120.057C157.425 119.717 157.091 119.547 156.638 119.547ZM162.919 118.677C163.392 118.677 163.799 118.777 164.139 118.977C164.479 119.17 164.739 119.45 164.919 119.817C165.106 120.183 165.199 120.617 165.199 121.117V121.697H161.579C161.592 122.25 161.736 122.673 162.009 122.967C162.289 123.26 162.679 123.407 163.179 123.407C163.526 123.407 163.832 123.377 164.099 123.317C164.372 123.25 164.652 123.153 164.939 123.027V123.907C164.672 124.027 164.399 124.117 164.119 124.177C163.846 124.237 163.519 124.267 163.139 124.267C162.619 124.267 162.159 124.163 161.759 123.957C161.359 123.75 161.046 123.443 160.819 123.037C160.599 122.623 160.489 122.117 160.489 121.517C160.489 120.91 160.589 120.397 160.789 119.977C160.996 119.557 161.279 119.237 161.639 119.017C162.006 118.79 162.432 118.677 162.919 118.677ZM162.919 119.497C162.539 119.497 162.232 119.62 161.999 119.867C161.772 120.113 161.639 120.463 161.599 120.917H164.139C164.139 120.637 164.096 120.39 164.009 120.177C163.922 119.963 163.789 119.797 163.609 119.677C163.429 119.557 163.199 119.497 162.919 119.497ZM170.212 118.777H171.372L169.122 121.367L171.562 124.167H170.342L167.982 121.437V124.167H166.922V118.777H167.982V121.397L170.212 118.777ZM177.433 121.467C177.433 121.913 177.373 122.31 177.253 122.657C177.133 123.003 176.963 123.297 176.743 123.537C176.523 123.777 176.256 123.96 175.943 124.087C175.63 124.207 175.276 124.267 174.883 124.267C174.523 124.267 174.19 124.207 173.883 124.087C173.576 123.96 173.31 123.777 173.083 123.537C172.863 123.297 172.69 123.003 172.563 122.657C172.436 122.31 172.373 121.91 172.373 121.457C172.373 120.863 172.473 120.36 172.673 119.947C172.88 119.533 173.173 119.22 173.553 119.007C173.94 118.787 174.393 118.677 174.913 118.677C175.406 118.677 175.84 118.787 176.213 119.007C176.593 119.22 176.89 119.533 177.103 119.947C177.323 120.36 177.433 120.867 177.433 121.467ZM173.463 121.467C173.463 121.867 173.513 122.213 173.613 122.507C173.713 122.793 173.87 123.013 174.083 123.167C174.296 123.32 174.57 123.397 174.903 123.397C175.236 123.397 175.51 123.32 175.723 123.167C175.936 123.013 176.093 122.793 176.193 122.507C176.293 122.213 176.343 121.867 176.343 121.467C176.343 121.053 176.29 120.707 176.183 120.427C176.083 120.147 175.926 119.933 175.713 119.787C175.506 119.633 175.233 119.557 174.893 119.557C174.393 119.557 174.03 119.723 173.803 120.057C173.576 120.39 173.463 120.86 173.463 121.467ZM185.257 118.777V124.167H184.297V120.967C184.297 120.787 184.3 120.607 184.307 120.427C184.32 120.24 184.334 120.063 184.347 119.897H184.317L182.637 124.167H181.787L180.137 119.897H180.097C180.117 120.063 180.13 120.24 180.137 120.427C180.144 120.607 180.147 120.797 180.147 120.997V124.167H179.177V118.777H180.627L182.217 122.907L183.837 118.777H185.257ZM189.451 118.677C189.924 118.677 190.331 118.777 190.671 118.977C191.011 119.17 191.271 119.45 191.451 119.817C191.637 120.183 191.731 120.617 191.731 121.117V121.697H188.111C188.124 122.25 188.267 122.673 188.541 122.967C188.821 123.26 189.211 123.407 189.711 123.407C190.057 123.407 190.364 123.377 190.631 123.317C190.904 123.25 191.184 123.153 191.471 123.027V123.907C191.204 124.027 190.931 124.117 190.651 124.177C190.377 124.237 190.051 124.267 189.671 124.267C189.151 124.267 188.691 124.163 188.291 123.957C187.891 123.75 187.577 123.443 187.351 123.037C187.131 122.623 187.021 122.117 187.021 121.517C187.021 120.91 187.121 120.397 187.321 119.977C187.527 119.557 187.811 119.237 188.171 119.017C188.537 118.79 188.964 118.677 189.451 118.677ZM189.451 119.497C189.071 119.497 188.764 119.62 188.531 119.867C188.304 120.113 188.171 120.463 188.131 120.917H190.671C190.671 120.637 190.627 120.39 190.541 120.177C190.454 119.963 190.321 119.797 190.141 119.677C189.961 119.557 189.731 119.497 189.451 119.497ZM194.513 118.777V120.967H197.173V118.777H198.233V124.167H197.173V121.817H194.513V124.167H193.453V118.777H194.513ZM204.539 118.777V123.327H205.329V126.057H204.339V124.167H200.619V126.057H199.639V123.327H200.069C200.356 122.913 200.596 122.46 200.789 121.967C200.982 121.473 201.129 120.957 201.229 120.417C201.336 119.87 201.399 119.323 201.419 118.777H204.539ZM202.339 119.597C202.299 120.03 202.226 120.473 202.119 120.927C202.019 121.38 201.889 121.813 201.729 122.227C201.576 122.64 201.392 123.007 201.179 123.327H203.499V119.597H202.339ZM208.834 118.677C209.514 118.677 210.02 118.827 210.354 119.127C210.687 119.42 210.854 119.883 210.854 120.517V124.167H210.104L209.894 123.417H209.854C209.7 123.61 209.54 123.77 209.374 123.897C209.214 124.023 209.027 124.117 208.814 124.177C208.607 124.237 208.354 124.267 208.054 124.267C207.734 124.267 207.444 124.21 207.184 124.097C206.93 123.977 206.73 123.797 206.584 123.557C206.437 123.31 206.364 123.003 206.364 122.637C206.364 122.09 206.57 121.673 206.984 121.387C207.404 121.1 208.04 120.943 208.894 120.917L209.814 120.887V120.587C209.814 120.187 209.724 119.907 209.544 119.747C209.364 119.587 209.11 119.507 208.784 119.507C208.504 119.507 208.237 119.547 207.984 119.627C207.73 119.707 207.49 119.803 207.264 119.917L206.924 119.147C207.177 119.013 207.467 118.903 207.794 118.817C208.127 118.723 208.474 118.677 208.834 118.677ZM209.084 121.597C208.47 121.623 208.044 121.727 207.804 121.907C207.57 122.08 207.454 122.327 207.454 122.647C207.454 122.927 207.537 123.13 207.704 123.257C207.877 123.383 208.094 123.447 208.354 123.447C208.774 123.447 209.12 123.33 209.394 123.097C209.667 122.863 209.804 122.513 209.804 122.047V121.577L209.084 121.597ZM218.376 126.057H217.376V124.167H212.886V118.777H213.946V123.317H216.546V118.777H217.606V123.327H218.376V126.057ZM220.79 121.717C220.79 121.797 220.787 121.9 220.78 122.027C220.773 122.153 220.767 122.287 220.76 122.427C220.753 122.56 220.743 122.687 220.73 122.807C220.723 122.92 220.717 123.01 220.71 123.077L223.48 118.777H224.77V124.167H223.77V121.297C223.77 121.17 223.773 121.013 223.78 120.827C223.787 120.64 223.793 120.46 223.8 120.287C223.813 120.107 223.823 119.97 223.83 119.877L221.08 124.167H219.78V118.777H220.79V121.717ZM227.85 121.717C227.85 121.797 227.847 121.9 227.84 122.027C227.833 122.153 227.827 122.287 227.82 122.427C227.813 122.56 227.803 122.687 227.79 122.807C227.783 122.92 227.777 123.01 227.77 123.077L230.54 118.777H231.83V124.167H230.83V121.297C230.83 121.17 230.833 121.013 230.84 120.827C230.847 120.64 230.853 120.46 230.86 120.287C230.873 120.107 230.883 119.97 230.89 119.877L228.14 124.167H226.84V118.777H227.85V121.717Z" fill="white"/>
<g filter="url(#filter1_d_76_2205)">
<path d="M256 71.1667C256 68.4053 258.239 66.1667 261 66.1667H296C298.761 66.1667 301 68.4053 301 71.1667V87.1667H256V71.1667Z" fill="#5A205D" shape-rendering="crispEdges"/>
<path d="M266.163 78.6667V77.3067H268.843V78.6667H266.163ZM275.126 79.2367H274.306V80.6667H272.636V79.2367H269.676V78.0167L272.736 73.5267H274.306V77.9367H275.126V79.2367ZM272.636 76.9067C272.636 76.8067 272.636 76.6901 272.636 76.5567C272.643 76.4167 272.646 76.2801 272.646 76.1467C272.653 76.0067 272.659 75.8867 272.666 75.7867C272.673 75.6801 272.679 75.6134 272.686 75.5867H272.636C272.576 75.7267 272.516 75.8534 272.456 75.9667C272.396 76.0734 272.323 76.1934 272.236 76.3267L271.166 77.9367H272.636V76.9067ZM281.107 77.0967C281.107 77.6767 281.061 78.1934 280.967 78.6467C280.881 79.0934 280.737 79.4767 280.537 79.7967C280.337 80.1101 280.077 80.3501 279.757 80.5167C279.437 80.6834 279.044 80.7667 278.577 80.7667C277.991 80.7667 277.511 80.6201 277.137 80.3267C276.764 80.0334 276.487 79.6134 276.307 79.0667C276.134 78.5201 276.047 77.8634 276.047 77.0967C276.047 76.3234 276.127 75.6634 276.287 75.1167C276.447 74.5701 276.714 74.1501 277.087 73.8567C277.461 73.5634 277.957 73.4167 278.577 73.4167C279.157 73.4167 279.634 73.5634 280.007 73.8567C280.381 74.1501 280.657 74.5701 280.837 75.1167C281.017 75.6634 281.107 76.3234 281.107 77.0967ZM277.737 77.0967C277.737 77.6101 277.761 78.0367 277.807 78.3767C277.861 78.7101 277.947 78.9634 278.067 79.1367C278.187 79.3101 278.357 79.3967 278.577 79.3967C278.797 79.3967 278.967 79.3134 279.087 79.1467C279.207 78.9734 279.291 78.7167 279.337 78.3767C279.391 78.0367 279.417 77.6101 279.417 77.0967C279.417 76.5901 279.391 76.1667 279.337 75.8267C279.291 75.4801 279.207 75.2201 279.087 75.0467C278.967 74.8734 278.797 74.7867 278.577 74.7867C278.357 74.7867 278.187 74.8734 278.067 75.0467C277.947 75.2201 277.861 75.4767 277.807 75.8167C277.761 76.1567 277.737 76.5834 277.737 77.0967ZM283.859 73.4267C284.425 73.4267 284.862 73.6234 285.169 74.0167C285.482 74.4034 285.639 74.9501 285.639 75.6567C285.639 76.3634 285.492 76.9167 285.199 77.3167C284.905 77.7101 284.459 77.9067 283.859 77.9067C283.499 77.9067 283.189 77.8167 282.929 77.6367C282.669 77.4567 282.469 77.2001 282.329 76.8667C282.189 76.5267 282.119 76.1234 282.119 75.6567C282.119 74.9501 282.262 74.4034 282.549 74.0167C282.835 73.6234 283.272 73.4267 283.859 73.4267ZM283.879 74.5267C283.725 74.5267 283.615 74.6234 283.549 74.8167C283.489 75.0101 283.459 75.2934 283.459 75.6667C283.459 76.0334 283.489 76.3201 283.549 76.5267C283.615 76.7267 283.725 76.8267 283.879 76.8267C284.032 76.8267 284.139 76.7267 284.199 76.5267C284.265 76.3267 284.299 76.0401 284.299 75.6667C284.299 75.2934 284.265 75.0101 284.199 74.8167C284.132 74.6234 284.025 74.5267 283.879 74.5267ZM289.099 73.5267L285.139 80.6667H283.839L287.799 73.5267H289.099ZM289.059 76.2767C289.432 76.2767 289.752 76.3667 290.019 76.5467C290.285 76.7201 290.489 76.9734 290.629 77.3067C290.769 77.6334 290.839 78.0334 290.839 78.5067C290.839 79.2134 290.692 79.7667 290.399 80.1667C290.105 80.5601 289.659 80.7567 289.059 80.7567C288.699 80.7567 288.385 80.6667 288.119 80.4867C287.859 80.3067 287.659 80.0501 287.519 79.7167C287.385 79.3767 287.319 78.9734 287.319 78.5067C287.319 77.8001 287.462 77.2534 287.749 76.8667C288.042 76.4734 288.479 76.2767 289.059 76.2767ZM289.079 77.3667C288.925 77.3667 288.815 77.4667 288.749 77.6667C288.689 77.8601 288.659 78.1434 288.659 78.5167C288.659 78.8834 288.689 79.1667 288.749 79.3667C288.815 79.5667 288.925 79.6667 289.079 79.6667C289.225 79.6667 289.332 79.5701 289.399 79.3767C289.465 79.1767 289.499 78.8901 289.499 78.5167C289.499 78.1434 289.465 77.8601 289.399 77.6667C289.332 77.4667 289.225 77.3667 289.079 77.3667Z" fill="white"/>
</g>
<defs>
<filter id="filter0_d_76_2205" x="46" y="0.666748" width="208" height="29" filterUnits="userSpaceOnUse" color-interpolation-filters="sRGB">
<feFlood flood-opacity="0" result="BackgroundImageFix"/>
<feColorMatrix in="SourceAlpha" type="matrix" values="0 0 0 0 0 0 0 0 0 0 0 0 0 0 0 0 0 0 127 0" result="hardAlpha"/>
<feOffset dy="4"/>
<feGaussianBlur stdDeviation="2"/>
<feComposite in2="hardAlpha" operator="out"/>
<feColorMatrix type="matrix" values="0 0 0 0 0 0 0 0 0 0 0 0 0 0 0 0 0 0 0.25 0"/>
<feBlend mode="normal" in2="BackgroundImageFix" result="effect1_dropShadow_76_2205"/>
<feBlend mode="normal" in="SourceGraphic" in2="effect1_dropShadow_76_2205" result="shape"/>
</filter>
<filter id="filter1_d_76_2205" x="252" y="66.1667" width="53" height="29" filterUnits="userSpaceOnUse" color-interpolation-filters="sRGB">
<feFlood flood-opacity="0" result="BackgroundImageFix"/>
<feColorMatrix in="SourceAlpha" type="matrix" values="0 0 0 0 0 0 0 0 0 0 0 0 0 0 0 0 0 0 127 0" result="hardAlpha"/>
<feOffset dy="4"/>
<feGaussianBlur stdDeviation="2"/>
<feComposite in2="hardAlpha" operator="out"/>
<feColorMatrix type="matrix" values="0 0 0 0 0 0 0 0 0 0 0 0 0 0 0 0 0 0 0.25 0"/>
<feBlend mode="normal" in2="BackgroundImageFix" result="effect1_dropShadow_76_2205"/>
<feBlend mode="normal" in="SourceGraphic" in2="effect1_dropShadow_76_2205" result="shape"/>
</filter>
</defs>
</svg>
