<svg width="1000" height="608" viewBox="0 0 1000 608" fill="none" xmlns="http://www.w3.org/2000/svg">
<path fill-rule="evenodd" clip-rule="evenodd" d="M611.419 269.87C549.86 331.623 450.124 331.623 388.564 269.87C327.005 208.118 327.005 108.067 388.564 46.3146C450.124 -15.4382 549.86 -15.4382 611.419 46.3146C672.979 108.067 672.979 208.118 611.419 269.87ZM494.342 296.299C444.782 263.81 487.406 194.117 505.306 150.909C472.414 182.052 463.129 202.814 457.563 247.285C417.736 208.118 466.932 172.064 491.601 139.35C464.584 149.114 452.501 160.898 440.53 186.71C431.161 142.633 452.249 129.559 488.832 112.332C468.667 109.105 455.186 116.568 441.901 131.354C451.27 106.019 466.373 99.3414 488.72 87.9784C462.821 84.2753 458.878 88.7923 439.16 102.68C459.409 72.0424 468.779 80.319 490.79 64.411C470.093 56.6113 474.205 64.4389 463.493 65.6456C476.75 43.2003 485.392 46.5389 507.935 40.3104C603.728 166.089 463.772 167.94 494.342 296.299Z" fill="white"/>
<path d="M31.3718 557.629C22.6061 557.629 15.1476 555.161 8.99631 550.225C2.99877 545.134 0 537.883 0 528.473C0 521.068 3.53701 514.281 10.611 508.11C17.8388 501.785 29.1419 497.157 44.5202 494.226C47.1345 493.609 50.1333 493.069 53.5165 492.606C57.0535 491.989 60.5137 491.372 63.8969 490.755V474.326C63.8969 463.836 62.5897 456.585 59.9754 452.574C57.3611 448.563 53.209 446.558 47.519 446.558H46.827C43.2899 446.558 40.445 447.715 38.292 450.029C36.2928 452.188 34.9857 455.814 34.3705 460.904L33.6785 463.913C33.2172 470.083 31.6024 474.634 28.8343 477.565C26.0662 480.342 22.6061 481.73 18.454 481.73C14.6094 481.73 11.38 480.573 8.76564 478.259C6.30511 475.791 5.07484 472.629 5.07484 468.772C5.07484 462.447 7.22781 457.125 11.5337 452.806C15.8397 448.486 21.5296 445.246 28.6037 443.087C35.8315 440.927 43.5975 439.847 51.9018 439.847C65.5885 439.847 76.0458 443.164 83.2736 449.797C90.5014 456.431 94.1153 467.229 94.1153 482.193V533.795C94.1153 540.429 97.2678 543.746 103.573 543.746H108.878L111.185 546.291C108.417 549.839 105.341 552.539 101.958 554.39C98.575 556.395 93.9615 557.398 88.1177 557.398C81.5051 557.398 76.1995 555.855 72.2012 552.77C68.3566 549.53 65.8192 545.288 64.5889 540.043C59.6679 545.288 54.8237 549.53 50.0564 552.77C45.2891 556.01 39.0609 557.629 31.3718 557.629ZM44.7509 542.82C47.8266 542.82 50.7484 542.126 53.5165 540.737C56.2846 539.349 59.7447 537.035 63.8969 533.795V496.771C59.8985 497.388 55.8233 498.16 51.6711 499.085C45.0585 500.628 39.676 503.482 35.5239 507.647C31.5255 511.812 29.5264 517.443 29.5264 524.539C29.5264 530.71 30.9104 535.338 33.6785 538.423C36.6004 541.354 40.2912 542.82 44.7509 542.82Z" fill="white"/>
<path d="M108.819 554.39V549.993L112.51 549.068C117.585 547.525 120.122 543.745 120.122 537.729V469.466C119.968 466.227 119.43 463.758 118.507 462.062C117.585 460.21 115.585 458.976 112.51 458.359L108.819 457.434V453.268L146.188 439.847L148.956 442.393L150.571 456.739C156.107 451.803 162.259 447.792 169.025 444.707C175.945 441.467 182.712 439.847 189.324 439.847C199.474 439.847 207.24 442.624 212.623 448.178C218.159 453.731 220.927 462.216 220.927 473.631V537.961C220.927 543.977 223.695 547.756 229.231 549.299L231.769 549.993V554.39H178.713V549.993L182.174 549.068C187.248 547.371 189.786 543.591 189.786 537.729V469.003C189.786 463.604 188.632 459.67 186.326 457.202C184.019 454.734 180.174 453.5 174.792 453.5C167.257 453.5 159.414 456.816 151.263 463.45V537.961C151.263 543.977 153.954 547.756 159.337 549.299L161.643 549.993V554.39H108.819Z" fill="white"/>
<path d="M284.182 514.821C274.033 514.821 265.344 513.124 258.116 509.73V518.06C258.116 522.688 260.423 525.465 265.036 526.391L306.096 534.027C313.939 535.569 320.859 537.498 326.857 539.812C332.855 541.971 337.545 545.134 340.928 549.299C344.311 553.31 346.003 558.786 346.003 565.728C346.003 573.133 343.542 579.998 338.621 586.323C333.854 592.802 326.703 597.97 317.169 601.827C307.788 605.838 296.023 607.843 281.875 607.843C269.727 607.843 260.038 606.532 252.81 603.909C245.736 601.441 240.662 598.202 237.586 594.191C234.51 590.18 232.972 585.86 232.972 581.232C232.972 575.679 234.818 570.125 238.509 564.571C242.353 559.018 247.274 554.39 253.272 550.687C243.891 547.139 239.201 541.509 239.201 533.795C239.201 530.864 239.893 528.165 241.277 525.696C242.661 523.228 244.352 520.76 246.352 518.292L254.656 507.879C243.583 501.399 238.047 491.295 238.047 477.565C238.047 466.304 241.969 457.202 249.812 450.26C257.808 443.318 269.265 439.847 284.182 439.847C299.099 439.847 310.633 443.318 318.783 450.26C323.704 449.489 328.318 448.255 332.624 446.558C336.93 444.861 340.928 442.547 344.619 439.616L347.848 441.93V454.888H322.936C327.857 461.059 330.317 468.618 330.317 477.565C330.317 488.518 326.319 497.466 318.322 504.408C310.479 511.35 299.099 514.821 284.182 514.821ZM283.721 508.573C290.18 508.573 294.87 506.105 297.792 501.168C300.868 496.077 302.405 487.978 302.405 476.871C302.405 465.918 300.945 458.051 298.023 453.268C295.101 448.486 290.564 446.095 284.413 446.095C278.262 446.095 273.648 448.563 270.572 453.5C267.651 458.282 266.19 466.227 266.19 477.334C266.19 488.441 267.574 496.463 270.342 501.399C273.11 506.182 277.57 508.573 283.721 508.573ZM250.965 574.522C250.965 583.006 253.656 589.331 259.039 593.496C264.421 597.816 272.956 599.976 284.644 599.976C297.561 599.976 307.096 597.816 313.247 593.496C319.552 589.331 322.705 583.778 322.705 576.836C322.705 572.516 321.09 569.122 317.861 566.654C314.785 564.186 309.556 562.257 302.175 560.869L260.884 552.77C260.269 552.616 259.654 552.462 259.039 552.307C256.732 555.393 254.81 558.941 253.272 562.952C251.734 566.963 250.965 570.819 250.965 574.522Z" fill="white"/>
<path d="M403.371 439.847C413.059 439.847 421.363 441.853 428.284 445.864C435.204 449.874 440.509 455.428 444.2 462.524C448.045 469.466 449.967 477.488 449.967 486.59C449.967 488.595 449.89 490.524 449.736 492.375C449.583 494.072 449.275 495.692 448.814 497.234H379.381C379.534 513.124 382.456 524.539 388.146 531.481C393.99 538.423 402.448 541.894 413.52 541.894C421.21 541.894 427.438 540.66 432.205 538.192C436.972 535.569 441.355 531.944 445.353 527.316L449.044 530.787C444.431 539.272 438.126 545.905 430.129 550.687C422.286 555.315 412.905 557.629 401.987 557.629C391.068 557.629 381.457 555.315 373.152 550.687C364.848 546.059 358.312 539.426 353.545 530.787C348.931 521.994 346.625 511.504 346.625 499.317C346.625 486.667 349.316 475.945 354.698 467.152C360.235 458.359 367.309 451.649 375.92 447.021C384.686 442.238 393.836 439.847 403.371 439.847ZM402.217 446.558C397.758 446.558 393.836 447.869 390.453 450.492C387.223 452.96 384.609 457.434 382.61 463.913C380.765 470.238 379.688 479.185 379.381 490.755H420.671C422.363 475.174 421.748 463.913 418.826 456.971C415.904 450.029 410.368 446.558 402.217 446.558Z" fill="white"/>
<path d="M451.877 554.39V549.993L455.337 549.068C460.412 547.371 462.95 543.514 462.95 537.498C462.95 532.253 462.95 527.008 462.95 521.763C463.103 516.363 463.18 511.041 463.18 505.796V417.864C463.18 414.625 462.642 412.234 461.566 410.691C460.489 408.994 458.413 407.76 455.337 406.988L451.877 406.063V401.666L492.245 391.947L495.244 394.03L494.321 426.657V537.498C494.475 540.583 495.09 543.128 496.167 545.134C497.397 546.985 499.473 548.296 502.395 549.068L505.624 549.993V554.39H451.877Z" fill="white"/>
<path d="M557.874 555.084L517.275 457.202C515.584 452.883 512.585 450.106 508.279 448.872L503.435 447.715V443.318H561.796V447.715L555.798 449.103C550.877 450.337 549.416 453.5 551.415 458.591L575.636 523.151L598.242 459.053C599.011 456.431 599.165 454.348 598.703 452.806C598.396 451.109 596.935 449.952 594.321 449.335L587.631 447.715V443.318H622.694V447.715L615.081 449.566C610.622 450.646 607.623 453.423 606.085 457.896L571.253 555.084H557.874Z" fill="white"/>
<path d="M673.657 557.629C662.277 557.629 652.281 555.238 643.669 550.456C635.211 545.674 628.598 538.886 623.831 530.093C619.217 521.3 616.911 510.81 616.911 498.623C616.911 486.436 619.371 475.945 624.292 467.152C629.367 458.359 636.133 451.649 644.592 447.021C653.203 442.238 662.892 439.847 673.657 439.847C684.421 439.847 694.033 442.238 702.491 447.021C711.103 451.649 717.869 458.359 722.79 467.152C727.865 475.791 730.402 486.281 730.402 498.623C730.402 510.81 728.019 521.377 723.252 530.324C718.638 539.118 712.102 545.905 703.644 550.687C695.186 555.315 685.19 557.629 673.657 557.629ZM673.657 551.15C679.193 551.15 683.652 549.685 687.036 546.754C690.573 543.668 693.11 538.346 694.648 530.787C696.186 523.228 696.955 512.661 696.955 499.085C696.955 485.356 696.186 474.711 694.648 467.152C693.11 459.439 690.573 454.117 687.036 451.186C683.652 448.1 679.193 446.558 673.657 446.558C668.12 446.558 663.661 448.1 660.277 451.186C656.894 454.117 654.357 459.439 652.665 467.152C651.127 474.711 650.358 485.356 650.358 499.085C650.358 512.661 651.127 523.228 652.665 530.787C654.357 538.346 656.894 543.668 660.277 546.754C663.661 549.685 668.12 551.15 673.657 551.15Z" fill="white"/>
<path d="M760.85 427.12C755.775 427.12 751.469 425.5 747.932 422.261C744.395 419.021 742.627 414.933 742.627 409.997C742.627 404.906 744.395 400.818 747.932 397.732C751.469 394.493 755.775 392.873 760.85 392.873C765.925 392.873 770.231 394.493 773.768 397.732C777.305 400.818 779.073 404.906 779.073 409.997C779.073 414.933 777.305 419.021 773.768 422.261C770.231 425.5 765.925 427.12 760.85 427.12ZM734.322 554.39V549.993L737.782 549.068C740.858 548.142 742.934 546.754 744.011 544.902C745.087 543.051 745.702 540.583 745.856 537.498V494.92C745.856 490.138 745.856 485.741 745.856 481.73C745.856 477.565 745.779 473.323 745.625 469.003C745.625 465.918 745.01 463.527 743.78 461.83C742.703 459.979 740.627 458.745 737.552 458.128L734.322 457.434V453.268L774.69 439.847L777.458 442.393L776.766 475.251V537.729C776.766 540.814 777.305 543.283 778.381 545.134C779.611 546.985 781.687 548.374 784.609 549.299L787.147 549.993V554.39H734.322Z" fill="white"/>
<path d="M846.987 557.629C836.53 557.629 827.072 555.393 818.614 550.919C810.156 546.291 803.466 539.657 798.545 531.019C793.778 522.225 791.394 511.581 791.394 499.085C791.394 486.59 794.086 475.945 799.468 467.152C804.85 458.359 812.001 451.649 820.921 447.021C829.994 442.238 839.913 439.847 850.678 439.847C859.443 439.847 866.902 441.313 873.053 444.244C879.204 447.175 883.895 450.954 887.124 455.582C890.354 460.056 891.969 464.838 891.969 469.929C891.969 474.249 890.661 477.565 888.047 479.879C885.587 482.193 882.357 483.35 878.359 483.35C874.053 483.35 870.516 481.808 867.748 478.722C865.133 475.637 863.595 471.703 863.134 466.921C862.98 463.836 862.98 461.213 863.134 459.053C863.442 456.894 863.442 454.811 863.134 452.806C862.519 450.183 861.443 448.409 859.905 447.483C858.521 446.558 856.521 446.095 853.907 446.095C844.219 446.095 836.76 450.029 831.532 457.896C826.457 465.61 823.919 478.182 823.919 495.614C823.919 510.578 826.764 522.071 832.454 530.093C838.144 538.115 846.987 542.126 858.982 542.126C866.056 542.126 871.9 540.814 876.513 538.192C881.127 535.415 885.356 531.481 889.2 526.391L892.891 529.167C889.047 538.423 883.126 545.52 875.129 550.456C867.286 555.238 857.906 557.629 846.987 557.629Z" fill="white"/>
<path d="M953.404 439.847C963.092 439.847 971.396 441.853 978.317 445.864C985.237 449.874 990.542 455.428 994.233 462.524C998.078 469.466 1000 477.488 1000 486.59C1000 488.595 999.923 490.524 999.769 492.375C999.616 494.072 999.308 495.692 998.847 497.234H929.414C929.567 513.124 932.489 524.539 938.179 531.481C944.023 538.423 952.481 541.894 963.553 541.894C971.243 541.894 977.471 540.66 982.238 538.192C987.005 535.569 991.388 531.944 995.387 527.316L999.077 530.787C994.464 539.272 988.159 545.905 980.162 550.687C972.319 555.315 962.938 557.629 952.02 557.629C941.101 557.629 931.49 555.315 923.185 550.687C914.881 546.059 908.345 539.426 903.578 530.787C898.965 521.994 896.658 511.504 896.658 499.317C896.658 486.667 899.349 475.945 904.731 467.152C910.268 458.359 917.342 451.649 925.953 447.021C934.719 442.238 943.869 439.847 953.404 439.847ZM952.25 446.558C947.791 446.558 943.869 447.869 940.486 450.492C937.256 452.96 934.642 457.434 932.643 463.913C930.798 470.238 929.721 479.185 929.414 490.755H970.704C972.396 475.174 971.781 463.913 968.859 456.971C965.937 450.029 960.401 446.558 952.25 446.558Z" fill="white"/>
</svg>
