<svg width="26" height="30" viewBox="0 0 26 30" fill="none" xmlns="http://www.w3.org/2000/svg">
<path fill-rule="evenodd" clip-rule="evenodd" d="M13 2.92628C11.7385 2.92628 10.7158 3.94896 10.7158 5.2105C10.7158 6.47204 11.7385 7.49471 13 7.49471C14.2616 7.49471 15.2843 6.47204 15.2843 5.2105C15.2843 3.94896 14.2616 2.92628 13 2.92628ZM8.75787 5.2105C8.75787 2.86764 10.6571 0.968384 13 0.968384C15.3429 0.968384 17.2421 2.86764 17.2421 5.2105C17.2421 7.55336 15.3429 9.45261 13 9.45261C10.6571 9.45261 8.75787 7.55336 8.75787 5.2105ZM14.1339 12.1572C13.3891 12.0318 12.6108 12.0318 11.866 12.1572C8.59283 12.7086 6.14734 15.5823 6.14734 18.9414C6.14734 19.6783 5.73529 20.358 5.07326 20.6925L1.6941 22.4001C1.21154 22.6439 0.622685 22.4503 0.378861 21.9678C0.135025 21.4852 0.328543 20.8964 0.8111 20.6526L4.18846 18.9459C4.18897 18.945 4.18944 18.9436 4.18944 18.9414C4.18944 14.6271 7.32447 10.9367 11.5409 10.2265C12.5009 10.0648 13.499 10.0648 14.4592 10.2265C18.6755 10.9367 21.8106 14.6271 21.8106 18.9414C21.8106 18.9436 21.811 18.945 21.8115 18.9459L25.1889 20.6526C25.6714 20.8964 25.865 21.4852 25.6212 21.9678C25.3772 22.4503 24.7884 22.6439 24.3059 22.4001L20.9267 20.6925C20.2646 20.358 19.8527 19.6783 19.8527 18.9414C19.8527 15.5823 17.4071 12.7086 14.1339 12.1572ZM10.3242 19.4379C10.7567 19.7623 10.8444 20.3759 10.52 20.8084L9.15423 22.6294C9.11859 22.6769 9.09061 22.7142 9.06167 22.7508C8.58954 23.3477 7.93997 23.7789 7.20673 23.9824C7.1618 23.995 7.11649 24.0063 7.05891 24.0207L7.04917 24.0232L5.11113 24.5075C4.18589 24.739 3.53681 25.5703 3.53681 26.5239C3.53681 26.8275 3.78293 27.0737 4.08655 27.0737H6.11767C6.92226 27.0737 7.24678 27.0721 7.55631 27.0357C8.31099 26.9471 9.0394 26.7043 9.69637 26.3224C9.96583 26.1658 10.2264 25.9723 10.87 25.4896L11.1074 25.3116L13.7179 23.3537C14.1504 23.0293 14.764 23.1169 15.0885 23.5495C15.4128 23.982 15.3251 24.5957 14.8927 24.92L13.7118 25.8056L15.3534 26.4212C16.1714 26.7279 16.5014 26.8497 16.8369 26.9282C17.0176 26.9705 17.2004 27.0036 17.3846 27.0275C17.7261 27.0719 18.0779 27.0737 18.9515 27.0737H21.9134C22.217 27.0737 22.4632 26.8275 22.4632 26.5239C22.4632 25.5703 21.8141 24.739 20.8888 24.5075L18.9406 24.0206C18.8831 24.0062 18.8381 23.995 18.7932 23.9824C18.06 23.7789 17.4104 23.3477 16.9383 22.7508C16.9094 22.7144 16.8812 22.6768 16.8457 22.6294L16.8397 22.6214L15.48 20.8084C15.1556 20.3759 15.2433 19.7623 15.6758 19.4379C16.1083 19.1135 16.7219 19.2011 17.0464 19.6337L18.4061 21.4467C18.4504 21.5058 18.4626 21.5219 18.4738 21.5361C18.6884 21.8073 18.9836 22.0034 19.317 22.0959C19.3344 22.1008 19.3537 22.1057 19.4256 22.1236L21.3637 22.6081C23.1605 23.0574 24.4211 24.6719 24.4211 26.5239C24.4211 27.9089 23.2983 29.0316 21.9134 29.0316H18.884C18.0985 29.0316 17.6144 29.0317 17.1324 28.9691C16.8832 28.9367 16.6359 28.8918 16.3912 28.8346C15.9178 28.7241 15.4646 28.554 14.7291 28.2782L11.8531 27.1997C11.3564 27.5718 11.0287 27.8126 10.6802 28.0152C9.79139 28.5318 8.8059 28.8602 7.78486 28.9803C7.34771 29.0317 6.90301 29.0316 6.18056 29.0316H4.08655C2.70162 29.0316 1.57891 27.9089 1.57891 26.5239C1.57891 24.6719 2.83944 23.0574 4.63627 22.6081L6.57432 22.1236C6.64622 22.1057 6.66557 22.1008 6.68303 22.0959C7.01632 22.0034 7.31157 21.8073 7.52618 21.5361C7.53742 21.5219 7.54944 21.506 7.59393 21.4467L8.95366 19.6337C9.27806 19.2011 9.89166 19.1135 10.3242 19.4379Z" fill="white"/>
</svg>
