<svg width="64" height="94" viewBox="0 0 64 94" fill="none" xmlns="http://www.w3.org/2000/svg">
<g clip-path="url(#clip0_20_16)">
<path d="M48.0779 93.3752C46.574 93.3791 45.1287 92.7815 44.0623 91.715L32.0003 79.649L19.9383 91.715C17.7195 93.9298 14.1258 93.9298 11.9031 91.715L1.65314 81.465C0.465642 80.2462 -0.120258 78.5666 0.0515415 76.8712C0.223422 75.1798 1.13744 73.6524 2.54374 72.6993L12.4304 66.0938L12.4343 54.6248C11.8289 48.8201 16.8132 46.1443 18.2507 41.7848C18.5945 40.2496 19.0047 38.4645 19.3562 36.9059L11.6648 29.2184C-4.42515 13.2414 14.6727 -8.55456 32.0009 4.73844C49.3249 -8.55856 68.4228 13.2423 52.3408 29.2154L44.6494 36.9107L45.7472 41.7623C47.2628 46.3053 52.1574 48.6725 51.5558 54.8873L51.3565 54.8678C51.5518 56.9928 51.5675 60.4537 51.5714 66.0948L61.462 72.7003H61.4581C62.8683 73.6534 63.7784 75.1847 63.9503 76.8761C64.1222 78.5675 63.5323 80.2472 62.3487 81.4659L52.0987 91.7159H52.0948C51.0323 92.7823 49.587 93.38 48.0792 93.3761L48.0779 93.3752ZM6.56194 77.5312L15.9213 86.8906L28.8743 73.9336V36.3356C28.8548 35.5934 28.2962 34.984 27.5618 34.8981C26.8275 34.8161 26.1438 35.2849 25.9602 35.9997L25.9407 35.9958C25.5071 38.0153 24.9134 40.6833 24.3587 43.1169C23.7415 47.5857 18.6126 50.4919 18.6712 54.3549L18.6829 67.7689V67.765C18.6829 68.8119 18.1595 69.7845 17.2923 70.3666L6.56194 77.5312ZM35.1239 73.9335L48.0769 86.8905L57.4363 77.5311L46.7023 70.367H46.7062C45.8391 69.785 45.3156 68.8123 45.3156 67.7654C45.3156 67.7654 45.3156 55.2304 45.3117 54.6634C45.3117 54.5658 45.3157 54.4642 45.3235 54.3627C45.3742 50.4447 40.2727 47.6283 39.6399 43.1087L38.1751 36.6204C38.1555 36.5305 38.1399 36.4485 38.1282 36.3625L38.1243 36.3547V36.3586C38.1087 35.5422 37.4485 34.8898 36.636 34.882C35.8196 34.8781 35.1477 35.5227 35.1243 36.3351L35.1239 73.9335ZM36.5848 28.6525C38.5809 28.6486 40.5028 29.3947 41.9715 30.7423L47.9168 24.797C59.2328 13.488 45.5066 -0.225965 34.2098 11.121V11.1249C33.6239 11.7109 32.827 12.039 31.9989 12.039C31.1708 12.039 30.3739 11.7109 29.788 11.1249C18.487 -0.219058 4.76104 13.4882 16.081 24.8049L22.0146 30.7307C24.788 28.2151 28.9365 27.9534 32.0068 30.0979C33.3427 29.1487 34.9442 28.6447 36.5848 28.6525Z" fill="white"/>
</g>
<defs>
<clipPath id="clip0_20_16">
<rect width="64" height="94" fill="white"/>
</clipPath>
</defs>
</svg>
