<svg width="46" height="29" viewBox="0 0 46 29" fill="none" xmlns="http://www.w3.org/2000/svg">
<path fill-rule="evenodd" clip-rule="evenodd" d="M23 2.42628C21.7385 2.42628 20.7158 3.44896 20.7158 4.7105C20.7158 5.97204 21.7385 6.99471 23 6.99471C24.2616 6.99471 25.2843 5.97204 25.2843 4.7105C25.2843 3.44896 24.2616 2.42628 23 2.42628ZM18.7579 4.7105C18.7579 2.36764 20.6571 0.468384 23 0.468384C25.3429 0.468384 27.2421 2.36764 27.2421 4.7105C27.2421 7.05336 25.3429 8.95261 23 8.95261C20.6571 8.95261 18.7579 7.05336 18.7579 4.7105ZM24.1339 11.6572C23.3891 11.5318 22.6108 11.5318 21.866 11.6572C18.5928 12.2086 16.1473 15.0823 16.1473 18.4414C16.1473 19.1783 15.7353 19.858 15.0733 20.1925L11.6941 21.9001C11.2115 22.1439 10.6227 21.9503 10.3789 21.4678C10.135 20.9852 10.3285 20.3964 10.8111 20.1526L14.1885 18.4459C14.189 18.445 14.1894 18.4436 14.1894 18.4414C14.1894 14.1271 17.3245 10.4367 21.5409 9.72653C22.5009 9.56482 23.499 9.56482 24.4592 9.72653C28.6755 10.4367 31.8106 14.1271 31.8106 18.4414C31.8106 18.4436 31.811 18.445 31.8115 18.4459L35.1889 20.1526C35.6714 20.3964 35.865 20.9852 35.6212 21.4678C35.3772 21.9503 34.7884 22.1439 34.3059 21.9001L30.9267 20.1925C30.2646 19.858 29.8527 19.1783 29.8527 18.4414C29.8527 15.0823 27.4071 12.2086 24.1339 11.6572ZM20.3242 18.9379C20.7567 19.2623 20.8444 19.8759 20.52 20.3084L19.1542 22.1294C19.1186 22.1769 19.0906 22.2142 19.0617 22.2508C18.5895 22.8477 17.94 23.2789 17.2067 23.4824C17.1618 23.495 17.1165 23.5063 17.0589 23.5207L17.0492 23.5232L15.1111 24.0075C14.1859 24.239 13.5368 25.0703 13.5368 26.0239C13.5368 26.3275 13.7829 26.5737 14.0865 26.5737H16.1177C16.9223 26.5737 17.2468 26.5721 17.5563 26.5357C18.311 26.4471 19.0394 26.2043 19.6964 25.8224C19.9658 25.6658 20.2264 25.4723 20.87 24.9896L21.1074 24.8116L23.7179 22.8537C24.1504 22.5293 24.764 22.6169 25.0885 23.0495C25.4128 23.482 25.3251 24.0957 24.8927 24.42L23.7118 25.3056L25.3534 25.9212C26.1714 26.2279 26.5014 26.3497 26.8369 26.4282C27.0176 26.4705 27.2004 26.5036 27.3846 26.5275C27.7261 26.5719 28.0779 26.5737 28.9515 26.5737H31.9134C32.217 26.5737 32.4632 26.3275 32.4632 26.0239C32.4632 25.0703 31.8141 24.239 30.8888 24.0075L28.9406 23.5206C28.8831 23.5062 28.8381 23.495 28.7932 23.4824C28.06 23.2789 27.4104 22.8477 26.9383 22.2508C26.9094 22.2144 26.8812 22.1768 26.8457 22.1294L26.8397 22.1214L25.48 20.3084C25.1556 19.8759 25.2433 19.2623 25.6758 18.9379C26.1083 18.6135 26.7219 18.7011 27.0464 19.1337L28.4061 20.9467C28.4504 21.0058 28.4626 21.0219 28.4738 21.0361C28.6884 21.3073 28.9836 21.5034 29.317 21.5959C29.3344 21.6008 29.3537 21.6057 29.4256 21.6236L31.3637 22.1081C33.1605 22.5574 34.4211 24.1719 34.4211 26.0239C34.4211 27.4089 33.2983 28.5316 31.9134 28.5316H28.884C28.0985 28.5316 27.6144 28.5317 27.1324 28.4691C26.8832 28.4367 26.6359 28.3918 26.3912 28.3346C25.9178 28.2241 25.4646 28.054 24.7291 27.7782L21.8531 26.6997C21.3564 27.0718 21.0287 27.3126 20.6802 27.5152C19.7914 28.0318 18.8059 28.3602 17.7849 28.4803C17.3477 28.5317 16.903 28.5316 16.1806 28.5316H14.0865C12.7016 28.5316 11.5789 27.4089 11.5789 26.0239C11.5789 24.1719 12.8394 22.5574 14.6363 22.1081L16.5743 21.6236C16.6462 21.6057 16.6656 21.6008 16.683 21.5959C17.0163 21.5034 17.3116 21.3073 17.5262 21.0361C17.5374 21.0219 17.5494 21.006 17.5939 20.9467L18.9537 19.1337C19.2781 18.7011 19.8917 18.6135 20.3242 18.9379Z" fill="white"/>
</svg>
