<svg width="300" height="182" viewBox="0 0 300 182" fill="none" xmlns="http://www.w3.org/2000/svg">
<g filter="url(#filter0_d_78_6528)">
<path d="M50 45.6667C50 42.9053 52.2386 40.6667 55 40.6667H245C247.761 40.6667 250 42.9053 250 45.6667V61.6667H50V45.6667Z" fill="#5A205D" shape-rendering="crispEdges"/>
<path d="M83.4177 54.6667L85.9877 48.9467H82.6677V47.5267H87.7977V48.5667L85.1877 54.6667H83.4177ZM97.3766 49.1767V53.4267H98.1866V56.6567H96.6866V54.6667H93.1466V56.6567H91.6566V53.4267H92.1266C92.3466 53.0801 92.5366 52.6801 92.6966 52.2267C92.8566 51.7667 92.9866 51.2767 93.0866 50.7567C93.1866 50.2367 93.2599 49.7101 93.3066 49.1767H97.3766ZM94.6666 50.4367C94.6132 50.7967 94.5499 51.1467 94.4766 51.4867C94.4099 51.8201 94.3232 52.1467 94.2166 52.4667C94.1166 52.7867 93.9966 53.1067 93.8566 53.4267H95.6866V50.4367H94.6666ZM101.124 49.1767V51.2267H102.944V49.1767H104.624V54.6667H102.944V52.4767H101.124V54.6667H99.4337V49.1767H101.124ZM108.835 49.0767C109.355 49.0767 109.801 49.1734 110.175 49.3667C110.555 49.5534 110.845 49.8334 111.045 50.2067C111.251 50.5734 111.355 51.0301 111.355 51.5767V52.3567H107.885C107.898 52.7167 108.015 53.0034 108.235 53.2167C108.455 53.4301 108.768 53.5367 109.175 53.5367C109.528 53.5367 109.848 53.5034 110.135 53.4367C110.421 53.3701 110.718 53.2634 111.025 53.1167V54.3667C110.758 54.5067 110.471 54.6067 110.165 54.6667C109.858 54.7334 109.481 54.7667 109.035 54.7667C108.481 54.7667 107.988 54.6667 107.555 54.4667C107.128 54.2667 106.791 53.9601 106.545 53.5467C106.305 53.1267 106.185 52.5967 106.185 51.9567C106.185 51.3034 106.295 50.7667 106.515 50.3467C106.735 49.9201 107.045 49.6034 107.445 49.3967C107.845 49.1834 108.308 49.0767 108.835 49.0767ZM108.865 50.2467C108.605 50.2467 108.388 50.3301 108.215 50.4967C108.048 50.6567 107.948 50.9134 107.915 51.2667H109.805C109.805 51.0734 109.768 50.9001 109.695 50.7467C109.628 50.5934 109.525 50.4734 109.385 50.3867C109.245 50.2934 109.071 50.2467 108.865 50.2467ZM118.19 46.8067C118.15 47.1601 118.047 47.4734 117.88 47.7467C117.72 48.0201 117.47 48.2334 117.13 48.3867C116.79 48.5334 116.337 48.6067 115.77 48.6067C115.217 48.6067 114.77 48.5367 114.43 48.3967C114.097 48.2567 113.85 48.0534 113.69 47.7867C113.537 47.5201 113.447 47.1934 113.42 46.8067H114.87C114.897 47.1667 114.98 47.4101 115.12 47.5367C115.267 47.6567 115.49 47.7167 115.79 47.7167C116.043 47.7167 116.253 47.6534 116.42 47.5267C116.587 47.3934 116.683 47.1534 116.71 46.8067H118.19ZM114.47 51.3267C114.47 51.4401 114.467 51.5701 114.46 51.7167C114.453 51.8634 114.447 52.0134 114.44 52.1667C114.433 52.3134 114.423 52.4501 114.41 52.5767C114.397 52.6967 114.387 52.7934 114.38 52.8667L116.7 49.1767H118.63V54.6667H117.05V52.5667C117.05 52.3934 117.053 52.2067 117.06 52.0067C117.067 51.8001 117.077 51.6067 117.09 51.4267C117.11 51.2401 117.123 51.0867 117.13 50.9667L114.81 54.6667H112.89V49.1767H114.47V51.3267ZM128.565 49.1767V54.6667H126.875V50.4367H125.155V54.6667H123.465V49.1767H128.565ZM133.608 49.0767C134.222 49.0767 134.712 49.3201 135.078 49.8067C135.445 50.2867 135.628 50.9867 135.628 51.9067C135.628 52.5334 135.538 53.0601 135.358 53.4867C135.178 53.9134 134.932 54.2334 134.618 54.4467C134.312 54.6601 133.958 54.7667 133.558 54.7667C133.298 54.7667 133.075 54.7334 132.888 54.6667C132.708 54.6001 132.552 54.5167 132.418 54.4167C132.292 54.3101 132.185 54.2034 132.098 54.0967H132.028C132.048 54.2234 132.065 54.3567 132.078 54.4967C132.092 54.6367 132.098 54.7867 132.098 54.9467V57.0667H130.408V49.1767H131.778L132.018 49.8767H132.098C132.192 49.7301 132.305 49.5967 132.438 49.4767C132.578 49.3567 132.745 49.2601 132.938 49.1867C133.132 49.1134 133.355 49.0767 133.608 49.0767ZM133.018 50.4067C132.792 50.4067 132.612 50.4567 132.478 50.5567C132.352 50.6567 132.258 50.8067 132.198 51.0067C132.138 51.2001 132.105 51.4467 132.098 51.7467V51.8967C132.098 52.2234 132.125 52.5001 132.178 52.7267C132.238 52.9467 132.335 53.1167 132.468 53.2367C132.608 53.3501 132.798 53.4067 133.038 53.4067C133.232 53.4067 133.392 53.3534 133.518 53.2467C133.652 53.1334 133.748 52.9634 133.808 52.7367C133.875 52.5101 133.908 52.2267 133.908 51.8867C133.908 51.3734 133.835 51.0001 133.688 50.7667C133.542 50.5267 133.318 50.4067 133.018 50.4067ZM142.295 51.9067C142.295 52.3667 142.232 52.7734 142.105 53.1267C141.985 53.4801 141.805 53.7801 141.565 54.0267C141.332 54.2734 141.049 54.4601 140.715 54.5867C140.389 54.7067 140.012 54.7667 139.585 54.7667C139.199 54.7667 138.839 54.7067 138.505 54.5867C138.179 54.4601 137.895 54.2767 137.655 54.0367C137.422 53.7901 137.239 53.4901 137.105 53.1367C136.972 52.7767 136.905 52.3667 136.905 51.9067C136.905 51.3001 137.012 50.7867 137.225 50.3667C137.445 49.9467 137.759 49.6267 138.165 49.4067C138.572 49.1867 139.055 49.0767 139.615 49.0767C140.142 49.0767 140.605 49.1867 141.005 49.4067C141.405 49.6267 141.719 49.9467 141.945 50.3667C142.179 50.7867 142.295 51.3001 142.295 51.9067ZM138.615 51.9067C138.615 52.2467 138.649 52.5334 138.715 52.7667C138.782 53.0001 138.889 53.1767 139.035 53.2967C139.182 53.4101 139.372 53.4667 139.605 53.4667C139.845 53.4667 140.035 53.4101 140.175 53.2967C140.315 53.1767 140.419 53.0001 140.485 52.7667C140.552 52.5334 140.585 52.2467 140.585 51.9067C140.585 51.5667 140.552 51.2834 140.485 51.0567C140.419 50.8301 140.312 50.6601 140.165 50.5467C140.025 50.4334 139.835 50.3767 139.595 50.3767C139.255 50.3767 139.005 50.5067 138.845 50.7667C138.692 51.0201 138.615 51.4001 138.615 51.9067ZM143.575 51.3767C143.575 50.5767 143.675 49.8934 143.875 49.3267C144.081 48.7534 144.418 48.2967 144.885 47.9567C145.351 47.6101 145.975 47.3767 146.755 47.2567C147.081 47.2034 147.425 47.1567 147.785 47.1167C148.145 47.0767 148.508 47.0367 148.875 46.9967L149.055 48.4267C148.888 48.4467 148.708 48.4667 148.515 48.4867C148.321 48.5067 148.125 48.5267 147.925 48.5467C147.725 48.5667 147.535 48.5901 147.355 48.6167C147.175 48.6367 147.008 48.6567 146.855 48.6767C146.561 48.7167 146.315 48.7767 146.115 48.8567C145.921 48.9301 145.765 49.0301 145.645 49.1567C145.525 49.2834 145.435 49.4467 145.375 49.6467C145.321 49.8401 145.285 50.0767 145.265 50.3567H145.345C145.418 50.2367 145.521 50.1134 145.655 49.9867C145.795 49.8601 145.968 49.7567 146.175 49.6767C146.381 49.5901 146.621 49.5467 146.895 49.5467C147.321 49.5467 147.695 49.6334 148.015 49.8067C148.335 49.9734 148.585 50.2334 148.765 50.5867C148.945 50.9401 149.035 51.3867 149.035 51.9267C149.035 52.5534 148.918 53.0801 148.685 53.5067C148.458 53.9267 148.138 54.2434 147.725 54.4567C147.311 54.6634 146.835 54.7667 146.295 54.7667C145.881 54.7667 145.508 54.6934 145.175 54.5467C144.841 54.4001 144.555 54.1834 144.315 53.8967C144.075 53.6034 143.891 53.2467 143.765 52.8267C143.638 52.4067 143.575 51.9234 143.575 51.3767ZM146.385 53.4567C146.578 53.4567 146.741 53.4134 146.875 53.3267C147.015 53.2401 147.125 53.0967 147.205 52.8967C147.285 52.6967 147.325 52.4301 147.325 52.0967C147.325 51.7034 147.261 51.3834 147.135 51.1367C147.015 50.8901 146.795 50.7667 146.475 50.7667C146.288 50.7667 146.111 50.8134 145.945 50.9067C145.785 51.0001 145.645 51.1067 145.525 51.2267C145.411 51.3467 145.331 51.4501 145.285 51.5367C145.285 51.7701 145.305 52.0034 145.345 52.2367C145.385 52.4634 145.445 52.6701 145.525 52.8567C145.611 53.0367 145.725 53.1834 145.865 53.2967C146.011 53.4034 146.185 53.4567 146.385 53.4567ZM152.302 49.1767V51.2267H154.122V49.1767H155.802V54.6667H154.122V52.4767H152.302V54.6667H150.612V49.1767H152.302ZM157.643 54.6667V49.1767H159.333V51.2267H160.013C160.58 51.2267 161.036 51.2901 161.383 51.4167C161.73 51.5434 161.983 51.7301 162.143 51.9767C162.303 52.2167 162.383 52.5167 162.383 52.8767C162.383 53.2367 162.303 53.5534 162.143 53.8267C161.983 54.0934 161.723 54.3001 161.363 54.4467C161.01 54.5934 160.533 54.6667 159.933 54.6667H157.643ZM159.853 53.5367C160.113 53.5367 160.316 53.4901 160.463 53.3967C160.616 53.2967 160.693 53.1434 160.693 52.9367C160.693 52.7367 160.626 52.5901 160.493 52.4967C160.36 52.4034 160.14 52.3567 159.833 52.3567H159.333V53.5367H159.853ZM163.093 54.6667V49.1767H164.773V54.6667H163.093ZM171.917 46.8067C171.877 47.1601 171.774 47.4734 171.607 47.7467C171.447 48.0201 171.197 48.2334 170.857 48.3867C170.517 48.5334 170.064 48.6067 169.497 48.6067C168.944 48.6067 168.497 48.5367 168.157 48.3967C167.824 48.2567 167.577 48.0534 167.417 47.7867C167.264 47.5201 167.174 47.1934 167.147 46.8067H168.597C168.624 47.1667 168.707 47.4101 168.847 47.5367C168.994 47.6567 169.217 47.7167 169.517 47.7167C169.771 47.7167 169.981 47.6534 170.147 47.5267C170.314 47.3934 170.411 47.1534 170.437 46.8067H171.917ZM168.197 51.3267C168.197 51.4401 168.194 51.5701 168.187 51.7167C168.181 51.8634 168.174 52.0134 168.167 52.1667C168.161 52.3134 168.151 52.4501 168.137 52.5767C168.124 52.6967 168.114 52.7934 168.107 52.8667L170.427 49.1767H172.357V54.6667H170.777V52.5667C170.777 52.3934 170.781 52.2067 170.787 52.0067C170.794 51.8001 170.804 51.6067 170.817 51.4267C170.837 51.2401 170.851 51.0867 170.857 50.9667L168.537 54.6667H166.617V49.1767H168.197V51.3267ZM182.293 49.1767V54.6667H180.603V50.4367H178.883V54.6667H177.193V49.1767H182.293ZM186.506 49.0767C187.026 49.0767 187.472 49.1734 187.846 49.3667C188.226 49.5534 188.516 49.8334 188.716 50.2067C188.922 50.5734 189.026 51.0301 189.026 51.5767V52.3567H185.556C185.569 52.7167 185.686 53.0034 185.906 53.2167C186.126 53.4301 186.439 53.5367 186.846 53.5367C187.199 53.5367 187.519 53.5034 187.806 53.4367C188.092 53.3701 188.389 53.2634 188.696 53.1167V54.3667C188.429 54.5067 188.142 54.6067 187.836 54.6667C187.529 54.7334 187.152 54.7667 186.706 54.7667C186.152 54.7667 185.659 54.6667 185.226 54.4667C184.799 54.2667 184.462 53.9601 184.216 53.5467C183.976 53.1267 183.856 52.5967 183.856 51.9567C183.856 51.3034 183.966 50.7667 184.186 50.3467C184.406 49.9201 184.716 49.6034 185.116 49.3967C185.516 49.1834 185.979 49.0767 186.506 49.0767ZM186.536 50.2467C186.276 50.2467 186.059 50.3301 185.886 50.4967C185.719 50.6567 185.619 50.9134 185.586 51.2667H187.476C187.476 51.0734 187.439 50.9001 187.366 50.7467C187.299 50.5934 187.196 50.4734 187.056 50.3867C186.916 50.2934 186.742 50.2467 186.536 50.2467ZM193.761 49.0767C194.374 49.0767 194.864 49.3201 195.231 49.8067C195.598 50.2867 195.781 50.9867 195.781 51.9067C195.781 52.5334 195.691 53.0601 195.511 53.4867C195.331 53.9134 195.084 54.2334 194.771 54.4467C194.464 54.6601 194.111 54.7667 193.711 54.7667C193.451 54.7667 193.228 54.7334 193.041 54.6667C192.861 54.6001 192.704 54.5167 192.571 54.4167C192.444 54.3101 192.338 54.2034 192.251 54.0967H192.181C192.201 54.2234 192.218 54.3567 192.231 54.4967C192.244 54.6367 192.251 54.7867 192.251 54.9467V57.0667H190.561V49.1767H191.931L192.171 49.8767H192.251C192.344 49.7301 192.458 49.5967 192.591 49.4767C192.731 49.3567 192.898 49.2601 193.091 49.1867C193.284 49.1134 193.508 49.0767 193.761 49.0767ZM193.171 50.4067C192.944 50.4067 192.764 50.4567 192.631 50.5567C192.504 50.6567 192.411 50.8067 192.351 51.0067C192.291 51.2001 192.258 51.4467 192.251 51.7467V51.8967C192.251 52.2234 192.278 52.5001 192.331 52.7267C192.391 52.9467 192.488 53.1167 192.621 53.2367C192.761 53.3501 192.951 53.4067 193.191 53.4067C193.384 53.4067 193.544 53.3534 193.671 53.2467C193.804 53.1334 193.901 52.9634 193.961 52.7367C194.028 52.5101 194.061 52.2267 194.061 51.8867C194.061 51.3734 193.988 51.0001 193.841 50.7667C193.694 50.5267 193.471 50.4067 193.171 50.4067ZM198.918 51.3267C198.918 51.4401 198.915 51.5701 198.908 51.7167C198.901 51.8634 198.895 52.0134 198.888 52.1667C198.881 52.3134 198.871 52.4501 198.858 52.5767C198.845 52.6967 198.835 52.7934 198.828 52.8667L201.148 49.1767H203.078V54.6667H201.498V52.5667C201.498 52.3934 201.501 52.2067 201.508 52.0067C201.515 51.8001 201.525 51.6067 201.538 51.4267C201.558 51.2401 201.571 51.0867 201.578 50.9667L199.258 54.6667H197.338V49.1767H198.918V51.3267ZM210.026 51.9067C210.026 52.3667 209.962 52.7734 209.836 53.1267C209.716 53.4801 209.536 53.7801 209.296 54.0267C209.062 54.2734 208.779 54.4601 208.446 54.5867C208.119 54.7067 207.742 54.7667 207.316 54.7667C206.929 54.7667 206.569 54.7067 206.236 54.5867C205.909 54.4601 205.626 54.2767 205.386 54.0367C205.152 53.7901 204.969 53.4901 204.836 53.1367C204.702 52.7767 204.636 52.3667 204.636 51.9067C204.636 51.3001 204.742 50.7867 204.956 50.3667C205.176 49.9467 205.489 49.6267 205.896 49.4067C206.302 49.1867 206.786 49.0767 207.346 49.0767C207.872 49.0767 208.336 49.1867 208.736 49.4067C209.136 49.6267 209.449 49.9467 209.676 50.3667C209.909 50.7867 210.026 51.3001 210.026 51.9067ZM206.346 51.9067C206.346 52.2467 206.379 52.5334 206.446 52.7667C206.512 53.0001 206.619 53.1767 206.766 53.2967C206.912 53.4101 207.102 53.4667 207.336 53.4667C207.576 53.4667 207.766 53.4101 207.906 53.2967C208.046 53.1767 208.149 53.0001 208.216 52.7667C208.282 52.5334 208.316 52.2467 208.316 51.9067C208.316 51.5667 208.282 51.2834 208.216 51.0567C208.149 50.8301 208.042 50.6601 207.896 50.5467C207.756 50.4334 207.566 50.3767 207.326 50.3767C206.986 50.3767 206.736 50.5067 206.576 50.7667C206.422 51.0201 206.346 51.4001 206.346 51.9067ZM216.715 49.1767V53.4267H217.525V56.6567H216.025V54.6667H212.485V56.6567H210.995V53.4267H211.465C211.685 53.0801 211.875 52.6801 212.035 52.2267C212.195 51.7667 212.325 51.2767 212.425 50.7567C212.525 50.2367 212.599 49.7101 212.645 49.1767H216.715ZM214.005 50.4367C213.952 50.7967 213.889 51.1467 213.815 51.4867C213.749 51.8201 213.662 52.1467 213.555 52.4667C213.455 52.7867 213.335 53.1067 213.195 53.4267H215.025V50.4367H214.005Z" fill="white"/>
</g>
<rect x="1" y="62.6667" width="298" height="88" rx="17" stroke="white" stroke-width="2"/>
<path d="M109.72 113.667H100.576V111.597L103.762 108.375C104.41 107.703 104.926 107.151 105.31 106.719C105.694 106.287 105.964 105.909 106.12 105.585C106.288 105.249 106.372 104.895 106.372 104.523C106.372 104.067 106.24 103.737 105.976 103.533C105.712 103.317 105.37 103.209 104.95 103.209C104.506 103.209 104.062 103.323 103.618 103.551C103.174 103.779 102.694 104.109 102.178 104.541L100.504 102.579C100.876 102.243 101.272 101.931 101.692 101.643C102.124 101.343 102.622 101.103 103.186 100.923C103.75 100.731 104.434 100.635 105.238 100.635C106.102 100.635 106.84 100.791 107.452 101.103C108.076 101.403 108.556 101.817 108.892 102.345C109.24 102.861 109.414 103.455 109.414 104.127C109.414 104.667 109.336 105.171 109.18 105.639C109.024 106.095 108.79 106.539 108.478 106.971C108.178 107.391 107.8 107.829 107.344 108.285C106.888 108.741 106.372 109.239 105.796 109.779L104.464 111.003V111.111H109.72V113.667ZM120.469 111.093H118.993V113.667H115.987V111.093H110.659V108.897L116.167 100.815H118.993V108.753H120.469V111.093ZM115.987 106.899C115.987 106.719 115.987 106.509 115.987 106.269C115.999 106.017 116.005 105.771 116.005 105.531C116.017 105.279 116.029 105.063 116.041 104.883C116.053 104.691 116.065 104.571 116.077 104.523H115.987C115.879 104.775 115.771 105.003 115.663 105.207C115.555 105.399 115.423 105.615 115.267 105.855L113.341 108.753H115.987V106.899ZM130.533 106.377C130.533 107.193 130.467 107.973 130.335 108.717C130.203 109.461 129.987 110.145 129.687 110.769C129.387 111.393 128.985 111.939 128.481 112.407C127.977 112.863 127.353 113.217 126.609 113.469C125.865 113.721 124.983 113.847 123.963 113.847C123.711 113.847 123.411 113.835 123.063 113.811C122.727 113.799 122.445 113.775 122.217 113.739V111.291C122.457 111.339 122.703 111.381 122.955 111.417C123.219 111.441 123.501 111.453 123.801 111.453C124.569 111.453 125.199 111.369 125.691 111.201C126.195 111.021 126.591 110.769 126.879 110.445C127.167 110.121 127.377 109.731 127.509 109.275C127.641 108.819 127.719 108.327 127.743 107.799H127.635C127.479 108.075 127.287 108.327 127.059 108.555C126.831 108.783 126.543 108.963 126.195 109.095C125.859 109.227 125.433 109.293 124.917 109.293C124.185 109.293 123.549 109.131 123.009 108.807C122.481 108.483 122.067 108.015 121.767 107.403C121.479 106.779 121.335 106.029 121.335 105.153C121.335 104.205 121.509 103.401 121.857 102.741C122.217 102.069 122.733 101.553 123.405 101.193C124.077 100.833 124.869 100.653 125.781 100.653C126.453 100.653 127.071 100.767 127.635 100.995C128.211 101.223 128.715 101.571 129.147 102.039C129.591 102.507 129.933 103.101 130.173 103.821C130.413 104.541 130.533 105.393 130.533 106.377ZM125.853 103.101C125.385 103.101 125.007 103.263 124.719 103.587C124.431 103.911 124.287 104.421 124.287 105.117C124.287 105.681 124.413 106.125 124.665 106.449C124.917 106.773 125.301 106.935 125.817 106.935C126.153 106.935 126.441 106.857 126.681 106.701C126.933 106.533 127.131 106.329 127.275 106.089C127.419 105.837 127.491 105.579 127.491 105.315C127.491 105.063 127.455 104.805 127.383 104.541C127.323 104.265 127.227 104.019 127.095 103.803C126.963 103.587 126.789 103.419 126.573 103.299C126.369 103.167 126.129 103.101 125.853 103.101ZM142.029 113.667V100.815H146.295C147.939 100.815 149.151 101.163 149.931 101.859C150.723 102.543 151.119 103.503 151.119 104.739C151.119 105.459 150.963 106.137 150.651 106.773C150.339 107.397 149.823 107.907 149.103 108.303C148.383 108.687 147.405 108.879 146.169 108.879H145.089V113.667H142.029ZM140.697 112.101V110.193H147.627V112.101H140.697ZM140.697 108.879V106.377H145.971V108.879H140.697ZM145.863 106.377C146.283 106.377 146.649 106.323 146.961 106.215C147.285 106.095 147.537 105.921 147.717 105.693C147.909 105.453 148.005 105.153 148.005 104.793C148.005 104.313 147.855 103.947 147.555 103.695C147.267 103.443 146.811 103.317 146.187 103.317H145.089V106.377H145.863ZM159.205 100.725L154.417 113.757H151.699L156.487 100.725H159.205ZM173.259 103.785V113.667H170.505V108.843C170.505 108.363 170.511 107.895 170.523 107.439C170.547 106.983 170.577 106.563 170.613 106.179H170.559L168.003 113.667H165.843L163.269 106.161H163.215C163.251 106.557 163.275 106.983 163.287 107.439C163.311 107.883 163.323 108.375 163.323 108.915V113.667H160.569V103.785H164.781L166.959 110.157L169.173 103.785H173.259ZM180.127 103.605C181.063 103.605 181.867 103.779 182.539 104.127C183.223 104.463 183.745 104.967 184.105 105.639C184.477 106.299 184.663 107.121 184.663 108.105V109.509H178.417C178.441 110.157 178.651 110.673 179.047 111.057C179.443 111.441 180.007 111.633 180.739 111.633C181.375 111.633 181.951 111.573 182.467 111.453C182.983 111.333 183.517 111.141 184.069 110.877V113.127C183.589 113.379 183.073 113.559 182.521 113.667C181.969 113.787 181.291 113.847 180.487 113.847C179.491 113.847 178.603 113.667 177.823 113.307C177.055 112.947 176.449 112.395 176.005 111.651C175.573 110.895 175.357 109.941 175.357 108.789C175.357 107.613 175.555 106.647 175.951 105.891C176.347 105.123 176.905 104.553 177.625 104.181C178.345 103.797 179.179 103.605 180.127 103.605ZM180.181 105.711C179.713 105.711 179.323 105.861 179.011 106.161C178.711 106.449 178.531 106.911 178.471 107.547H181.873C181.873 107.199 181.807 106.887 181.675 106.611C181.555 106.335 181.369 106.119 181.117 105.963C180.865 105.795 180.553 105.711 180.181 105.711ZM190.955 113.847C189.971 113.847 189.119 113.673 188.399 113.325C187.691 112.965 187.145 112.413 186.761 111.669C186.389 110.913 186.203 109.947 186.203 108.771C186.203 107.571 186.413 106.593 186.833 105.837C187.265 105.069 187.859 104.505 188.615 104.145C189.371 103.785 190.235 103.605 191.207 103.605C191.855 103.605 192.437 103.671 192.953 103.803C193.481 103.935 193.949 104.103 194.357 104.307L193.475 106.593C193.055 106.425 192.665 106.287 192.305 106.179C191.945 106.071 191.579 106.017 191.207 106.017C190.799 106.017 190.451 106.119 190.163 106.323C189.875 106.515 189.653 106.815 189.497 107.223C189.353 107.631 189.281 108.141 189.281 108.753C189.281 109.365 189.359 109.869 189.515 110.265C189.671 110.649 189.893 110.937 190.181 111.129C190.469 111.321 190.817 111.417 191.225 111.417C191.753 111.417 192.245 111.339 192.701 111.183C193.169 111.027 193.613 110.817 194.033 110.553V113.037C193.625 113.301 193.181 113.505 192.701 113.649C192.221 113.781 191.639 113.847 190.955 113.847ZM195.786 112.317C195.786 111.729 195.948 111.321 196.272 111.093C196.608 110.853 197.01 110.733 197.478 110.733C197.934 110.733 198.324 110.853 198.648 111.093C198.972 111.321 199.134 111.729 199.134 112.317C199.134 112.869 198.972 113.271 198.648 113.523C198.324 113.775 197.934 113.901 197.478 113.901C197.01 113.901 196.608 113.775 196.272 113.523C195.948 113.271 195.786 112.869 195.786 112.317Z" fill="white"/>
<defs>
<filter id="filter0_d_78_6528" x="46" y="40.6667" width="208" height="29" filterUnits="userSpaceOnUse" color-interpolation-filters="sRGB">
<feFlood flood-opacity="0" result="BackgroundImageFix"/>
<feColorMatrix in="SourceAlpha" type="matrix" values="0 0 0 0 0 0 0 0 0 0 0 0 0 0 0 0 0 0 127 0" result="hardAlpha"/>
<feOffset dy="4"/>
<feGaussianBlur stdDeviation="2"/>
<feComposite in2="hardAlpha" operator="out"/>
<feColorMatrix type="matrix" values="0 0 0 0 0 0 0 0 0 0 0 0 0 0 0 0 0 0 0.25 0"/>
<feBlend mode="normal" in2="BackgroundImageFix" result="effect1_dropShadow_78_6528"/>
<feBlend mode="normal" in="SourceGraphic" in2="effect1_dropShadow_78_6528" result="shape"/>
</filter>
</defs>
</svg>
