<svg width="300" height="116" viewBox="0 0 300 116" fill="none" xmlns="http://www.w3.org/2000/svg">
<rect x="1" y="1.16675" width="298" height="113" rx="17" stroke="white" stroke-width="2"/>
<rect x="20" y="49.6667" width="16" height="16" rx="8" fill="#FFF0E8"/>
<rect x="24" y="53.6667" width="8" height="8" rx="4" fill="white"/>
<path d="M75.616 22.5927H74.14V25.1667H71.134V22.5927H65.806V20.3967L71.314 12.3147H74.14V20.2527H75.616V22.5927ZM71.134 18.3987C71.134 18.2187 71.134 18.0087 71.134 17.7687C71.146 17.5167 71.152 17.2707 71.152 17.0307C71.164 16.7787 71.176 16.5627 71.188 16.3827C71.2 16.1907 71.212 16.0707 71.224 16.0227H71.134C71.026 16.2747 70.918 16.5027 70.81 16.7067C70.702 16.8987 70.57 17.1147 70.414 17.3547L68.488 20.2527H71.134V18.3987ZM83.7363 25.1667H80.6403V18.2367C80.6403 18.0687 80.6403 17.8347 80.6403 17.5347C80.6403 17.2227 80.6463 16.8927 80.6582 16.5447C80.6703 16.1847 80.6823 15.8727 80.6943 15.6087C80.5983 15.7287 80.4663 15.8727 80.2983 16.0407C80.1303 16.1967 79.9743 16.3347 79.8303 16.4547L78.3543 17.6607L76.8243 15.7527L81.0903 12.3147H83.7363V25.1667ZM91.9105 16.8507C92.6665 16.8507 93.3445 17.0067 93.9445 17.3187C94.5445 17.6307 95.0185 18.0867 95.3665 18.6867C95.7145 19.2747 95.8885 20.0007 95.8885 20.8647C95.8885 21.8127 95.6965 22.6227 95.3125 23.2947C94.9285 23.9547 94.3525 24.4647 93.5845 24.8247C92.8285 25.1727 91.8745 25.3467 90.7225 25.3467C90.0145 25.3467 89.3605 25.2867 88.7605 25.1667C88.1605 25.0467 87.6325 24.8727 87.1765 24.6447V22.0707C87.6205 22.2867 88.1545 22.4787 88.7785 22.6467C89.4145 22.8147 90.0025 22.8987 90.5425 22.8987C91.0345 22.8987 91.4425 22.8327 91.7665 22.7007C92.1025 22.5567 92.3605 22.3527 92.5405 22.0887C92.7205 21.8127 92.8105 21.4647 92.8105 21.0447C92.8105 20.4807 92.6125 20.0487 92.2165 19.7487C91.8325 19.4367 91.2385 19.2807 90.4345 19.2807C90.1105 19.2807 89.7805 19.3167 89.4445 19.3887C89.1085 19.4487 88.8205 19.5087 88.5805 19.5687L87.4105 18.9747L87.8965 12.3147H95.0245V14.8887H90.5245L90.3265 17.0307C90.5305 16.9947 90.7405 16.9587 90.9565 16.9227C91.1725 16.8747 91.4905 16.8507 91.9105 16.8507ZM107.582 25.1667V12.3147H111.848C113.492 12.3147 114.704 12.6627 115.484 13.3587C116.276 14.0427 116.672 15.0027 116.672 16.2387C116.672 16.9587 116.516 17.6367 116.204 18.2727C115.892 18.8967 115.376 19.4067 114.656 19.8027C113.936 20.1867 112.958 20.3787 111.722 20.3787H110.642V25.1667H107.582ZM106.25 23.6007V21.6927H113.18V23.6007H106.25ZM106.25 20.3787V17.8767H111.524V20.3787H106.25ZM111.416 17.8767C111.836 17.8767 112.202 17.8227 112.514 17.7147C112.838 17.5947 113.09 17.4207 113.27 17.1927C113.462 16.9527 113.558 16.6527 113.558 16.2927C113.558 15.8127 113.408 15.4467 113.108 15.1947C112.82 14.9427 112.364 14.8167 111.74 14.8167H110.642V17.8767H111.416ZM124.759 12.2247L119.971 25.2567H117.253L122.041 12.2247H124.759ZM138.813 15.2847V25.1667H136.059V20.3427C136.059 19.8627 136.065 19.3947 136.077 18.9387C136.101 18.4827 136.131 18.0627 136.167 17.6787H136.113L133.557 25.1667H131.397L128.823 17.6607H128.769C128.805 18.0567 128.829 18.4827 128.841 18.9387C128.865 19.3827 128.877 19.8747 128.877 20.4147V25.1667H126.123V15.2847H130.335L132.513 21.6567L134.727 15.2847H138.813ZM145.681 15.1047C146.617 15.1047 147.421 15.2787 148.093 15.6267C148.777 15.9627 149.299 16.4667 149.659 17.1387C150.031 17.7987 150.217 18.6207 150.217 19.6047V21.0087H143.971C143.995 21.6567 144.205 22.1727 144.601 22.5567C144.997 22.9407 145.561 23.1327 146.293 23.1327C146.929 23.1327 147.505 23.0727 148.021 22.9527C148.537 22.8327 149.071 22.6407 149.623 22.3767V24.6267C149.143 24.8787 148.627 25.0587 148.075 25.1667C147.523 25.2867 146.845 25.3467 146.041 25.3467C145.045 25.3467 144.157 25.1667 143.377 24.8067C142.609 24.4467 142.003 23.8947 141.559 23.1507C141.127 22.3947 140.911 21.4407 140.911 20.2887C140.911 19.1127 141.109 18.1467 141.505 17.3907C141.901 16.6227 142.459 16.0527 143.179 15.6807C143.899 15.2967 144.733 15.1047 145.681 15.1047ZM145.735 17.2107C145.267 17.2107 144.877 17.3607 144.565 17.6607C144.265 17.9487 144.085 18.4107 144.025 19.0467H147.427C147.427 18.6987 147.361 18.3867 147.229 18.1107C147.109 17.8347 146.923 17.6187 146.671 17.4627C146.419 17.2947 146.107 17.2107 145.735 17.2107ZM156.509 25.3467C155.525 25.3467 154.673 25.1727 153.953 24.8247C153.245 24.4647 152.699 23.9127 152.315 23.1687C151.943 22.4127 151.757 21.4467 151.757 20.2707C151.757 19.0707 151.967 18.0927 152.387 17.3367C152.819 16.5687 153.413 16.0047 154.169 15.6447C154.925 15.2847 155.789 15.1047 156.761 15.1047C157.409 15.1047 157.991 15.1707 158.507 15.3027C159.035 15.4347 159.503 15.6027 159.911 15.8067L159.029 18.0927C158.609 17.9247 158.219 17.7867 157.859 17.6787C157.499 17.5707 157.133 17.5167 156.761 17.5167C156.353 17.5167 156.005 17.6187 155.717 17.8227C155.429 18.0147 155.207 18.3147 155.051 18.7227C154.907 19.1307 154.835 19.6407 154.835 20.2527C154.835 20.8647 154.913 21.3687 155.069 21.7647C155.225 22.1487 155.447 22.4367 155.735 22.6287C156.023 22.8207 156.371 22.9167 156.779 22.9167C157.307 22.9167 157.799 22.8387 158.255 22.6827C158.723 22.5267 159.167 22.3167 159.587 22.0527V24.5367C159.179 24.8007 158.735 25.0047 158.255 25.1487C157.775 25.2807 157.193 25.3467 156.509 25.3467ZM161.339 23.8167C161.339 23.2287 161.501 22.8207 161.825 22.5927C162.161 22.3527 162.563 22.2327 163.031 22.2327C163.487 22.2327 163.877 22.3527 164.201 22.5927C164.525 22.8207 164.687 23.2287 164.687 23.8167C164.687 24.3687 164.525 24.7707 164.201 25.0227C163.877 25.2747 163.487 25.4007 163.031 25.4007C162.563 25.4007 162.161 25.2747 161.825 25.0227C161.501 24.7707 161.339 24.3687 161.339 23.8167Z" fill="white"/>
<path d="M183.676 22.0607H182.324V24.1667H181.219V22.0607H176.773V21.0857L181.141 14.8327H182.324V21.0337H183.676V22.0607ZM181.219 18.1087C181.219 17.8834 181.219 17.6797 181.219 17.4977C181.228 17.3071 181.236 17.1294 181.245 16.9647C181.254 16.8001 181.258 16.6441 181.258 16.4967C181.267 16.3407 181.275 16.1934 181.284 16.0547H181.232C181.163 16.2194 181.076 16.3971 180.972 16.5877C180.868 16.7784 180.768 16.9387 180.673 17.0687L177.891 21.0337H181.219V18.1087ZM194.076 18.8497C194.076 19.3784 194.037 19.9071 193.959 20.4357C193.89 20.9557 193.764 21.4497 193.582 21.9177C193.4 22.3771 193.149 22.7887 192.828 23.1527C192.508 23.5081 192.1 23.7897 191.606 23.9977C191.112 24.1971 190.514 24.2967 189.812 24.2967C189.639 24.2967 189.435 24.2837 189.201 24.2577C188.976 24.2404 188.79 24.2101 188.642 24.1667V23.1917C188.798 23.2437 188.98 23.2871 189.188 23.3217C189.396 23.3477 189.596 23.3607 189.786 23.3607C190.393 23.3607 190.891 23.2611 191.281 23.0617C191.68 22.8624 191.996 22.5937 192.23 22.2557C192.464 21.9091 192.633 21.5104 192.737 21.0597C192.841 20.6004 192.902 20.1194 192.919 19.6167H192.841C192.711 19.8161 192.547 19.9981 192.347 20.1627C192.148 20.3274 191.905 20.4574 191.619 20.5527C191.342 20.6481 191.013 20.6957 190.631 20.6957C190.103 20.6957 189.635 20.5874 189.227 20.3707C188.829 20.1454 188.517 19.8247 188.291 19.4087C188.075 18.9927 187.966 18.4857 187.966 17.8877C187.966 17.2377 188.088 16.6787 188.33 16.2107C188.582 15.7427 188.928 15.3831 189.37 15.1317C189.812 14.8804 190.332 14.7547 190.93 14.7547C191.372 14.7547 191.784 14.8414 192.165 15.0147C192.547 15.1794 192.88 15.4307 193.166 15.7687C193.452 16.1067 193.673 16.5314 193.829 17.0427C193.994 17.5541 194.076 18.1564 194.076 18.8497ZM190.93 15.7167C190.393 15.7167 189.951 15.8944 189.604 16.2497C189.266 16.6051 189.097 17.1467 189.097 17.8747C189.097 18.4727 189.24 18.9451 189.526 19.2917C189.821 19.6297 190.272 19.7987 190.878 19.7987C191.294 19.7987 191.654 19.7164 191.957 19.5517C192.261 19.3784 192.495 19.1617 192.659 18.9017C192.833 18.6417 192.919 18.3731 192.919 18.0957C192.919 17.8184 192.876 17.5411 192.789 17.2637C192.711 16.9777 192.59 16.7177 192.425 16.4837C192.261 16.2497 192.053 16.0634 191.801 15.9247C191.55 15.7861 191.26 15.7167 190.93 15.7167ZM198.461 14.7547C199.007 14.7547 199.488 14.8414 199.904 15.0147C200.32 15.1794 200.645 15.4264 200.879 15.7557C201.122 16.0851 201.243 16.4924 201.243 16.9777C201.243 17.3504 201.161 17.6754 200.996 17.9527C200.84 18.2301 200.628 18.4771 200.359 18.6937C200.09 18.9017 199.796 19.0881 199.475 19.2527C199.856 19.4347 200.203 19.6427 200.515 19.8767C200.827 20.1021 201.074 20.3664 201.256 20.6697C201.447 20.9731 201.542 21.3371 201.542 21.7617C201.542 22.2817 201.416 22.7324 201.165 23.1137C200.914 23.4864 200.558 23.7767 200.099 23.9847C199.648 24.1927 199.115 24.2967 198.5 24.2967C197.833 24.2967 197.265 24.1971 196.797 23.9977C196.338 23.7984 195.987 23.5167 195.744 23.1527C195.51 22.7801 195.393 22.3294 195.393 21.8007C195.393 21.3761 195.48 21.0077 195.653 20.6957C195.835 20.3837 196.073 20.1151 196.368 19.8897C196.663 19.6644 196.979 19.4737 197.317 19.3177C197.014 19.1444 196.736 18.9494 196.485 18.7327C196.242 18.5074 196.047 18.2517 195.9 17.9657C195.761 17.6797 195.692 17.3461 195.692 16.9647C195.692 16.4881 195.813 16.0894 196.056 15.7687C196.299 15.4394 196.628 15.1881 197.044 15.0147C197.46 14.8414 197.932 14.7547 198.461 14.7547ZM196.511 21.8137C196.511 22.2644 196.671 22.6414 196.992 22.9447C197.313 23.2394 197.807 23.3867 198.474 23.3867C198.899 23.3867 199.254 23.3174 199.54 23.1787C199.826 23.0401 200.043 22.8494 200.19 22.6067C200.346 22.3641 200.424 22.0867 200.424 21.7747C200.424 21.4714 200.342 21.2071 200.177 20.9817C200.021 20.7477 199.796 20.5397 199.501 20.3577C199.215 20.1757 198.873 20.0111 198.474 19.8637L198.266 19.7857C197.885 19.9504 197.564 20.1281 197.304 20.3187C197.044 20.5094 196.845 20.7261 196.706 20.9687C196.576 21.2114 196.511 21.4931 196.511 21.8137ZM198.448 15.6777C197.971 15.6777 197.577 15.7947 197.265 16.0287C196.962 16.2541 196.81 16.5834 196.81 17.0167C196.81 17.3374 196.884 17.6061 197.031 17.8227C197.187 18.0394 197.395 18.2257 197.655 18.3817C197.915 18.5291 198.201 18.6721 198.513 18.8107C198.816 18.6807 199.085 18.5377 199.319 18.3817C199.562 18.2257 199.752 18.0394 199.891 17.8227C200.038 17.5974 200.112 17.3287 200.112 17.0167C200.112 16.5834 199.96 16.2541 199.657 16.0287C199.354 15.7947 198.951 15.6777 198.448 15.6777ZM208.994 19.5127C208.994 20.2667 208.938 20.9384 208.825 21.5277C208.713 22.1171 208.531 22.6197 208.279 23.0357C208.037 23.4431 207.716 23.7551 207.317 23.9717C206.927 24.1884 206.455 24.2967 205.9 24.2967C205.207 24.2967 204.631 24.1061 204.171 23.7247C203.721 23.3434 203.383 22.7974 203.157 22.0867C202.941 21.3674 202.832 20.5094 202.832 19.5127C202.832 18.5074 202.932 17.6494 203.131 16.9387C203.339 16.2281 203.669 15.6864 204.119 15.3137C204.57 14.9324 205.164 14.7417 205.9 14.7417C206.594 14.7417 207.17 14.9324 207.629 15.3137C208.089 15.6864 208.431 16.2281 208.656 16.9387C208.882 17.6494 208.994 18.5074 208.994 19.5127ZM203.976 19.5127C203.976 20.3621 204.037 21.0684 204.158 21.6317C204.288 22.1951 204.492 22.6197 204.769 22.9057C205.055 23.1831 205.432 23.3217 205.9 23.3217C206.368 23.3217 206.741 23.1831 207.018 22.9057C207.304 22.6284 207.512 22.2081 207.642 21.6447C207.772 21.0727 207.837 20.3621 207.837 19.5127C207.837 18.6634 207.772 17.9614 207.642 17.4067C207.512 16.8434 207.304 16.4231 207.018 16.1457C206.741 15.8597 206.368 15.7167 205.9 15.7167C205.432 15.7167 205.055 15.8597 204.769 16.1457C204.492 16.4231 204.288 16.8434 204.158 17.4067C204.037 17.9614 203.976 18.6634 203.976 19.5127ZM214.273 24.1667V14.8847H216.717C217.852 14.8847 218.693 15.1144 219.239 15.5737C219.793 16.0331 220.071 16.7004 220.071 17.5757C220.071 18.1651 219.936 18.6721 219.668 19.0967C219.399 19.5127 219 19.8334 218.472 20.0587C217.952 20.2841 217.306 20.3967 216.535 20.3967H215.443V24.1667H214.273ZM213.142 22.3987V21.5537H217.588V22.3987H213.142ZM213.142 20.3967V19.4087H216.119V20.3967H213.142ZM216.366 19.4087C216.894 19.4087 217.341 19.3524 217.705 19.2397C218.077 19.1271 218.363 18.9407 218.563 18.6807C218.762 18.4207 218.862 18.0654 218.862 17.6147C218.862 17.0254 218.68 16.5877 218.316 16.3017C217.952 16.0157 217.384 15.8727 216.613 15.8727H215.443V19.4087H216.366ZM225.284 14.8847L221.826 24.1667H220.708L224.166 14.8847H225.284ZM230.771 17.1987V18.1607H227.664V24.1667H226.52V17.1987H230.771ZM238.075 20.6697C238.075 21.2504 237.997 21.7661 237.841 22.2167C237.694 22.6587 237.477 23.0357 237.191 23.3477C236.914 23.6597 236.571 23.8981 236.164 24.0627C235.765 24.2187 235.319 24.2967 234.825 24.2967C234.366 24.2967 233.941 24.2187 233.551 24.0627C233.161 23.8981 232.823 23.6597 232.537 23.3477C232.251 23.0357 232.026 22.6587 231.861 22.2167C231.705 21.7661 231.627 21.2504 231.627 20.6697C231.627 19.8984 231.757 19.2484 232.017 18.7197C232.277 18.1824 232.65 17.7751 233.135 17.4977C233.62 17.2117 234.197 17.0687 234.864 17.0687C235.497 17.0687 236.051 17.2117 236.528 17.4977C237.013 17.7751 237.39 18.1824 237.659 18.7197C237.936 19.2484 238.075 19.8984 238.075 20.6697ZM232.81 20.6697C232.81 21.2157 232.879 21.6924 233.018 22.0997C233.165 22.4984 233.391 22.8061 233.694 23.0227C233.997 23.2394 234.383 23.3477 234.851 23.3477C235.319 23.3477 235.705 23.2394 236.008 23.0227C236.311 22.8061 236.532 22.4984 236.671 22.0997C236.818 21.6924 236.892 21.2157 236.892 20.6697C236.892 20.1151 236.818 19.6427 236.671 19.2527C236.524 18.8627 236.298 18.5637 235.995 18.3557C235.7 18.1391 235.315 18.0307 234.838 18.0307C234.127 18.0307 233.612 18.2647 233.291 18.7327C232.97 19.2007 232.81 19.8464 232.81 20.6697ZM245.062 17.1987V23.2047H246.076V26.5847H244.971V24.1667H240.122V26.5847H239.03V23.2047H239.589C239.988 22.6501 240.317 22.0477 240.577 21.3977C240.846 20.7391 241.045 20.0544 241.175 19.3437C241.314 18.6244 241.388 17.9094 241.396 17.1987H245.062ZM242.41 18.0957C242.376 18.6851 242.285 19.2961 242.137 19.9287C241.99 20.5527 241.799 21.1507 241.565 21.7227C241.34 22.2947 241.076 22.7887 240.772 23.2047H243.957V18.0957H242.41Z" fill="white"/>
<path d="M62.3001 37.5167C62.3001 37.1967 62.3535 36.9401 62.4601 36.7467C62.5668 36.5467 62.7101 36.4034 62.8901 36.3167C63.0768 36.2301 63.2801 36.1867 63.5001 36.1867C63.7201 36.1867 63.9201 36.2301 64.1001 36.3167C64.2801 36.4034 64.4235 36.5467 64.5301 36.7467C64.6435 36.9401 64.7001 37.1967 64.7001 37.5167C64.7001 37.8301 64.6435 38.0867 64.5301 38.2867C64.4235 38.4801 64.2801 38.6234 64.1001 38.7167C63.9201 38.8034 63.7201 38.8467 63.5001 38.8467C63.2801 38.8467 63.0768 38.8034 62.8901 38.7167C62.7101 38.6234 62.5668 38.4801 62.4601 38.2867C62.3535 38.0867 62.3001 37.8301 62.3001 37.5167ZM79.0077 41.1667H74.8377V34.0267H79.0077V35.4067H76.5377V36.7767H78.8277V38.1567H76.5377V39.7667H79.0077V41.1667ZM88.9545 35.6767L87.0045 38.2967L89.1445 41.1667H87.3245L85.3345 38.3767V41.1667H83.7345V38.3767L81.7445 41.1667H79.9245L82.0645 38.2967L80.1145 35.6767H81.8945L83.7345 38.3367V35.6767H85.3345V38.3367L87.1745 35.6767H88.9545ZM92.4189 35.5767C92.9389 35.5767 93.3856 35.6734 93.7589 35.8667C94.1389 36.0534 94.4289 36.3334 94.6289 36.7067C94.8356 37.0734 94.9389 37.5301 94.9389 38.0767V38.8567H91.4689C91.4822 39.2167 91.5989 39.5034 91.8189 39.7167C92.0389 39.9301 92.3522 40.0367 92.7589 40.0367C93.1122 40.0367 93.4322 40.0034 93.7189 39.9367C94.0056 39.8701 94.3022 39.7634 94.6089 39.6167V40.8667C94.3422 41.0067 94.0556 41.1067 93.7489 41.1667C93.4422 41.2334 93.0656 41.2667 92.6189 41.2667C92.0656 41.2667 91.5722 41.1667 91.1389 40.9667C90.7122 40.7667 90.3756 40.4601 90.1289 40.0467C89.8889 39.6267 89.7689 39.0967 89.7689 38.4567C89.7689 37.8034 89.8789 37.2667 90.0989 36.8467C90.3189 36.4201 90.6289 36.1034 91.0289 35.8967C91.4289 35.6834 91.8922 35.5767 92.4189 35.5767ZM92.4489 36.7467C92.1889 36.7467 91.9722 36.8301 91.7989 36.9967C91.6322 37.1567 91.5322 37.4134 91.4989 37.7667H93.3889C93.3889 37.5734 93.3522 37.4001 93.2789 37.2467C93.2122 37.0934 93.1089 36.9734 92.9689 36.8867C92.8289 36.7934 92.6556 36.7467 92.4489 36.7467ZM100.404 35.6767V36.9367H98.1643V41.1667H96.4743V35.6767H100.404ZM106.779 38.4067C106.779 38.8667 106.716 39.2734 106.589 39.6267C106.469 39.9801 106.289 40.2801 106.049 40.5267C105.816 40.7734 105.533 40.9601 105.199 41.0867C104.873 41.2067 104.496 41.2667 104.069 41.2667C103.683 41.2667 103.323 41.2067 102.989 41.0867C102.663 40.9601 102.379 40.7767 102.139 40.5367C101.906 40.2901 101.723 39.9901 101.589 39.6367C101.456 39.2767 101.389 38.8667 101.389 38.4067C101.389 37.8001 101.496 37.2867 101.709 36.8667C101.929 36.4467 102.243 36.1267 102.649 35.9067C103.056 35.6867 103.539 35.5767 104.099 35.5767C104.626 35.5767 105.089 35.6867 105.489 35.9067C105.889 36.1267 106.203 36.4467 106.429 36.8667C106.663 37.2867 106.779 37.8001 106.779 38.4067ZM103.099 38.4067C103.099 38.7467 103.133 39.0334 103.199 39.2667C103.266 39.5001 103.373 39.6767 103.519 39.7967C103.666 39.9101 103.856 39.9667 104.089 39.9667C104.329 39.9667 104.519 39.9101 104.659 39.7967C104.799 39.6767 104.903 39.5001 104.969 39.2667C105.036 39.0334 105.069 38.7467 105.069 38.4067C105.069 38.0667 105.036 37.7834 104.969 37.5567C104.903 37.3301 104.796 37.1601 104.649 37.0467C104.509 36.9334 104.319 36.8767 104.079 36.8767C103.739 36.8767 103.489 37.0067 103.329 37.2667C103.176 37.5201 103.099 37.9001 103.099 38.4067ZM113.469 35.6767V39.9267H114.279V43.1567H112.779V41.1667H109.239V43.1567H107.749V39.9267H108.219C108.439 39.5801 108.629 39.1801 108.789 38.7267C108.949 38.2667 109.079 37.7767 109.179 37.2567C109.279 36.7367 109.352 36.2101 109.399 35.6767H113.469ZM110.759 36.9367C110.705 37.2967 110.642 37.6467 110.569 37.9867C110.502 38.3201 110.415 38.6467 110.309 38.9667C110.209 39.2867 110.089 39.6067 109.949 39.9267H111.779V36.9367H110.759ZM117.216 35.6767V37.7267H119.036V35.6767H120.716V41.1667H119.036V38.9767H117.216V41.1667H115.526V35.6767H117.216ZM127.667 38.4067C127.667 38.8667 127.603 39.2734 127.477 39.6267C127.357 39.9801 127.177 40.2801 126.937 40.5267C126.703 40.7734 126.42 40.9601 126.087 41.0867C125.76 41.2067 125.383 41.2667 124.957 41.2667C124.57 41.2667 124.21 41.2067 123.877 41.0867C123.55 40.9601 123.267 40.7767 123.027 40.5367C122.793 40.2901 122.61 39.9901 122.477 39.6367C122.343 39.2767 122.277 38.8667 122.277 38.4067C122.277 37.8001 122.383 37.2867 122.597 36.8667C122.817 36.4467 123.13 36.1267 123.537 35.9067C123.943 35.6867 124.427 35.5767 124.987 35.5767C125.513 35.5767 125.977 35.6867 126.377 35.9067C126.777 36.1267 127.09 36.4467 127.317 36.8667C127.55 37.2867 127.667 37.8001 127.667 38.4067ZM123.987 38.4067C123.987 38.7467 124.02 39.0334 124.087 39.2667C124.153 39.5001 124.26 39.6767 124.407 39.7967C124.553 39.9101 124.743 39.9667 124.977 39.9667C125.217 39.9667 125.407 39.9101 125.547 39.7967C125.687 39.6767 125.79 39.5001 125.857 39.2667C125.923 39.0334 125.957 38.7467 125.957 38.4067C125.957 38.0667 125.923 37.7834 125.857 37.5567C125.79 37.3301 125.683 37.1601 125.537 37.0467C125.397 36.9334 125.207 36.8767 124.967 36.8767C124.627 36.8767 124.377 37.0067 124.217 37.2667C124.063 37.5201 123.987 37.9001 123.987 38.4067ZM62.3001 53.5167C62.3001 53.1967 62.3535 52.9401 62.4601 52.7467C62.5668 52.5467 62.7101 52.4034 62.8901 52.3167C63.0768 52.2301 63.2801 52.1867 63.5001 52.1867C63.7201 52.1867 63.9201 52.2301 64.1001 52.3167C64.2801 52.4034 64.4235 52.5467 64.5301 52.7467C64.6435 52.9401 64.7001 53.1967 64.7001 53.5167C64.7001 53.8301 64.6435 54.0867 64.5301 54.2867C64.4235 54.4801 64.2801 54.6234 64.1001 54.7167C63.9201 54.8034 63.7201 54.8467 63.5001 54.8467C63.2801 54.8467 63.0768 54.8034 62.8901 54.7167C62.7101 54.6234 62.5668 54.4801 62.4601 54.2867C62.3535 54.0867 62.3001 53.8301 62.3001 53.5167ZM71.95 57.1667V50.0267H77.39V57.1667H76.32V50.9567H73.03V57.1667H71.95ZM84.3335 54.4667C84.3335 54.9134 84.2735 55.3101 84.1535 55.6567C84.0335 56.0034 83.8635 56.2967 83.6435 56.5367C83.4235 56.7767 83.1568 56.9601 82.8435 57.0867C82.5302 57.2067 82.1768 57.2667 81.7835 57.2667C81.4235 57.2667 81.0902 57.2067 80.7835 57.0867C80.4768 56.9601 80.2102 56.7767 79.9835 56.5367C79.7635 56.2967 79.5902 56.0034 79.4635 55.6567C79.3368 55.3101 79.2735 54.9101 79.2735 54.4567C79.2735 53.8634 79.3735 53.3601 79.5735 52.9467C79.7802 52.5334 80.0735 52.2201 80.4535 52.0067C80.8402 51.7867 81.2935 51.6767 81.8135 51.6767C82.3068 51.6767 82.7402 51.7867 83.1135 52.0067C83.4935 52.2201 83.7902 52.5334 84.0035 52.9467C84.2235 53.3601 84.3335 53.8667 84.3335 54.4667ZM80.3635 54.4667C80.3635 54.8667 80.4135 55.2134 80.5135 55.5067C80.6135 55.7934 80.7702 56.0134 80.9835 56.1667C81.1968 56.3201 81.4702 56.3967 81.8035 56.3967C82.1368 56.3967 82.4102 56.3201 82.6235 56.1667C82.8368 56.0134 82.9935 55.7934 83.0935 55.5067C83.1935 55.2134 83.2435 54.8667 83.2435 54.4667C83.2435 54.0534 83.1902 53.7067 83.0835 53.4267C82.9835 53.1467 82.8268 52.9334 82.6135 52.7867C82.4068 52.6334 82.1335 52.5567 81.7935 52.5567C81.2935 52.5567 80.9302 52.7234 80.7035 53.0567C80.4768 53.3901 80.3635 53.8601 80.3635 54.4667ZM90.3973 57.1667H89.3273V52.6267H87.8073C87.7406 53.4534 87.6573 54.1634 87.5573 54.7567C87.4639 55.3434 87.3406 55.8201 87.1873 56.1867C87.0406 56.5534 86.8573 56.8234 86.6373 56.9967C86.4239 57.1634 86.1673 57.2467 85.8673 57.2467C85.7606 57.2467 85.6573 57.2367 85.5573 57.2167C85.4573 57.2034 85.3706 57.1801 85.2973 57.1467V56.3367C85.3439 56.3501 85.3939 56.3634 85.4473 56.3767C85.5073 56.3834 85.5673 56.3867 85.6273 56.3867C85.7606 56.3867 85.8806 56.3334 85.9873 56.2267C86.1006 56.1201 86.2006 55.9534 86.2873 55.7267C86.3806 55.5001 86.4639 55.2067 86.5373 54.8467C86.6173 54.4801 86.6839 54.0434 86.7373 53.5367C86.7973 53.0301 86.8506 52.4434 86.8973 51.7767H90.3973V57.1667ZM93.5138 51.7767V53.9667H96.1738V51.7767H97.2338V57.1667H96.1738V54.8167H93.5138V57.1667H92.4538V51.7767H93.5138ZM99.2894 57.1667V51.7767H100.349V53.9467H101.539C102.033 53.9467 102.439 54.0067 102.759 54.1267C103.079 54.2401 103.316 54.4101 103.469 54.6367C103.623 54.8634 103.699 55.1501 103.699 55.4967C103.699 55.8367 103.623 56.1334 103.469 56.3867C103.323 56.6334 103.089 56.8267 102.769 56.9667C102.456 57.1001 102.043 57.1667 101.529 57.1667H99.2894ZM101.449 56.3667C101.803 56.3667 102.089 56.3067 102.309 56.1867C102.536 56.0601 102.649 55.8434 102.649 55.5367C102.649 55.2434 102.546 55.0434 102.339 54.9367C102.133 54.8234 101.836 54.7667 101.449 54.7667H100.349V56.3667H101.449ZM104.559 57.1667V51.7767H105.619V57.1667H104.559ZM112.278 49.5167C112.251 49.8567 112.164 50.1467 112.018 50.3867C111.878 50.6201 111.661 50.8001 111.368 50.9267C111.081 51.0467 110.704 51.1067 110.238 51.1067C109.758 51.1067 109.374 51.0467 109.088 50.9267C108.808 50.8001 108.604 50.6201 108.478 50.3867C108.351 50.1534 108.274 49.8634 108.248 49.5167H109.218C109.251 49.8834 109.344 50.1267 109.498 50.2467C109.658 50.3667 109.911 50.4267 110.258 50.4267C110.558 50.4267 110.798 50.3634 110.978 50.2367C111.158 50.1034 111.264 49.8634 111.298 49.5167H112.278ZM108.688 54.7167C108.688 54.7967 108.684 54.9001 108.678 55.0267C108.671 55.1534 108.664 55.2867 108.658 55.4267C108.651 55.5601 108.641 55.6867 108.628 55.8067C108.621 55.9201 108.614 56.0101 108.608 56.0767L111.378 51.7767H112.668V57.1667H111.668V54.2967C111.668 54.1701 111.671 54.0134 111.678 53.8267C111.684 53.6401 111.691 53.4601 111.698 53.2867C111.711 53.1067 111.721 52.9701 111.728 52.8767L108.978 57.1667H107.678V51.7767H108.688V54.7167ZM121.985 51.7767V56.3267H122.775V59.0567H121.785V57.1667H118.065V59.0567H117.085V56.3267H117.515C117.802 55.9134 118.042 55.4601 118.235 54.9667C118.429 54.4734 118.575 53.9567 118.675 53.4167C118.782 52.8701 118.845 52.3234 118.865 51.7767H121.985ZM119.785 52.5967C119.745 53.0301 119.672 53.4734 119.565 53.9267C119.465 54.3801 119.335 54.8134 119.175 55.2267C119.022 55.6401 118.839 56.0067 118.625 56.3267H120.945V52.5967H119.785ZM128.94 54.4667C128.94 54.9134 128.88 55.3101 128.76 55.6567C128.64 56.0034 128.47 56.2967 128.25 56.5367C128.03 56.7767 127.763 56.9601 127.45 57.0867C127.137 57.2067 126.783 57.2667 126.39 57.2667C126.03 57.2667 125.697 57.2067 125.39 57.0867C125.083 56.9601 124.817 56.7767 124.59 56.5367C124.37 56.2967 124.197 56.0034 124.07 55.6567C123.943 55.3101 123.88 54.9101 123.88 54.4567C123.88 53.8634 123.98 53.3601 124.18 52.9467C124.387 52.5334 124.68 52.2201 125.06 52.0067C125.447 51.7867 125.9 51.6767 126.42 51.6767C126.913 51.6767 127.347 51.7867 127.72 52.0067C128.1 52.2201 128.397 52.5334 128.61 52.9467C128.83 53.3601 128.94 53.8667 128.94 54.4667ZM124.97 54.4667C124.97 54.8667 125.02 55.2134 125.12 55.5067C125.22 55.7934 125.377 56.0134 125.59 56.1667C125.803 56.3201 126.077 56.3967 126.41 56.3967C126.743 56.3967 127.017 56.3201 127.23 56.1667C127.443 56.0134 127.6 55.7934 127.7 55.5067C127.8 55.2134 127.85 54.8667 127.85 54.4667C127.85 54.0534 127.797 53.7067 127.69 53.4267C127.59 53.1467 127.433 52.9334 127.22 52.7867C127.013 52.6334 126.74 52.5567 126.4 52.5567C125.9 52.5567 125.537 52.7234 125.31 53.0567C125.083 53.3901 124.97 53.8601 124.97 54.4667ZM132.854 57.2667C132.361 57.2667 131.927 57.1701 131.554 56.9767C131.181 56.7834 130.891 56.4834 130.684 56.0767C130.477 55.6634 130.374 55.1401 130.374 54.5067C130.374 53.8401 130.484 53.3001 130.704 52.8867C130.931 52.4734 131.234 52.1701 131.614 51.9767C132.001 51.7767 132.441 51.6767 132.934 51.6767C133.234 51.6767 133.514 51.7101 133.774 51.7767C134.041 51.8367 134.261 51.9067 134.434 51.9867L134.114 52.8467C133.927 52.7734 133.727 52.7101 133.514 52.6567C133.307 52.6034 133.111 52.5767 132.924 52.5767C132.591 52.5767 132.314 52.6501 132.094 52.7967C131.881 52.9367 131.721 53.1501 131.614 53.4367C131.514 53.7167 131.464 54.0701 131.464 54.4967C131.464 54.9034 131.517 55.2467 131.624 55.5267C131.731 55.8067 131.887 56.0201 132.094 56.1667C132.307 56.3067 132.571 56.3767 132.884 56.3767C133.184 56.3767 133.447 56.3434 133.674 56.2767C133.901 56.2101 134.114 56.1234 134.314 56.0167V56.9367C134.121 57.0501 133.911 57.1334 133.684 57.1867C133.457 57.2401 133.181 57.2667 132.854 57.2667ZM139.926 52.6267H138.166V57.1667H137.116V52.6267H135.366V51.7767H139.926V52.6267ZM140.556 51.7767H141.696L142.816 54.8367C142.876 54.9901 142.93 55.1401 142.976 55.2867C143.023 55.4334 143.063 55.5801 143.096 55.7267C143.136 55.8667 143.166 56.0067 143.186 56.1467H143.226C143.26 55.9734 143.313 55.7701 143.386 55.5367C143.46 55.2967 143.536 55.0601 143.616 54.8267L144.676 51.7767H145.816L143.506 57.8967C143.38 58.2434 143.223 58.5401 143.036 58.7867C142.85 59.0401 142.626 59.2334 142.366 59.3667C142.113 59.5001 141.813 59.5667 141.466 59.5667C141.3 59.5667 141.156 59.5567 141.036 59.5367C140.916 59.5234 140.813 59.5067 140.726 59.4867V58.6467C140.8 58.6601 140.886 58.6734 140.986 58.6867C141.093 58.7001 141.203 58.7067 141.316 58.7067C141.523 58.7067 141.7 58.6667 141.846 58.5867C142 58.5067 142.126 58.3934 142.226 58.2467C142.333 58.1001 142.423 57.9334 142.496 57.7467L142.716 57.1667L140.556 51.7767ZM151.71 51.7767V57.1667H150.65V52.6367H148.11V57.1667H147.05V51.7767H151.71ZM160.056 51.7767H161.216L158.966 54.3667L161.406 57.1667H160.186L157.826 54.4367V57.1667H156.766V51.7767H157.826V54.3967L160.056 51.7767ZM170.38 51.7767V57.1667H169.32V52.6367H166.78V57.1667H165.72V51.7767H170.38ZM175.129 51.6767C175.775 51.6767 176.295 51.9101 176.689 52.3767C177.089 52.8434 177.289 53.5401 177.289 54.4667C177.289 55.0734 177.199 55.5867 177.019 56.0067C176.839 56.4267 176.585 56.7434 176.259 56.9567C175.932 57.1634 175.552 57.2667 175.119 57.2667C174.845 57.2667 174.605 57.2334 174.399 57.1667C174.192 57.0934 174.015 57.0001 173.869 56.8867C173.729 56.7667 173.605 56.6401 173.499 56.5067H173.429C173.449 56.6267 173.465 56.7701 173.479 56.9367C173.492 57.0967 173.499 57.2401 173.499 57.3667V59.5667H172.439V51.7767H173.299L173.449 52.4967H173.499C173.605 52.3501 173.732 52.2134 173.879 52.0867C174.025 51.9601 174.202 51.8601 174.409 51.7867C174.615 51.7134 174.855 51.6767 175.129 51.6767ZM174.879 52.5467C174.545 52.5467 174.279 52.6134 174.079 52.7467C173.879 52.8734 173.732 53.0667 173.639 53.3267C173.552 53.5801 173.505 53.9034 173.499 54.2967V54.4567C173.499 54.8701 173.542 55.2234 173.629 55.5167C173.715 55.8034 173.859 56.0234 174.059 56.1767C174.265 56.3234 174.545 56.3967 174.899 56.3967C175.199 56.3967 175.442 56.3167 175.629 56.1567C175.822 55.9901 175.965 55.7601 176.059 55.4667C176.152 55.1734 176.199 54.8334 176.199 54.4467C176.199 53.8601 176.092 53.3967 175.879 53.0567C175.665 52.7167 175.332 52.5467 174.879 52.5467ZM180.05 54.7167C180.05 54.7967 180.046 54.9001 180.04 55.0267C180.033 55.1534 180.026 55.2867 180.02 55.4267C180.013 55.5601 180.003 55.6867 179.99 55.8067C179.983 55.9201 179.976 56.0101 179.97 56.0767L182.74 51.7767H184.03V57.1667H183.03V54.2967C183.03 54.1701 183.033 54.0134 183.04 53.8267C183.046 53.6401 183.053 53.4601 183.06 53.2867C183.073 53.1067 183.083 52.9701 183.09 52.8767L180.34 57.1667H179.04V51.7767H180.05V54.7167ZM190.42 57.1667H189.35V52.6267H187.83C187.763 53.4534 187.68 54.1634 187.58 54.7567C187.487 55.3434 187.363 55.8201 187.21 56.1867C187.063 56.5534 186.88 56.8234 186.66 56.9967C186.447 57.1634 186.19 57.2467 185.89 57.2467C185.783 57.2467 185.68 57.2367 185.58 57.2167C185.48 57.2034 185.393 57.1801 185.32 57.1467V56.3367C185.367 56.3501 185.417 56.3634 185.47 56.3767C185.53 56.3834 185.59 56.3867 185.65 56.3867C185.783 56.3867 185.903 56.3334 186.01 56.2267C186.123 56.1201 186.223 55.9534 186.31 55.7267C186.403 55.5001 186.487 55.2067 186.56 54.8467C186.64 54.4801 186.707 54.0434 186.76 53.5367C186.82 53.0301 186.873 52.4434 186.92 51.7767H190.42V57.1667ZM197.226 54.4667C197.226 54.9134 197.166 55.3101 197.046 55.6567C196.926 56.0034 196.756 56.2967 196.536 56.5367C196.316 56.7767 196.05 56.9601 195.736 57.0867C195.423 57.2067 195.07 57.2667 194.676 57.2667C194.316 57.2667 193.983 57.2067 193.676 57.0867C193.37 56.9601 193.103 56.7767 192.876 56.5367C192.656 56.2967 192.483 56.0034 192.356 55.6567C192.23 55.3101 192.166 54.9101 192.166 54.4567C192.166 53.8634 192.266 53.3601 192.466 52.9467C192.673 52.5334 192.966 52.2201 193.346 52.0067C193.733 51.7867 194.186 51.6767 194.706 51.6767C195.2 51.6767 195.633 51.7867 196.006 52.0067C196.386 52.2201 196.683 52.5334 196.896 52.9467C197.116 53.3601 197.226 53.8667 197.226 54.4667ZM193.256 54.4667C193.256 54.8667 193.306 55.2134 193.406 55.5067C193.506 55.7934 193.663 56.0134 193.876 56.1667C194.09 56.3201 194.363 56.3967 194.696 56.3967C195.03 56.3967 195.303 56.3201 195.516 56.1667C195.73 56.0134 195.886 55.7934 195.986 55.5067C196.086 55.2134 196.136 54.8667 196.136 54.4667C196.136 54.0534 196.083 53.7067 195.976 53.4267C195.876 53.1467 195.72 52.9334 195.506 52.7867C195.3 52.6334 195.026 52.5567 194.686 52.5567C194.186 52.5567 193.823 52.7234 193.596 53.0567C193.37 53.3901 193.256 53.8601 193.256 54.4667ZM205.595 51.7767L203.445 54.3867L205.785 57.1667H204.615L202.365 54.4367V57.1667H201.375V54.4367L199.125 57.1667H197.955L200.295 54.3867L198.145 51.7767H199.275L201.375 54.3967V51.7767H202.365V54.3967L204.475 51.7767H205.595ZM208.961 51.6767C209.434 51.6767 209.841 51.7767 210.181 51.9767C210.521 52.1701 210.781 52.4501 210.961 52.8167C211.148 53.1834 211.241 53.6167 211.241 54.1167V54.6967H207.621C207.634 55.2501 207.778 55.6734 208.051 55.9667C208.331 56.2601 208.721 56.4067 209.221 56.4067C209.568 56.4067 209.874 56.3767 210.141 56.3167C210.414 56.2501 210.694 56.1534 210.981 56.0267V56.9067C210.714 57.0267 210.441 57.1167 210.161 57.1767C209.888 57.2367 209.561 57.2667 209.181 57.2667C208.661 57.2667 208.201 57.1634 207.801 56.9567C207.401 56.7501 207.088 56.4434 206.861 56.0367C206.641 55.6234 206.531 55.1167 206.531 54.5167C206.531 53.9101 206.631 53.3967 206.831 52.9767C207.038 52.5567 207.321 52.2367 207.681 52.0167C208.048 51.7901 208.474 51.6767 208.961 51.6767ZM208.961 52.4967C208.581 52.4967 208.274 52.6201 208.041 52.8667C207.814 53.1134 207.681 53.4634 207.641 53.9167H210.181C210.181 53.6367 210.138 53.3901 210.051 53.1767C209.964 52.9634 209.831 52.7967 209.651 52.6767C209.471 52.5567 209.241 52.4967 208.961 52.4967ZM214.024 51.7767V53.9667H216.684V51.7767H217.744V57.1667H216.684V54.8167H214.024V57.1667H212.964V51.7767H214.024ZM220.809 54.7167C220.809 54.7967 220.806 54.9001 220.799 55.0267C220.792 55.1534 220.786 55.2867 220.779 55.4267C220.772 55.5601 220.762 55.6867 220.749 55.8067C220.742 55.9201 220.736 56.0101 220.729 56.0767L223.499 51.7767H224.789V57.1667H223.789V54.2967C223.789 54.1701 223.792 54.0134 223.799 53.8267C223.806 53.6401 223.812 53.4601 223.819 53.2867C223.832 53.1067 223.842 52.9701 223.849 52.8767L221.099 57.1667H219.799V51.7767H220.809V54.7167ZM233.989 54.4667C233.989 55.0601 233.889 55.5667 233.689 55.9867C233.496 56.4067 233.216 56.7267 232.849 56.9467C232.489 57.1601 232.059 57.2667 231.559 57.2667C231.113 57.2667 230.716 57.1767 230.369 56.9967C230.023 56.8101 229.746 56.5367 229.539 56.1767C229.333 55.8101 229.209 55.3567 229.169 54.8167H227.919V57.1667H226.859V51.7767H227.919V53.9667H229.179C229.233 53.4734 229.363 53.0567 229.569 52.7167C229.783 52.3767 230.059 52.1201 230.399 51.9467C230.739 51.7667 231.136 51.6767 231.589 51.6767C232.056 51.6767 232.469 51.7867 232.829 52.0067C233.196 52.2201 233.479 52.5334 233.679 52.9467C233.886 53.3601 233.989 53.8667 233.989 54.4667ZM230.239 54.4667C230.239 54.8867 230.286 55.2401 230.379 55.5267C230.473 55.8134 230.616 56.0301 230.809 56.1767C231.009 56.3234 231.266 56.3967 231.579 56.3967C231.886 56.3967 232.136 56.3234 232.329 56.1767C232.529 56.0301 232.673 55.8134 232.759 55.5267C232.853 55.2401 232.899 54.8867 232.899 54.4667C232.899 54.0401 232.853 53.6867 232.759 53.4067C232.673 53.1267 232.529 52.9167 232.329 52.7767C232.136 52.6301 231.886 52.5567 231.579 52.5567C231.266 52.5567 231.009 52.6301 230.809 52.7767C230.616 52.9167 230.473 53.1267 230.379 53.4067C230.286 53.6867 230.239 54.0401 230.239 54.4667ZM62.3001 69.5167C62.3001 69.1967 62.3535 68.9401 62.4601 68.7467C62.5668 68.5467 62.7101 68.4034 62.8901 68.3167C63.0768 68.2301 63.2801 68.1867 63.5001 68.1867C63.7201 68.1867 63.9201 68.2301 64.1001 68.3167C64.2801 68.4034 64.4235 68.5467 64.5301 68.7467C64.6435 68.9401 64.7001 69.1967 64.7001 69.5167C64.7001 69.8301 64.6435 70.0867 64.5301 70.2867C64.4235 70.4801 64.2801 70.6234 64.1001 70.7167C63.9201 70.8034 63.7201 70.8467 63.5001 70.8467C63.2801 70.8467 63.0768 70.8034 62.8901 70.7167C62.7101 70.6234 62.5668 70.4801 62.4601 70.2867C62.3535 70.0867 62.3001 69.8301 62.3001 69.5167ZM77.52 73.1667H76.44V69.9067H73.03V73.1667H71.95V66.0267H73.03V68.9867H76.44V66.0267H77.52V73.1667ZM81.8005 67.6767C82.4805 67.6767 82.9871 67.8267 83.3205 68.1267C83.6538 68.4201 83.8205 68.8834 83.8205 69.5167V73.1667H83.0705L82.8605 72.4167H82.8205C82.6671 72.6101 82.5071 72.7701 82.3405 72.8967C82.1805 73.0234 81.9938 73.1167 81.7805 73.1767C81.5738 73.2367 81.3205 73.2667 81.0205 73.2667C80.7005 73.2667 80.4105 73.2101 80.1505 73.0967C79.8971 72.9767 79.6971 72.7967 79.5505 72.5567C79.4038 72.3101 79.3305 72.0034 79.3305 71.6367C79.3305 71.0901 79.5371 70.6734 79.9505 70.3867C80.3705 70.1001 81.0071 69.9434 81.8605 69.9167L82.7805 69.8867V69.5867C82.7805 69.1867 82.6905 68.9067 82.5105 68.7467C82.3305 68.5867 82.0771 68.5067 81.7505 68.5067C81.4705 68.5067 81.2038 68.5467 80.9505 68.6267C80.6971 68.7067 80.4571 68.8034 80.2305 68.9167L79.8905 68.1467C80.1438 68.0134 80.4338 67.9034 80.7605 67.8167C81.0938 67.7234 81.4405 67.6767 81.8005 67.6767ZM82.0505 70.5967C81.4371 70.6234 81.0105 70.7267 80.7705 70.9067C80.5371 71.0801 80.4205 71.3267 80.4205 71.6467C80.4205 71.9267 80.5038 72.1301 80.6705 72.2567C80.8438 72.3834 81.0605 72.4467 81.3205 72.4467C81.7405 72.4467 82.0871 72.3301 82.3605 72.0967C82.6338 71.8634 82.7705 71.5134 82.7705 71.0467V70.5767L82.0505 70.5967ZM90.5127 67.7767V73.1667H89.4527V68.6367H86.9127V73.1667H85.8527V67.7767H90.5127ZM97.321 70.4667C97.321 70.9134 97.261 71.3101 97.141 71.6567C97.021 72.0034 96.851 72.2967 96.631 72.5367C96.411 72.7767 96.1443 72.9601 95.831 73.0867C95.5177 73.2067 95.1643 73.2667 94.771 73.2667C94.411 73.2667 94.0777 73.2067 93.771 73.0867C93.4643 72.9601 93.1977 72.7767 92.971 72.5367C92.751 72.2967 92.5777 72.0034 92.451 71.6567C92.3243 71.3101 92.261 70.9101 92.261 70.4567C92.261 69.8634 92.361 69.3601 92.561 68.9467C92.7677 68.5334 93.061 68.2201 93.441 68.0067C93.8277 67.7867 94.281 67.6767 94.801 67.6767C95.2943 67.6767 95.7277 67.7867 96.101 68.0067C96.481 68.2201 96.7777 68.5334 96.991 68.9467C97.211 69.3601 97.321 69.8667 97.321 70.4667ZM93.351 70.4667C93.351 70.8667 93.401 71.2134 93.501 71.5067C93.601 71.7934 93.7577 72.0134 93.971 72.1667C94.1843 72.3201 94.4577 72.3967 94.791 72.3967C95.1243 72.3967 95.3977 72.3201 95.611 72.1667C95.8243 72.0134 95.981 71.7934 96.081 71.5067C96.181 71.2134 96.231 70.8667 96.231 70.4667C96.231 70.0534 96.1777 69.7067 96.071 69.4267C95.971 69.1467 95.8143 68.9334 95.601 68.7867C95.3943 68.6334 95.121 68.5567 94.781 68.5567C94.281 68.5567 93.9177 68.7234 93.691 69.0567C93.4643 69.3901 93.351 69.8601 93.351 70.4667ZM105.145 67.7767V73.1667H104.185V69.9667C104.185 69.7867 104.188 69.6067 104.195 69.4267C104.208 69.2401 104.221 69.0634 104.235 68.8967H104.205L102.525 73.1667H101.675L100.025 68.8967H99.9848C100.005 69.0634 100.018 69.2401 100.025 69.4267C100.031 69.6067 100.035 69.7967 100.035 69.9967V73.1667H99.0648V67.7767H100.515L102.105 71.9067L103.725 67.7767H105.145ZM108.229 70.7167C108.229 70.7967 108.225 70.9001 108.219 71.0267C108.212 71.1534 108.205 71.2867 108.199 71.4267C108.192 71.5601 108.182 71.6867 108.169 71.8067C108.162 71.9201 108.155 72.0101 108.149 72.0767L110.919 67.7767H112.209V73.1667H111.209V70.2967C111.209 70.1701 111.212 70.0134 111.219 69.8267C111.225 69.6401 111.232 69.4601 111.239 69.2867C111.252 69.1067 111.262 68.9701 111.269 68.8767L108.519 73.1667H107.219V67.7767H108.229V70.7167ZM115.339 67.7767V69.9667H117.999V67.7767H119.059V73.1667H117.999V70.8167H115.339V73.1667H114.279V67.7767H115.339ZM123.204 67.6767C123.884 67.6767 124.391 67.8267 124.724 68.1267C125.058 68.4201 125.224 68.8834 125.224 69.5167V73.1667H124.474L124.264 72.4167H124.224C124.071 72.6101 123.911 72.7701 123.744 72.8967C123.584 73.0234 123.398 73.1167 123.184 73.1767C122.978 73.2367 122.724 73.2667 122.424 73.2667C122.104 73.2667 121.814 73.2101 121.554 73.0967C121.301 72.9767 121.101 72.7967 120.954 72.5567C120.808 72.3101 120.734 72.0034 120.734 71.6367C120.734 71.0901 120.941 70.6734 121.354 70.3867C121.774 70.1001 122.411 69.9434 123.264 69.9167L124.184 69.8867V69.5867C124.184 69.1867 124.094 68.9067 123.914 68.7467C123.734 68.5867 123.481 68.5067 123.154 68.5067C122.874 68.5067 122.608 68.5467 122.354 68.6267C122.101 68.7067 121.861 68.8034 121.634 68.9167L121.294 68.1467C121.548 68.0134 121.838 67.9034 122.164 67.8167C122.498 67.7234 122.844 67.6767 123.204 67.6767ZM123.454 70.5967C122.841 70.6234 122.414 70.7267 122.174 70.9067C121.941 71.0801 121.824 71.3267 121.824 71.6467C121.824 71.9267 121.908 72.1301 122.074 72.2567C122.248 72.3834 122.464 72.4467 122.724 72.4467C123.144 72.4467 123.491 72.3301 123.764 72.0967C124.038 71.8634 124.174 71.5134 124.174 71.0467V70.5767L123.454 70.5967ZM128.317 67.7767V69.9667H130.977V67.7767H132.037V73.1667H130.977V70.8167H128.317V73.1667H127.257V67.7767H128.317ZM135.102 70.7167C135.102 70.7967 135.099 70.9001 135.092 71.0267C135.085 71.1534 135.079 71.2867 135.072 71.4267C135.065 71.5601 135.055 71.6867 135.042 71.8067C135.035 71.9201 135.029 72.0101 135.022 72.0767L137.792 67.7767H139.082V73.1667H138.082V70.2967C138.082 70.1701 138.085 70.0134 138.092 69.8267C138.099 69.6401 138.105 69.4601 138.112 69.2867C138.125 69.1067 138.135 68.9701 138.142 68.8767L135.392 73.1667H134.092V67.7767H135.102V70.7167ZM141.632 73.1667H140.432L141.952 70.9467C141.746 70.8801 141.549 70.7867 141.362 70.6667C141.182 70.5467 141.036 70.3801 140.922 70.1667C140.809 69.9534 140.752 69.6934 140.752 69.3867C140.752 68.8667 140.936 68.4701 141.302 68.1967C141.669 67.9167 142.149 67.7767 142.742 67.7767H145.182V73.1667H144.122V71.0667H142.962L141.632 73.1667ZM141.782 69.3967C141.782 69.6834 141.889 69.9001 142.102 70.0467C142.316 70.1867 142.612 70.2567 142.992 70.2567H144.122V68.5967H142.812C142.446 68.5967 142.182 68.6734 142.022 68.8267C141.862 68.9801 141.782 69.1701 141.782 69.3967ZM154.993 70.4667C154.993 70.9134 154.933 71.3101 154.813 71.6567C154.693 72.0034 154.523 72.2967 154.303 72.5367C154.083 72.7767 153.817 72.9601 153.503 73.0867C153.19 73.2067 152.837 73.2667 152.443 73.2667C152.083 73.2667 151.75 73.2067 151.443 73.0867C151.137 72.9601 150.87 72.7767 150.643 72.5367C150.423 72.2967 150.25 72.0034 150.123 71.6567C149.997 71.3101 149.933 70.9101 149.933 70.4567C149.933 69.8634 150.033 69.3601 150.233 68.9467C150.44 68.5334 150.733 68.2201 151.113 68.0067C151.5 67.7867 151.953 67.6767 152.473 67.6767C152.967 67.6767 153.4 67.7867 153.773 68.0067C154.153 68.2201 154.45 68.5334 154.663 68.9467C154.883 69.3601 154.993 69.8667 154.993 70.4667ZM151.023 70.4667C151.023 70.8667 151.073 71.2134 151.173 71.5067C151.273 71.7934 151.43 72.0134 151.643 72.1667C151.857 72.3201 152.13 72.3967 152.463 72.3967C152.797 72.3967 153.07 72.3201 153.283 72.1667C153.497 72.0134 153.653 71.7934 153.753 71.5067C153.853 71.2134 153.903 70.8667 153.903 70.4667C153.903 70.0534 153.85 69.7067 153.743 69.4267C153.643 69.1467 153.487 68.9334 153.273 68.7867C153.067 68.6334 152.793 68.5567 152.453 68.5567C151.953 68.5567 151.59 68.7234 151.363 69.0567C151.137 69.3901 151.023 69.8601 151.023 70.4667ZM165.815 67.7767V73.1667H164.855V69.9667C164.855 69.7867 164.858 69.6067 164.865 69.4267C164.878 69.2401 164.891 69.0634 164.905 68.8967H164.875L163.195 73.1667H162.345L160.695 68.8967H160.655C160.675 69.0634 160.688 69.2401 160.695 69.4267C160.701 69.6067 160.705 69.7967 160.705 69.9967V73.1667H159.735V67.7767H161.185L162.775 71.9067L164.395 67.7767H165.815ZM170.009 67.6767C170.482 67.6767 170.889 67.7767 171.229 67.9767C171.569 68.1701 171.829 68.4501 172.009 68.8167C172.195 69.1834 172.289 69.6167 172.289 70.1167V70.6967H168.669C168.682 71.2501 168.825 71.6734 169.099 71.9667C169.379 72.2601 169.769 72.4067 170.269 72.4067C170.615 72.4067 170.922 72.3767 171.189 72.3167C171.462 72.2501 171.742 72.1534 172.029 72.0267V72.9067C171.762 73.0267 171.489 73.1167 171.209 73.1767C170.935 73.2367 170.609 73.2667 170.229 73.2667C169.709 73.2667 169.249 73.1634 168.849 72.9567C168.449 72.7501 168.135 72.4434 167.909 72.0367C167.689 71.6234 167.579 71.1167 167.579 70.5167C167.579 69.9101 167.679 69.3967 167.879 68.9767C168.085 68.5567 168.369 68.2367 168.729 68.0167C169.095 67.7901 169.522 67.6767 170.009 67.6767ZM170.009 68.4967C169.629 68.4967 169.322 68.6201 169.089 68.8667C168.862 69.1134 168.729 69.4634 168.689 69.9167H171.229C171.229 69.6367 171.185 69.3901 171.099 69.1767C171.012 68.9634 170.879 68.7967 170.699 68.6767C170.519 68.5567 170.289 68.4967 170.009 68.4967ZM178.261 67.7767V72.3267H179.051V75.0567H178.061V73.1667H174.341V75.0567H173.361V72.3267H173.791C174.078 71.9134 174.318 71.4601 174.511 70.9667C174.705 70.4734 174.851 69.9567 174.951 69.4167C175.058 68.8701 175.121 68.3234 175.141 67.7767H178.261ZM176.061 68.5967C176.021 69.0301 175.948 69.4734 175.841 69.9267C175.741 70.3801 175.611 70.8134 175.451 71.2267C175.298 71.6401 175.115 72.0067 174.901 72.3267H177.221V68.5967H176.061ZM181.476 70.7167C181.476 70.7967 181.473 70.9001 181.466 71.0267C181.459 71.1534 181.453 71.2867 181.446 71.4267C181.439 71.5601 181.429 71.6867 181.416 71.8067C181.409 71.9201 181.403 72.0101 181.396 72.0767L184.166 67.7767H185.456V73.1667H184.456V70.2967C184.456 70.1701 184.459 70.0134 184.466 69.8267C184.473 69.6401 184.479 69.4601 184.486 69.2867C184.499 69.1067 184.509 68.9701 184.516 68.8767L181.766 73.1667H180.466V67.7767H181.476V70.7167ZM191.466 68.6267H189.706V73.1667H188.656V68.6267H186.906V67.7767H191.466V68.6267ZM195.006 67.6767C195.686 67.6767 196.193 67.8267 196.526 68.1267C196.86 68.4201 197.026 68.8834 197.026 69.5167V73.1667H196.276L196.066 72.4167H196.026C195.873 72.6101 195.713 72.7701 195.546 72.8967C195.386 73.0234 195.2 73.1167 194.986 73.1767C194.78 73.2367 194.526 73.2667 194.226 73.2667C193.906 73.2667 193.616 73.2101 193.356 73.0967C193.103 72.9767 192.903 72.7967 192.756 72.5567C192.61 72.3101 192.536 72.0034 192.536 71.6367C192.536 71.0901 192.743 70.6734 193.156 70.3867C193.576 70.1001 194.213 69.9434 195.066 69.9167L195.986 69.8867V69.5867C195.986 69.1867 195.896 68.9067 195.716 68.7467C195.536 68.5867 195.283 68.5067 194.956 68.5067C194.676 68.5067 194.41 68.5467 194.156 68.6267C193.903 68.7067 193.663 68.8034 193.436 68.9167L193.096 68.1467C193.35 68.0134 193.64 67.9034 193.966 67.8167C194.3 67.7234 194.646 67.6767 195.006 67.6767ZM195.256 70.5967C194.643 70.6234 194.216 70.7267 193.976 70.9067C193.743 71.0801 193.626 71.3267 193.626 71.6467C193.626 71.9267 193.71 72.1301 193.876 72.2567C194.05 72.3834 194.266 72.4467 194.526 72.4467C194.946 72.4467 195.293 72.3301 195.566 72.0967C195.84 71.8634 195.976 71.5134 195.976 71.0467V70.5767L195.256 70.5967ZM204.549 75.0567H203.549V73.1667H199.059V67.7767H200.119V72.3167H202.719V67.7767H203.779V72.3267H204.549V75.0567ZM206.963 70.7167C206.963 70.7967 206.959 70.9001 206.953 71.0267C206.946 71.1534 206.939 71.2867 206.933 71.4267C206.926 71.5601 206.916 71.6867 206.903 71.8067C206.896 71.9201 206.889 72.0101 206.883 72.0767L209.653 67.7767H210.943V73.1667H209.943V70.2967C209.943 70.1701 209.946 70.0134 209.953 69.8267C209.959 69.6401 209.966 69.4601 209.973 69.2867C209.986 69.1067 209.996 68.9701 210.003 68.8767L207.253 73.1667H205.953V67.7767H206.963V70.7167ZM213.493 73.1667H212.293L213.813 70.9467C213.606 70.8801 213.409 70.7867 213.223 70.6667C213.043 70.5467 212.896 70.3801 212.783 70.1667C212.669 69.9534 212.613 69.6934 212.613 69.3867C212.613 68.8667 212.796 68.4701 213.163 68.1967C213.529 67.9167 214.009 67.7767 214.603 67.7767H217.043V73.1667H215.983V71.0667H214.823L213.493 73.1667ZM213.643 69.3967C213.643 69.6834 213.749 69.9001 213.963 70.0467C214.176 70.1867 214.473 70.2567 214.853 70.2567H215.983V68.5967H214.673C214.306 68.5967 214.043 68.6734 213.883 68.8267C213.723 68.9801 213.643 69.1701 213.643 69.3967ZM220.336 70.4167L218.506 67.7767H219.716L220.996 69.7167L222.276 67.7767H223.476L221.646 70.4167L223.566 73.1667H222.366L220.996 71.1067L219.616 73.1667H218.416L220.336 70.4167ZM62.3001 85.5167C62.3001 85.1967 62.3535 84.9401 62.4601 84.7467C62.5668 84.5467 62.7101 84.4034 62.8901 84.3167C63.0768 84.2301 63.2801 84.1867 63.5001 84.1867C63.7201 84.1867 63.9201 84.2301 64.1001 84.3167C64.2801 84.4034 64.4235 84.5467 64.5301 84.7467C64.6435 84.9401 64.7001 85.1967 64.7001 85.5167C64.7001 85.8301 64.6435 86.0867 64.5301 86.2867C64.4235 86.4801 64.2801 86.6234 64.1001 86.7167C63.9201 86.8034 63.7201 86.8467 63.5001 86.8467C63.2801 86.8467 63.0768 86.8034 62.8901 86.7167C62.7101 86.6234 62.5668 86.4801 62.4601 86.2867C62.3535 86.0867 62.3001 85.8301 62.3001 85.5167ZM75.06 89.1667L72.9 83.0967H72.86C72.8667 83.2301 72.8767 83.4101 72.89 83.6367C72.9033 83.8634 72.9133 84.1067 72.92 84.3667C72.9267 84.6267 72.93 84.8834 72.93 85.1367V89.1667H71.95V82.0267H73.49L75.54 87.7567H75.58L77.69 82.0267H79.23V89.1667H78.18V85.0767C78.18 84.8434 78.1833 84.6034 78.19 84.3567C78.2033 84.1034 78.2133 83.8667 78.22 83.6467C78.2333 83.4267 78.2433 83.2467 78.25 83.1067H78.21L75.99 89.1667H75.06ZM83.5297 83.6767C84.003 83.6767 84.4097 83.7767 84.7497 83.9767C85.0897 84.1701 85.3497 84.4501 85.5297 84.8167C85.7164 85.1834 85.8097 85.6167 85.8097 86.1167V86.6967H82.1897C82.203 87.2501 82.3464 87.6734 82.6197 87.9667C82.8997 88.2601 83.2897 88.4067 83.7897 88.4067C84.1364 88.4067 84.443 88.3767 84.7097 88.3167C84.983 88.2501 85.263 88.1534 85.5497 88.0267V88.9067C85.283 89.0267 85.0097 89.1167 84.7297 89.1767C84.4564 89.2367 84.1297 89.2667 83.7497 89.2667C83.2297 89.2667 82.7697 89.1634 82.3697 88.9567C81.9697 88.7501 81.6564 88.4434 81.4297 88.0367C81.2097 87.6234 81.0997 87.1167 81.0997 86.5167C81.0997 85.9101 81.1997 85.3967 81.3997 84.9767C81.6064 84.5567 81.8897 84.2367 82.2497 84.0167C82.6164 83.7901 83.043 83.6767 83.5297 83.6767ZM83.5297 84.4967C83.1497 84.4967 82.843 84.6201 82.6097 84.8667C82.383 85.1134 82.2497 85.4634 82.2097 85.9167H84.7497C84.7497 85.6367 84.7064 85.3901 84.6197 85.1767C84.533 84.9634 84.3997 84.7967 84.2197 84.6767C84.0397 84.5567 83.8097 84.4967 83.5297 84.4967ZM91.7823 83.7767V88.3267H92.5723V91.0567H91.5823V89.1667H87.8623V91.0567H86.8823V88.3267H87.3123C87.599 87.9134 87.839 87.4601 88.0323 86.9667C88.2257 86.4734 88.3723 85.9567 88.4723 85.4167C88.579 84.8701 88.6423 84.3234 88.6623 83.7767H91.7823ZM89.5823 84.5967C89.5423 85.0301 89.469 85.4734 89.3623 85.9267C89.2623 86.3801 89.1323 86.8134 88.9723 87.2267C88.819 87.6401 88.6357 88.0067 88.4223 88.3267H90.7423V84.5967H89.5823ZM94.997 86.7167C94.997 86.7967 94.9937 86.9001 94.987 87.0267C94.9804 87.1534 94.9737 87.2867 94.967 87.4267C94.9604 87.5601 94.9504 87.6867 94.937 87.8067C94.9304 87.9201 94.9237 88.0101 94.917 88.0767L97.687 83.7767H98.977V89.1667H97.977V86.2967C97.977 86.1701 97.9804 86.0134 97.987 85.8267C97.9937 85.6401 98.0004 85.4601 98.007 85.2867C98.0204 85.1067 98.0304 84.9701 98.037 84.8767L95.287 89.1667H93.987V83.7767H94.997V86.7167ZM104.987 84.6267H103.227V89.1667H102.177V84.6267H100.427V83.7767H104.987V84.6267ZM108.527 83.6767C109.207 83.6767 109.714 83.8267 110.047 84.1267C110.381 84.4201 110.547 84.8834 110.547 85.5167V89.1667H109.797L109.587 88.4167H109.547C109.394 88.6101 109.234 88.7701 109.067 88.8967C108.907 89.0234 108.721 89.1167 108.507 89.1767C108.301 89.2367 108.047 89.2667 107.747 89.2667C107.427 89.2667 107.137 89.2101 106.877 89.0967C106.624 88.9767 106.424 88.7967 106.277 88.5567C106.131 88.3101 106.057 88.0034 106.057 87.6367C106.057 87.0901 106.264 86.6734 106.677 86.3867C107.097 86.1001 107.734 85.9434 108.587 85.9167L109.507 85.8867V85.5867C109.507 85.1867 109.417 84.9067 109.237 84.7467C109.057 84.5867 108.804 84.5067 108.477 84.5067C108.197 84.5067 107.931 84.5467 107.677 84.6267C107.424 84.7067 107.184 84.8034 106.957 84.9167L106.617 84.1467C106.871 84.0134 107.161 83.9034 107.487 83.8167C107.821 83.7234 108.167 83.6767 108.527 83.6767ZM108.777 86.5967C108.164 86.6234 107.737 86.7267 107.497 86.9067C107.264 87.0801 107.147 87.3267 107.147 87.6467C107.147 87.9267 107.231 88.1301 107.397 88.2567C107.571 88.3834 107.787 88.4467 108.047 88.4467C108.467 88.4467 108.814 88.3301 109.087 88.0967C109.361 87.8634 109.497 87.5134 109.497 87.0467V86.5767L108.777 86.5967ZM118.07 91.0567H117.07V89.1667H112.58V83.7767H113.64V88.3167H116.24V83.7767H117.3V88.3267H118.07V91.0567ZM120.484 86.7167C120.484 86.7967 120.48 86.9001 120.474 87.0267C120.467 87.1534 120.46 87.2867 120.454 87.4267C120.447 87.5601 120.437 87.6867 120.424 87.8067C120.417 87.9201 120.41 88.0101 120.404 88.0767L123.174 83.7767H124.464V89.1667H123.464V86.2967C123.464 86.1701 123.467 86.0134 123.474 85.8267C123.48 85.6401 123.487 85.4601 123.494 85.2867C123.507 85.1067 123.517 84.9701 123.524 84.8767L120.774 89.1667H119.474V83.7767H120.484V86.7167ZM127.544 86.7167C127.544 86.7967 127.541 86.9001 127.534 87.0267C127.527 87.1534 127.521 87.2867 127.514 87.4267C127.507 87.5601 127.497 87.6867 127.484 87.8067C127.477 87.9201 127.471 88.0101 127.464 88.0767L130.234 83.7767H131.524V89.1667H130.524V86.2967C130.524 86.1701 130.527 86.0134 130.534 85.8267C130.541 85.6401 130.547 85.4601 130.554 85.2867C130.567 85.1067 130.577 84.9701 130.584 84.8767L127.834 89.1667H126.534V83.7767H127.544V86.7167ZM134.774 88.1167C134.714 88.3501 134.637 88.6034 134.544 88.8767C134.451 89.1501 134.351 89.4201 134.244 89.6867C134.137 89.9601 134.027 90.2167 133.914 90.4567H133.144C133.211 90.1967 133.274 89.9201 133.334 89.6267C133.401 89.3401 133.461 89.0567 133.514 88.7767C133.567 88.4967 133.611 88.2401 133.644 88.0067H134.704L134.774 88.1167ZM144.386 83.7767V89.1667H143.326V84.6367H140.786V89.1667H139.726V83.7767H144.386ZM149.134 83.6767C149.781 83.6767 150.301 83.9101 150.694 84.3767C151.094 84.8434 151.294 85.5401 151.294 86.4667C151.294 87.0734 151.204 87.5867 151.024 88.0067C150.844 88.4267 150.591 88.7434 150.264 88.9567C149.938 89.1634 149.558 89.2667 149.124 89.2667C148.851 89.2667 148.611 89.2334 148.404 89.1667C148.198 89.0934 148.021 89.0001 147.874 88.8867C147.734 88.7667 147.611 88.6401 147.504 88.5067H147.434C147.454 88.6267 147.471 88.7701 147.484 88.9367C147.498 89.0967 147.504 89.2401 147.504 89.3667V91.5667H146.444V83.7767H147.304L147.454 84.4967H147.504C147.611 84.3501 147.738 84.2134 147.884 84.0867C148.031 83.9601 148.208 83.8601 148.414 83.7867C148.621 83.7134 148.861 83.6767 149.134 83.6767ZM148.884 84.5467C148.551 84.5467 148.284 84.6134 148.084 84.7467C147.884 84.8734 147.738 85.0667 147.644 85.3267C147.558 85.5801 147.511 85.9034 147.504 86.2967V86.4567C147.504 86.8701 147.548 87.2234 147.634 87.5167C147.721 87.8034 147.864 88.0234 148.064 88.1767C148.271 88.3234 148.551 88.3967 148.904 88.3967C149.204 88.3967 149.448 88.3167 149.634 88.1567C149.828 87.9901 149.971 87.7601 150.064 87.4667C150.158 87.1734 150.204 86.8334 150.204 86.4467C150.204 85.8601 150.098 85.3967 149.884 85.0567C149.671 84.7167 149.338 84.5467 148.884 84.5467ZM155.136 83.6767C155.816 83.6767 156.322 83.8267 156.656 84.1267C156.989 84.4201 157.156 84.8834 157.156 85.5167V89.1667H156.406L156.196 88.4167H156.156C156.002 88.6101 155.842 88.7701 155.676 88.8967C155.516 89.0234 155.329 89.1167 155.116 89.1767C154.909 89.2367 154.656 89.2667 154.356 89.2667C154.036 89.2667 153.746 89.2101 153.486 89.0967C153.232 88.9767 153.032 88.7967 152.886 88.5567C152.739 88.3101 152.666 88.0034 152.666 87.6367C152.666 87.0901 152.872 86.6734 153.286 86.3867C153.706 86.1001 154.342 85.9434 155.196 85.9167L156.116 85.8867V85.5867C156.116 85.1867 156.026 84.9067 155.846 84.7467C155.666 84.5867 155.412 84.5067 155.086 84.5067C154.806 84.5067 154.539 84.5467 154.286 84.6267C154.032 84.7067 153.792 84.8034 153.566 84.9167L153.226 84.1467C153.479 84.0134 153.769 83.9034 154.096 83.8167C154.429 83.7234 154.776 83.6767 155.136 83.6767ZM155.386 86.5967C154.772 86.6234 154.346 86.7267 154.106 86.9067C153.872 87.0801 153.756 87.3267 153.756 87.6467C153.756 87.9267 153.839 88.1301 154.006 88.2567C154.179 88.3834 154.396 88.4467 154.656 88.4467C155.076 88.4467 155.422 88.3301 155.696 88.0967C155.969 87.8634 156.106 87.5134 156.106 87.0467V86.5767L155.386 86.5967ZM162.478 83.7767H163.638L161.388 86.3667L163.828 89.1667H162.608L160.248 86.4367V89.1667H159.188V83.7767H160.248V86.3967L162.478 83.7767ZM169.084 84.6267H167.324V89.1667H166.274V84.6267H164.524V83.7767H169.084V84.6267ZM171.545 86.7167C171.545 86.7967 171.541 86.9001 171.535 87.0267C171.528 87.1534 171.521 87.2867 171.515 87.4267C171.508 87.5601 171.498 87.6867 171.485 87.8067C171.478 87.9201 171.471 88.0101 171.465 88.0767L174.235 83.7767H175.525V89.1667H174.525V86.2967C174.525 86.1701 174.528 86.0134 174.535 85.8267C174.541 85.6401 174.548 85.4601 174.555 85.2867C174.568 85.1067 174.578 84.9701 174.585 84.8767L171.835 89.1667H170.535V83.7767H171.545V86.7167ZM180.885 83.7767H182.045L179.795 86.3667L182.235 89.1667H181.015L178.655 86.4367V89.1667H177.595V83.7767H178.655V86.3967L180.885 83.7767ZM184.561 86.7167C184.561 86.7967 184.558 86.9001 184.551 87.0267C184.545 87.1534 184.538 87.2867 184.531 87.4267C184.525 87.5601 184.515 87.6867 184.501 87.8067C184.495 87.9201 184.488 88.0101 184.481 88.0767L187.251 83.7767H188.541V89.1667H187.541V86.2967C187.541 86.1701 187.545 86.0134 187.551 85.8267C187.558 85.6401 187.565 85.4601 187.571 85.2867C187.585 85.1067 187.595 84.9701 187.601 84.8767L184.851 89.1667H183.551V83.7767H184.561V86.7167ZM194.789 88.1167C194.729 88.3501 194.653 88.6034 194.559 88.8767C194.466 89.1501 194.366 89.4201 194.259 89.6867C194.153 89.9601 194.043 90.2167 193.929 90.4567H193.159C193.226 90.1967 193.289 89.9201 193.349 89.6267C193.416 89.3401 193.476 89.0567 193.529 88.7767C193.583 88.4967 193.626 88.2401 193.659 88.0067H194.719L194.789 88.1167ZM200.751 86.7167C200.751 86.7967 200.748 86.9001 200.741 87.0267C200.735 87.1534 200.728 87.2867 200.721 87.4267C200.715 87.5601 200.705 87.6867 200.691 87.8067C200.685 87.9201 200.678 88.0101 200.671 88.0767L203.441 83.7767H204.731V89.1667H203.731V86.2967C203.731 86.1701 203.735 86.0134 203.741 85.8267C203.748 85.6401 203.755 85.4601 203.761 85.2867C203.775 85.1067 203.785 84.9701 203.791 84.8767L201.041 89.1667H199.741V83.7767H200.751V86.7167ZM210.221 83.7767V84.6267H207.861V89.1667H206.801V83.7767H210.221ZM214.354 83.6767C215.001 83.6767 215.521 83.9101 215.914 84.3767C216.314 84.8434 216.514 85.5401 216.514 86.4667C216.514 87.0734 216.424 87.5867 216.244 88.0067C216.064 88.4267 215.811 88.7434 215.484 88.9567C215.158 89.1634 214.778 89.2667 214.344 89.2667C214.071 89.2667 213.831 89.2334 213.624 89.1667C213.418 89.0934 213.241 89.0001 213.094 88.8867C212.954 88.7667 212.831 88.6401 212.724 88.5067H212.654C212.674 88.6267 212.691 88.7701 212.704 88.9367C212.718 89.0967 212.724 89.2401 212.724 89.3667V91.5667H211.664V83.7767H212.524L212.674 84.4967H212.724C212.831 84.3501 212.958 84.2134 213.104 84.0867C213.251 83.9601 213.428 83.8601 213.634 83.7867C213.841 83.7134 214.081 83.6767 214.354 83.6767ZM214.104 84.5467C213.771 84.5467 213.504 84.6134 213.304 84.7467C213.104 84.8734 212.958 85.0667 212.864 85.3267C212.778 85.5801 212.731 85.9034 212.724 86.2967V86.4567C212.724 86.8701 212.768 87.2234 212.854 87.5167C212.941 87.8034 213.084 88.0234 213.284 88.1767C213.491 88.3234 213.771 88.3967 214.124 88.3967C214.424 88.3967 214.668 88.3167 214.854 88.1567C215.048 87.9901 215.191 87.7601 215.284 87.4667C215.378 87.1734 215.424 86.8334 215.424 86.4467C215.424 85.8601 215.318 85.3967 215.104 85.0567C214.891 84.7167 214.558 84.5467 214.104 84.5467ZM218.266 89.1667V83.7767H219.326V85.9467H220.516C221.009 85.9467 221.416 86.0067 221.736 86.1267C222.056 86.2401 222.292 86.4101 222.446 86.6367C222.599 86.8634 222.676 87.1501 222.676 87.4967C222.676 87.8367 222.599 88.1334 222.446 88.3867C222.299 88.6334 222.066 88.8267 221.746 88.9667C221.432 89.1001 221.019 89.1667 220.506 89.1667H218.266ZM220.426 88.3667C220.779 88.3667 221.066 88.3067 221.286 88.1867C221.512 88.0601 221.626 87.8434 221.626 87.5367C221.626 87.2434 221.522 87.0434 221.316 86.9367C221.109 86.8234 220.812 86.7667 220.426 86.7667H219.326V88.3667H220.426ZM223.536 89.1667V83.7767H224.596V89.1667H223.536ZM62.3001 101.517C62.3001 101.197 62.3535 100.94 62.4601 100.747C62.5668 100.547 62.7101 100.403 62.8901 100.317C63.0768 100.23 63.2801 100.187 63.5001 100.187C63.7201 100.187 63.9201 100.23 64.1001 100.317C64.2801 100.403 64.4235 100.547 64.5301 100.747C64.6435 100.94 64.7001 101.197 64.7001 101.517C64.7001 101.83 64.6435 102.087 64.5301 102.287C64.4235 102.48 64.2801 102.623 64.1001 102.717C63.9201 102.803 63.7201 102.847 63.5001 102.847C63.2801 102.847 63.0768 102.803 62.8901 102.717C62.7101 102.623 62.5668 102.48 62.4601 102.287C62.3535 102.087 62.3001 101.83 62.3001 101.517ZM71.95 105.167V98.0267H77.39V105.167H76.32V98.9567H73.03V105.167H71.95ZM81.7035 99.6767C82.1768 99.6767 82.5835 99.7767 82.9235 99.9767C83.2635 100.17 83.5235 100.45 83.7035 100.817C83.8902 101.183 83.9835 101.617 83.9835 102.117V102.697H80.3635C80.3768 103.25 80.5202 103.673 80.7935 103.967C81.0735 104.26 81.4635 104.407 81.9635 104.407C82.3102 104.407 82.6168 104.377 82.8835 104.317C83.1568 104.25 83.4368 104.153 83.7235 104.027V104.907C83.4568 105.027 83.1835 105.117 82.9035 105.177C82.6302 105.237 82.3035 105.267 81.9235 105.267C81.4035 105.267 80.9435 105.163 80.5435 104.957C80.1435 104.75 79.8302 104.443 79.6035 104.037C79.3835 103.623 79.2735 103.117 79.2735 102.517C79.2735 101.91 79.3735 101.397 79.5735 100.977C79.7802 100.557 80.0635 100.237 80.4235 100.017C80.7902 99.7901 81.2168 99.6767 81.7035 99.6767ZM81.7035 100.497C81.3235 100.497 81.0168 100.62 80.7835 100.867C80.5568 101.113 80.4235 101.463 80.3835 101.917H82.9235C82.9235 101.637 82.8802 101.39 82.7935 101.177C82.7068 100.963 82.5735 100.797 82.3935 100.677C82.2135 100.557 81.9835 100.497 81.7035 100.497ZM88.3962 99.6767C89.0428 99.6767 89.5628 99.9101 89.9562 100.377C90.3562 100.843 90.5562 101.54 90.5562 102.467C90.5562 103.073 90.4662 103.587 90.2862 104.007C90.1062 104.427 89.8528 104.743 89.5262 104.957C89.1995 105.163 88.8195 105.267 88.3862 105.267C88.1128 105.267 87.8728 105.233 87.6662 105.167C87.4595 105.093 87.2828 105 87.1362 104.887C86.9962 104.767 86.8728 104.64 86.7662 104.507H86.6962C86.7162 104.627 86.7328 104.77 86.7462 104.937C86.7595 105.097 86.7662 105.24 86.7662 105.367V107.567H85.7062V99.7767H86.5662L86.7162 100.497H86.7662C86.8728 100.35 86.9995 100.213 87.1462 100.087C87.2928 99.9601 87.4695 99.8601 87.6762 99.7867C87.8828 99.7134 88.1228 99.6767 88.3962 99.6767ZM88.1462 100.547C87.8128 100.547 87.5462 100.613 87.3462 100.747C87.1462 100.873 86.9995 101.067 86.9062 101.327C86.8195 101.58 86.7728 101.903 86.7662 102.297V102.457C86.7662 102.87 86.8095 103.223 86.8962 103.517C86.9828 103.803 87.1262 104.023 87.3262 104.177C87.5328 104.323 87.8128 104.397 88.1662 104.397C88.4662 104.397 88.7095 104.317 88.8962 104.157C89.0895 103.99 89.2328 103.76 89.3262 103.467C89.4195 103.173 89.4662 102.833 89.4662 102.447C89.4662 101.86 89.3595 101.397 89.1462 101.057C88.9328 100.717 88.5995 100.547 88.1462 100.547ZM94.4773 105.267C93.984 105.267 93.5507 105.17 93.1773 104.977C92.804 104.783 92.514 104.483 92.3073 104.077C92.1007 103.663 91.9973 103.14 91.9973 102.507C91.9973 101.84 92.1073 101.3 92.3273 100.887C92.554 100.473 92.8573 100.17 93.2373 99.9767C93.624 99.7767 94.064 99.6767 94.5573 99.6767C94.8573 99.6767 95.1373 99.7101 95.3973 99.7767C95.664 99.8367 95.884 99.9067 96.0573 99.9867L95.7373 100.847C95.5507 100.773 95.3507 100.71 95.1373 100.657C94.9307 100.603 94.734 100.577 94.5473 100.577C94.214 100.577 93.9373 100.65 93.7173 100.797C93.504 100.937 93.344 101.15 93.2373 101.437C93.1373 101.717 93.0873 102.07 93.0873 102.497C93.0873 102.903 93.1407 103.247 93.2473 103.527C93.354 103.807 93.5107 104.02 93.7173 104.167C93.9307 104.307 94.194 104.377 94.5073 104.377C94.8073 104.377 95.0707 104.343 95.2973 104.277C95.524 104.21 95.7373 104.123 95.9373 104.017V104.937C95.744 105.05 95.534 105.133 95.3073 105.187C95.0807 105.24 94.804 105.267 94.4773 105.267ZM102.36 102.467C102.36 102.913 102.3 103.31 102.18 103.657C102.06 104.003 101.89 104.297 101.67 104.537C101.45 104.777 101.183 104.96 100.87 105.087C100.556 105.207 100.203 105.267 99.8097 105.267C99.4497 105.267 99.1164 105.207 98.8097 105.087C98.503 104.96 98.2364 104.777 98.0097 104.537C97.7897 104.297 97.6164 104.003 97.4897 103.657C97.363 103.31 97.2997 102.91 97.2997 102.457C97.2997 101.863 97.3997 101.36 97.5997 100.947C97.8064 100.533 98.0997 100.22 98.4797 100.007C98.8664 99.7867 99.3197 99.6767 99.8397 99.6767C100.333 99.6767 100.766 99.7867 101.14 100.007C101.52 100.22 101.816 100.533 102.03 100.947C102.25 101.36 102.36 101.867 102.36 102.467ZM98.3897 102.467C98.3897 102.867 98.4397 103.213 98.5397 103.507C98.6397 103.793 98.7964 104.013 99.0097 104.167C99.223 104.32 99.4964 104.397 99.8297 104.397C100.163 104.397 100.436 104.32 100.65 104.167C100.863 104.013 101.02 103.793 101.12 103.507C101.22 103.213 101.27 102.867 101.27 102.467C101.27 102.053 101.216 101.707 101.11 101.427C101.01 101.147 100.853 100.933 100.64 100.787C100.433 100.633 100.16 100.557 99.8197 100.557C99.3197 100.557 98.9564 100.723 98.7297 101.057C98.503 101.39 98.3897 101.86 98.3897 102.467ZM105.163 99.7767V101.967H107.823V99.7767H108.883V105.167H107.823V102.817H105.163V105.167H104.103V99.7767H105.163ZM113.029 99.6767C113.709 99.6767 114.216 99.8267 114.549 100.127C114.882 100.42 115.049 100.883 115.049 101.517V105.167H114.299L114.089 104.417H114.049C113.896 104.61 113.736 104.77 113.569 104.897C113.409 105.023 113.222 105.117 113.009 105.177C112.802 105.237 112.549 105.267 112.249 105.267C111.929 105.267 111.639 105.21 111.379 105.097C111.126 104.977 110.926 104.797 110.779 104.557C110.632 104.31 110.559 104.003 110.559 103.637C110.559 103.09 110.766 102.673 111.179 102.387C111.599 102.1 112.236 101.943 113.089 101.917L114.009 101.887V101.587C114.009 101.187 113.919 100.907 113.739 100.747C113.559 100.587 113.306 100.507 112.979 100.507C112.699 100.507 112.432 100.547 112.179 100.627C111.926 100.707 111.686 100.803 111.459 100.917L111.119 100.147C111.372 100.013 111.662 99.9034 111.989 99.8167C112.322 99.7234 112.669 99.6767 113.029 99.6767ZM113.279 102.597C112.666 102.623 112.239 102.727 111.999 102.907C111.766 103.08 111.649 103.327 111.649 103.647C111.649 103.927 111.732 104.13 111.899 104.257C112.072 104.383 112.289 104.447 112.549 104.447C112.969 104.447 113.316 104.33 113.589 104.097C113.862 103.863 113.999 103.513 113.999 103.047V102.577L113.279 102.597ZM121.401 105.167H120.331V100.627H118.811C118.745 101.453 118.661 102.163 118.561 102.757C118.468 103.343 118.345 103.82 118.191 104.187C118.045 104.553 117.861 104.823 117.641 104.997C117.428 105.163 117.171 105.247 116.871 105.247C116.765 105.247 116.661 105.237 116.561 105.217C116.461 105.203 116.375 105.18 116.301 105.147V104.337C116.348 104.35 116.398 104.363 116.451 104.377C116.511 104.383 116.571 104.387 116.631 104.387C116.765 104.387 116.885 104.333 116.991 104.227C117.105 104.12 117.205 103.953 117.291 103.727C117.385 103.5 117.468 103.207 117.541 102.847C117.621 102.48 117.688 102.043 117.741 101.537C117.801 101.03 117.855 100.443 117.901 99.7767H121.401V105.167ZM125.948 101.947C126.441 101.947 126.848 102.007 127.168 102.127C127.494 102.24 127.738 102.41 127.898 102.637C128.064 102.863 128.148 103.15 128.148 103.497C128.148 103.837 128.071 104.133 127.918 104.387C127.764 104.633 127.524 104.827 127.198 104.967C126.871 105.1 126.451 105.167 125.938 105.167H123.458V99.7767H124.518V101.947H125.948ZM127.088 103.537C127.088 103.243 126.981 103.043 126.768 102.937C126.561 102.823 126.261 102.767 125.868 102.767H124.518V104.367H125.888C126.241 104.367 126.528 104.303 126.748 104.177C126.974 104.05 127.088 103.837 127.088 103.537ZM130.914 99.7767V101.967H133.574V99.7767H134.634V105.167H133.574V102.817H130.914V105.167H129.854V99.7767H130.914ZM136.689 105.167V99.7767H137.749V101.947H138.939C139.433 101.947 139.839 102.007 140.159 102.127C140.479 102.24 140.716 102.41 140.869 102.637C141.023 102.863 141.099 103.15 141.099 103.497C141.099 103.837 141.023 104.133 140.869 104.387C140.723 104.633 140.489 104.827 140.169 104.967C139.856 105.1 139.443 105.167 138.929 105.167H136.689ZM138.849 104.367C139.203 104.367 139.489 104.307 139.709 104.187C139.936 104.06 140.049 103.843 140.049 103.537C140.049 103.243 139.946 103.043 139.739 102.937C139.533 102.823 139.236 102.767 138.849 102.767H137.749V104.367H138.849ZM141.959 105.167V99.7767H143.019V105.167H141.959ZM147.198 99.6767C147.671 99.6767 148.078 99.7767 148.418 99.9767C148.758 100.17 149.018 100.45 149.198 100.817C149.384 101.183 149.478 101.617 149.478 102.117V102.697H145.858C145.871 103.25 146.014 103.673 146.288 103.967C146.568 104.26 146.958 104.407 147.458 104.407C147.804 104.407 148.111 104.377 148.378 104.317C148.651 104.25 148.931 104.153 149.218 104.027V104.907C148.951 105.027 148.678 105.117 148.398 105.177C148.124 105.237 147.798 105.267 147.418 105.267C146.898 105.267 146.438 105.163 146.038 104.957C145.638 104.75 145.324 104.443 145.098 104.037C144.878 103.623 144.768 103.117 144.768 102.517C144.768 101.91 144.868 101.397 145.068 100.977C145.274 100.557 145.558 100.237 145.918 100.017C146.284 99.7901 146.711 99.6767 147.198 99.6767ZM147.198 100.497C146.818 100.497 146.511 100.62 146.278 100.867C146.051 101.113 145.918 101.463 145.878 101.917H148.418C148.418 101.637 148.374 101.39 148.288 101.177C148.201 100.963 148.068 100.797 147.888 100.677C147.708 100.557 147.478 100.497 147.198 100.497ZM156.888 99.6767C157.535 99.6767 158.055 99.9101 158.448 100.377C158.848 100.843 159.048 101.54 159.048 102.467C159.048 103.073 158.958 103.587 158.778 104.007C158.598 104.427 158.345 104.743 158.018 104.957C157.691 105.163 157.311 105.267 156.878 105.267C156.605 105.267 156.365 105.233 156.158 105.167C155.951 105.093 155.775 105 155.628 104.887C155.488 104.767 155.365 104.64 155.258 104.507H155.188C155.208 104.627 155.225 104.77 155.238 104.937C155.251 105.097 155.258 105.24 155.258 105.367V107.567H154.198V99.7767H155.058L155.208 100.497H155.258C155.365 100.35 155.491 100.213 155.638 100.087C155.785 99.9601 155.961 99.8601 156.168 99.7867C156.375 99.7134 156.615 99.6767 156.888 99.6767ZM156.638 100.547C156.305 100.547 156.038 100.613 155.838 100.747C155.638 100.873 155.491 101.067 155.398 101.327C155.311 101.58 155.265 101.903 155.258 102.297V102.457C155.258 102.87 155.301 103.223 155.388 103.517C155.475 103.803 155.618 104.023 155.818 104.177C156.025 104.323 156.305 104.397 156.658 104.397C156.958 104.397 157.201 104.317 157.388 104.157C157.581 103.99 157.725 103.76 157.818 103.467C157.911 103.173 157.958 102.833 157.958 102.447C157.958 101.86 157.851 101.397 157.638 101.057C157.425 100.717 157.091 100.547 156.638 100.547ZM162.919 99.6767C163.392 99.6767 163.799 99.7767 164.139 99.9767C164.479 100.17 164.739 100.45 164.919 100.817C165.106 101.183 165.199 101.617 165.199 102.117V102.697H161.579C161.592 103.25 161.736 103.673 162.009 103.967C162.289 104.26 162.679 104.407 163.179 104.407C163.526 104.407 163.832 104.377 164.099 104.317C164.372 104.25 164.652 104.153 164.939 104.027V104.907C164.672 105.027 164.399 105.117 164.119 105.177C163.846 105.237 163.519 105.267 163.139 105.267C162.619 105.267 162.159 105.163 161.759 104.957C161.359 104.75 161.046 104.443 160.819 104.037C160.599 103.623 160.489 103.117 160.489 102.517C160.489 101.91 160.589 101.397 160.789 100.977C160.996 100.557 161.279 100.237 161.639 100.017C162.006 99.7901 162.432 99.6767 162.919 99.6767ZM162.919 100.497C162.539 100.497 162.232 100.62 161.999 100.867C161.772 101.113 161.639 101.463 161.599 101.917H164.139C164.139 101.637 164.096 101.39 164.009 101.177C163.922 100.963 163.789 100.797 163.609 100.677C163.429 100.557 163.199 100.497 162.919 100.497ZM170.212 99.7767H171.372L169.122 102.367L171.562 105.167H170.342L167.982 102.437V105.167H166.922V99.7767H167.982V102.397L170.212 99.7767ZM177.433 102.467C177.433 102.913 177.373 103.31 177.253 103.657C177.133 104.003 176.963 104.297 176.743 104.537C176.523 104.777 176.256 104.96 175.943 105.087C175.63 105.207 175.276 105.267 174.883 105.267C174.523 105.267 174.19 105.207 173.883 105.087C173.576 104.96 173.31 104.777 173.083 104.537C172.863 104.297 172.69 104.003 172.563 103.657C172.436 103.31 172.373 102.91 172.373 102.457C172.373 101.863 172.473 101.36 172.673 100.947C172.88 100.533 173.173 100.22 173.553 100.007C173.94 99.7867 174.393 99.6767 174.913 99.6767C175.406 99.6767 175.84 99.7867 176.213 100.007C176.593 100.22 176.89 100.533 177.103 100.947C177.323 101.36 177.433 101.867 177.433 102.467ZM173.463 102.467C173.463 102.867 173.513 103.213 173.613 103.507C173.713 103.793 173.87 104.013 174.083 104.167C174.296 104.32 174.57 104.397 174.903 104.397C175.236 104.397 175.51 104.32 175.723 104.167C175.936 104.013 176.093 103.793 176.193 103.507C176.293 103.213 176.343 102.867 176.343 102.467C176.343 102.053 176.29 101.707 176.183 101.427C176.083 101.147 175.926 100.933 175.713 100.787C175.506 100.633 175.233 100.557 174.893 100.557C174.393 100.557 174.03 100.723 173.803 101.057C173.576 101.39 173.463 101.86 173.463 102.467ZM185.257 99.7767V105.167H184.297V101.967C184.297 101.787 184.3 101.607 184.307 101.427C184.32 101.24 184.334 101.063 184.347 100.897H184.317L182.637 105.167H181.787L180.137 100.897H180.097C180.117 101.063 180.13 101.24 180.137 101.427C180.144 101.607 180.147 101.797 180.147 101.997V105.167H179.177V99.7767H180.627L182.217 103.907L183.837 99.7767H185.257ZM189.451 99.6767C189.924 99.6767 190.331 99.7767 190.671 99.9767C191.011 100.17 191.271 100.45 191.451 100.817C191.637 101.183 191.731 101.617 191.731 102.117V102.697H188.111C188.124 103.25 188.267 103.673 188.541 103.967C188.821 104.26 189.211 104.407 189.711 104.407C190.057 104.407 190.364 104.377 190.631 104.317C190.904 104.25 191.184 104.153 191.471 104.027V104.907C191.204 105.027 190.931 105.117 190.651 105.177C190.377 105.237 190.051 105.267 189.671 105.267C189.151 105.267 188.691 105.163 188.291 104.957C187.891 104.75 187.577 104.443 187.351 104.037C187.131 103.623 187.021 103.117 187.021 102.517C187.021 101.91 187.121 101.397 187.321 100.977C187.527 100.557 187.811 100.237 188.171 100.017C188.537 99.7901 188.964 99.6767 189.451 99.6767ZM189.451 100.497C189.071 100.497 188.764 100.62 188.531 100.867C188.304 101.113 188.171 101.463 188.131 101.917H190.671C190.671 101.637 190.627 101.39 190.541 101.177C190.454 100.963 190.321 100.797 190.141 100.677C189.961 100.557 189.731 100.497 189.451 100.497ZM194.513 99.7767V101.967H197.173V99.7767H198.233V105.167H197.173V102.817H194.513V105.167H193.453V99.7767H194.513ZM204.539 99.7767V104.327H205.329V107.057H204.339V105.167H200.619V107.057H199.639V104.327H200.069C200.356 103.913 200.596 103.46 200.789 102.967C200.982 102.473 201.129 101.957 201.229 101.417C201.336 100.87 201.399 100.323 201.419 99.7767H204.539ZM202.339 100.597C202.299 101.03 202.226 101.473 202.119 101.927C202.019 102.38 201.889 102.813 201.729 103.227C201.576 103.64 201.392 104.007 201.179 104.327H203.499V100.597H202.339ZM208.834 99.6767C209.514 99.6767 210.02 99.8267 210.354 100.127C210.687 100.42 210.854 100.883 210.854 101.517V105.167H210.104L209.894 104.417H209.854C209.7 104.61 209.54 104.77 209.374 104.897C209.214 105.023 209.027 105.117 208.814 105.177C208.607 105.237 208.354 105.267 208.054 105.267C207.734 105.267 207.444 105.21 207.184 105.097C206.93 104.977 206.73 104.797 206.584 104.557C206.437 104.31 206.364 104.003 206.364 103.637C206.364 103.09 206.57 102.673 206.984 102.387C207.404 102.1 208.04 101.943 208.894 101.917L209.814 101.887V101.587C209.814 101.187 209.724 100.907 209.544 100.747C209.364 100.587 209.11 100.507 208.784 100.507C208.504 100.507 208.237 100.547 207.984 100.627C207.73 100.707 207.49 100.803 207.264 100.917L206.924 100.147C207.177 100.013 207.467 99.9034 207.794 99.8167C208.127 99.7234 208.474 99.6767 208.834 99.6767ZM209.084 102.597C208.47 102.623 208.044 102.727 207.804 102.907C207.57 103.08 207.454 103.327 207.454 103.647C207.454 103.927 207.537 104.13 207.704 104.257C207.877 104.383 208.094 104.447 208.354 104.447C208.774 104.447 209.12 104.33 209.394 104.097C209.667 103.863 209.804 103.513 209.804 103.047V102.577L209.084 102.597ZM218.376 107.057H217.376V105.167H212.886V99.7767H213.946V104.317H216.546V99.7767H217.606V104.327H218.376V107.057ZM220.79 102.717C220.79 102.797 220.787 102.9 220.78 103.027C220.773 103.153 220.767 103.287 220.76 103.427C220.753 103.56 220.743 103.687 220.73 103.807C220.723 103.92 220.717 104.01 220.71 104.077L223.48 99.7767H224.77V105.167H223.77V102.297C223.77 102.17 223.773 102.013 223.78 101.827C223.787 101.64 223.793 101.46 223.8 101.287C223.813 101.107 223.823 100.97 223.83 100.877L221.08 105.167H219.78V99.7767H220.79V102.717ZM227.85 102.717C227.85 102.797 227.847 102.9 227.84 103.027C227.833 103.153 227.827 103.287 227.82 103.427C227.813 103.56 227.803 103.687 227.79 103.807C227.783 103.92 227.777 104.01 227.77 104.077L230.54 99.7767H231.83V105.167H230.83V102.297C230.83 102.17 230.833 102.013 230.84 101.827C230.847 101.64 230.853 101.46 230.86 101.287C230.873 101.107 230.883 100.97 230.89 100.877L228.14 105.167H226.84V99.7767H227.85V102.717Z" fill="white"/>
</svg>
