<svg width="305" height="121" viewBox="0 0 305 121" fill="none" xmlns="http://www.w3.org/2000/svg">
<rect x="1" y="4.16675" width="298" height="113" rx="17" stroke="white" stroke-width="2"/>
<rect x="20" y="52.6667" width="16" height="16" rx="8" fill="#FFF0E8"/>
<rect x="24" y="56.6667" width="8" height="8" rx="4" fill="white"/>
<path d="M74.806 18.1587C74.806 18.7587 74.68 19.2747 74.428 19.7067C74.176 20.1387 73.84 20.4987 73.42 20.7867C73 21.0627 72.526 21.2667 71.998 21.3987V21.4527C73.03 21.5727 73.816 21.8847 74.356 22.3887C74.908 22.8927 75.184 23.5827 75.184 24.4587C75.184 25.1787 74.998 25.8387 74.626 26.4387C74.254 27.0267 73.678 27.4947 72.898 27.8427C72.13 28.1787 71.134 28.3467 69.91 28.3467C69.154 28.3467 68.476 28.2867 67.876 28.1667C67.276 28.0467 66.7 27.8727 66.148 27.6447V25.0707C66.712 25.3587 67.288 25.5747 67.876 25.7187C68.476 25.8507 69.028 25.9167 69.532 25.9167C70.444 25.9167 71.074 25.7727 71.422 25.4847C71.782 25.1967 71.962 24.7887 71.962 24.2607C71.962 23.9367 71.878 23.6607 71.71 23.4327C71.542 23.2047 71.248 23.0307 70.828 22.9107C70.408 22.7907 69.808 22.7307 69.028 22.7307H68.146V20.4087H69.046C69.778 20.4087 70.342 20.3427 70.738 20.2107C71.146 20.0787 71.428 19.8987 71.584 19.6707C71.74 19.4307 71.818 19.1607 71.818 18.8607C71.818 18.4527 71.68 18.1407 71.404 17.9247C71.128 17.7087 70.714 17.6007 70.162 17.6007C69.766 17.6007 69.4 17.6547 69.064 17.7627C68.728 17.8707 68.428 17.9907 68.164 18.1227C67.9 18.2547 67.684 18.3747 67.516 18.4827L66.166 16.4127C66.514 16.1727 66.892 15.9567 67.3 15.7647C67.72 15.5607 68.188 15.4047 68.704 15.2967C69.232 15.1887 69.838 15.1347 70.522 15.1347C71.842 15.1347 72.886 15.4047 73.654 15.9447C74.422 16.4727 74.806 17.2107 74.806 18.1587ZM85.2123 18.1587C85.2123 18.7587 85.0863 19.2747 84.8343 19.7067C84.5823 20.1387 84.2463 20.4987 83.8263 20.7867C83.4063 21.0627 82.9323 21.2667 82.4043 21.3987V21.4527C83.4363 21.5727 84.2223 21.8847 84.7623 22.3887C85.3143 22.8927 85.5903 23.5827 85.5903 24.4587C85.5903 25.1787 85.4043 25.8387 85.0323 26.4387C84.6603 27.0267 84.0843 27.4947 83.3043 27.8427C82.5363 28.1787 81.5403 28.3467 80.3163 28.3467C79.5603 28.3467 78.8823 28.2867 78.2822 28.1667C77.6823 28.0467 77.1063 27.8727 76.5543 27.6447V25.0707C77.1183 25.3587 77.6943 25.5747 78.2822 25.7187C78.8823 25.8507 79.4343 25.9167 79.9383 25.9167C80.8503 25.9167 81.4803 25.7727 81.8283 25.4847C82.1883 25.1967 82.3683 24.7887 82.3683 24.2607C82.3683 23.9367 82.2843 23.6607 82.1163 23.4327C81.9483 23.2047 81.6543 23.0307 81.2343 22.9107C80.8143 22.7907 80.2143 22.7307 79.4343 22.7307H78.5522V20.4087H79.4523C80.1843 20.4087 80.7483 20.3427 81.1443 20.2107C81.5523 20.0787 81.8343 19.8987 81.9903 19.6707C82.1463 19.4307 82.2243 19.1607 82.2243 18.8607C82.2243 18.4527 82.0863 18.1407 81.8103 17.9247C81.5343 17.7087 81.1203 17.6007 80.5683 17.6007C80.1723 17.6007 79.8063 17.6547 79.4703 17.7627C79.1343 17.8707 78.8343 17.9907 78.5703 18.1227C78.3063 18.2547 78.0903 18.3747 77.9223 18.4827L76.5723 16.4127C76.9202 16.1727 77.2983 15.9567 77.7063 15.7647C78.1263 15.5607 78.5943 15.4047 79.1103 15.2967C79.6383 15.1887 80.2443 15.1347 80.9283 15.1347C82.2483 15.1347 83.2923 15.4047 84.0603 15.9447C84.8283 16.4727 85.2123 17.2107 85.2123 18.1587ZM96.0865 28.1667H86.9425V26.0967L90.1285 22.8747C90.7765 22.2027 91.2925 21.6507 91.6765 21.2187C92.0605 20.7867 92.3305 20.4087 92.4865 20.0847C92.6545 19.7487 92.7385 19.3947 92.7385 19.0227C92.7385 18.5667 92.6065 18.2367 92.3425 18.0327C92.0785 17.8167 91.7365 17.7087 91.3165 17.7087C90.8725 17.7087 90.4285 17.8227 89.9845 18.0507C89.5405 18.2787 89.0605 18.6087 88.5445 19.0407L86.8705 17.0787C87.2425 16.7427 87.6385 16.4307 88.0585 16.1427C88.4905 15.8427 88.9885 15.6027 89.5525 15.4227C90.1165 15.2307 90.8005 15.1347 91.6045 15.1347C92.4685 15.1347 93.2065 15.2907 93.8185 15.6027C94.4425 15.9027 94.9225 16.3167 95.2585 16.8447C95.6065 17.3607 95.7805 17.9547 95.7805 18.6267C95.7805 19.1667 95.7025 19.6707 95.5465 20.1387C95.3905 20.5947 95.1565 21.0387 94.8445 21.4707C94.5445 21.8907 94.1665 22.3287 93.7105 22.7847C93.2545 23.2407 92.7385 23.7387 92.1625 24.2787L90.8305 25.5027V25.6107H96.0865V28.1667ZM107.582 28.1667V15.3147H111.848C113.492 15.3147 114.704 15.6627 115.484 16.3587C116.276 17.0427 116.672 18.0027 116.672 19.2387C116.672 19.9587 116.516 20.6367 116.204 21.2727C115.892 21.8967 115.376 22.4067 114.656 22.8027C113.936 23.1867 112.958 23.3787 111.722 23.3787H110.642V28.1667H107.582ZM106.25 26.6007V24.6927H113.18V26.6007H106.25ZM106.25 23.3787V20.8767H111.524V23.3787H106.25ZM111.416 20.8767C111.836 20.8767 112.202 20.8227 112.514 20.7147C112.838 20.5947 113.09 20.4207 113.27 20.1927C113.462 19.9527 113.558 19.6527 113.558 19.2927C113.558 18.8127 113.408 18.4467 113.108 18.1947C112.82 17.9427 112.364 17.8167 111.74 17.8167H110.642V20.8767H111.416ZM124.759 15.2247L119.971 28.2567H117.253L122.041 15.2247H124.759ZM138.813 18.2847V28.1667H136.059V23.3427C136.059 22.8627 136.065 22.3947 136.077 21.9387C136.101 21.4827 136.131 21.0627 136.167 20.6787H136.113L133.557 28.1667H131.397L128.823 20.6607H128.769C128.805 21.0567 128.829 21.4827 128.841 21.9387C128.865 22.3827 128.877 22.8747 128.877 23.4147V28.1667H126.123V18.2847H130.335L132.513 24.6567L134.727 18.2847H138.813ZM145.681 18.1047C146.617 18.1047 147.421 18.2787 148.093 18.6267C148.777 18.9627 149.299 19.4667 149.659 20.1387C150.031 20.7987 150.217 21.6207 150.217 22.6047V24.0087H143.971C143.995 24.6567 144.205 25.1727 144.601 25.5567C144.997 25.9407 145.561 26.1327 146.293 26.1327C146.929 26.1327 147.505 26.0727 148.021 25.9527C148.537 25.8327 149.071 25.6407 149.623 25.3767V27.6267C149.143 27.8787 148.627 28.0587 148.075 28.1667C147.523 28.2867 146.845 28.3467 146.041 28.3467C145.045 28.3467 144.157 28.1667 143.377 27.8067C142.609 27.4467 142.003 26.8947 141.559 26.1507C141.127 25.3947 140.911 24.4407 140.911 23.2887C140.911 22.1127 141.109 21.1467 141.505 20.3907C141.901 19.6227 142.459 19.0527 143.179 18.6807C143.899 18.2967 144.733 18.1047 145.681 18.1047ZM145.735 20.2107C145.267 20.2107 144.877 20.3607 144.565 20.6607C144.265 20.9487 144.085 21.4107 144.025 22.0467H147.427C147.427 21.6987 147.361 21.3867 147.229 21.1107C147.109 20.8347 146.923 20.6187 146.671 20.4627C146.419 20.2947 146.107 20.2107 145.735 20.2107ZM156.509 28.3467C155.525 28.3467 154.673 28.1727 153.953 27.8247C153.245 27.4647 152.699 26.9127 152.315 26.1687C151.943 25.4127 151.757 24.4467 151.757 23.2707C151.757 22.0707 151.967 21.0927 152.387 20.3367C152.819 19.5687 153.413 19.0047 154.169 18.6447C154.925 18.2847 155.789 18.1047 156.761 18.1047C157.409 18.1047 157.991 18.1707 158.507 18.3027C159.035 18.4347 159.503 18.6027 159.911 18.8067L159.029 21.0927C158.609 20.9247 158.219 20.7867 157.859 20.6787C157.499 20.5707 157.133 20.5167 156.761 20.5167C156.353 20.5167 156.005 20.6187 155.717 20.8227C155.429 21.0147 155.207 21.3147 155.051 21.7227C154.907 22.1307 154.835 22.6407 154.835 23.2527C154.835 23.8647 154.913 24.3687 155.069 24.7647C155.225 25.1487 155.447 25.4367 155.735 25.6287C156.023 25.8207 156.371 25.9167 156.779 25.9167C157.307 25.9167 157.799 25.8387 158.255 25.6827C158.723 25.5267 159.167 25.3167 159.587 25.0527V27.5367C159.179 27.8007 158.735 28.0047 158.255 28.1487C157.775 28.2807 157.193 28.3467 156.509 28.3467ZM161.339 26.8167C161.339 26.2287 161.501 25.8207 161.825 25.5927C162.161 25.3527 162.563 25.2327 163.031 25.2327C163.487 25.2327 163.877 25.3527 164.201 25.5927C164.525 25.8207 164.687 26.2287 164.687 26.8167C164.687 27.3687 164.525 27.7707 164.201 28.0227C163.877 28.2747 163.487 28.4007 163.031 28.4007C162.563 28.4007 162.161 28.2747 161.825 28.0227C161.501 27.7707 161.339 27.3687 161.339 26.8167Z" fill="white"/>
<path d="M182.909 20.0557C182.909 20.4717 182.831 20.8314 182.675 21.1347C182.519 21.4381 182.294 21.6851 181.999 21.8757C181.713 22.0664 181.375 22.2007 180.985 22.2787V22.3307C181.73 22.4174 182.285 22.6514 182.649 23.0327C183.013 23.4141 183.195 23.9124 183.195 24.5277C183.195 25.0651 183.069 25.5461 182.818 25.9707C182.567 26.3867 182.177 26.7117 181.648 26.9457C181.128 27.1797 180.456 27.2967 179.633 27.2967C179.148 27.2967 178.697 27.2577 178.281 27.1797C177.865 27.1104 177.466 26.9804 177.085 26.7897V25.7237C177.475 25.9144 177.895 26.0661 178.346 26.1787C178.797 26.2827 179.23 26.3347 179.646 26.3347C180.478 26.3347 181.076 26.1744 181.44 25.8537C181.813 25.5244 181.999 25.0737 181.999 24.5017C181.999 24.1117 181.895 23.7997 181.687 23.5657C181.488 23.3231 181.193 23.1454 180.803 23.0327C180.413 22.9201 179.945 22.8637 179.399 22.8637H178.502V21.8887H179.412C179.923 21.8887 180.348 21.8151 180.686 21.6677C181.033 21.5204 181.293 21.3167 181.466 21.0567C181.648 20.7881 181.739 20.4804 181.739 20.1337C181.739 19.6831 181.587 19.3364 181.284 19.0937C180.981 18.8424 180.569 18.7167 180.049 18.7167C179.72 18.7167 179.421 18.7514 179.152 18.8207C178.883 18.8814 178.632 18.9724 178.398 19.0937C178.173 19.2064 177.943 19.3407 177.709 19.4967L177.137 18.7167C177.362 18.5434 177.618 18.3831 177.904 18.2357C178.199 18.0884 178.524 17.9714 178.879 17.8847C179.234 17.7981 179.62 17.7547 180.036 17.7547C181.007 17.7547 181.726 17.9714 182.194 18.4047C182.671 18.8381 182.909 19.3884 182.909 20.0557ZM194.076 21.8497C194.076 22.3784 194.037 22.9071 193.959 23.4357C193.89 23.9557 193.764 24.4497 193.582 24.9177C193.4 25.3771 193.149 25.7887 192.828 26.1527C192.508 26.5081 192.1 26.7897 191.606 26.9977C191.112 27.1971 190.514 27.2967 189.812 27.2967C189.639 27.2967 189.435 27.2837 189.201 27.2577C188.976 27.2404 188.79 27.2101 188.642 27.1667V26.1917C188.798 26.2437 188.98 26.2871 189.188 26.3217C189.396 26.3477 189.596 26.3607 189.786 26.3607C190.393 26.3607 190.891 26.2611 191.281 26.0617C191.68 25.8624 191.996 25.5937 192.23 25.2557C192.464 24.9091 192.633 24.5104 192.737 24.0597C192.841 23.6004 192.902 23.1194 192.919 22.6167H192.841C192.711 22.8161 192.547 22.9981 192.347 23.1627C192.148 23.3274 191.905 23.4574 191.619 23.5527C191.342 23.6481 191.013 23.6957 190.631 23.6957C190.103 23.6957 189.635 23.5874 189.227 23.3707C188.829 23.1454 188.517 22.8247 188.291 22.4087C188.075 21.9927 187.966 21.4857 187.966 20.8877C187.966 20.2377 188.088 19.6787 188.33 19.2107C188.582 18.7427 188.928 18.3831 189.37 18.1317C189.812 17.8804 190.332 17.7547 190.93 17.7547C191.372 17.7547 191.784 17.8414 192.165 18.0147C192.547 18.1794 192.88 18.4307 193.166 18.7687C193.452 19.1067 193.673 19.5314 193.829 20.0427C193.994 20.5541 194.076 21.1564 194.076 21.8497ZM190.93 18.7167C190.393 18.7167 189.951 18.8944 189.604 19.2497C189.266 19.6051 189.097 20.1467 189.097 20.8747C189.097 21.4727 189.24 21.9451 189.526 22.2917C189.821 22.6297 190.272 22.7987 190.878 22.7987C191.294 22.7987 191.654 22.7164 191.957 22.5517C192.261 22.3784 192.495 22.1617 192.659 21.9017C192.833 21.6417 192.919 21.3731 192.919 21.0957C192.919 20.8184 192.876 20.5411 192.789 20.2637C192.711 19.9777 192.59 19.7177 192.425 19.4837C192.261 19.2497 192.053 19.0634 191.801 18.9247C191.55 18.7861 191.26 18.7167 190.93 18.7167ZM198.461 17.7547C199.007 17.7547 199.488 17.8414 199.904 18.0147C200.32 18.1794 200.645 18.4264 200.879 18.7557C201.122 19.0851 201.243 19.4924 201.243 19.9777C201.243 20.3504 201.161 20.6754 200.996 20.9527C200.84 21.2301 200.628 21.4771 200.359 21.6937C200.09 21.9017 199.796 22.0881 199.475 22.2527C199.856 22.4347 200.203 22.6427 200.515 22.8767C200.827 23.1021 201.074 23.3664 201.256 23.6697C201.447 23.9731 201.542 24.3371 201.542 24.7617C201.542 25.2817 201.416 25.7324 201.165 26.1137C200.914 26.4864 200.558 26.7767 200.099 26.9847C199.648 27.1927 199.115 27.2967 198.5 27.2967C197.833 27.2967 197.265 27.1971 196.797 26.9977C196.338 26.7984 195.987 26.5167 195.744 26.1527C195.51 25.7801 195.393 25.3294 195.393 24.8007C195.393 24.3761 195.48 24.0077 195.653 23.6957C195.835 23.3837 196.073 23.1151 196.368 22.8897C196.663 22.6644 196.979 22.4737 197.317 22.3177C197.014 22.1444 196.736 21.9494 196.485 21.7327C196.242 21.5074 196.047 21.2517 195.9 20.9657C195.761 20.6797 195.692 20.3461 195.692 19.9647C195.692 19.4881 195.813 19.0894 196.056 18.7687C196.299 18.4394 196.628 18.1881 197.044 18.0147C197.46 17.8414 197.932 17.7547 198.461 17.7547ZM196.511 24.8137C196.511 25.2644 196.671 25.6414 196.992 25.9447C197.313 26.2394 197.807 26.3867 198.474 26.3867C198.899 26.3867 199.254 26.3174 199.54 26.1787C199.826 26.0401 200.043 25.8494 200.19 25.6067C200.346 25.3641 200.424 25.0867 200.424 24.7747C200.424 24.4714 200.342 24.2071 200.177 23.9817C200.021 23.7477 199.796 23.5397 199.501 23.3577C199.215 23.1757 198.873 23.0111 198.474 22.8637L198.266 22.7857C197.885 22.9504 197.564 23.1281 197.304 23.3187C197.044 23.5094 196.845 23.7261 196.706 23.9687C196.576 24.2114 196.511 24.4931 196.511 24.8137ZM198.448 18.6777C197.971 18.6777 197.577 18.7947 197.265 19.0287C196.962 19.2541 196.81 19.5834 196.81 20.0167C196.81 20.3374 196.884 20.6061 197.031 20.8227C197.187 21.0394 197.395 21.2257 197.655 21.3817C197.915 21.5291 198.201 21.6721 198.513 21.8107C198.816 21.6807 199.085 21.5377 199.319 21.3817C199.562 21.2257 199.752 21.0394 199.891 20.8227C200.038 20.5974 200.112 20.3287 200.112 20.0167C200.112 19.5834 199.96 19.2541 199.657 19.0287C199.354 18.7947 198.951 18.6777 198.448 18.6777ZM209.371 25.0607H208.019V27.1667H206.914V25.0607H202.468V24.0857L206.836 17.8327H208.019V24.0337H209.371V25.0607ZM206.914 21.1087C206.914 20.8834 206.914 20.6797 206.914 20.4977C206.923 20.3071 206.932 20.1294 206.94 19.9647C206.949 19.8001 206.953 19.6441 206.953 19.4967C206.962 19.3407 206.971 19.1934 206.979 19.0547H206.927C206.858 19.2194 206.771 19.3971 206.667 19.5877C206.563 19.7784 206.464 19.9387 206.368 20.0687L203.586 24.0337H206.914V21.1087ZM214.273 27.1667V17.8847H216.717C217.852 17.8847 218.693 18.1144 219.239 18.5737C219.793 19.0331 220.071 19.7004 220.071 20.5757C220.071 21.1651 219.936 21.6721 219.668 22.0967C219.399 22.5127 219 22.8334 218.472 23.0587C217.952 23.2841 217.306 23.3967 216.535 23.3967H215.443V27.1667H214.273ZM213.142 25.3987V24.5537H217.588V25.3987H213.142ZM213.142 23.3967V22.4087H216.119V23.3967H213.142ZM216.366 22.4087C216.894 22.4087 217.341 22.3524 217.705 22.2397C218.077 22.1271 218.363 21.9407 218.563 21.6807C218.762 21.4207 218.862 21.0654 218.862 20.6147C218.862 20.0254 218.68 19.5877 218.316 19.3017C217.952 19.0157 217.384 18.8727 216.613 18.8727H215.443V22.4087H216.366ZM225.284 17.8847L221.826 27.1667H220.708L224.166 17.8847H225.284ZM230.771 20.1987V21.1607H227.664V27.1667H226.52V20.1987H230.771ZM238.075 23.6697C238.075 24.2504 237.997 24.7661 237.841 25.2167C237.694 25.6587 237.477 26.0357 237.191 26.3477C236.914 26.6597 236.571 26.8981 236.164 27.0627C235.765 27.2187 235.319 27.2967 234.825 27.2967C234.366 27.2967 233.941 27.2187 233.551 27.0627C233.161 26.8981 232.823 26.6597 232.537 26.3477C232.251 26.0357 232.026 25.6587 231.861 25.2167C231.705 24.7661 231.627 24.2504 231.627 23.6697C231.627 22.8984 231.757 22.2484 232.017 21.7197C232.277 21.1824 232.65 20.7751 233.135 20.4977C233.62 20.2117 234.197 20.0687 234.864 20.0687C235.497 20.0687 236.051 20.2117 236.528 20.4977C237.013 20.7751 237.39 21.1824 237.659 21.7197C237.936 22.2484 238.075 22.8984 238.075 23.6697ZM232.81 23.6697C232.81 24.2157 232.879 24.6924 233.018 25.0997C233.165 25.4984 233.391 25.8061 233.694 26.0227C233.997 26.2394 234.383 26.3477 234.851 26.3477C235.319 26.3477 235.705 26.2394 236.008 26.0227C236.311 25.8061 236.532 25.4984 236.671 25.0997C236.818 24.6924 236.892 24.2157 236.892 23.6697C236.892 23.1151 236.818 22.6427 236.671 22.2527C236.524 21.8627 236.298 21.5637 235.995 21.3557C235.7 21.1391 235.315 21.0307 234.838 21.0307C234.127 21.0307 233.612 21.2647 233.291 21.7327C232.97 22.2007 232.81 22.8464 232.81 23.6697ZM245.062 20.1987V26.2047H246.076V29.5847H244.971V27.1667H240.122V29.5847H239.03V26.2047H239.589C239.988 25.6501 240.317 25.0477 240.577 24.3977C240.846 23.7391 241.045 23.0544 241.175 22.3437C241.314 21.6244 241.388 20.9094 241.396 20.1987H245.062ZM242.41 21.0957C242.376 21.6851 242.285 22.2961 242.137 22.9287C241.99 23.5527 241.799 24.1507 241.565 24.7227C241.34 25.2947 241.076 25.7887 240.772 26.2047H243.957V21.0957H242.41Z" fill="white"/>
<path d="M62.3001 40.5167C62.3001 40.1967 62.3535 39.9401 62.4601 39.7467C62.5668 39.5467 62.7101 39.4034 62.8901 39.3167C63.0768 39.2301 63.2801 39.1867 63.5001 39.1867C63.7201 39.1867 63.9201 39.2301 64.1001 39.3167C64.2801 39.4034 64.4235 39.5467 64.5301 39.7467C64.6435 39.9401 64.7001 40.1967 64.7001 40.5167C64.7001 40.8301 64.6435 41.0867 64.5301 41.2867C64.4235 41.4801 64.2801 41.6234 64.1001 41.7167C63.9201 41.8034 63.7201 41.8467 63.5001 41.8467C63.2801 41.8467 63.0768 41.8034 62.8901 41.7167C62.7101 41.6234 62.5668 41.4801 62.4601 41.2867C62.3535 41.0867 62.3001 40.8301 62.3001 40.5167ZM77.2077 37.0267C78.121 37.0267 78.7943 37.2267 79.2277 37.6267C79.6677 38.0201 79.8877 38.5701 79.8877 39.2767C79.8877 39.5967 79.841 39.9034 79.7477 40.1967C79.6543 40.4834 79.4977 40.7401 79.2777 40.9667C79.0643 41.1934 78.781 41.3734 78.4277 41.5067C78.081 41.6401 77.651 41.7067 77.1377 41.7067H76.5377V44.1667H74.8377V37.0267H77.2077ZM77.1477 38.4167H76.5377V40.3167H76.9877C77.221 40.3167 77.4243 40.2834 77.5977 40.2167C77.7777 40.1501 77.9177 40.0434 78.0177 39.8967C78.1177 39.7501 78.1677 39.5601 78.1677 39.3267C78.1677 39.0334 78.0843 38.8101 77.9177 38.6567C77.751 38.4967 77.4943 38.4167 77.1477 38.4167ZM83.8765 38.5667C84.5898 38.5667 85.1432 38.7334 85.5365 39.0667C85.9298 39.3934 86.1265 39.8801 86.1265 40.5267V44.1667H84.9565L84.6265 43.4267H84.5865C84.4332 43.6201 84.2732 43.7801 84.1065 43.9067C83.9465 44.0334 83.7598 44.1234 83.5465 44.1767C83.3398 44.2367 83.0832 44.2667 82.7765 44.2667C82.4565 44.2667 82.1665 44.2034 81.9065 44.0767C81.6532 43.9501 81.4532 43.7567 81.3065 43.4967C81.1598 43.2367 81.0865 42.9067 81.0865 42.5067C81.0865 41.9201 81.2898 41.4867 81.6965 41.2067C82.1098 40.9267 82.7132 40.7701 83.5065 40.7367L84.4465 40.7067V40.5467C84.4465 40.2801 84.3765 40.0867 84.2365 39.9667C84.1032 39.8467 83.9165 39.7867 83.6765 39.7867C83.4365 39.7867 83.1865 39.8267 82.9265 39.9067C82.6665 39.9801 82.4032 40.0734 82.1365 40.1867L81.6265 39.0667C81.9265 38.9067 82.2665 38.7834 82.6465 38.6967C83.0265 38.6101 83.4365 38.5667 83.8765 38.5667ZM83.9365 41.6867C83.5165 41.7001 83.2232 41.7767 83.0565 41.9167C82.8898 42.0501 82.8065 42.2334 82.8065 42.4667C82.8065 42.6734 82.8665 42.8234 82.9865 42.9167C83.1065 43.0101 83.2598 43.0567 83.4465 43.0567C83.7265 43.0567 83.9632 42.9734 84.1565 42.8067C84.3498 42.6334 84.4465 42.4001 84.4465 42.1067V41.6667L83.9365 41.6867ZM89.8493 38.5767C90.2693 38.5767 90.656 38.6267 91.0093 38.7267C91.3693 38.8267 91.656 38.9867 91.8693 39.2067C92.0826 39.4201 92.1893 39.7001 92.1893 40.0467C92.1893 40.3601 92.0926 40.6201 91.8993 40.8267C91.7126 41.0267 91.4626 41.1701 91.1493 41.2567V41.3067C91.4093 41.3534 91.6293 41.4301 91.8093 41.5367C91.996 41.6434 92.136 41.7834 92.2293 41.9567C92.3293 42.1301 92.3793 42.3401 92.3793 42.5867C92.3793 42.9134 92.2826 43.2034 92.0893 43.4567C91.9026 43.7101 91.606 43.9101 91.1993 44.0567C90.7993 44.1967 90.2826 44.2667 89.6493 44.2667C89.3426 44.2667 89.0626 44.2534 88.8093 44.2267C88.5626 44.2001 88.3393 44.1634 88.1393 44.1167C87.946 44.0634 87.766 44.0034 87.5993 43.9367V42.6067C87.8193 42.6934 88.0893 42.7801 88.4093 42.8667C88.736 42.9534 89.096 42.9967 89.4893 42.9967C89.7693 42.9967 89.9993 42.9734 90.1793 42.9267C90.3593 42.8801 90.4926 42.8134 90.5793 42.7267C90.6726 42.6401 90.7193 42.5434 90.7193 42.4367C90.7193 42.3101 90.676 42.2067 90.5893 42.1267C90.5093 42.0401 90.3726 41.9767 90.1793 41.9367C89.986 41.8967 89.7226 41.8767 89.3893 41.8767H88.7493V40.7467H89.3193C89.766 40.7467 90.0993 40.7101 90.3193 40.6367C90.5393 40.5634 90.6493 40.4334 90.6493 40.2467C90.6493 40.1067 90.576 39.9967 90.4293 39.9167C90.2826 39.8367 90.0426 39.7967 89.7093 39.7967C89.4493 39.7967 89.1826 39.8267 88.9093 39.8867C88.636 39.9467 88.366 40.0334 88.0993 40.1467L87.6193 38.9867C87.9393 38.8601 88.276 38.7601 88.6293 38.6867C88.9826 38.6134 89.3893 38.5767 89.8493 38.5767ZM101.815 40.1067C101.815 40.3934 101.725 40.6467 101.545 40.8667C101.372 41.0801 101.105 41.2167 100.745 41.2767V41.3167C101.132 41.3634 101.435 41.4967 101.655 41.7167C101.875 41.9367 101.985 42.2167 101.985 42.5567C101.985 42.7834 101.942 42.9934 101.855 43.1867C101.775 43.3801 101.638 43.5501 101.445 43.6967C101.252 43.8434 100.995 43.9601 100.675 44.0467C100.355 44.1267 99.965 44.1667 99.505 44.1667H96.845V38.6767H99.505C99.9917 38.6767 100.408 38.7267 100.755 38.8267C101.102 38.9267 101.365 39.0801 101.545 39.2867C101.725 39.4934 101.815 39.7667 101.815 40.1067ZM100.265 42.4267C100.265 42.2467 100.198 42.1101 100.065 42.0167C99.9317 41.9234 99.715 41.8767 99.415 41.8767H98.535V43.0367H99.415C99.6883 43.0367 99.8983 42.9867 100.045 42.8867C100.192 42.7867 100.265 42.6334 100.265 42.4267ZM100.125 40.2867C100.125 40.1267 100.068 40.0101 99.955 39.9367C99.8417 39.8567 99.675 39.8167 99.455 39.8167H98.535V40.7767H99.335C99.595 40.7767 99.7917 40.7367 99.925 40.6567C100.058 40.5701 100.125 40.4467 100.125 40.2867ZM111.632 38.6767V44.1667H109.942V39.9367H108.222V44.1667H106.532V38.6767H111.632ZM118.585 41.4067C118.585 41.8667 118.521 42.2734 118.395 42.6267C118.275 42.9801 118.095 43.2801 117.855 43.5267C117.621 43.7734 117.338 43.9601 117.005 44.0867C116.678 44.2067 116.301 44.2667 115.875 44.2667C115.488 44.2667 115.128 44.2067 114.795 44.0867C114.468 43.9601 114.185 43.7767 113.945 43.5367C113.711 43.2901 113.528 42.9901 113.395 42.6367C113.261 42.2767 113.195 41.8667 113.195 41.4067C113.195 40.8001 113.301 40.2867 113.515 39.8667C113.735 39.4467 114.048 39.1267 114.455 38.9067C114.861 38.6867 115.345 38.5767 115.905 38.5767C116.431 38.5767 116.895 38.6867 117.295 38.9067C117.695 39.1267 118.008 39.4467 118.235 39.8667C118.468 40.2867 118.585 40.8001 118.585 41.4067ZM114.905 41.4067C114.905 41.7467 114.938 42.0334 115.005 42.2667C115.071 42.5001 115.178 42.6767 115.325 42.7967C115.471 42.9101 115.661 42.9667 115.895 42.9667C116.135 42.9667 116.325 42.9101 116.465 42.7967C116.605 42.6767 116.708 42.5001 116.775 42.2667C116.841 42.0334 116.875 41.7467 116.875 41.4067C116.875 41.0667 116.841 40.7834 116.775 40.5567C116.708 40.3301 116.601 40.1601 116.455 40.0467C116.315 39.9334 116.125 39.8767 115.885 39.8767C115.545 39.8767 115.295 40.0067 115.135 40.2667C114.981 40.5201 114.905 40.9001 114.905 41.4067ZM125.344 44.1667H123.664V39.9367H122.404C122.338 40.7167 122.254 41.3834 122.154 41.9367C122.061 42.4901 121.934 42.9367 121.774 43.2767C121.621 43.6167 121.424 43.8667 121.184 44.0267C120.951 44.1867 120.661 44.2667 120.314 44.2667C120.154 44.2667 120.001 44.2534 119.854 44.2267C119.708 44.2001 119.578 44.1601 119.464 44.1067V42.8167C119.531 42.8434 119.601 42.8667 119.674 42.8867C119.748 42.9001 119.828 42.9067 119.914 42.9067C120.001 42.9067 120.084 42.8767 120.164 42.8167C120.244 42.7501 120.318 42.6334 120.384 42.4667C120.458 42.2934 120.524 42.0501 120.584 41.7367C120.651 41.4167 120.711 41.0101 120.764 40.5167C120.824 40.0167 120.878 39.4034 120.924 38.6767H125.344V44.1667ZM131.115 38.6767V39.9367H128.875V44.1667H127.185V38.6767H131.115ZM137.49 41.4067C137.49 41.8667 137.426 42.2734 137.3 42.6267C137.18 42.9801 137 43.2801 136.76 43.5267C136.526 43.7734 136.243 43.9601 135.91 44.0867C135.583 44.2067 135.206 44.2667 134.78 44.2667C134.393 44.2667 134.033 44.2067 133.7 44.0867C133.373 43.9601 133.09 43.7767 132.85 43.5367C132.616 43.2901 132.433 42.9901 132.3 42.6367C132.166 42.2767 132.1 41.8667 132.1 41.4067C132.1 40.8001 132.206 40.2867 132.42 39.8667C132.64 39.4467 132.953 39.1267 133.36 38.9067C133.766 38.6867 134.25 38.5767 134.81 38.5767C135.336 38.5767 135.8 38.6867 136.2 38.9067C136.6 39.1267 136.913 39.4467 137.14 39.8667C137.373 40.2867 137.49 40.8001 137.49 41.4067ZM133.81 41.4067C133.81 41.7467 133.843 42.0334 133.91 42.2667C133.976 42.5001 134.083 42.6767 134.23 42.7967C134.376 42.9101 134.566 42.9667 134.8 42.9667C135.04 42.9667 135.23 42.9101 135.37 42.7967C135.51 42.6767 135.613 42.5001 135.68 42.2667C135.746 42.0334 135.78 41.7467 135.78 41.4067C135.78 41.0667 135.746 40.7834 135.68 40.5567C135.613 40.3301 135.506 40.1601 135.36 40.0467C135.22 39.9334 135.03 39.8767 134.79 39.8767C134.45 39.8767 134.2 40.0067 134.04 40.2667C133.886 40.5201 133.81 40.9001 133.81 41.4067ZM144.179 38.6767V42.9267H144.989V46.1567H143.489V44.1667H139.949V46.1567H138.459V42.9267H138.929C139.149 42.5801 139.339 42.1801 139.499 41.7267C139.659 41.2667 139.789 40.7767 139.889 40.2567C139.989 39.7367 140.063 39.2101 140.109 38.6767H144.179ZM141.469 39.9367C141.416 40.2967 141.353 40.6467 141.279 40.9867C141.213 41.3201 141.126 41.6467 141.019 41.9667C140.919 42.2867 140.799 42.6067 140.659 42.9267H142.489V39.9367H141.469ZM148.696 38.5667C149.41 38.5667 149.963 38.7334 150.356 39.0667C150.75 39.3934 150.946 39.8801 150.946 40.5267V44.1667H149.776L149.446 43.4267H149.406C149.253 43.6201 149.093 43.7801 148.926 43.9067C148.766 44.0334 148.58 44.1234 148.366 44.1767C148.16 44.2367 147.903 44.2667 147.596 44.2667C147.276 44.2667 146.986 44.2034 146.726 44.0767C146.473 43.9501 146.273 43.7567 146.126 43.4967C145.98 43.2367 145.906 42.9067 145.906 42.5067C145.906 41.9201 146.11 41.4867 146.516 41.2067C146.93 40.9267 147.533 40.7701 148.326 40.7367L149.266 40.7067V40.5467C149.266 40.2801 149.196 40.0867 149.056 39.9667C148.923 39.8467 148.736 39.7867 148.496 39.7867C148.256 39.7867 148.006 39.8267 147.746 39.9067C147.486 39.9801 147.223 40.0734 146.956 40.1867L146.446 39.0667C146.746 38.9067 147.086 38.7834 147.466 38.6967C147.846 38.6101 148.256 38.5667 148.696 38.5667ZM148.756 41.6867C148.336 41.7001 148.043 41.7767 147.876 41.9167C147.71 42.0501 147.626 42.2334 147.626 42.4667C147.626 42.6734 147.686 42.8234 147.806 42.9167C147.926 43.0101 148.08 43.0567 148.266 43.0567C148.546 43.0567 148.783 42.9734 148.976 42.8067C149.17 42.6334 149.266 42.4001 149.266 42.1067V41.6667L148.756 41.6867ZM62.3001 56.5167C62.3001 56.1967 62.3535 55.9401 62.4601 55.7467C62.5668 55.5467 62.7101 55.4034 62.8901 55.3167C63.0768 55.2301 63.2801 55.1867 63.5001 55.1867C63.7201 55.1867 63.9201 55.2301 64.1001 55.3167C64.2801 55.4034 64.4235 55.5467 64.5301 55.7467C64.6435 55.9401 64.7001 56.1967 64.7001 56.5167C64.7001 56.8301 64.6435 57.0867 64.5301 57.2867C64.4235 57.4801 64.2801 57.6234 64.1001 57.7167C63.9201 57.8034 63.7201 57.8467 63.5001 57.8467C63.2801 57.8467 63.0768 57.8034 62.8901 57.7167C62.7101 57.6234 62.5668 57.4801 62.4601 57.2867C62.3535 57.0867 62.3001 56.8301 62.3001 56.5167ZM71.95 60.1667V53.0267H77.39V60.1667H76.32V53.9567H73.03V60.1667H71.95ZM84.3335 57.4667C84.3335 57.9134 84.2735 58.3101 84.1535 58.6567C84.0335 59.0034 83.8635 59.2967 83.6435 59.5367C83.4235 59.7767 83.1568 59.9601 82.8435 60.0867C82.5302 60.2067 82.1768 60.2667 81.7835 60.2667C81.4235 60.2667 81.0902 60.2067 80.7835 60.0867C80.4768 59.9601 80.2102 59.7767 79.9835 59.5367C79.7635 59.2967 79.5902 59.0034 79.4635 58.6567C79.3368 58.3101 79.2735 57.9101 79.2735 57.4567C79.2735 56.8634 79.3735 56.3601 79.5735 55.9467C79.7802 55.5334 80.0735 55.2201 80.4535 55.0067C80.8402 54.7867 81.2935 54.6767 81.8135 54.6767C82.3068 54.6767 82.7402 54.7867 83.1135 55.0067C83.4935 55.2201 83.7902 55.5334 84.0035 55.9467C84.2235 56.3601 84.3335 56.8667 84.3335 57.4667ZM80.3635 57.4667C80.3635 57.8667 80.4135 58.2134 80.5135 58.5067C80.6135 58.7934 80.7702 59.0134 80.9835 59.1667C81.1968 59.3201 81.4702 59.3967 81.8035 59.3967C82.1368 59.3967 82.4102 59.3201 82.6235 59.1667C82.8368 59.0134 82.9935 58.7934 83.0935 58.5067C83.1935 58.2134 83.2435 57.8667 83.2435 57.4667C83.2435 57.0534 83.1902 56.7067 83.0835 56.4267C82.9835 56.1467 82.8268 55.9334 82.6135 55.7867C82.4068 55.6334 82.1335 55.5567 81.7935 55.5567C81.2935 55.5567 80.9302 55.7234 80.7035 56.0567C80.4768 56.3901 80.3635 56.8601 80.3635 57.4667ZM90.3973 60.1667H89.3273V55.6267H87.8073C87.7406 56.4534 87.6573 57.1634 87.5573 57.7567C87.4639 58.3434 87.3406 58.8201 87.1873 59.1867C87.0406 59.5534 86.8573 59.8234 86.6373 59.9967C86.4239 60.1634 86.1673 60.2467 85.8673 60.2467C85.7606 60.2467 85.6573 60.2367 85.5573 60.2167C85.4573 60.2034 85.3706 60.1801 85.2973 60.1467V59.3367C85.3439 59.3501 85.3939 59.3634 85.4473 59.3767C85.5073 59.3834 85.5673 59.3867 85.6273 59.3867C85.7606 59.3867 85.8806 59.3334 85.9873 59.2267C86.1006 59.1201 86.2006 58.9534 86.2873 58.7267C86.3806 58.5001 86.4639 58.2067 86.5373 57.8467C86.6173 57.4801 86.6839 57.0434 86.7373 56.5367C86.7973 56.0301 86.8506 55.4434 86.8973 54.7767H90.3973V60.1667ZM93.5138 54.7767V56.9667H96.1738V54.7767H97.2338V60.1667H96.1738V57.8167H93.5138V60.1667H92.4538V54.7767H93.5138ZM99.2894 60.1667V54.7767H100.349V56.9467H101.539C102.033 56.9467 102.439 57.0067 102.759 57.1267C103.079 57.2401 103.316 57.4101 103.469 57.6367C103.623 57.8634 103.699 58.1501 103.699 58.4967C103.699 58.8367 103.623 59.1334 103.469 59.3867C103.323 59.6334 103.089 59.8267 102.769 59.9667C102.456 60.1001 102.043 60.1667 101.529 60.1667H99.2894ZM101.449 59.3667C101.803 59.3667 102.089 59.3067 102.309 59.1867C102.536 59.0601 102.649 58.8434 102.649 58.5367C102.649 58.2434 102.546 58.0434 102.339 57.9367C102.133 57.8234 101.836 57.7667 101.449 57.7667H100.349V59.3667H101.449ZM104.559 60.1667V54.7767H105.619V60.1667H104.559ZM112.278 52.5167C112.251 52.8567 112.164 53.1467 112.018 53.3867C111.878 53.6201 111.661 53.8001 111.368 53.9267C111.081 54.0467 110.704 54.1067 110.238 54.1067C109.758 54.1067 109.374 54.0467 109.088 53.9267C108.808 53.8001 108.604 53.6201 108.478 53.3867C108.351 53.1534 108.274 52.8634 108.248 52.5167H109.218C109.251 52.8834 109.344 53.1267 109.498 53.2467C109.658 53.3667 109.911 53.4267 110.258 53.4267C110.558 53.4267 110.798 53.3634 110.978 53.2367C111.158 53.1034 111.264 52.8634 111.298 52.5167H112.278ZM108.688 57.7167C108.688 57.7967 108.684 57.9001 108.678 58.0267C108.671 58.1534 108.664 58.2867 108.658 58.4267C108.651 58.5601 108.641 58.6867 108.628 58.8067C108.621 58.9201 108.614 59.0101 108.608 59.0767L111.378 54.7767H112.668V60.1667H111.668V57.2967C111.668 57.1701 111.671 57.0134 111.678 56.8267C111.684 56.6401 111.691 56.4601 111.698 56.2867C111.711 56.1067 111.721 55.9701 111.728 55.8767L108.978 60.1667H107.678V54.7767H108.688V57.7167ZM121.985 54.7767V59.3267H122.775V62.0567H121.785V60.1667H118.065V62.0567H117.085V59.3267H117.515C117.802 58.9134 118.042 58.4601 118.235 57.9667C118.429 57.4734 118.575 56.9567 118.675 56.4167C118.782 55.8701 118.845 55.3234 118.865 54.7767H121.985ZM119.785 55.5967C119.745 56.0301 119.672 56.4734 119.565 56.9267C119.465 57.3801 119.335 57.8134 119.175 58.2267C119.022 58.6401 118.839 59.0067 118.625 59.3267H120.945V55.5967H119.785ZM128.94 57.4667C128.94 57.9134 128.88 58.3101 128.76 58.6567C128.64 59.0034 128.47 59.2967 128.25 59.5367C128.03 59.7767 127.763 59.9601 127.45 60.0867C127.137 60.2067 126.783 60.2667 126.39 60.2667C126.03 60.2667 125.697 60.2067 125.39 60.0867C125.083 59.9601 124.817 59.7767 124.59 59.5367C124.37 59.2967 124.197 59.0034 124.07 58.6567C123.943 58.3101 123.88 57.9101 123.88 57.4567C123.88 56.8634 123.98 56.3601 124.18 55.9467C124.387 55.5334 124.68 55.2201 125.06 55.0067C125.447 54.7867 125.9 54.6767 126.42 54.6767C126.913 54.6767 127.347 54.7867 127.72 55.0067C128.1 55.2201 128.397 55.5334 128.61 55.9467C128.83 56.3601 128.94 56.8667 128.94 57.4667ZM124.97 57.4667C124.97 57.8667 125.02 58.2134 125.12 58.5067C125.22 58.7934 125.377 59.0134 125.59 59.1667C125.803 59.3201 126.077 59.3967 126.41 59.3967C126.743 59.3967 127.017 59.3201 127.23 59.1667C127.443 59.0134 127.6 58.7934 127.7 58.5067C127.8 58.2134 127.85 57.8667 127.85 57.4667C127.85 57.0534 127.797 56.7067 127.69 56.4267C127.59 56.1467 127.433 55.9334 127.22 55.7867C127.013 55.6334 126.74 55.5567 126.4 55.5567C125.9 55.5567 125.537 55.7234 125.31 56.0567C125.083 56.3901 124.97 56.8601 124.97 57.4667ZM132.854 60.2667C132.361 60.2667 131.927 60.1701 131.554 59.9767C131.181 59.7834 130.891 59.4834 130.684 59.0767C130.477 58.6634 130.374 58.1401 130.374 57.5067C130.374 56.8401 130.484 56.3001 130.704 55.8867C130.931 55.4734 131.234 55.1701 131.614 54.9767C132.001 54.7767 132.441 54.6767 132.934 54.6767C133.234 54.6767 133.514 54.7101 133.774 54.7767C134.041 54.8367 134.261 54.9067 134.434 54.9867L134.114 55.8467C133.927 55.7734 133.727 55.7101 133.514 55.6567C133.307 55.6034 133.111 55.5767 132.924 55.5767C132.591 55.5767 132.314 55.6501 132.094 55.7967C131.881 55.9367 131.721 56.1501 131.614 56.4367C131.514 56.7167 131.464 57.0701 131.464 57.4967C131.464 57.9034 131.517 58.2467 131.624 58.5267C131.731 58.8067 131.887 59.0201 132.094 59.1667C132.307 59.3067 132.571 59.3767 132.884 59.3767C133.184 59.3767 133.447 59.3434 133.674 59.2767C133.901 59.2101 134.114 59.1234 134.314 59.0167V59.9367C134.121 60.0501 133.911 60.1334 133.684 60.1867C133.457 60.2401 133.181 60.2667 132.854 60.2667ZM139.926 55.6267H138.166V60.1667H137.116V55.6267H135.366V54.7767H139.926V55.6267ZM140.556 54.7767H141.696L142.816 57.8367C142.876 57.9901 142.93 58.1401 142.976 58.2867C143.023 58.4334 143.063 58.5801 143.096 58.7267C143.136 58.8667 143.166 59.0067 143.186 59.1467H143.226C143.26 58.9734 143.313 58.7701 143.386 58.5367C143.46 58.2967 143.536 58.0601 143.616 57.8267L144.676 54.7767H145.816L143.506 60.8967C143.38 61.2434 143.223 61.5401 143.036 61.7867C142.85 62.0401 142.626 62.2334 142.366 62.3667C142.113 62.5001 141.813 62.5667 141.466 62.5667C141.3 62.5667 141.156 62.5567 141.036 62.5367C140.916 62.5234 140.813 62.5067 140.726 62.4867V61.6467C140.8 61.6601 140.886 61.6734 140.986 61.6867C141.093 61.7001 141.203 61.7067 141.316 61.7067C141.523 61.7067 141.7 61.6667 141.846 61.5867C142 61.5067 142.126 61.3934 142.226 61.2467C142.333 61.1001 142.423 60.9334 142.496 60.7467L142.716 60.1667L140.556 54.7767ZM151.71 54.7767V60.1667H150.65V55.6367H148.11V60.1667H147.05V54.7767H151.71ZM160.056 54.7767H161.216L158.966 57.3667L161.406 60.1667H160.186L157.826 57.4367V60.1667H156.766V54.7767H157.826V57.3967L160.056 54.7767ZM170.38 54.7767V60.1667H169.32V55.6367H166.78V60.1667H165.72V54.7767H170.38ZM175.129 54.6767C175.775 54.6767 176.295 54.9101 176.689 55.3767C177.089 55.8434 177.289 56.5401 177.289 57.4667C177.289 58.0734 177.199 58.5867 177.019 59.0067C176.839 59.4267 176.585 59.7434 176.259 59.9567C175.932 60.1634 175.552 60.2667 175.119 60.2667C174.845 60.2667 174.605 60.2334 174.399 60.1667C174.192 60.0934 174.015 60.0001 173.869 59.8867C173.729 59.7667 173.605 59.6401 173.499 59.5067H173.429C173.449 59.6267 173.465 59.7701 173.479 59.9367C173.492 60.0967 173.499 60.2401 173.499 60.3667V62.5667H172.439V54.7767H173.299L173.449 55.4967H173.499C173.605 55.3501 173.732 55.2134 173.879 55.0867C174.025 54.9601 174.202 54.8601 174.409 54.7867C174.615 54.7134 174.855 54.6767 175.129 54.6767ZM174.879 55.5467C174.545 55.5467 174.279 55.6134 174.079 55.7467C173.879 55.8734 173.732 56.0667 173.639 56.3267C173.552 56.5801 173.505 56.9034 173.499 57.2967V57.4567C173.499 57.8701 173.542 58.2234 173.629 58.5167C173.715 58.8034 173.859 59.0234 174.059 59.1767C174.265 59.3234 174.545 59.3967 174.899 59.3967C175.199 59.3967 175.442 59.3167 175.629 59.1567C175.822 58.9901 175.965 58.7601 176.059 58.4667C176.152 58.1734 176.199 57.8334 176.199 57.4467C176.199 56.8601 176.092 56.3967 175.879 56.0567C175.665 55.7167 175.332 55.5467 174.879 55.5467ZM180.05 57.7167C180.05 57.7967 180.046 57.9001 180.04 58.0267C180.033 58.1534 180.026 58.2867 180.02 58.4267C180.013 58.5601 180.003 58.6867 179.99 58.8067C179.983 58.9201 179.976 59.0101 179.97 59.0767L182.74 54.7767H184.03V60.1667H183.03V57.2967C183.03 57.1701 183.033 57.0134 183.04 56.8267C183.046 56.6401 183.053 56.4601 183.06 56.2867C183.073 56.1067 183.083 55.9701 183.09 55.8767L180.34 60.1667H179.04V54.7767H180.05V57.7167ZM190.42 60.1667H189.35V55.6267H187.83C187.763 56.4534 187.68 57.1634 187.58 57.7567C187.487 58.3434 187.363 58.8201 187.21 59.1867C187.063 59.5534 186.88 59.8234 186.66 59.9967C186.447 60.1634 186.19 60.2467 185.89 60.2467C185.783 60.2467 185.68 60.2367 185.58 60.2167C185.48 60.2034 185.393 60.1801 185.32 60.1467V59.3367C185.367 59.3501 185.417 59.3634 185.47 59.3767C185.53 59.3834 185.59 59.3867 185.65 59.3867C185.783 59.3867 185.903 59.3334 186.01 59.2267C186.123 59.1201 186.223 58.9534 186.31 58.7267C186.403 58.5001 186.487 58.2067 186.56 57.8467C186.64 57.4801 186.707 57.0434 186.76 56.5367C186.82 56.0301 186.873 55.4434 186.92 54.7767H190.42V60.1667ZM197.226 57.4667C197.226 57.9134 197.166 58.3101 197.046 58.6567C196.926 59.0034 196.756 59.2967 196.536 59.5367C196.316 59.7767 196.05 59.9601 195.736 60.0867C195.423 60.2067 195.07 60.2667 194.676 60.2667C194.316 60.2667 193.983 60.2067 193.676 60.0867C193.37 59.9601 193.103 59.7767 192.876 59.5367C192.656 59.2967 192.483 59.0034 192.356 58.6567C192.23 58.3101 192.166 57.9101 192.166 57.4567C192.166 56.8634 192.266 56.3601 192.466 55.9467C192.673 55.5334 192.966 55.2201 193.346 55.0067C193.733 54.7867 194.186 54.6767 194.706 54.6767C195.2 54.6767 195.633 54.7867 196.006 55.0067C196.386 55.2201 196.683 55.5334 196.896 55.9467C197.116 56.3601 197.226 56.8667 197.226 57.4667ZM193.256 57.4667C193.256 57.8667 193.306 58.2134 193.406 58.5067C193.506 58.7934 193.663 59.0134 193.876 59.1667C194.09 59.3201 194.363 59.3967 194.696 59.3967C195.03 59.3967 195.303 59.3201 195.516 59.1667C195.73 59.0134 195.886 58.7934 195.986 58.5067C196.086 58.2134 196.136 57.8667 196.136 57.4667C196.136 57.0534 196.083 56.7067 195.976 56.4267C195.876 56.1467 195.72 55.9334 195.506 55.7867C195.3 55.6334 195.026 55.5567 194.686 55.5567C194.186 55.5567 193.823 55.7234 193.596 56.0567C193.37 56.3901 193.256 56.8601 193.256 57.4667ZM205.595 54.7767L203.445 57.3867L205.785 60.1667H204.615L202.365 57.4367V60.1667H201.375V57.4367L199.125 60.1667H197.955L200.295 57.3867L198.145 54.7767H199.275L201.375 57.3967V54.7767H202.365V57.3967L204.475 54.7767H205.595ZM208.961 54.6767C209.434 54.6767 209.841 54.7767 210.181 54.9767C210.521 55.1701 210.781 55.4501 210.961 55.8167C211.148 56.1834 211.241 56.6167 211.241 57.1167V57.6967H207.621C207.634 58.2501 207.778 58.6734 208.051 58.9667C208.331 59.2601 208.721 59.4067 209.221 59.4067C209.568 59.4067 209.874 59.3767 210.141 59.3167C210.414 59.2501 210.694 59.1534 210.981 59.0267V59.9067C210.714 60.0267 210.441 60.1167 210.161 60.1767C209.888 60.2367 209.561 60.2667 209.181 60.2667C208.661 60.2667 208.201 60.1634 207.801 59.9567C207.401 59.7501 207.088 59.4434 206.861 59.0367C206.641 58.6234 206.531 58.1167 206.531 57.5167C206.531 56.9101 206.631 56.3967 206.831 55.9767C207.038 55.5567 207.321 55.2367 207.681 55.0167C208.048 54.7901 208.474 54.6767 208.961 54.6767ZM208.961 55.4967C208.581 55.4967 208.274 55.6201 208.041 55.8667C207.814 56.1134 207.681 56.4634 207.641 56.9167H210.181C210.181 56.6367 210.138 56.3901 210.051 56.1767C209.964 55.9634 209.831 55.7967 209.651 55.6767C209.471 55.5567 209.241 55.4967 208.961 55.4967ZM214.024 54.7767V56.9667H216.684V54.7767H217.744V60.1667H216.684V57.8167H214.024V60.1667H212.964V54.7767H214.024ZM220.809 57.7167C220.809 57.7967 220.806 57.9001 220.799 58.0267C220.792 58.1534 220.786 58.2867 220.779 58.4267C220.772 58.5601 220.762 58.6867 220.749 58.8067C220.742 58.9201 220.736 59.0101 220.729 59.0767L223.499 54.7767H224.789V60.1667H223.789V57.2967C223.789 57.1701 223.792 57.0134 223.799 56.8267C223.806 56.6401 223.812 56.4601 223.819 56.2867C223.832 56.1067 223.842 55.9701 223.849 55.8767L221.099 60.1667H219.799V54.7767H220.809V57.7167ZM233.989 57.4667C233.989 58.0601 233.889 58.5667 233.689 58.9867C233.496 59.4067 233.216 59.7267 232.849 59.9467C232.489 60.1601 232.059 60.2667 231.559 60.2667C231.113 60.2667 230.716 60.1767 230.369 59.9967C230.023 59.8101 229.746 59.5367 229.539 59.1767C229.333 58.8101 229.209 58.3567 229.169 57.8167H227.919V60.1667H226.859V54.7767H227.919V56.9667H229.179C229.233 56.4734 229.363 56.0567 229.569 55.7167C229.783 55.3767 230.059 55.1201 230.399 54.9467C230.739 54.7667 231.136 54.6767 231.589 54.6767C232.056 54.6767 232.469 54.7867 232.829 55.0067C233.196 55.2201 233.479 55.5334 233.679 55.9467C233.886 56.3601 233.989 56.8667 233.989 57.4667ZM230.239 57.4667C230.239 57.8867 230.286 58.2401 230.379 58.5267C230.473 58.8134 230.616 59.0301 230.809 59.1767C231.009 59.3234 231.266 59.3967 231.579 59.3967C231.886 59.3967 232.136 59.3234 232.329 59.1767C232.529 59.0301 232.673 58.8134 232.759 58.5267C232.853 58.2401 232.899 57.8867 232.899 57.4667C232.899 57.0401 232.853 56.6867 232.759 56.4067C232.673 56.1267 232.529 55.9167 232.329 55.7767C232.136 55.6301 231.886 55.5567 231.579 55.5567C231.266 55.5567 231.009 55.6301 230.809 55.7767C230.616 55.9167 230.473 56.1267 230.379 56.4067C230.286 56.6867 230.239 57.0401 230.239 57.4667ZM62.3001 72.5167C62.3001 72.1967 62.3535 71.9401 62.4601 71.7467C62.5668 71.5467 62.7101 71.4034 62.8901 71.3167C63.0768 71.2301 63.2801 71.1867 63.5001 71.1867C63.7201 71.1867 63.9201 71.2301 64.1001 71.3167C64.2801 71.4034 64.4235 71.5467 64.5301 71.7467C64.6435 71.9401 64.7001 72.1967 64.7001 72.5167C64.7001 72.8301 64.6435 73.0867 64.5301 73.2867C64.4235 73.4801 64.2801 73.6234 64.1001 73.7167C63.9201 73.8034 63.7201 73.8467 63.5001 73.8467C63.2801 73.8467 63.0768 73.8034 62.8901 73.7167C62.7101 73.6234 62.5668 73.4801 62.4601 73.2867C62.3535 73.0867 62.3001 72.8301 62.3001 72.5167ZM77.52 76.1667H76.44V72.9067H73.03V76.1667H71.95V69.0267H73.03V71.9867H76.44V69.0267H77.52V76.1667ZM81.8005 70.6767C82.4805 70.6767 82.9871 70.8267 83.3205 71.1267C83.6538 71.4201 83.8205 71.8834 83.8205 72.5167V76.1667H83.0705L82.8605 75.4167H82.8205C82.6671 75.6101 82.5071 75.7701 82.3405 75.8967C82.1805 76.0234 81.9938 76.1167 81.7805 76.1767C81.5738 76.2367 81.3205 76.2667 81.0205 76.2667C80.7005 76.2667 80.4105 76.2101 80.1505 76.0967C79.8971 75.9767 79.6971 75.7967 79.5505 75.5567C79.4038 75.3101 79.3305 75.0034 79.3305 74.6367C79.3305 74.0901 79.5371 73.6734 79.9505 73.3867C80.3705 73.1001 81.0071 72.9434 81.8605 72.9167L82.7805 72.8867V72.5867C82.7805 72.1867 82.6905 71.9067 82.5105 71.7467C82.3305 71.5867 82.0771 71.5067 81.7505 71.5067C81.4705 71.5067 81.2038 71.5467 80.9505 71.6267C80.6971 71.7067 80.4571 71.8034 80.2305 71.9167L79.8905 71.1467C80.1438 71.0134 80.4338 70.9034 80.7605 70.8167C81.0938 70.7234 81.4405 70.6767 81.8005 70.6767ZM82.0505 73.5967C81.4371 73.6234 81.0105 73.7267 80.7705 73.9067C80.5371 74.0801 80.4205 74.3267 80.4205 74.6467C80.4205 74.9267 80.5038 75.1301 80.6705 75.2567C80.8438 75.3834 81.0605 75.4467 81.3205 75.4467C81.7405 75.4467 82.0871 75.3301 82.3605 75.0967C82.6338 74.8634 82.7705 74.5134 82.7705 74.0467V73.5767L82.0505 73.5967ZM90.5127 70.7767V76.1667H89.4527V71.6367H86.9127V76.1667H85.8527V70.7767H90.5127ZM97.321 73.4667C97.321 73.9134 97.261 74.3101 97.141 74.6567C97.021 75.0034 96.851 75.2967 96.631 75.5367C96.411 75.7767 96.1443 75.9601 95.831 76.0867C95.5177 76.2067 95.1643 76.2667 94.771 76.2667C94.411 76.2667 94.0777 76.2067 93.771 76.0867C93.4643 75.9601 93.1977 75.7767 92.971 75.5367C92.751 75.2967 92.5777 75.0034 92.451 74.6567C92.3243 74.3101 92.261 73.9101 92.261 73.4567C92.261 72.8634 92.361 72.3601 92.561 71.9467C92.7677 71.5334 93.061 71.2201 93.441 71.0067C93.8277 70.7867 94.281 70.6767 94.801 70.6767C95.2943 70.6767 95.7277 70.7867 96.101 71.0067C96.481 71.2201 96.7777 71.5334 96.991 71.9467C97.211 72.3601 97.321 72.8667 97.321 73.4667ZM93.351 73.4667C93.351 73.8667 93.401 74.2134 93.501 74.5067C93.601 74.7934 93.7577 75.0134 93.971 75.1667C94.1843 75.3201 94.4577 75.3967 94.791 75.3967C95.1243 75.3967 95.3977 75.3201 95.611 75.1667C95.8243 75.0134 95.981 74.7934 96.081 74.5067C96.181 74.2134 96.231 73.8667 96.231 73.4667C96.231 73.0534 96.1777 72.7067 96.071 72.4267C95.971 72.1467 95.8143 71.9334 95.601 71.7867C95.3943 71.6334 95.121 71.5567 94.781 71.5567C94.281 71.5567 93.9177 71.7234 93.691 72.0567C93.4643 72.3901 93.351 72.8601 93.351 73.4667ZM105.145 70.7767V76.1667H104.185V72.9667C104.185 72.7867 104.188 72.6067 104.195 72.4267C104.208 72.2401 104.221 72.0634 104.235 71.8967H104.205L102.525 76.1667H101.675L100.025 71.8967H99.9848C100.005 72.0634 100.018 72.2401 100.025 72.4267C100.031 72.6067 100.035 72.7967 100.035 72.9967V76.1667H99.0648V70.7767H100.515L102.105 74.9067L103.725 70.7767H105.145ZM108.229 73.7167C108.229 73.7967 108.225 73.9001 108.219 74.0267C108.212 74.1534 108.205 74.2867 108.199 74.4267C108.192 74.5601 108.182 74.6867 108.169 74.8067C108.162 74.9201 108.155 75.0101 108.149 75.0767L110.919 70.7767H112.209V76.1667H111.209V73.2967C111.209 73.1701 111.212 73.0134 111.219 72.8267C111.225 72.6401 111.232 72.4601 111.239 72.2867C111.252 72.1067 111.262 71.9701 111.269 71.8767L108.519 76.1667H107.219V70.7767H108.229V73.7167ZM115.339 70.7767V72.9667H117.999V70.7767H119.059V76.1667H117.999V73.8167H115.339V76.1667H114.279V70.7767H115.339ZM123.204 70.6767C123.884 70.6767 124.391 70.8267 124.724 71.1267C125.058 71.4201 125.224 71.8834 125.224 72.5167V76.1667H124.474L124.264 75.4167H124.224C124.071 75.6101 123.911 75.7701 123.744 75.8967C123.584 76.0234 123.398 76.1167 123.184 76.1767C122.978 76.2367 122.724 76.2667 122.424 76.2667C122.104 76.2667 121.814 76.2101 121.554 76.0967C121.301 75.9767 121.101 75.7967 120.954 75.5567C120.808 75.3101 120.734 75.0034 120.734 74.6367C120.734 74.0901 120.941 73.6734 121.354 73.3867C121.774 73.1001 122.411 72.9434 123.264 72.9167L124.184 72.8867V72.5867C124.184 72.1867 124.094 71.9067 123.914 71.7467C123.734 71.5867 123.481 71.5067 123.154 71.5067C122.874 71.5067 122.608 71.5467 122.354 71.6267C122.101 71.7067 121.861 71.8034 121.634 71.9167L121.294 71.1467C121.548 71.0134 121.838 70.9034 122.164 70.8167C122.498 70.7234 122.844 70.6767 123.204 70.6767ZM123.454 73.5967C122.841 73.6234 122.414 73.7267 122.174 73.9067C121.941 74.0801 121.824 74.3267 121.824 74.6467C121.824 74.9267 121.908 75.1301 122.074 75.2567C122.248 75.3834 122.464 75.4467 122.724 75.4467C123.144 75.4467 123.491 75.3301 123.764 75.0967C124.038 74.8634 124.174 74.5134 124.174 74.0467V73.5767L123.454 73.5967ZM128.317 70.7767V72.9667H130.977V70.7767H132.037V76.1667H130.977V73.8167H128.317V76.1667H127.257V70.7767H128.317ZM135.102 73.7167C135.102 73.7967 135.099 73.9001 135.092 74.0267C135.085 74.1534 135.079 74.2867 135.072 74.4267C135.065 74.5601 135.055 74.6867 135.042 74.8067C135.035 74.9201 135.029 75.0101 135.022 75.0767L137.792 70.7767H139.082V76.1667H138.082V73.2967C138.082 73.1701 138.085 73.0134 138.092 72.8267C138.099 72.6401 138.105 72.4601 138.112 72.2867C138.125 72.1067 138.135 71.9701 138.142 71.8767L135.392 76.1667H134.092V70.7767H135.102V73.7167ZM141.632 76.1667H140.432L141.952 73.9467C141.746 73.8801 141.549 73.7867 141.362 73.6667C141.182 73.5467 141.036 73.3801 140.922 73.1667C140.809 72.9534 140.752 72.6934 140.752 72.3867C140.752 71.8667 140.936 71.4701 141.302 71.1967C141.669 70.9167 142.149 70.7767 142.742 70.7767H145.182V76.1667H144.122V74.0667H142.962L141.632 76.1667ZM141.782 72.3967C141.782 72.6834 141.889 72.9001 142.102 73.0467C142.316 73.1867 142.612 73.2567 142.992 73.2567H144.122V71.5967H142.812C142.446 71.5967 142.182 71.6734 142.022 71.8267C141.862 71.9801 141.782 72.1701 141.782 72.3967ZM154.993 73.4667C154.993 73.9134 154.933 74.3101 154.813 74.6567C154.693 75.0034 154.523 75.2967 154.303 75.5367C154.083 75.7767 153.817 75.9601 153.503 76.0867C153.19 76.2067 152.837 76.2667 152.443 76.2667C152.083 76.2667 151.75 76.2067 151.443 76.0867C151.137 75.9601 150.87 75.7767 150.643 75.5367C150.423 75.2967 150.25 75.0034 150.123 74.6567C149.997 74.3101 149.933 73.9101 149.933 73.4567C149.933 72.8634 150.033 72.3601 150.233 71.9467C150.44 71.5334 150.733 71.2201 151.113 71.0067C151.5 70.7867 151.953 70.6767 152.473 70.6767C152.967 70.6767 153.4 70.7867 153.773 71.0067C154.153 71.2201 154.45 71.5334 154.663 71.9467C154.883 72.3601 154.993 72.8667 154.993 73.4667ZM151.023 73.4667C151.023 73.8667 151.073 74.2134 151.173 74.5067C151.273 74.7934 151.43 75.0134 151.643 75.1667C151.857 75.3201 152.13 75.3967 152.463 75.3967C152.797 75.3967 153.07 75.3201 153.283 75.1667C153.497 75.0134 153.653 74.7934 153.753 74.5067C153.853 74.2134 153.903 73.8667 153.903 73.4667C153.903 73.0534 153.85 72.7067 153.743 72.4267C153.643 72.1467 153.487 71.9334 153.273 71.7867C153.067 71.6334 152.793 71.5567 152.453 71.5567C151.953 71.5567 151.59 71.7234 151.363 72.0567C151.137 72.3901 151.023 72.8601 151.023 73.4667ZM165.815 70.7767V76.1667H164.855V72.9667C164.855 72.7867 164.858 72.6067 164.865 72.4267C164.878 72.2401 164.891 72.0634 164.905 71.8967H164.875L163.195 76.1667H162.345L160.695 71.8967H160.655C160.675 72.0634 160.688 72.2401 160.695 72.4267C160.701 72.6067 160.705 72.7967 160.705 72.9967V76.1667H159.735V70.7767H161.185L162.775 74.9067L164.395 70.7767H165.815ZM170.009 70.6767C170.482 70.6767 170.889 70.7767 171.229 70.9767C171.569 71.1701 171.829 71.4501 172.009 71.8167C172.195 72.1834 172.289 72.6167 172.289 73.1167V73.6967H168.669C168.682 74.2501 168.825 74.6734 169.099 74.9667C169.379 75.2601 169.769 75.4067 170.269 75.4067C170.615 75.4067 170.922 75.3767 171.189 75.3167C171.462 75.2501 171.742 75.1534 172.029 75.0267V75.9067C171.762 76.0267 171.489 76.1167 171.209 76.1767C170.935 76.2367 170.609 76.2667 170.229 76.2667C169.709 76.2667 169.249 76.1634 168.849 75.9567C168.449 75.7501 168.135 75.4434 167.909 75.0367C167.689 74.6234 167.579 74.1167 167.579 73.5167C167.579 72.9101 167.679 72.3967 167.879 71.9767C168.085 71.5567 168.369 71.2367 168.729 71.0167C169.095 70.7901 169.522 70.6767 170.009 70.6767ZM170.009 71.4967C169.629 71.4967 169.322 71.6201 169.089 71.8667C168.862 72.1134 168.729 72.4634 168.689 72.9167H171.229C171.229 72.6367 171.185 72.3901 171.099 72.1767C171.012 71.9634 170.879 71.7967 170.699 71.6767C170.519 71.5567 170.289 71.4967 170.009 71.4967ZM178.261 70.7767V75.3267H179.051V78.0567H178.061V76.1667H174.341V78.0567H173.361V75.3267H173.791C174.078 74.9134 174.318 74.4601 174.511 73.9667C174.705 73.4734 174.851 72.9567 174.951 72.4167C175.058 71.8701 175.121 71.3234 175.141 70.7767H178.261ZM176.061 71.5967C176.021 72.0301 175.948 72.4734 175.841 72.9267C175.741 73.3801 175.611 73.8134 175.451 74.2267C175.298 74.6401 175.115 75.0067 174.901 75.3267H177.221V71.5967H176.061ZM181.476 73.7167C181.476 73.7967 181.473 73.9001 181.466 74.0267C181.459 74.1534 181.453 74.2867 181.446 74.4267C181.439 74.5601 181.429 74.6867 181.416 74.8067C181.409 74.9201 181.403 75.0101 181.396 75.0767L184.166 70.7767H185.456V76.1667H184.456V73.2967C184.456 73.1701 184.459 73.0134 184.466 72.8267C184.473 72.6401 184.479 72.4601 184.486 72.2867C184.499 72.1067 184.509 71.9701 184.516 71.8767L181.766 76.1667H180.466V70.7767H181.476V73.7167ZM191.466 71.6267H189.706V76.1667H188.656V71.6267H186.906V70.7767H191.466V71.6267ZM195.006 70.6767C195.686 70.6767 196.193 70.8267 196.526 71.1267C196.86 71.4201 197.026 71.8834 197.026 72.5167V76.1667H196.276L196.066 75.4167H196.026C195.873 75.6101 195.713 75.7701 195.546 75.8967C195.386 76.0234 195.2 76.1167 194.986 76.1767C194.78 76.2367 194.526 76.2667 194.226 76.2667C193.906 76.2667 193.616 76.2101 193.356 76.0967C193.103 75.9767 192.903 75.7967 192.756 75.5567C192.61 75.3101 192.536 75.0034 192.536 74.6367C192.536 74.0901 192.743 73.6734 193.156 73.3867C193.576 73.1001 194.213 72.9434 195.066 72.9167L195.986 72.8867V72.5867C195.986 72.1867 195.896 71.9067 195.716 71.7467C195.536 71.5867 195.283 71.5067 194.956 71.5067C194.676 71.5067 194.41 71.5467 194.156 71.6267C193.903 71.7067 193.663 71.8034 193.436 71.9167L193.096 71.1467C193.35 71.0134 193.64 70.9034 193.966 70.8167C194.3 70.7234 194.646 70.6767 195.006 70.6767ZM195.256 73.5967C194.643 73.6234 194.216 73.7267 193.976 73.9067C193.743 74.0801 193.626 74.3267 193.626 74.6467C193.626 74.9267 193.71 75.1301 193.876 75.2567C194.05 75.3834 194.266 75.4467 194.526 75.4467C194.946 75.4467 195.293 75.3301 195.566 75.0967C195.84 74.8634 195.976 74.5134 195.976 74.0467V73.5767L195.256 73.5967ZM204.549 78.0567H203.549V76.1667H199.059V70.7767H200.119V75.3167H202.719V70.7767H203.779V75.3267H204.549V78.0567ZM206.963 73.7167C206.963 73.7967 206.959 73.9001 206.953 74.0267C206.946 74.1534 206.939 74.2867 206.933 74.4267C206.926 74.5601 206.916 74.6867 206.903 74.8067C206.896 74.9201 206.889 75.0101 206.883 75.0767L209.653 70.7767H210.943V76.1667H209.943V73.2967C209.943 73.1701 209.946 73.0134 209.953 72.8267C209.959 72.6401 209.966 72.4601 209.973 72.2867C209.986 72.1067 209.996 71.9701 210.003 71.8767L207.253 76.1667H205.953V70.7767H206.963V73.7167ZM213.493 76.1667H212.293L213.813 73.9467C213.606 73.8801 213.409 73.7867 213.223 73.6667C213.043 73.5467 212.896 73.3801 212.783 73.1667C212.669 72.9534 212.613 72.6934 212.613 72.3867C212.613 71.8667 212.796 71.4701 213.163 71.1967C213.529 70.9167 214.009 70.7767 214.603 70.7767H217.043V76.1667H215.983V74.0667H214.823L213.493 76.1667ZM213.643 72.3967C213.643 72.6834 213.749 72.9001 213.963 73.0467C214.176 73.1867 214.473 73.2567 214.853 73.2567H215.983V71.5967H214.673C214.306 71.5967 214.043 71.6734 213.883 71.8267C213.723 71.9801 213.643 72.1701 213.643 72.3967ZM220.336 73.4167L218.506 70.7767H219.716L220.996 72.7167L222.276 70.7767H223.476L221.646 73.4167L223.566 76.1667H222.366L220.996 74.1067L219.616 76.1667H218.416L220.336 73.4167ZM62.3001 88.5167C62.3001 88.1967 62.3535 87.9401 62.4601 87.7467C62.5668 87.5467 62.7101 87.4034 62.8901 87.3167C63.0768 87.2301 63.2801 87.1867 63.5001 87.1867C63.7201 87.1867 63.9201 87.2301 64.1001 87.3167C64.2801 87.4034 64.4235 87.5467 64.5301 87.7467C64.6435 87.9401 64.7001 88.1967 64.7001 88.5167C64.7001 88.8301 64.6435 89.0867 64.5301 89.2867C64.4235 89.4801 64.2801 89.6234 64.1001 89.7167C63.9201 89.8034 63.7201 89.8467 63.5001 89.8467C63.2801 89.8467 63.0768 89.8034 62.8901 89.7167C62.7101 89.6234 62.5668 89.4801 62.4601 89.2867C62.3535 89.0867 62.3001 88.8301 62.3001 88.5167ZM75.06 92.1667L72.9 86.0967H72.86C72.8667 86.2301 72.8767 86.4101 72.89 86.6367C72.9033 86.8634 72.9133 87.1067 72.92 87.3667C72.9267 87.6267 72.93 87.8834 72.93 88.1367V92.1667H71.95V85.0267H73.49L75.54 90.7567H75.58L77.69 85.0267H79.23V92.1667H78.18V88.0767C78.18 87.8434 78.1833 87.6034 78.19 87.3567C78.2033 87.1034 78.2133 86.8667 78.22 86.6467C78.2333 86.4267 78.2433 86.2467 78.25 86.1067H78.21L75.99 92.1667H75.06ZM83.5297 86.6767C84.003 86.6767 84.4097 86.7767 84.7497 86.9767C85.0897 87.1701 85.3497 87.4501 85.5297 87.8167C85.7164 88.1834 85.8097 88.6167 85.8097 89.1167V89.6967H82.1897C82.203 90.2501 82.3464 90.6734 82.6197 90.9667C82.8997 91.2601 83.2897 91.4067 83.7897 91.4067C84.1364 91.4067 84.443 91.3767 84.7097 91.3167C84.983 91.2501 85.263 91.1534 85.5497 91.0267V91.9067C85.283 92.0267 85.0097 92.1167 84.7297 92.1767C84.4564 92.2367 84.1297 92.2667 83.7497 92.2667C83.2297 92.2667 82.7697 92.1634 82.3697 91.9567C81.9697 91.7501 81.6564 91.4434 81.4297 91.0367C81.2097 90.6234 81.0997 90.1167 81.0997 89.5167C81.0997 88.9101 81.1997 88.3967 81.3997 87.9767C81.6064 87.5567 81.8897 87.2367 82.2497 87.0167C82.6164 86.7901 83.043 86.6767 83.5297 86.6767ZM83.5297 87.4967C83.1497 87.4967 82.843 87.6201 82.6097 87.8667C82.383 88.1134 82.2497 88.4634 82.2097 88.9167H84.7497C84.7497 88.6367 84.7064 88.3901 84.6197 88.1767C84.533 87.9634 84.3997 87.7967 84.2197 87.6767C84.0397 87.5567 83.8097 87.4967 83.5297 87.4967ZM91.7823 86.7767V91.3267H92.5723V94.0567H91.5823V92.1667H87.8623V94.0567H86.8823V91.3267H87.3123C87.599 90.9134 87.839 90.4601 88.0323 89.9667C88.2257 89.4734 88.3723 88.9567 88.4723 88.4167C88.579 87.8701 88.6423 87.3234 88.6623 86.7767H91.7823ZM89.5823 87.5967C89.5423 88.0301 89.469 88.4734 89.3623 88.9267C89.2623 89.3801 89.1323 89.8134 88.9723 90.2267C88.819 90.6401 88.6357 91.0067 88.4223 91.3267H90.7423V87.5967H89.5823ZM94.997 89.7167C94.997 89.7967 94.9937 89.9001 94.987 90.0267C94.9804 90.1534 94.9737 90.2867 94.967 90.4267C94.9604 90.5601 94.9504 90.6867 94.937 90.8067C94.9304 90.9201 94.9237 91.0101 94.917 91.0767L97.687 86.7767H98.977V92.1667H97.977V89.2967C97.977 89.1701 97.9804 89.0134 97.987 88.8267C97.9937 88.6401 98.0004 88.4601 98.007 88.2867C98.0204 88.1067 98.0304 87.9701 98.037 87.8767L95.287 92.1667H93.987V86.7767H94.997V89.7167ZM104.987 87.6267H103.227V92.1667H102.177V87.6267H100.427V86.7767H104.987V87.6267ZM108.527 86.6767C109.207 86.6767 109.714 86.8267 110.047 87.1267C110.381 87.4201 110.547 87.8834 110.547 88.5167V92.1667H109.797L109.587 91.4167H109.547C109.394 91.6101 109.234 91.7701 109.067 91.8967C108.907 92.0234 108.721 92.1167 108.507 92.1767C108.301 92.2367 108.047 92.2667 107.747 92.2667C107.427 92.2667 107.137 92.2101 106.877 92.0967C106.624 91.9767 106.424 91.7967 106.277 91.5567C106.131 91.3101 106.057 91.0034 106.057 90.6367C106.057 90.0901 106.264 89.6734 106.677 89.3867C107.097 89.1001 107.734 88.9434 108.587 88.9167L109.507 88.8867V88.5867C109.507 88.1867 109.417 87.9067 109.237 87.7467C109.057 87.5867 108.804 87.5067 108.477 87.5067C108.197 87.5067 107.931 87.5467 107.677 87.6267C107.424 87.7067 107.184 87.8034 106.957 87.9167L106.617 87.1467C106.871 87.0134 107.161 86.9034 107.487 86.8167C107.821 86.7234 108.167 86.6767 108.527 86.6767ZM108.777 89.5967C108.164 89.6234 107.737 89.7267 107.497 89.9067C107.264 90.0801 107.147 90.3267 107.147 90.6467C107.147 90.9267 107.231 91.1301 107.397 91.2567C107.571 91.3834 107.787 91.4467 108.047 91.4467C108.467 91.4467 108.814 91.3301 109.087 91.0967C109.361 90.8634 109.497 90.5134 109.497 90.0467V89.5767L108.777 89.5967ZM118.07 94.0567H117.07V92.1667H112.58V86.7767H113.64V91.3167H116.24V86.7767H117.3V91.3267H118.07V94.0567ZM120.484 89.7167C120.484 89.7967 120.48 89.9001 120.474 90.0267C120.467 90.1534 120.46 90.2867 120.454 90.4267C120.447 90.5601 120.437 90.6867 120.424 90.8067C120.417 90.9201 120.41 91.0101 120.404 91.0767L123.174 86.7767H124.464V92.1667H123.464V89.2967C123.464 89.1701 123.467 89.0134 123.474 88.8267C123.48 88.6401 123.487 88.4601 123.494 88.2867C123.507 88.1067 123.517 87.9701 123.524 87.8767L120.774 92.1667H119.474V86.7767H120.484V89.7167ZM127.544 89.7167C127.544 89.7967 127.541 89.9001 127.534 90.0267C127.527 90.1534 127.521 90.2867 127.514 90.4267C127.507 90.5601 127.497 90.6867 127.484 90.8067C127.477 90.9201 127.471 91.0101 127.464 91.0767L130.234 86.7767H131.524V92.1667H130.524V89.2967C130.524 89.1701 130.527 89.0134 130.534 88.8267C130.541 88.6401 130.547 88.4601 130.554 88.2867C130.567 88.1067 130.577 87.9701 130.584 87.8767L127.834 92.1667H126.534V86.7767H127.544V89.7167ZM134.774 91.1167C134.714 91.3501 134.637 91.6034 134.544 91.8767C134.451 92.1501 134.351 92.4201 134.244 92.6867C134.137 92.9601 134.027 93.2167 133.914 93.4567H133.144C133.211 93.1967 133.274 92.9201 133.334 92.6267C133.401 92.3401 133.461 92.0567 133.514 91.7767C133.567 91.4967 133.611 91.2401 133.644 91.0067H134.704L134.774 91.1167ZM144.386 86.7767V92.1667H143.326V87.6367H140.786V92.1667H139.726V86.7767H144.386ZM149.134 86.6767C149.781 86.6767 150.301 86.9101 150.694 87.3767C151.094 87.8434 151.294 88.5401 151.294 89.4667C151.294 90.0734 151.204 90.5867 151.024 91.0067C150.844 91.4267 150.591 91.7434 150.264 91.9567C149.938 92.1634 149.558 92.2667 149.124 92.2667C148.851 92.2667 148.611 92.2334 148.404 92.1667C148.198 92.0934 148.021 92.0001 147.874 91.8867C147.734 91.7667 147.611 91.6401 147.504 91.5067H147.434C147.454 91.6267 147.471 91.7701 147.484 91.9367C147.498 92.0967 147.504 92.2401 147.504 92.3667V94.5667H146.444V86.7767H147.304L147.454 87.4967H147.504C147.611 87.3501 147.738 87.2134 147.884 87.0867C148.031 86.9601 148.208 86.8601 148.414 86.7867C148.621 86.7134 148.861 86.6767 149.134 86.6767ZM148.884 87.5467C148.551 87.5467 148.284 87.6134 148.084 87.7467C147.884 87.8734 147.738 88.0667 147.644 88.3267C147.558 88.5801 147.511 88.9034 147.504 89.2967V89.4567C147.504 89.8701 147.548 90.2234 147.634 90.5167C147.721 90.8034 147.864 91.0234 148.064 91.1767C148.271 91.3234 148.551 91.3967 148.904 91.3967C149.204 91.3967 149.448 91.3167 149.634 91.1567C149.828 90.9901 149.971 90.7601 150.064 90.4667C150.158 90.1734 150.204 89.8334 150.204 89.4467C150.204 88.8601 150.098 88.3967 149.884 88.0567C149.671 87.7167 149.338 87.5467 148.884 87.5467ZM155.136 86.6767C155.816 86.6767 156.322 86.8267 156.656 87.1267C156.989 87.4201 157.156 87.8834 157.156 88.5167V92.1667H156.406L156.196 91.4167H156.156C156.002 91.6101 155.842 91.7701 155.676 91.8967C155.516 92.0234 155.329 92.1167 155.116 92.1767C154.909 92.2367 154.656 92.2667 154.356 92.2667C154.036 92.2667 153.746 92.2101 153.486 92.0967C153.232 91.9767 153.032 91.7967 152.886 91.5567C152.739 91.3101 152.666 91.0034 152.666 90.6367C152.666 90.0901 152.872 89.6734 153.286 89.3867C153.706 89.1001 154.342 88.9434 155.196 88.9167L156.116 88.8867V88.5867C156.116 88.1867 156.026 87.9067 155.846 87.7467C155.666 87.5867 155.412 87.5067 155.086 87.5067C154.806 87.5067 154.539 87.5467 154.286 87.6267C154.032 87.7067 153.792 87.8034 153.566 87.9167L153.226 87.1467C153.479 87.0134 153.769 86.9034 154.096 86.8167C154.429 86.7234 154.776 86.6767 155.136 86.6767ZM155.386 89.5967C154.772 89.6234 154.346 89.7267 154.106 89.9067C153.872 90.0801 153.756 90.3267 153.756 90.6467C153.756 90.9267 153.839 91.1301 154.006 91.2567C154.179 91.3834 154.396 91.4467 154.656 91.4467C155.076 91.4467 155.422 91.3301 155.696 91.0967C155.969 90.8634 156.106 90.5134 156.106 90.0467V89.5767L155.386 89.5967ZM162.478 86.7767H163.638L161.388 89.3667L163.828 92.1667H162.608L160.248 89.4367V92.1667H159.188V86.7767H160.248V89.3967L162.478 86.7767ZM169.084 87.6267H167.324V92.1667H166.274V87.6267H164.524V86.7767H169.084V87.6267ZM171.545 89.7167C171.545 89.7967 171.541 89.9001 171.535 90.0267C171.528 90.1534 171.521 90.2867 171.515 90.4267C171.508 90.5601 171.498 90.6867 171.485 90.8067C171.478 90.9201 171.471 91.0101 171.465 91.0767L174.235 86.7767H175.525V92.1667H174.525V89.2967C174.525 89.1701 174.528 89.0134 174.535 88.8267C174.541 88.6401 174.548 88.4601 174.555 88.2867C174.568 88.1067 174.578 87.9701 174.585 87.8767L171.835 92.1667H170.535V86.7767H171.545V89.7167ZM180.885 86.7767H182.045L179.795 89.3667L182.235 92.1667H181.015L178.655 89.4367V92.1667H177.595V86.7767H178.655V89.3967L180.885 86.7767ZM184.561 89.7167C184.561 89.7967 184.558 89.9001 184.551 90.0267C184.545 90.1534 184.538 90.2867 184.531 90.4267C184.525 90.5601 184.515 90.6867 184.501 90.8067C184.495 90.9201 184.488 91.0101 184.481 91.0767L187.251 86.7767H188.541V92.1667H187.541V89.2967C187.541 89.1701 187.545 89.0134 187.551 88.8267C187.558 88.6401 187.565 88.4601 187.571 88.2867C187.585 88.1067 187.595 87.9701 187.601 87.8767L184.851 92.1667H183.551V86.7767H184.561V89.7167ZM194.789 91.1167C194.729 91.3501 194.653 91.6034 194.559 91.8767C194.466 92.1501 194.366 92.4201 194.259 92.6867C194.153 92.9601 194.043 93.2167 193.929 93.4567H193.159C193.226 93.1967 193.289 92.9201 193.349 92.6267C193.416 92.3401 193.476 92.0567 193.529 91.7767C193.583 91.4967 193.626 91.2401 193.659 91.0067H194.719L194.789 91.1167ZM200.751 89.7167C200.751 89.7967 200.748 89.9001 200.741 90.0267C200.735 90.1534 200.728 90.2867 200.721 90.4267C200.715 90.5601 200.705 90.6867 200.691 90.8067C200.685 90.9201 200.678 91.0101 200.671 91.0767L203.441 86.7767H204.731V92.1667H203.731V89.2967C203.731 89.1701 203.735 89.0134 203.741 88.8267C203.748 88.6401 203.755 88.4601 203.761 88.2867C203.775 88.1067 203.785 87.9701 203.791 87.8767L201.041 92.1667H199.741V86.7767H200.751V89.7167ZM210.221 86.7767V87.6267H207.861V92.1667H206.801V86.7767H210.221ZM214.354 86.6767C215.001 86.6767 215.521 86.9101 215.914 87.3767C216.314 87.8434 216.514 88.5401 216.514 89.4667C216.514 90.0734 216.424 90.5867 216.244 91.0067C216.064 91.4267 215.811 91.7434 215.484 91.9567C215.158 92.1634 214.778 92.2667 214.344 92.2667C214.071 92.2667 213.831 92.2334 213.624 92.1667C213.418 92.0934 213.241 92.0001 213.094 91.8867C212.954 91.7667 212.831 91.6401 212.724 91.5067H212.654C212.674 91.6267 212.691 91.7701 212.704 91.9367C212.718 92.0967 212.724 92.2401 212.724 92.3667V94.5667H211.664V86.7767H212.524L212.674 87.4967H212.724C212.831 87.3501 212.958 87.2134 213.104 87.0867C213.251 86.9601 213.428 86.8601 213.634 86.7867C213.841 86.7134 214.081 86.6767 214.354 86.6767ZM214.104 87.5467C213.771 87.5467 213.504 87.6134 213.304 87.7467C213.104 87.8734 212.958 88.0667 212.864 88.3267C212.778 88.5801 212.731 88.9034 212.724 89.2967V89.4567C212.724 89.8701 212.768 90.2234 212.854 90.5167C212.941 90.8034 213.084 91.0234 213.284 91.1767C213.491 91.3234 213.771 91.3967 214.124 91.3967C214.424 91.3967 214.668 91.3167 214.854 91.1567C215.048 90.9901 215.191 90.7601 215.284 90.4667C215.378 90.1734 215.424 89.8334 215.424 89.4467C215.424 88.8601 215.318 88.3967 215.104 88.0567C214.891 87.7167 214.558 87.5467 214.104 87.5467ZM218.266 92.1667V86.7767H219.326V88.9467H220.516C221.009 88.9467 221.416 89.0067 221.736 89.1267C222.056 89.2401 222.292 89.4101 222.446 89.6367C222.599 89.8634 222.676 90.1501 222.676 90.4967C222.676 90.8367 222.599 91.1334 222.446 91.3867C222.299 91.6334 222.066 91.8267 221.746 91.9667C221.432 92.1001 221.019 92.1667 220.506 92.1667H218.266ZM220.426 91.3667C220.779 91.3667 221.066 91.3067 221.286 91.1867C221.512 91.0601 221.626 90.8434 221.626 90.5367C221.626 90.2434 221.522 90.0434 221.316 89.9367C221.109 89.8234 220.812 89.7667 220.426 89.7667H219.326V91.3667H220.426ZM223.536 92.1667V86.7767H224.596V92.1667H223.536ZM62.3001 104.517C62.3001 104.197 62.3535 103.94 62.4601 103.747C62.5668 103.547 62.7101 103.403 62.8901 103.317C63.0768 103.23 63.2801 103.187 63.5001 103.187C63.7201 103.187 63.9201 103.23 64.1001 103.317C64.2801 103.403 64.4235 103.547 64.5301 103.747C64.6435 103.94 64.7001 104.197 64.7001 104.517C64.7001 104.83 64.6435 105.087 64.5301 105.287C64.4235 105.48 64.2801 105.623 64.1001 105.717C63.9201 105.803 63.7201 105.847 63.5001 105.847C63.2801 105.847 63.0768 105.803 62.8901 105.717C62.7101 105.623 62.5668 105.48 62.4601 105.287C62.3535 105.087 62.3001 104.83 62.3001 104.517ZM71.95 108.167V101.027H77.39V108.167H76.32V101.957H73.03V108.167H71.95ZM81.7035 102.677C82.1768 102.677 82.5835 102.777 82.9235 102.977C83.2635 103.17 83.5235 103.45 83.7035 103.817C83.8902 104.183 83.9835 104.617 83.9835 105.117V105.697H80.3635C80.3768 106.25 80.5202 106.673 80.7935 106.967C81.0735 107.26 81.4635 107.407 81.9635 107.407C82.3102 107.407 82.6168 107.377 82.8835 107.317C83.1568 107.25 83.4368 107.153 83.7235 107.027V107.907C83.4568 108.027 83.1835 108.117 82.9035 108.177C82.6302 108.237 82.3035 108.267 81.9235 108.267C81.4035 108.267 80.9435 108.163 80.5435 107.957C80.1435 107.75 79.8302 107.443 79.6035 107.037C79.3835 106.623 79.2735 106.117 79.2735 105.517C79.2735 104.91 79.3735 104.397 79.5735 103.977C79.7802 103.557 80.0635 103.237 80.4235 103.017C80.7902 102.79 81.2168 102.677 81.7035 102.677ZM81.7035 103.497C81.3235 103.497 81.0168 103.62 80.7835 103.867C80.5568 104.113 80.4235 104.463 80.3835 104.917H82.9235C82.9235 104.637 82.8802 104.39 82.7935 104.177C82.7068 103.963 82.5735 103.797 82.3935 103.677C82.2135 103.557 81.9835 103.497 81.7035 103.497ZM88.3962 102.677C89.0428 102.677 89.5628 102.91 89.9562 103.377C90.3562 103.843 90.5562 104.54 90.5562 105.467C90.5562 106.073 90.4662 106.587 90.2862 107.007C90.1062 107.427 89.8528 107.743 89.5262 107.957C89.1995 108.163 88.8195 108.267 88.3862 108.267C88.1128 108.267 87.8728 108.233 87.6662 108.167C87.4595 108.093 87.2828 108 87.1362 107.887C86.9962 107.767 86.8728 107.64 86.7662 107.507H86.6962C86.7162 107.627 86.7328 107.77 86.7462 107.937C86.7595 108.097 86.7662 108.24 86.7662 108.367V110.567H85.7062V102.777H86.5662L86.7162 103.497H86.7662C86.8728 103.35 86.9995 103.213 87.1462 103.087C87.2928 102.96 87.4695 102.86 87.6762 102.787C87.8828 102.713 88.1228 102.677 88.3962 102.677ZM88.1462 103.547C87.8128 103.547 87.5462 103.613 87.3462 103.747C87.1462 103.873 86.9995 104.067 86.9062 104.327C86.8195 104.58 86.7728 104.903 86.7662 105.297V105.457C86.7662 105.87 86.8095 106.223 86.8962 106.517C86.9828 106.803 87.1262 107.023 87.3262 107.177C87.5328 107.323 87.8128 107.397 88.1662 107.397C88.4662 107.397 88.7095 107.317 88.8962 107.157C89.0895 106.99 89.2328 106.76 89.3262 106.467C89.4195 106.173 89.4662 105.833 89.4662 105.447C89.4662 104.86 89.3595 104.397 89.1462 104.057C88.9328 103.717 88.5995 103.547 88.1462 103.547ZM94.4773 108.267C93.984 108.267 93.5507 108.17 93.1773 107.977C92.804 107.783 92.514 107.483 92.3073 107.077C92.1007 106.663 91.9973 106.14 91.9973 105.507C91.9973 104.84 92.1073 104.3 92.3273 103.887C92.554 103.473 92.8573 103.17 93.2373 102.977C93.624 102.777 94.064 102.677 94.5573 102.677C94.8573 102.677 95.1373 102.71 95.3973 102.777C95.664 102.837 95.884 102.907 96.0573 102.987L95.7373 103.847C95.5507 103.773 95.3507 103.71 95.1373 103.657C94.9307 103.603 94.734 103.577 94.5473 103.577C94.214 103.577 93.9373 103.65 93.7173 103.797C93.504 103.937 93.344 104.15 93.2373 104.437C93.1373 104.717 93.0873 105.07 93.0873 105.497C93.0873 105.903 93.1407 106.247 93.2473 106.527C93.354 106.807 93.5107 107.02 93.7173 107.167C93.9307 107.307 94.194 107.377 94.5073 107.377C94.8073 107.377 95.0707 107.343 95.2973 107.277C95.524 107.21 95.7373 107.123 95.9373 107.017V107.937C95.744 108.05 95.534 108.133 95.3073 108.187C95.0807 108.24 94.804 108.267 94.4773 108.267ZM102.36 105.467C102.36 105.913 102.3 106.31 102.18 106.657C102.06 107.003 101.89 107.297 101.67 107.537C101.45 107.777 101.183 107.96 100.87 108.087C100.556 108.207 100.203 108.267 99.8097 108.267C99.4497 108.267 99.1164 108.207 98.8097 108.087C98.503 107.96 98.2364 107.777 98.0097 107.537C97.7897 107.297 97.6164 107.003 97.4897 106.657C97.363 106.31 97.2997 105.91 97.2997 105.457C97.2997 104.863 97.3997 104.36 97.5997 103.947C97.8064 103.533 98.0997 103.22 98.4797 103.007C98.8664 102.787 99.3197 102.677 99.8397 102.677C100.333 102.677 100.766 102.787 101.14 103.007C101.52 103.22 101.816 103.533 102.03 103.947C102.25 104.36 102.36 104.867 102.36 105.467ZM98.3897 105.467C98.3897 105.867 98.4397 106.213 98.5397 106.507C98.6397 106.793 98.7964 107.013 99.0097 107.167C99.223 107.32 99.4964 107.397 99.8297 107.397C100.163 107.397 100.436 107.32 100.65 107.167C100.863 107.013 101.02 106.793 101.12 106.507C101.22 106.213 101.27 105.867 101.27 105.467C101.27 105.053 101.216 104.707 101.11 104.427C101.01 104.147 100.853 103.933 100.64 103.787C100.433 103.633 100.16 103.557 99.8197 103.557C99.3197 103.557 98.9564 103.723 98.7297 104.057C98.503 104.39 98.3897 104.86 98.3897 105.467ZM105.163 102.777V104.967H107.823V102.777H108.883V108.167H107.823V105.817H105.163V108.167H104.103V102.777H105.163ZM113.029 102.677C113.709 102.677 114.216 102.827 114.549 103.127C114.882 103.42 115.049 103.883 115.049 104.517V108.167H114.299L114.089 107.417H114.049C113.896 107.61 113.736 107.77 113.569 107.897C113.409 108.023 113.222 108.117 113.009 108.177C112.802 108.237 112.549 108.267 112.249 108.267C111.929 108.267 111.639 108.21 111.379 108.097C111.126 107.977 110.926 107.797 110.779 107.557C110.632 107.31 110.559 107.003 110.559 106.637C110.559 106.09 110.766 105.673 111.179 105.387C111.599 105.1 112.236 104.943 113.089 104.917L114.009 104.887V104.587C114.009 104.187 113.919 103.907 113.739 103.747C113.559 103.587 113.306 103.507 112.979 103.507C112.699 103.507 112.432 103.547 112.179 103.627C111.926 103.707 111.686 103.803 111.459 103.917L111.119 103.147C111.372 103.013 111.662 102.903 111.989 102.817C112.322 102.723 112.669 102.677 113.029 102.677ZM113.279 105.597C112.666 105.623 112.239 105.727 111.999 105.907C111.766 106.08 111.649 106.327 111.649 106.647C111.649 106.927 111.732 107.13 111.899 107.257C112.072 107.383 112.289 107.447 112.549 107.447C112.969 107.447 113.316 107.33 113.589 107.097C113.862 106.863 113.999 106.513 113.999 106.047V105.577L113.279 105.597ZM121.401 108.167H120.331V103.627H118.811C118.745 104.453 118.661 105.163 118.561 105.757C118.468 106.343 118.345 106.82 118.191 107.187C118.045 107.553 117.861 107.823 117.641 107.997C117.428 108.163 117.171 108.247 116.871 108.247C116.765 108.247 116.661 108.237 116.561 108.217C116.461 108.203 116.375 108.18 116.301 108.147V107.337C116.348 107.35 116.398 107.363 116.451 107.377C116.511 107.383 116.571 107.387 116.631 107.387C116.765 107.387 116.885 107.333 116.991 107.227C117.105 107.12 117.205 106.953 117.291 106.727C117.385 106.5 117.468 106.207 117.541 105.847C117.621 105.48 117.688 105.043 117.741 104.537C117.801 104.03 117.855 103.443 117.901 102.777H121.401V108.167ZM125.948 104.947C126.441 104.947 126.848 105.007 127.168 105.127C127.494 105.24 127.738 105.41 127.898 105.637C128.064 105.863 128.148 106.15 128.148 106.497C128.148 106.837 128.071 107.133 127.918 107.387C127.764 107.633 127.524 107.827 127.198 107.967C126.871 108.1 126.451 108.167 125.938 108.167H123.458V102.777H124.518V104.947H125.948ZM127.088 106.537C127.088 106.243 126.981 106.043 126.768 105.937C126.561 105.823 126.261 105.767 125.868 105.767H124.518V107.367H125.888C126.241 107.367 126.528 107.303 126.748 107.177C126.974 107.05 127.088 106.837 127.088 106.537ZM130.914 102.777V104.967H133.574V102.777H134.634V108.167H133.574V105.817H130.914V108.167H129.854V102.777H130.914ZM136.689 108.167V102.777H137.749V104.947H138.939C139.433 104.947 139.839 105.007 140.159 105.127C140.479 105.24 140.716 105.41 140.869 105.637C141.023 105.863 141.099 106.15 141.099 106.497C141.099 106.837 141.023 107.133 140.869 107.387C140.723 107.633 140.489 107.827 140.169 107.967C139.856 108.1 139.443 108.167 138.929 108.167H136.689ZM138.849 107.367C139.203 107.367 139.489 107.307 139.709 107.187C139.936 107.06 140.049 106.843 140.049 106.537C140.049 106.243 139.946 106.043 139.739 105.937C139.533 105.823 139.236 105.767 138.849 105.767H137.749V107.367H138.849ZM141.959 108.167V102.777H143.019V108.167H141.959ZM147.198 102.677C147.671 102.677 148.078 102.777 148.418 102.977C148.758 103.17 149.018 103.45 149.198 103.817C149.384 104.183 149.478 104.617 149.478 105.117V105.697H145.858C145.871 106.25 146.014 106.673 146.288 106.967C146.568 107.26 146.958 107.407 147.458 107.407C147.804 107.407 148.111 107.377 148.378 107.317C148.651 107.25 148.931 107.153 149.218 107.027V107.907C148.951 108.027 148.678 108.117 148.398 108.177C148.124 108.237 147.798 108.267 147.418 108.267C146.898 108.267 146.438 108.163 146.038 107.957C145.638 107.75 145.324 107.443 145.098 107.037C144.878 106.623 144.768 106.117 144.768 105.517C144.768 104.91 144.868 104.397 145.068 103.977C145.274 103.557 145.558 103.237 145.918 103.017C146.284 102.79 146.711 102.677 147.198 102.677ZM147.198 103.497C146.818 103.497 146.511 103.62 146.278 103.867C146.051 104.113 145.918 104.463 145.878 104.917H148.418C148.418 104.637 148.374 104.39 148.288 104.177C148.201 103.963 148.068 103.797 147.888 103.677C147.708 103.557 147.478 103.497 147.198 103.497ZM156.888 102.677C157.535 102.677 158.055 102.91 158.448 103.377C158.848 103.843 159.048 104.54 159.048 105.467C159.048 106.073 158.958 106.587 158.778 107.007C158.598 107.427 158.345 107.743 158.018 107.957C157.691 108.163 157.311 108.267 156.878 108.267C156.605 108.267 156.365 108.233 156.158 108.167C155.951 108.093 155.775 108 155.628 107.887C155.488 107.767 155.365 107.64 155.258 107.507H155.188C155.208 107.627 155.225 107.77 155.238 107.937C155.251 108.097 155.258 108.24 155.258 108.367V110.567H154.198V102.777H155.058L155.208 103.497H155.258C155.365 103.35 155.491 103.213 155.638 103.087C155.785 102.96 155.961 102.86 156.168 102.787C156.375 102.713 156.615 102.677 156.888 102.677ZM156.638 103.547C156.305 103.547 156.038 103.613 155.838 103.747C155.638 103.873 155.491 104.067 155.398 104.327C155.311 104.58 155.265 104.903 155.258 105.297V105.457C155.258 105.87 155.301 106.223 155.388 106.517C155.475 106.803 155.618 107.023 155.818 107.177C156.025 107.323 156.305 107.397 156.658 107.397C156.958 107.397 157.201 107.317 157.388 107.157C157.581 106.99 157.725 106.76 157.818 106.467C157.911 106.173 157.958 105.833 157.958 105.447C157.958 104.86 157.851 104.397 157.638 104.057C157.425 103.717 157.091 103.547 156.638 103.547ZM162.919 102.677C163.392 102.677 163.799 102.777 164.139 102.977C164.479 103.17 164.739 103.45 164.919 103.817C165.106 104.183 165.199 104.617 165.199 105.117V105.697H161.579C161.592 106.25 161.736 106.673 162.009 106.967C162.289 107.26 162.679 107.407 163.179 107.407C163.526 107.407 163.832 107.377 164.099 107.317C164.372 107.25 164.652 107.153 164.939 107.027V107.907C164.672 108.027 164.399 108.117 164.119 108.177C163.846 108.237 163.519 108.267 163.139 108.267C162.619 108.267 162.159 108.163 161.759 107.957C161.359 107.75 161.046 107.443 160.819 107.037C160.599 106.623 160.489 106.117 160.489 105.517C160.489 104.91 160.589 104.397 160.789 103.977C160.996 103.557 161.279 103.237 161.639 103.017C162.006 102.79 162.432 102.677 162.919 102.677ZM162.919 103.497C162.539 103.497 162.232 103.62 161.999 103.867C161.772 104.113 161.639 104.463 161.599 104.917H164.139C164.139 104.637 164.096 104.39 164.009 104.177C163.922 103.963 163.789 103.797 163.609 103.677C163.429 103.557 163.199 103.497 162.919 103.497ZM170.212 102.777H171.372L169.122 105.367L171.562 108.167H170.342L167.982 105.437V108.167H166.922V102.777H167.982V105.397L170.212 102.777ZM177.433 105.467C177.433 105.913 177.373 106.31 177.253 106.657C177.133 107.003 176.963 107.297 176.743 107.537C176.523 107.777 176.256 107.96 175.943 108.087C175.63 108.207 175.276 108.267 174.883 108.267C174.523 108.267 174.19 108.207 173.883 108.087C173.576 107.96 173.31 107.777 173.083 107.537C172.863 107.297 172.69 107.003 172.563 106.657C172.436 106.31 172.373 105.91 172.373 105.457C172.373 104.863 172.473 104.36 172.673 103.947C172.88 103.533 173.173 103.22 173.553 103.007C173.94 102.787 174.393 102.677 174.913 102.677C175.406 102.677 175.84 102.787 176.213 103.007C176.593 103.22 176.89 103.533 177.103 103.947C177.323 104.36 177.433 104.867 177.433 105.467ZM173.463 105.467C173.463 105.867 173.513 106.213 173.613 106.507C173.713 106.793 173.87 107.013 174.083 107.167C174.296 107.32 174.57 107.397 174.903 107.397C175.236 107.397 175.51 107.32 175.723 107.167C175.936 107.013 176.093 106.793 176.193 106.507C176.293 106.213 176.343 105.867 176.343 105.467C176.343 105.053 176.29 104.707 176.183 104.427C176.083 104.147 175.926 103.933 175.713 103.787C175.506 103.633 175.233 103.557 174.893 103.557C174.393 103.557 174.03 103.723 173.803 104.057C173.576 104.39 173.463 104.86 173.463 105.467ZM185.257 102.777V108.167H184.297V104.967C184.297 104.787 184.3 104.607 184.307 104.427C184.32 104.24 184.334 104.063 184.347 103.897H184.317L182.637 108.167H181.787L180.137 103.897H180.097C180.117 104.063 180.13 104.24 180.137 104.427C180.144 104.607 180.147 104.797 180.147 104.997V108.167H179.177V102.777H180.627L182.217 106.907L183.837 102.777H185.257ZM189.451 102.677C189.924 102.677 190.331 102.777 190.671 102.977C191.011 103.17 191.271 103.45 191.451 103.817C191.637 104.183 191.731 104.617 191.731 105.117V105.697H188.111C188.124 106.25 188.267 106.673 188.541 106.967C188.821 107.26 189.211 107.407 189.711 107.407C190.057 107.407 190.364 107.377 190.631 107.317C190.904 107.25 191.184 107.153 191.471 107.027V107.907C191.204 108.027 190.931 108.117 190.651 108.177C190.377 108.237 190.051 108.267 189.671 108.267C189.151 108.267 188.691 108.163 188.291 107.957C187.891 107.75 187.577 107.443 187.351 107.037C187.131 106.623 187.021 106.117 187.021 105.517C187.021 104.91 187.121 104.397 187.321 103.977C187.527 103.557 187.811 103.237 188.171 103.017C188.537 102.79 188.964 102.677 189.451 102.677ZM189.451 103.497C189.071 103.497 188.764 103.62 188.531 103.867C188.304 104.113 188.171 104.463 188.131 104.917H190.671C190.671 104.637 190.627 104.39 190.541 104.177C190.454 103.963 190.321 103.797 190.141 103.677C189.961 103.557 189.731 103.497 189.451 103.497ZM194.513 102.777V104.967H197.173V102.777H198.233V108.167H197.173V105.817H194.513V108.167H193.453V102.777H194.513ZM204.539 102.777V107.327H205.329V110.057H204.339V108.167H200.619V110.057H199.639V107.327H200.069C200.356 106.913 200.596 106.46 200.789 105.967C200.982 105.473 201.129 104.957 201.229 104.417C201.336 103.87 201.399 103.323 201.419 102.777H204.539ZM202.339 103.597C202.299 104.03 202.226 104.473 202.119 104.927C202.019 105.38 201.889 105.813 201.729 106.227C201.576 106.64 201.392 107.007 201.179 107.327H203.499V103.597H202.339ZM208.834 102.677C209.514 102.677 210.02 102.827 210.354 103.127C210.687 103.42 210.854 103.883 210.854 104.517V108.167H210.104L209.894 107.417H209.854C209.7 107.61 209.54 107.77 209.374 107.897C209.214 108.023 209.027 108.117 208.814 108.177C208.607 108.237 208.354 108.267 208.054 108.267C207.734 108.267 207.444 108.21 207.184 108.097C206.93 107.977 206.73 107.797 206.584 107.557C206.437 107.31 206.364 107.003 206.364 106.637C206.364 106.09 206.57 105.673 206.984 105.387C207.404 105.1 208.04 104.943 208.894 104.917L209.814 104.887V104.587C209.814 104.187 209.724 103.907 209.544 103.747C209.364 103.587 209.11 103.507 208.784 103.507C208.504 103.507 208.237 103.547 207.984 103.627C207.73 103.707 207.49 103.803 207.264 103.917L206.924 103.147C207.177 103.013 207.467 102.903 207.794 102.817C208.127 102.723 208.474 102.677 208.834 102.677ZM209.084 105.597C208.47 105.623 208.044 105.727 207.804 105.907C207.57 106.08 207.454 106.327 207.454 106.647C207.454 106.927 207.537 107.13 207.704 107.257C207.877 107.383 208.094 107.447 208.354 107.447C208.774 107.447 209.12 107.33 209.394 107.097C209.667 106.863 209.804 106.513 209.804 106.047V105.577L209.084 105.597ZM218.376 110.057H217.376V108.167H212.886V102.777H213.946V107.317H216.546V102.777H217.606V107.327H218.376V110.057ZM220.79 105.717C220.79 105.797 220.787 105.9 220.78 106.027C220.773 106.153 220.767 106.287 220.76 106.427C220.753 106.56 220.743 106.687 220.73 106.807C220.723 106.92 220.717 107.01 220.71 107.077L223.48 102.777H224.77V108.167H223.77V105.297C223.77 105.17 223.773 105.013 223.78 104.827C223.787 104.64 223.793 104.46 223.8 104.287C223.813 104.107 223.823 103.97 223.83 103.877L221.08 108.167H219.78V102.777H220.79V105.717ZM227.85 105.717C227.85 105.797 227.847 105.9 227.84 106.027C227.833 106.153 227.827 106.287 227.82 106.427C227.813 106.56 227.803 106.687 227.79 106.807C227.783 106.92 227.777 107.01 227.77 107.077L230.54 102.777H231.83V108.167H230.83V105.297C230.83 105.17 230.833 105.013 230.84 104.827C230.847 104.64 230.853 104.46 230.86 104.287C230.873 104.107 230.883 103.97 230.89 103.877L228.14 108.167H226.84V102.777H227.85V105.717Z" fill="white"/>
<g filter="url(#filter0_d_76_2220)">
<path d="M256 55.1667C256 52.4053 258.239 50.1667 261 50.1667H296C298.761 50.1667 301 52.4053 301 55.1667V71.1667H256V55.1667Z" fill="#90476C" shape-rendering="crispEdges"/>
<path d="M266.163 62.6667V61.3067H268.843V62.6667H266.163ZM274.936 64.6667H269.856V63.5167L271.626 61.7267C271.986 61.3534 272.273 61.0467 272.486 60.8067C272.699 60.5667 272.849 60.3567 272.936 60.1767C273.029 59.9901 273.076 59.7934 273.076 59.5867C273.076 59.3334 273.003 59.1501 272.856 59.0367C272.709 58.9167 272.519 58.8567 272.286 58.8567C272.039 58.8567 271.793 58.9201 271.546 59.0467C271.299 59.1734 271.033 59.3567 270.746 59.5967L269.816 58.5067C270.023 58.3201 270.243 58.1467 270.476 57.9867C270.716 57.8201 270.993 57.6867 271.306 57.5867C271.619 57.4801 271.999 57.4267 272.446 57.4267C272.926 57.4267 273.336 57.5134 273.676 57.6867C274.023 57.8534 274.289 58.0834 274.476 58.3767C274.669 58.6634 274.766 58.9934 274.766 59.3667C274.766 59.6667 274.723 59.9467 274.636 60.2067C274.549 60.4601 274.419 60.7067 274.246 60.9467C274.079 61.1801 273.869 61.4234 273.616 61.6767C273.363 61.9301 273.076 62.2067 272.756 62.5067L272.016 63.1867V63.2467H274.936V64.6667ZM281.107 61.0967C281.107 61.6767 281.061 62.1934 280.967 62.6467C280.881 63.0934 280.737 63.4767 280.537 63.7967C280.337 64.1101 280.077 64.3501 279.757 64.5167C279.437 64.6834 279.044 64.7667 278.577 64.7667C277.991 64.7667 277.511 64.6201 277.137 64.3267C276.764 64.0334 276.487 63.6134 276.307 63.0667C276.134 62.5201 276.047 61.8634 276.047 61.0967C276.047 60.3234 276.127 59.6634 276.287 59.1167C276.447 58.5701 276.714 58.1501 277.087 57.8567C277.461 57.5634 277.957 57.4167 278.577 57.4167C279.157 57.4167 279.634 57.5634 280.007 57.8567C280.381 58.1501 280.657 58.5701 280.837 59.1167C281.017 59.6634 281.107 60.3234 281.107 61.0967ZM277.737 61.0967C277.737 61.6101 277.761 62.0367 277.807 62.3767C277.861 62.7101 277.947 62.9634 278.067 63.1367C278.187 63.3101 278.357 63.3967 278.577 63.3967C278.797 63.3967 278.967 63.3134 279.087 63.1467C279.207 62.9734 279.291 62.7167 279.337 62.3767C279.391 62.0367 279.417 61.6101 279.417 61.0967C279.417 60.5901 279.391 60.1667 279.337 59.8267C279.291 59.4801 279.207 59.2201 279.087 59.0467C278.967 58.8734 278.797 58.7867 278.577 58.7867C278.357 58.7867 278.187 58.8734 278.067 59.0467C277.947 59.2201 277.861 59.4767 277.807 59.8167C277.761 60.1567 277.737 60.5834 277.737 61.0967ZM283.859 57.4267C284.425 57.4267 284.862 57.6234 285.169 58.0167C285.482 58.4034 285.639 58.9501 285.639 59.6567C285.639 60.3634 285.492 60.9167 285.199 61.3167C284.905 61.7101 284.459 61.9067 283.859 61.9067C283.499 61.9067 283.189 61.8167 282.929 61.6367C282.669 61.4567 282.469 61.2001 282.329 60.8667C282.189 60.5267 282.119 60.1234 282.119 59.6567C282.119 58.9501 282.262 58.4034 282.549 58.0167C282.835 57.6234 283.272 57.4267 283.859 57.4267ZM283.879 58.5267C283.725 58.5267 283.615 58.6234 283.549 58.8167C283.489 59.0101 283.459 59.2934 283.459 59.6667C283.459 60.0334 283.489 60.3201 283.549 60.5267C283.615 60.7267 283.725 60.8267 283.879 60.8267C284.032 60.8267 284.139 60.7267 284.199 60.5267C284.265 60.3267 284.299 60.0401 284.299 59.6667C284.299 59.2934 284.265 59.0101 284.199 58.8167C284.132 58.6234 284.025 58.5267 283.879 58.5267ZM289.099 57.5267L285.139 64.6667H283.839L287.799 57.5267H289.099ZM289.059 60.2767C289.432 60.2767 289.752 60.3667 290.019 60.5467C290.285 60.7201 290.489 60.9734 290.629 61.3067C290.769 61.6334 290.839 62.0334 290.839 62.5067C290.839 63.2134 290.692 63.7667 290.399 64.1667C290.105 64.5601 289.659 64.7567 289.059 64.7567C288.699 64.7567 288.385 64.6667 288.119 64.4867C287.859 64.3067 287.659 64.0501 287.519 63.7167C287.385 63.3767 287.319 62.9734 287.319 62.5067C287.319 61.8001 287.462 61.2534 287.749 60.8667C288.042 60.4734 288.479 60.2767 289.059 60.2767ZM289.079 61.3667C288.925 61.3667 288.815 61.4667 288.749 61.6667C288.689 61.8601 288.659 62.1434 288.659 62.5167C288.659 62.8834 288.689 63.1667 288.749 63.3667C288.815 63.5667 288.925 63.6667 289.079 63.6667C289.225 63.6667 289.332 63.5701 289.399 63.3767C289.465 63.1767 289.499 62.8901 289.499 62.5167C289.499 62.1434 289.465 61.8601 289.399 61.6667C289.332 61.4667 289.225 61.3667 289.079 61.3667Z" fill="white"/>
</g>
<defs>
<filter id="filter0_d_76_2220" x="252" y="50.1667" width="53" height="29" filterUnits="userSpaceOnUse" color-interpolation-filters="sRGB">
<feFlood flood-opacity="0" result="BackgroundImageFix"/>
<feColorMatrix in="SourceAlpha" type="matrix" values="0 0 0 0 0 0 0 0 0 0 0 0 0 0 0 0 0 0 127 0" result="hardAlpha"/>
<feOffset dy="4"/>
<feGaussianBlur stdDeviation="2"/>
<feComposite in2="hardAlpha" operator="out"/>
<feColorMatrix type="matrix" values="0 0 0 0 0 0 0 0 0 0 0 0 0 0 0 0 0 0 0.25 0"/>
<feBlend mode="normal" in2="BackgroundImageFix" result="effect1_dropShadow_76_2220"/>
<feBlend mode="normal" in="SourceGraphic" in2="effect1_dropShadow_76_2220" result="shape"/>
</filter>
</defs>
</svg>
