<svg width="338" height="54" viewBox="0 0 338 54" fill="none" xmlns="http://www.w3.org/2000/svg">
<rect width="338" height="54" rx="12" fill="#150513"/>
<path d="M123.5 34V20L134.5 27L123.5 34Z" fill="#FFF0E8"/>
<path d="M153.185 33.225C152.105 33.225 151.173 32.99 150.388 32.52C149.608 32.05 149.005 31.3925 148.58 30.5475C148.16 29.7025 147.95 28.72 147.95 27.6C147.95 26.48 148.16 25.4975 148.58 24.6525C149.005 23.8075 149.608 23.15 150.388 22.68C151.173 22.21 152.105 21.975 153.185 21.975C154.425 21.975 155.465 22.2825 156.305 22.8975C157.15 23.5125 157.745 24.345 158.09 25.395L156.035 25.965C155.835 25.31 155.498 24.8025 155.023 24.4425C154.548 24.0775 153.935 23.895 153.185 23.895C152.5 23.895 151.928 24.0475 151.468 24.3525C151.013 24.6575 150.67 25.0875 150.44 25.6425C150.21 26.1975 150.095 26.85 150.095 27.6C150.095 28.35 150.21 29.0025 150.44 29.5575C150.67 30.1125 151.013 30.5425 151.468 30.8475C151.928 31.1525 152.5 31.305 153.185 31.305C153.935 31.305 154.548 31.1225 155.023 30.7575C155.498 30.3925 155.835 29.885 156.035 29.235L158.09 29.805C157.745 30.855 157.15 31.6875 156.305 32.3025C155.465 32.9175 154.425 33.225 153.185 33.225ZM158.991 33V31.305C159.286 31.36 159.514 31.3575 159.674 31.2975C159.834 31.2325 159.954 31.1075 160.034 30.9225C160.119 30.7325 160.191 30.475 160.251 30.15C160.331 29.72 160.401 29.2175 160.461 28.6425C160.526 28.0675 160.581 27.46 160.626 26.82C160.671 26.175 160.711 25.535 160.746 24.9H166.866V33H164.826V26.805H162.531C162.511 27.065 162.484 27.375 162.449 27.735C162.419 28.095 162.384 28.47 162.344 28.86C162.309 29.245 162.269 29.615 162.224 29.97C162.179 30.32 162.131 30.62 162.081 30.87C161.961 31.505 161.784 32.005 161.549 32.37C161.314 32.735 160.991 32.9675 160.581 33.0675C160.171 33.1725 159.641 33.15 158.991 33ZM170.005 36.6L171.565 32.31L171.595 33.57L168.07 24.9H170.185L172.555 31.035H172.075L174.43 24.9H176.47L171.895 36.6H170.005ZM177.51 33V24.9H179.46V31.2H181.5V24.9H183.45V31.2H185.49V24.9H187.44V33H177.51ZM191.786 33.225C191.206 33.225 190.714 33.115 190.309 32.895C189.909 32.67 189.604 32.3725 189.394 32.0025C189.189 31.6275 189.086 31.215 189.086 30.765C189.086 30.39 189.144 30.0475 189.259 29.7375C189.374 29.4275 189.559 29.155 189.814 28.92C190.074 28.68 190.421 28.48 190.856 28.32C191.156 28.21 191.514 28.1125 191.929 28.0275C192.344 27.9425 192.814 27.8625 193.339 27.7875C193.864 27.7075 194.441 27.62 195.071 27.525L194.336 27.93C194.336 27.45 194.221 27.0975 193.991 26.8725C193.761 26.6475 193.376 26.535 192.836 26.535C192.536 26.535 192.224 26.6075 191.899 26.7525C191.574 26.8975 191.346 27.155 191.216 27.525L189.371 26.94C189.576 26.27 189.961 25.725 190.526 25.305C191.091 24.885 191.861 24.675 192.836 24.675C193.551 24.675 194.186 24.785 194.741 25.005C195.296 25.225 195.716 25.605 196.001 26.145C196.161 26.445 196.256 26.745 196.286 27.045C196.316 27.345 196.331 27.68 196.331 28.05V33H194.546V31.335L194.801 31.68C194.406 32.225 193.979 32.62 193.519 32.865C193.064 33.105 192.486 33.225 191.786 33.225ZM192.221 31.62C192.596 31.62 192.911 31.555 193.166 31.425C193.426 31.29 193.631 31.1375 193.781 30.9675C193.936 30.7975 194.041 30.655 194.096 30.54C194.201 30.32 194.261 30.065 194.276 29.775C194.296 29.48 194.306 29.235 194.306 29.04L194.906 29.19C194.301 29.29 193.811 29.375 193.436 29.445C193.061 29.51 192.759 29.57 192.529 29.625C192.299 29.68 192.096 29.74 191.921 29.805C191.721 29.885 191.559 29.9725 191.434 30.0675C191.314 30.1575 191.224 30.2575 191.164 30.3675C191.109 30.4775 191.081 30.6 191.081 30.735C191.081 30.92 191.126 31.08 191.216 31.215C191.311 31.345 191.444 31.445 191.614 31.515C191.784 31.585 191.986 31.62 192.221 31.62ZM200.261 33V26.7H197.606V24.9H204.956V26.7H202.301V33H200.261ZM206.367 33V24.9H208.407V27.48H209.712C209.937 27.48 210.2 27.485 210.5 27.495C210.8 27.505 211.047 27.53 211.242 27.57C211.717 27.675 212.117 27.8425 212.442 28.0725C212.767 28.3025 213.012 28.6 213.177 28.965C213.347 29.325 213.432 29.755 213.432 30.255C213.432 30.975 213.245 31.555 212.87 31.995C212.5 32.43 211.962 32.73 211.257 32.895C211.062 32.94 210.812 32.97 210.507 32.985C210.202 32.995 209.937 33 209.712 33H206.367ZM208.407 31.425H209.937C210.027 31.425 210.127 31.42 210.237 31.41C210.347 31.4 210.457 31.38 210.567 31.35C210.777 31.29 210.962 31.1575 211.122 30.9525C211.282 30.7475 211.362 30.515 211.362 30.255C211.362 29.97 211.28 29.7275 211.115 29.5275C210.95 29.3225 210.757 29.19 210.537 29.13C210.432 29.1 210.327 29.08 210.222 29.07C210.117 29.06 210.022 29.055 209.937 29.055H208.407V31.425Z" fill="#FFF0E8"/>
</svg>
