<svg width="31" height="32" viewBox="0 0 31 32" fill="none" xmlns="http://www.w3.org/2000/svg">
<path d="M7.10381 13.7917C7.192 13.8838 7.29792 13.9571 7.41519 14.0071C7.53246 14.0572 7.65866 14.083 7.78617 14.083C7.91368 14.083 8.03987 14.0572 8.15715 14.0071C8.27442 13.9571 8.38034 13.8838 8.46853 13.7917L14.2979 7.77668C15.994 6.02937 15.8946 3.13123 14.0021 1.51767C12.3518 0.111382 9.89651 0.364442 8.38176 1.92739L7.78768 2.53835L7.19419 1.92739C5.68186 0.364442 3.22356 0.111382 1.57325 1.51767C-0.319274 3.13123 -0.415075 6.02756 1.27199 7.77668L7.10381 13.7917ZM15.7753 19.8464H12.8832L12.4566 18.9884C12.3387 18.6737 12.1274 18.4024 11.8512 18.211C11.5749 18.0195 11.2467 17.917 10.9106 17.9171H6.58986C6.25372 17.917 5.92555 18.0195 5.64926 18.211C5.37297 18.4024 5.16172 18.6737 5.04379 18.9884L4.62202 19.8464H1.72991C1.51261 19.8463 1.29743 19.8891 1.09665 19.9722C0.895881 20.0553 0.713455 20.1772 0.559802 20.3309C0.406149 20.4845 0.284281 20.6669 0.201161 20.8677C0.118041 21.0685 0.0752994 21.2837 0.0753785 21.501V29.7706C0.0752994 29.9877 0.117986 30.2027 0.201 30.4033C0.284014 30.604 0.40573 30.7863 0.5592 30.9398C0.712669 31.0934 0.894886 31.2153 1.09545 31.2984C1.29601 31.3816 1.51098 31.4244 1.7281 31.4245H15.7753C16.2138 31.4242 16.6341 31.2498 16.944 30.9397C17.254 30.6295 17.428 30.209 17.428 29.7706V21.501C17.4282 21.0624 17.2542 20.6418 16.9443 20.3315C16.6343 20.0212 16.2139 19.8467 15.7753 19.8464ZM8.75171 28.7734C8.13204 28.7734 7.52628 28.5897 7.01104 28.2454C6.49581 27.9011 6.09423 27.4118 5.85709 26.8393C5.61995 26.2668 5.5579 25.6368 5.67879 25.0291C5.79969 24.4213 6.09809 23.863 6.53626 23.4248C6.97444 22.9867 7.53271 22.6883 8.14047 22.5674C8.74824 22.4465 9.3782 22.5085 9.95071 22.7457C10.5232 22.9828 11.0125 23.3844 11.3568 23.8996C11.7011 24.4149 11.8848 25.0206 11.8848 25.6403C11.8848 26.4712 11.5547 27.2682 10.9672 27.8557C10.3796 28.4433 9.58267 28.7734 8.75171 28.7734ZM30.1654 21.7902H26.5153L27.8625 18.7324C27.9891 18.3317 27.6258 17.9364 27.1287 17.9364H22.5742C22.1946 17.9364 21.8717 18.1714 21.821 18.4847L20.8088 24.9275C20.7486 25.3071 21.1028 25.6439 21.562 25.6439H25.3163L23.8582 30.6448C23.7443 31.0455 24.1112 31.4221 24.5951 31.4221C24.722 31.4254 24.8479 31.3985 24.9623 31.3435C25.0767 31.2885 25.1764 31.207 25.253 31.1058L30.8203 22.7361C31.1144 22.3198 30.7504 21.7902 30.1654 21.7902ZM28.8808 0.595208L19.9291 1.97137C19.047 2.10694 18.3921 2.92035 18.3921 3.87896V10.3121C18.0748 10.2469 17.7519 10.2126 17.428 10.2097C15.2981 10.2097 13.5719 11.5039 13.5719 13.1018C13.5719 14.6997 15.2981 15.9939 17.428 15.9939C19.5489 15.9939 21.2679 14.7093 21.2842 13.1223V6.58007L28.0325 5.54253V8.38523C27.7152 8.32004 27.3923 8.28574 27.0684 8.2828C24.9385 8.2828 23.2123 9.57702 23.2123 11.1749C23.2123 12.7728 24.9385 14.067 27.0684 14.067C29.1893 14.067 30.9083 12.7824 30.9246 11.1954V2.5034C30.9246 1.32968 29.9605 0.429514 28.8808 0.595208Z" fill="#FFFEFE"/>
</svg>
